<svg xmlns="http://www.w3.org/2000/svg" fill="none" viewBox="0 0 24 24" height="24" width="24">
<path fill="#5CFFB8" d="M7.5 20.25H3C2.60218 20.25 2.22064 20.092 1.93934 19.8107C1.65804 19.5294 1.5 19.1478 1.5 18.75V16.5C1.5 16.1022 1.65804 15.7206 1.93934 15.4393C2.22064 15.158 2.60218 15 3 15H9.75V16.5H3V18.75H7.5V20.25Z"></path>
<path fill="#5CFFB8" d="M12.75 13.5H3C2.60218 13.5 2.22064 13.342 1.93934 13.0607C1.65804 12.7794 1.5 12.3978 1.5 12V9.75C1.5 9.35218 1.65804 8.97064 1.93934 8.68934C2.22064 8.40804 2.60218 8.25 3 8.25H16.5V9.75H3V12H12.75V13.5Z"></path>
<path fill="#5CFFB8" d="M16.5 6.75H3C2.60218 6.75 2.22064 6.59196 1.93934 6.31066C1.65804 6.02936 1.5 5.64782 1.5 5.25V3C1.5 2.60218 1.65804 2.22064 1.93934 1.93934C2.22064 1.65804 2.60218 1.5 3 1.5H16.5C16.8978 1.5 17.2794 1.65804 17.5607 1.93934C17.842 2.22064 18 2.60218 18 3V5.25C18 5.64782 17.842 6.02936 17.5607 6.31066C17.2794 6.59196 16.8978 6.75 16.5 6.75ZM3 5.25H16.5V3H3V5.25Z"></path>
<path fill="#5CFFB8" d="M18.75 15.75C19.1642 15.75 19.5 15.4142 19.5 15C19.5 14.5858 19.1642 14.25 18.75 14.25C18.3358 14.25 18 14.5858 18 15C18 15.4142 18.3358 15.75 18.75 15.75Z"></path>
<path fill="#5CFFB8" d="M14.5606 22.5H11.25V19.1893L15.0253 15.414C15.0086 15.2766 15.0001 15.1384 15 15C14.9995 14.2405 15.2297 13.4988 15.6599 12.873C16.0902 12.2472 16.7004 11.7668 17.4097 11.4954C18.119 11.2239 18.894 11.1742 19.6321 11.3529C20.3703 11.5315 21.0368 11.9301 21.5435 12.4959C22.0501 13.0616 22.3731 13.7678 22.4696 14.5211C22.5661 15.2744 22.4316 16.0393 22.0839 16.7145C21.7362 17.3897 21.1917 17.9434 20.5224 18.3024C19.8532 18.6613 19.0907 18.8086 18.3359 18.7247L14.5606 22.5ZM12.75 21H13.9394L17.844 17.0953L18.2486 17.1881C18.7308 17.303 19.2373 17.2574 19.6912 17.0581C20.145 16.8589 20.5214 16.517 20.7633 16.0843C21.0051 15.6516 21.099 15.1518 21.0309 14.6608C20.9627 14.1699 20.7362 13.7146 20.3857 13.3641C20.0352 13.0136 19.5799 12.7871 19.0889 12.719C18.5979 12.6509 18.0982 12.745 17.6655 12.9868C17.2328 13.2286 16.8909 13.6051 16.6918 14.059C16.4926 14.5129 16.447 15.0194 16.5619 15.5015L16.6546 15.906L12.75 19.8107V21Z"></path>
</svg>
