<svg xmlns="http://www.w3.org/2000/svg" fill="none" viewBox="0 0 86 40" height="40" width="86">
<path fill="black" d="M5.90006 7.59535C8.7086 7.59535 10.6214 9.381 10.6214 11.5762V11.818H8.73313V11.3106C8.73313 10.2252 8.22461 9.52566 6.96554 9.52566H4.66557C4.15856 9.52664 3.6726 9.72775 3.31409 10.0849C2.95559 10.4421 2.75375 10.9263 2.75277 11.4315V14.8574C2.75277 15.9182 3.60009 16.7869 4.66631 16.7869H6.96554C8.24918 16.7869 8.75775 16.2321 8.75775 14.9776V14.4954H10.646V14.7847C10.646 16.7632 8.80539 18.7165 5.90006 18.7165C2.99475 18.7165 0.597977 16.2321 0.597977 13.1444C0.597233 10.1043 2.99549 7.59535 5.90006 7.59535ZM1.32319 28.4386L3.21217 28.4148V29.2346C3.21217 29.7894 3.59934 30.1753 4.18011 30.1753H7.81212C8.39288 30.1753 8.78009 29.7894 8.78009 29.2346V28.9934C8.78009 28.4386 8.51425 28.2694 8.1025 28.1492L3.60009 26.7983C2.51078 26.4601 1.51752 25.7122 1.51752 24.1447V24.0957C1.51752 22.3353 3.18834 21.0319 5.97303 21.0319C8.99973 21.0319 10.573 22.48 10.573 24.5542V24.7234H8.68474V23.9274C8.68474 23.3717 8.3214 22.9859 7.71681 22.9859H4.27764C3.69688 22.9859 3.3097 23.3717 3.3097 23.9266V24.3368C3.3097 24.8191 3.55169 25.0364 4.10862 25.2056L8.10325 26.3873C9.62964 26.8458 10.573 27.5217 10.573 29.0899C10.573 30.8266 8.90294 32.1293 6.06982 32.1293C2.89796 32.1293 1.32394 30.5848 1.32394 28.6069L1.32319 28.4386ZM13.4783 13.1437C13.4783 10.1043 15.8759 7.5946 18.7804 7.5946C21.7103 7.5946 24.0832 10.1043 24.0832 13.1437C24.0832 16.2313 21.7103 18.7165 18.7804 18.7165C15.8751 18.7165 13.4783 16.2313 13.4783 13.1437ZM18.7566 21.0815C21.6864 21.0815 24.0348 23.5661 24.0348 26.6054C24.0348 27.8354 23.5025 29.1381 22.6551 30.1278C22.606 30.176 22.606 30.2724 22.6551 30.3206L23.9135 31.6953C23.938 31.7198 23.938 31.7673 23.938 31.7917C23.938 31.8637 23.8896 31.9364 23.7928 31.9364H18.7566C15.8505 31.9364 13.4775 29.4512 13.4775 26.6054C13.4783 23.5661 15.8512 21.0815 18.7566 21.0815ZM17.4975 30.0306H20.1854L18.7327 28.3666L19.9189 27.3057L21.2992 28.8006C21.369 28.8739 21.4646 28.9173 21.5658 28.9215C21.6137 28.9223 21.6614 28.9135 21.7058 28.8956C21.7502 28.8777 21.7906 28.851 21.8245 28.8172C21.8584 28.7835 21.8851 28.7433 21.9032 28.6989C21.9211 28.6547 21.93 28.6073 21.9292 28.5595V24.8925C21.9292 23.8317 21.0819 22.9621 20.0157 22.9621H17.499C16.4327 22.9621 15.5854 23.8309 15.5854 24.8925V28.101C15.5847 29.1619 16.432 30.0306 17.4975 30.0306ZM17.5459 16.7869H20.0402C21.1049 16.7869 21.953 15.9182 21.953 14.8566V11.4308C21.952 10.9255 21.7501 10.4412 21.3914 10.0839C21.0327 9.72672 20.5466 9.5257 20.0394 9.52492H17.5459C17.0388 9.5259 16.5527 9.72711 16.1941 10.0845C15.8356 10.4418 15.6339 10.9262 15.6331 11.4315V14.8566C15.6331 15.9175 16.4796 16.7869 17.5459 16.7869ZM27.4487 7.81272H29.0465L33.2355 13.9886C33.429 14.278 33.671 14.3989 33.8892 14.3989C34.1796 14.3989 34.4223 14.1815 34.4223 13.7958L34.3977 7.81272H36.1892V18.4992H34.5913L30.3547 12.275C30.185 12.0094 29.943 11.8892 29.7248 11.8892C29.4344 11.8892 29.1924 12.131 29.1924 12.4923V18.4999H27.4487V7.81272ZM38.9501 7.81272H49.1432V9.26008H46.0198C45.3905 9.26008 44.9304 9.71854 44.9304 10.3454V18.4992H43.1867V10.3462C43.1867 9.71854 42.7265 9.26008 42.0973 9.26008H38.9493V7.81346L38.9501 7.81272ZM52.1937 7.81272H59.7966V9.26008H55.003C54.3731 9.26008 53.913 9.71854 53.913 10.3454V11.1904C53.913 11.8172 54.3731 12.2757 55.003 12.2757H59.1428V13.6259H53.9368V17.0525H60.0631V18.4992H52.193V7.81346L52.1937 7.81272ZM52.1937 21.2492H57.3998C59.2396 21.2492 60.4018 22.6002 60.4018 24.0957C60.4018 25.1091 59.8687 25.7367 59.5054 26.0743C59.3364 26.2427 59.2396 26.3636 59.2396 26.5082C59.2396 26.6292 59.3364 26.7738 59.4816 26.894C59.9655 27.2798 60.2075 27.7383 60.2075 28.4623V31.9357H58.4407L58.4645 28.4134C58.4645 27.8347 58.0773 27.4489 57.4966 27.4489H54.8809C54.3239 27.4489 53.9368 27.8347 53.9368 28.4134V31.9357H52.1937V21.2492ZM54.9301 26.0988H56.5033C57.6171 26.0988 58.4884 25.5683 58.4884 24.3376C58.4884 23.1803 57.6171 22.6973 56.5033 22.6973H54.9307C54.3738 22.6973 53.9375 23.1313 53.9375 23.71V25.0853C53.9375 25.6403 54.3731 26.0988 54.9301 26.0988ZM64.252 7.81272H65.8499L70.0381 13.9886C70.2316 14.278 70.4744 14.3989 70.6918 14.3989C70.9822 14.3989 71.2249 14.1815 71.2249 13.7958L71.1997 7.81272H72.9911V18.4992H71.3932L67.1566 12.275C66.9868 12.0094 66.7449 11.8892 66.5267 11.8892C66.2364 11.8892 65.9944 12.131 65.9944 12.4923V18.4999H64.2505V7.81272H64.252ZM75.6797 7.81272H85.9705V9.26008H82.7494C82.1202 9.26008 81.6601 9.71854 81.6601 10.3454V18.4992H79.9171V10.3462C79.9171 9.71854 79.4562 9.26008 78.827 9.26008H75.679V7.81346L75.6797 7.81272ZM64.2513 21.25H71.8549V22.6973H67.0613C66.4314 22.6973 65.9713 23.1558 65.9713 23.7834V24.6277C65.9713 25.2546 66.4314 25.713 67.0613 25.713H71.2011V27.0639H65.9951V30.4898H72.1207V31.9364H64.2528V21.25H64.2513ZM44.9297 21.2507H43.2351L38.8049 31.9372H40.6439L41.7578 29.2353H46.4069L47.5201 31.9372H49.3606L44.9297 21.2507ZM42.3148 27.8844L43.55 24.7004C43.792 24.0972 44.3728 24.0972 44.6148 24.7004L45.85 27.8844H42.3148ZM27.4494 21.25H29.1917V28.5113C29.1917 29.6931 30.1604 30.1753 30.9348 30.1753H32.5334C33.5258 30.1753 34.4461 29.6449 34.4461 28.5113V21.25H36.1885V28.222C36.1885 30.3689 34.4938 32.1055 31.8067 32.1055C29.1188 32.1055 27.4487 30.3689 27.4487 28.222L27.4494 21.25Z"></path>
</svg>
