<svg xmlns="http://www.w3.org/2000/svg" fill="none" viewBox="0 0 107 14" height="14" width="107">
<path fill="#0D0D0D" d="M5.10563 13.882V1.3764H0.268555V0.117977H11.3978V1.3764H6.56069V13.882H5.10563Z"></path>
<path fill="#0D0D0D" d="M29.0332 0.117977H30.4685V13.882H29.0332V0.117977ZM20.4208 13.882H18.9657V0.117977H20.4208V13.882ZM29.1708 7.5309H20.2635V6.25281H29.1708V7.5309Z"></path>
<path fill="#0D0D0D" d="M38.0023 13.882L44.2944 0.117977H45.7298L52.0219 13.882H50.4882L44.7073 0.963484H45.2972L39.5163 13.882H38.0023ZM40.4798 10.2051L40.9124 9.02528H48.9152L49.3478 10.2051H40.4798Z"></path>
<path fill="#0D0D0D" d="M61.5252 13.882V1.3764H56.6881V0.117977H67.8173V1.3764H62.9802V13.882H61.5252Z"></path>
<path fill="#0D0D0D" d="M81.1708 14C80.1352 14 79.1783 13.8296 78.3 13.4888C77.4217 13.1348 76.6614 12.6433 76.0191 12.014C75.3768 11.3848 74.8721 10.6442 74.505 9.79214C74.1511 8.94008 73.9741 8.00936 73.9741 7C73.9741 5.99064 74.1511 5.05993 74.505 4.20787C74.8721 3.3558 75.3768 2.61517 76.0191 1.98596C76.6745 1.35674 77.4414 0.871723 78.3196 0.530899C79.1979 0.176966 80.1548 0 81.1904 0C82.1867 0 83.1239 0.170412 84.0022 0.511236C84.8805 0.838951 85.6211 1.33708 86.2241 2.00562L85.3 2.92977C84.7363 2.353 84.1137 1.94008 83.432 1.69101C82.7504 1.42884 82.0163 1.29775 81.2298 1.29775C80.4039 1.29775 79.6371 1.44195 78.9292 1.73034C78.2213 2.00562 77.6052 2.40543 77.0809 2.92977C76.5565 3.44101 76.1436 4.04401 75.8421 4.73876C75.5537 5.42041 75.4095 6.17416 75.4095 7C75.4095 7.82584 75.5537 8.58614 75.8421 9.2809C76.1436 9.96255 76.5565 10.5655 77.0809 11.0899C77.6052 11.6011 78.2213 12.0009 78.9292 12.2893C79.6371 12.5646 80.4039 12.7022 81.2298 12.7022C82.0163 12.7022 82.7504 12.5712 83.432 12.309C84.1137 12.0468 84.7363 11.6273 85.3 11.0506L86.2241 11.9747C85.6211 12.6433 84.8805 13.1479 84.0022 13.4888C83.1239 13.8296 82.1801 14 81.1708 14Z"></path>
<path fill="#0D0D0D" d="M104.637 0.117977H106.072V13.882H104.637V0.117977ZM96.0245 13.882H94.5694V0.117977H96.0245V13.882ZM104.774 7.5309H95.8672V6.25281H104.774V7.5309Z"></path>
</svg>
