<svg xmlns="http://www.w3.org/2000/svg" fill="none" viewBox="0 0 105 40" height="40" width="105">
<path fill="black" d="M19.8604 29.7019C19.8932 29.7019 19.9072 29.7429 19.8809 29.7634C17.7361 31.4109 15.1064 32.3023 12.4019 32.2985C9.69725 32.3029 7.06732 31.4114 4.92282 29.7634C4.89659 29.7437 4.91135 29.7019 4.94332 29.7019H19.8604ZM23.0678 26.1272C22.6382 26.8733 22.1332 27.5702 21.5617 28.2072C21.551 28.219 21.538 28.2285 21.5234 28.235C21.5089 28.2415 21.4932 28.2449 21.4772 28.2449H3.32732C3.31119 28.2449 3.29527 28.2414 3.28058 28.2348C3.26589 28.2281 3.25276 28.2185 3.24205 28.2064C2.66879 27.5675 2.16399 26.8704 1.73591 26.1263C1.73209 26.1194 1.73013 26.1116 1.73022 26.1037C1.7303 26.0958 1.73242 26.0881 1.73638 26.0812C1.74034 26.0744 1.746 26.0687 1.75281 26.0646C1.75962 26.0606 1.76736 26.0584 1.77526 26.0583H23.0285C23.0637 26.0583 23.0859 26.0968 23.0678 26.1272ZM24.4567 22.445C24.3117 23.1612 24.1032 23.8631 23.8336 24.5423C23.827 24.5593 23.8154 24.5739 23.8003 24.5841C23.7852 24.5944 23.7674 24.5998 23.7492 24.5997H1.05458C1.03635 24.5998 1.01853 24.5944 1.00345 24.5841C0.988375 24.5739 0.976758 24.5593 0.97013 24.5423C0.700528 23.8631 0.491998 23.1612 0.347013 22.445C0.345824 22.4385 0.34607 22.4318 0.347735 22.4253C0.349399 22.4189 0.352441 22.4129 0.356652 22.4077C0.360862 22.4026 0.366139 22.3984 0.372119 22.3955C0.378099 22.3926 0.384639 22.391 0.391287 22.3909H24.4133C24.442 22.3909 24.4633 22.4172 24.4575 22.445M12.3199 7.70175C19.1496 7.65666 24.7002 13.1803 24.7002 20.0001C24.7002 20.3002 24.6898 20.5973 24.6691 20.8913C24.6683 20.9028 24.6632 20.9135 24.6548 20.9214C24.6465 20.9293 24.6355 20.9338 24.624 20.934H0.180575C0.169087 20.9338 0.158083 20.9293 0.149734 20.9214C0.141386 20.9135 0.1363 20.9028 0.135481 20.8913C0.114327 20.5986 0.103661 20.3051 0.103505 20.0116C0.0977658 13.3196 5.62793 7.74603 12.3199 7.70175Z"></path>
<path fill="black" d="M32.0424 12.5662H38.7958C42.004 12.5662 43.5446 14.0469 43.5446 16.3967C43.5446 17.9414 42.7001 19.0638 41.5195 19.5918C42.9764 20.0141 44.1571 21.1578 44.1571 23.0395C44.1571 25.7254 42.3008 27.2504 38.795 27.2504H32.0424V12.5662ZM38.0358 14.9996H35.0596V18.6391H38.0358C39.66 18.6391 40.4635 18.1529 40.4635 16.8189C40.4635 15.4858 39.6616 14.9996 38.0358 14.9996ZM38.5023 20.9446H35.0637V24.817H38.5023C40.1708 24.817 41.0767 24.289 41.0767 22.8919C41.0767 21.4948 40.1683 20.9446 38.5023 20.9446ZM52.1887 27.225V25.5877C51.4246 26.8257 49.9791 27.4341 48.341 27.4341C46.3011 27.4341 44.708 26.3436 44.708 24.3701C44.708 22.5237 46.1117 21.4735 48.1713 21.1152L51.9969 20.465V20.2141C51.9969 19.0818 51.1458 18.5776 49.9348 18.5776C48.6591 18.5776 48.0425 19.145 47.9589 20.0264H45.0901C45.1967 17.8028 46.9824 16.6041 49.9373 16.6041C53.1882 16.6041 54.8034 17.9274 54.8034 20.697V27.225H52.1887ZM51.9993 22.9009V22.4188L49.1297 22.923C47.9835 23.1132 47.4506 23.4469 47.4506 24.2455C47.4506 24.9375 48.0671 25.3786 49.1305 25.3786C50.512 25.3786 51.9993 24.4964 51.9993 22.9009ZM60.5229 16.6041C63.0498 16.6041 65.2209 17.6733 65.2619 19.9624H62.439C62.3759 19.186 61.6814 18.5768 60.4385 18.5768C59.4259 18.5768 58.7101 18.9957 58.7101 19.6262C58.7101 20.2576 59.1939 20.4445 60.1007 20.6126L62.4808 21.0758C64.3772 21.4308 65.4496 22.3983 65.4496 24.0766C65.4496 26.1116 63.7853 27.4341 60.7107 27.4341C57.6369 27.4341 55.8266 26.0706 55.7216 23.8667H58.6683C58.7511 24.7481 59.4259 25.4614 60.8164 25.4614C62.102 25.4614 62.7104 24.9793 62.7104 24.371C62.7104 23.7626 62.2266 23.5109 61.3198 23.3428L58.9397 22.9017C57.0458 22.5467 55.9709 21.5604 55.9709 19.8796C55.9709 17.8659 57.8033 16.6066 60.518 16.6066L60.5229 16.6041ZM71.2864 16.6041C74.6513 16.6041 76.6469 18.5989 76.6469 21.9547V22.8583H68.7005C68.7645 24.1389 69.7303 25.3343 71.2651 25.3343C72.3802 25.3343 73.3042 24.7891 73.5559 23.8667H76.4977C76.0369 26.1755 73.9535 27.4341 71.2627 27.4341C68.152 27.4341 65.8169 25.5032 65.8169 22.0203C65.8169 18.767 67.9396 16.6066 71.2815 16.6066L71.2864 16.6041ZM73.7658 20.9274C73.7018 19.5853 72.6507 18.6186 71.3471 18.6186C69.918 18.6186 68.8883 19.6877 68.7202 20.9274H73.7658ZM87.0103 27.2504V24.2029H79.7674V21.7473L86.4413 12.5662H89.8627V27.2504H87.0103ZM87.0103 15.7195L82.6591 21.8137H87.0103V15.7195ZM98.2338 24.2012H90.9646V21.7465L97.6607 12.5662H101.094V21.8121H102.896V24.2037H101.094V27.2504H98.2338V24.2012ZM98.2338 15.7186L93.8671 21.8121H98.2338V15.7186Z"></path>
</svg>
