<svg xmlns="http://www.w3.org/2000/svg" fill="none" viewBox="0 0 360 400" height="400" width="360">
<rect fill="#141414" height="239.069" width="359.069" y="0.465431" x="0.465431"></rect>
<rect stroke-width="0.930861" stroke="#272727" height="239.069" width="359.069" y="0.465431" x="0.465431"></rect>
<path fill="#C7C7C7" d="M76.61 41H72.434V31.64H76.3744C78.2987 31.64 79.4245 32.504 79.4245 33.9964C79.4245 35.1484 78.7438 35.6851 77.9715 35.9469V35.9731C78.9533 36.1433 79.7911 36.8633 79.7911 38.264C79.7911 40.0575 78.5475 41 76.61 41ZM73.874 35.528H76.3351C77.5133 35.528 77.9191 35.0436 77.9191 34.2058C77.9191 33.3811 77.4216 32.8836 76.4398 32.8836H73.874V35.528ZM73.874 39.7564H76.5053C77.8929 39.7564 78.2856 39.0887 78.2856 38.2116C78.2856 37.2298 77.6835 36.6669 76.7016 36.6669H73.874V39.7564ZM84.1 34.1665C84.3357 34.1665 84.519 34.1796 84.7153 34.2058V35.4364C84.5582 35.4102 84.4404 35.3971 84.2833 35.3971C83.1182 35.3971 82.2804 36.2742 82.2804 37.544V41H80.9975V34.3236H82.2804V35.5935H82.3066C82.66 34.7556 83.1968 34.1665 84.1 34.1665ZM87.2952 41.1833C85.96 41.1833 85.1091 40.4109 85.1091 39.272C85.1091 37.7796 86.2349 37.3345 87.8974 37.0204C88.9447 36.824 89.5862 36.6931 89.5862 36.0385C89.5862 35.5542 89.2982 35.1484 88.3163 35.1484C87.1512 35.1484 86.7978 35.5149 86.7323 36.4051H85.4232C85.4887 35.1222 86.3265 34.1142 88.3687 34.1142C89.7432 34.1142 90.8429 34.6902 90.8429 36.4182V39.4815C90.8429 39.9658 90.9083 40.2145 91.1571 40.2145C91.1963 40.2145 91.2356 40.2145 91.3142 40.2015V40.9869C91.0916 41.0393 90.8691 41.0655 90.6596 41.0655C90.0182 41.0655 89.6778 40.8167 89.5992 40.0575H89.5731C89.1411 40.7513 88.3818 41.1833 87.2952 41.1833ZM87.5832 40.1491C88.7352 40.1491 89.5862 39.56 89.5862 38.3949V37.4393C89.3767 37.6356 88.8007 37.7796 88.12 37.9236C86.9418 38.1593 86.4443 38.4865 86.4443 39.1804C86.4443 39.8087 86.7847 40.1491 87.5832 40.1491ZM96.0433 34.1273C97.2738 34.1273 98.2687 34.8342 98.2687 36.3658V41H96.9858V36.7193C96.9858 35.8291 96.5931 35.2269 95.6243 35.2269C94.5247 35.2269 93.8178 35.8945 93.8178 36.9025V41H92.5349V34.3236H93.8178V35.1615H93.844C94.1974 34.6509 94.8913 34.1273 96.0433 34.1273ZM102.719 41.1964C100.729 41.1964 99.4331 39.7564 99.4331 37.6618C99.4331 35.5673 100.729 34.1273 102.706 34.1273C104.421 34.1273 105.56 35.24 105.717 36.7455H104.395C104.329 36.0516 103.936 35.1876 102.719 35.1876C101.292 35.1876 100.768 36.4051 100.768 37.6618C100.768 38.9185 101.292 40.1229 102.719 40.1229C103.949 40.1229 104.329 39.2851 104.395 38.5258H105.717C105.625 40.0575 104.434 41.1964 102.719 41.1964ZM110.38 34.1273C111.611 34.1273 112.606 34.8342 112.606 36.3658V41H111.323V36.7193C111.323 35.8291 110.93 35.2269 109.961 35.2269C108.862 35.2269 108.155 35.8945 108.155 36.9025V41H106.872V31.64H108.155V35.1615H108.181C108.535 34.6509 109.228 34.1273 110.38 34.1273Z"></path>
<rect fill="#272727" height="38.8182" width="210.273" y="16.5909" x="133.318"></rect>
<rect stroke-width="0.818182" stroke="#4D4D4D" height="38.8182" width="210.273" y="16.5909" x="133.318"></rect>
<path fill="#B3B3B3" d="M161.954 37.2272C161.412 37.2287 160.885 37.4103 160.456 37.7435C160.028 38.0766 159.722 38.5425 159.587 39.0681H157.045C156.557 39.0675 156.089 38.8734 155.744 38.5283C155.399 38.1832 155.205 37.7152 155.204 37.2272V34.7726C155.202 34.1066 154.981 33.4598 154.575 32.9317H159.587C159.736 33.5102 160.091 34.0143 160.586 34.3496C161.08 34.6849 161.68 34.8283 162.273 34.7531C162.865 34.6778 163.41 34.3889 163.805 33.9407C164.2 33.4924 164.418 32.9155 164.418 32.3181C164.418 31.7207 164.2 31.1437 163.805 30.6955C163.41 30.2472 162.865 29.9584 162.273 29.8831C161.68 29.8078 161.08 29.9513 160.586 30.2866C160.091 30.6219 159.736 31.126 159.587 31.7044H152.049C151.9 31.126 151.544 30.6219 151.05 30.2866C150.555 29.9513 149.956 29.8078 149.363 29.8831C148.77 29.9584 148.226 30.2472 147.831 30.6955C147.436 31.1437 147.218 31.7207 147.218 32.3181C147.218 32.9155 147.436 33.4924 147.831 33.9407C148.226 34.3889 148.77 34.6778 149.363 34.7531C149.956 34.8283 150.555 34.6849 151.05 34.3496C151.544 34.0143 151.9 33.5102 152.049 32.9317H152.136C152.624 32.9322 153.092 33.1264 153.437 33.4715C153.782 33.8166 153.976 34.2845 153.977 34.7726V37.2272C153.978 38.0406 154.301 38.8205 154.877 39.3956C155.452 39.9708 156.232 40.2944 157.045 40.2954H159.587C159.702 40.7388 159.94 41.1411 160.273 41.4563C160.605 41.7716 161.02 41.9873 161.469 42.0788C161.918 42.1704 162.383 42.1343 162.813 41.9744C163.242 41.8146 163.618 41.5376 163.898 41.1747C164.178 40.8119 164.351 40.3778 164.397 39.9218C164.442 39.4658 164.359 39.0061 164.157 38.595C163.954 38.1839 163.64 37.8378 163.251 37.596C162.862 37.3542 162.413 37.2264 161.954 37.2272ZM161.954 31.0908C162.197 31.0908 162.434 31.1628 162.636 31.2976C162.838 31.4325 162.995 31.6242 163.088 31.8484C163.181 32.0727 163.205 32.3194 163.158 32.5575C163.111 32.7956 162.994 33.0143 162.822 33.1859C162.65 33.3575 162.432 33.4744 162.194 33.5218C161.956 33.5691 161.709 33.5448 161.485 33.4519C161.26 33.359 161.069 33.2017 160.934 32.9999C160.799 32.7981 160.727 32.5608 160.727 32.3181C160.727 31.9927 160.857 31.6808 161.087 31.4507C161.317 31.2206 161.629 31.0912 161.954 31.0908ZM149.682 33.5453C149.439 33.5453 149.202 33.4734 149 33.3385C148.798 33.2037 148.641 33.012 148.548 32.7877C148.455 32.5635 148.43 32.3167 148.478 32.0786C148.525 31.8406 148.642 31.6219 148.814 31.4503C148.985 31.2786 149.204 31.1617 149.442 31.1144C149.68 31.067 149.927 31.0913 150.151 31.1842C150.375 31.2771 150.567 31.4344 150.702 31.6362C150.837 31.8381 150.909 32.0753 150.909 32.3181C150.908 32.6435 150.779 32.9554 150.549 33.1855C150.319 33.4156 150.007 33.545 149.682 33.5453ZM161.954 40.909C161.712 40.909 161.474 40.837 161.272 40.7022C161.071 40.5673 160.913 40.3756 160.82 40.1514C160.727 39.9271 160.703 39.6804 160.751 39.4423C160.798 39.2042 160.915 38.9855 161.086 38.8139C161.258 38.6423 161.477 38.5254 161.715 38.478C161.953 38.4307 162.2 38.455 162.424 38.5479C162.648 38.6407 162.84 38.7981 162.975 38.9999C163.11 39.2017 163.182 39.439 163.182 39.6817C163.181 40.0071 163.052 40.319 162.822 40.549C162.592 40.7791 162.28 40.9085 161.954 40.909Z"></path>
<path fill="white" d="M178.884 36.5884C178.884 35.7505 178.727 35.0567 178.138 35.0567C177.588 35.0567 177.234 35.8291 177.234 36.8371V41H176.24V34.3236H177.234V35.1353H177.248C177.509 34.664 177.915 34.1404 178.57 34.1404C179.172 34.1404 179.552 34.5724 179.722 35.3055H179.735C180.088 34.6378 180.52 34.1404 181.175 34.1404C182.065 34.1404 182.523 34.9782 182.523 36.3396V41H181.528V36.5884C181.528 35.7244 181.358 35.0567 180.782 35.0567C180.232 35.0567 179.879 35.8029 179.879 36.8371V41H178.884V36.5884ZM186.354 41.1833C185.045 41.1833 184.246 40.4371 184.246 39.1935C184.246 37.7665 185.293 37.3345 186.917 37.0204C188.016 36.8109 188.592 36.6931 188.592 35.9993C188.592 35.4887 188.278 35.0436 187.178 35.0436C185.987 35.0436 185.699 35.5542 185.647 36.392H184.56C184.613 35.0829 185.464 34.1273 187.244 34.1273C188.553 34.1273 189.626 34.6509 189.626 36.2873V39.6385C189.626 40.136 189.731 40.28 190.085 40.28C190.111 40.28 190.202 40.28 190.32 40.2538V40.9869C190.15 41.0393 189.941 41.0655 189.666 41.0655C189.116 41.0655 188.684 40.8429 188.618 40.0182H188.592C188.16 40.712 187.388 41.1833 186.354 41.1833ZM185.346 39.2196C185.346 39.9004 185.673 40.2669 186.589 40.2669C187.715 40.2669 188.592 39.704 188.592 38.4342V37.3476C188.317 37.5964 188.069 37.6618 187.087 37.8844C185.843 38.1724 185.346 38.3949 185.346 39.2196ZM192.698 41V40.0836H194.792V35.24H192.698V34.3236H195.84V40.0836H197.672V41H192.698ZM194.4 33.0276V31.5091H195.944V33.0276H194.4ZM200.233 41V34.3236H201.28V35.1353H201.306C201.673 34.664 202.38 34.1404 203.545 34.1404C204.749 34.1404 205.731 34.8211 205.731 36.3396V41H204.684V36.6015C204.684 35.7375 204.304 35.0567 203.244 35.0567C202.066 35.0567 201.28 35.8029 201.28 36.8371V41H200.233Z"></path>
<path fill="#C7C7C7" d="M25.8101 97H21.6341V87.64H25.5745C27.4988 87.64 28.6247 88.504 28.6247 89.9964C28.6247 91.1484 27.9439 91.6851 27.1716 91.9469V91.9731C28.1534 92.1433 28.9912 92.8633 28.9912 94.264C28.9912 96.0575 27.7476 97 25.8101 97ZM23.0741 91.528H25.5352C26.7134 91.528 27.1192 91.0436 27.1192 90.2058C27.1192 89.3811 26.6217 88.8836 25.6399 88.8836H23.0741V91.528ZM23.0741 95.7564H25.7054C27.093 95.7564 27.4857 95.0887 27.4857 94.2116C27.4857 93.2298 26.8836 92.6669 25.9017 92.6669H23.0741V95.7564ZM34.6089 94.4211V90.3236H35.8919V97H34.6089V96.1622H34.5828C34.2293 96.6727 33.5355 97.1833 32.3835 97.1833C31.1529 97.1833 30.158 96.4764 30.158 94.9447V90.3236H31.4409V94.5913C31.4409 95.4945 31.8337 96.0967 32.8024 96.0967C33.902 96.0967 34.6089 95.4291 34.6089 94.4211ZM38.8366 89.1324H37.3835V87.7447H38.8366V89.1324ZM38.745 97H37.462V90.3236H38.745V97ZM41.5989 97H40.316V87.64H41.5989V97ZM47.9088 91.1353V87.64H49.1917V97H47.9088V96.2145H47.8826C47.5161 96.6858 46.8746 97.1833 45.8273 97.1833C44.1255 97.1833 42.8295 95.8611 42.8295 93.6618C42.8295 91.4625 44.1255 90.1273 45.8273 90.1273C46.8746 90.1273 47.5161 90.6116 47.8826 91.1353H47.9088ZM46.0368 96.1229C47.1888 96.1229 47.8957 95.1673 47.8957 93.6618C47.8957 92.1433 47.1888 91.2007 46.0368 91.2007C44.7801 91.2007 44.1648 92.3527 44.1648 93.6618C44.1648 94.9709 44.7801 96.1229 46.0368 96.1229ZM57.757 97.1833C55.0996 97.1833 53.3847 95.1411 53.3847 92.3265C53.3847 89.4989 55.1127 87.4567 57.7701 87.4567C60.1134 87.4567 61.5665 88.9491 61.789 90.8211H60.2836C60.1134 89.9047 59.5374 88.7004 57.744 88.7004C55.6756 88.7004 54.8901 90.4545 54.8901 92.3135C54.8901 94.1855 55.6756 95.9396 57.744 95.9396C59.5505 95.9396 60.192 94.7353 60.2836 93.5964H61.789C61.5796 95.6778 60.1134 97.1833 57.757 97.1833ZM65.9664 97.1964C63.8849 97.1964 62.6282 95.7564 62.6282 93.6618C62.6282 91.5804 63.8849 90.1142 65.9795 90.1142C68.0478 90.1142 69.3046 91.5673 69.3046 93.6487C69.3046 95.7433 68.0478 97.1964 65.9664 97.1964ZM65.9795 96.136C67.3409 96.136 67.9693 95.0495 67.9693 93.6618C67.9693 92.2611 67.3409 91.1876 65.9795 91.1876C64.5918 91.1876 63.9635 92.2611 63.9635 93.6618C63.9635 95.0495 64.5918 96.136 65.9795 96.136ZM77.7928 90.1273C79.1411 90.1273 79.8219 90.9389 79.8219 92.3658V97H78.539V92.7193C78.539 91.8291 78.3557 91.2269 77.3739 91.2269C76.4182 91.2269 75.8161 91.8945 75.8161 92.9025V97H74.5331V92.7193C74.5331 91.8291 74.3499 91.2269 73.3681 91.2269C72.4124 91.2269 71.8102 91.8945 71.8102 92.9025V97H70.5273V90.3236H71.8102V91.1615H71.8364C72.1899 90.6509 72.8051 90.1273 73.8131 90.1273C74.7426 90.1273 75.3186 90.5462 75.5804 91.2924H75.6066C76.091 90.6509 76.7717 90.1273 77.7928 90.1273ZM88.624 90.1273C89.9723 90.1273 90.6531 90.9389 90.6531 92.3658V97H89.3702V92.7193C89.3702 91.8291 89.1869 91.2269 88.2051 91.2269C87.2494 91.2269 86.6472 91.8945 86.6472 92.9025V97H85.3643V92.7193C85.3643 91.8291 85.1811 91.2269 84.1992 91.2269C83.2436 91.2269 82.6414 91.8945 82.6414 92.9025V97H81.3585V90.3236H82.6414V91.1615H82.6676C83.0211 90.6509 83.6363 90.1273 84.6443 90.1273C85.5738 90.1273 86.1498 90.5462 86.4116 91.2924H86.4378C86.9222 90.6509 87.6029 90.1273 88.624 90.1273ZM94.0355 97.1833C92.7003 97.1833 91.8493 96.4109 91.8493 95.272C91.8493 93.7796 92.9752 93.3345 94.6377 93.0204C95.685 92.824 96.3264 92.6931 96.3264 92.0385C96.3264 91.5542 96.0384 91.1484 95.0566 91.1484C93.8915 91.1484 93.5381 91.5149 93.4726 92.4051H92.1635C92.229 91.1222 93.0668 90.1142 95.109 90.1142C96.4835 90.1142 97.5832 90.6902 97.5832 92.4182V95.4815C97.5832 95.9658 97.6486 96.2145 97.8973 96.2145C97.9366 96.2145 97.9759 96.2145 98.0544 96.2015V96.9869C97.8319 97.0393 97.6093 97.0655 97.3999 97.0655C96.7584 97.0655 96.4181 96.8167 96.3395 96.0575H96.3133C95.8813 96.7513 95.1221 97.1833 94.0355 97.1833ZM94.3235 96.1491C95.4755 96.1491 96.3264 95.56 96.3264 94.3949V93.4393C96.117 93.6356 95.541 93.7796 94.8603 93.9236C93.6821 94.1593 93.1846 94.4865 93.1846 95.1804C93.1846 95.8087 93.525 96.1491 94.3235 96.1491ZM102.784 90.1273C104.014 90.1273 105.009 90.8342 105.009 92.3658V97H103.726V92.7193C103.726 91.8291 103.333 91.2269 102.365 91.2269C101.265 91.2269 100.558 91.8945 100.558 92.9025V97H99.2752V90.3236H100.558V91.1615H100.584C100.938 90.6509 101.632 90.1273 102.784 90.1273ZM111.266 91.1353V87.64H112.549V97H111.266V96.2145H111.24C110.873 96.6858 110.232 97.1833 109.184 97.1833C107.482 97.1833 106.186 95.8611 106.186 93.6618C106.186 91.4625 107.482 90.1273 109.184 90.1273C110.232 90.1273 110.873 90.6116 111.24 91.1353H111.266ZM109.394 96.1229C110.546 96.1229 111.253 95.1673 111.253 93.6618C111.253 92.1433 110.546 91.2007 109.394 91.2007C108.137 91.2007 107.522 92.3527 107.522 93.6618C107.522 94.9709 108.137 96.1229 109.394 96.1229Z"></path>
<rect fill="#272727" height="38.8182" width="210.273" y="72.5909" x="133.318"></rect>
<rect stroke-width="0.818182" stroke="#4D4D4D" height="38.8182" width="210.273" y="72.5909" x="133.318"></rect>
<path fill="white" d="M147.231 97V90.3236H148.278V91.1353H148.304C148.671 90.664 149.377 90.1404 150.543 90.1404C151.747 90.1404 152.729 90.8211 152.729 92.3396V97H151.681V92.6015C151.681 91.7375 151.302 91.0567 150.241 91.0567C149.063 91.0567 148.278 91.8029 148.278 92.8371V97H147.231ZM155.028 99.3171V90.3236H156.075V91.1484H156.114C156.468 90.6247 157.096 90.1404 158.104 90.1404C159.688 90.1404 160.919 91.4625 160.919 93.6618C160.919 95.8611 159.688 97.1833 158.104 97.1833C157.083 97.1833 156.468 96.7251 156.114 96.136H156.075V99.3171H155.028ZM156.088 93.6618C156.088 95.2327 156.821 96.2669 157.96 96.2669C159.204 96.2669 159.819 94.9971 159.819 93.6618C159.819 92.3135 159.204 91.0567 157.96 91.0567C156.821 91.0567 156.088 92.0909 156.088 93.6618ZM165.129 92.5884C165.129 91.7505 164.972 91.0567 164.383 91.0567C163.833 91.0567 163.479 91.8291 163.479 92.8371V97H162.484V90.3236H163.479V91.1353H163.492C163.754 90.664 164.16 90.1404 164.815 90.1404C165.417 90.1404 165.796 90.5724 165.967 91.3055H165.98C166.333 90.6378 166.765 90.1404 167.42 90.1404C168.31 90.1404 168.768 90.9782 168.768 92.3396V97H167.773V92.5884C167.773 91.7244 167.603 91.0567 167.027 91.0567C166.477 91.0567 166.124 91.8029 166.124 92.8371V97H165.129V92.5884ZM181.652 97.1833C180.631 97.1833 180.016 96.7251 179.662 96.136H179.623V97H178.576V87.64H179.623V91.1484H179.662C180.016 90.6247 180.644 90.1404 181.652 90.1404C183.236 90.1404 184.467 91.4625 184.467 93.6618C184.467 95.8611 183.236 97.1833 181.652 97.1833ZM179.636 93.6618C179.636 95.2327 180.369 96.2669 181.508 96.2669C182.752 96.2669 183.367 94.984 183.367 93.6618C183.367 92.3265 182.752 91.0567 181.508 91.0567C180.369 91.0567 179.636 92.0909 179.636 93.6618ZM190.824 97V96.1884H190.798C190.431 96.6596 189.724 97.1833 188.559 97.1833C187.355 97.1833 186.373 96.5025 186.373 94.984V90.3236H187.42V94.7222C187.42 95.5862 187.8 96.2669 188.86 96.2669C190.038 96.2669 190.824 95.5207 190.824 94.4865V90.3236H191.871V97H190.824ZM194.641 97V96.0836H196.736V91.24H194.641V90.3236H197.783V96.0836H199.616V97H194.641ZM196.343 89.0276V87.5091H197.888V89.0276H196.343ZM201.993 97V96.0836H204.35V88.5564H201.993V87.64H205.397V96.0836H207.753V97H201.993ZM212.395 97.1833C210.811 97.1833 209.581 95.848 209.581 93.6618C209.581 91.4756 210.811 90.1404 212.395 90.1404C213.43 90.1404 214.045 90.6116 214.385 91.1876H214.425V87.64H215.472V97H214.425V96.1753H214.385C214.019 96.712 213.39 97.1833 212.395 97.1833ZM210.681 93.6618C210.681 94.984 211.296 96.2669 212.539 96.2669C213.678 96.2669 214.425 95.2458 214.425 93.6618C214.425 92.0778 213.678 91.0567 212.539 91.0567C211.296 91.0567 210.681 92.3396 210.681 93.6618Z"></path>
<path fill="#C7C7C7" d="M26.0249 153.183C23.6554 153.183 21.9929 151.953 21.8882 149.845H23.3805C23.4853 151.102 24.2314 151.953 25.9856 151.953C27.4911 151.953 27.9493 151.298 27.9493 150.447C27.9493 149.256 27.0329 149.086 25.3311 148.654C23.8649 148.261 22.2547 147.79 22.2547 146.009C22.2547 144.386 23.5114 143.457 25.5274 143.457C27.6613 143.457 29.0489 144.543 29.1929 146.428H27.7005C27.5434 145.303 26.902 144.687 25.5405 144.687C24.3623 144.687 23.7602 145.119 23.7602 145.931C23.7602 146.978 24.742 147.201 25.9463 147.502C27.7529 147.96 29.4547 148.392 29.4547 150.369C29.4547 151.979 28.3682 153.183 26.0249 153.183ZM33.0678 152.018C33.2903 152.018 33.3951 152.005 33.6176 151.966V153C33.2903 153.065 33.0809 153.079 32.806 153.079C31.7063 153.079 31.0387 152.66 31.0387 151.115V147.384H30.07V146.324H31.0387V144.177H32.3216V146.324H33.6045V147.384H32.3216V151.154C32.3216 151.861 32.518 152.018 33.0678 152.018ZM36.6488 153.183C35.3135 153.183 34.4626 152.411 34.4626 151.272C34.4626 149.78 35.5884 149.335 37.251 149.02C38.2982 148.824 38.9397 148.693 38.9397 148.039C38.9397 147.554 38.6517 147.148 37.6699 147.148C36.5048 147.148 36.1513 147.515 36.0859 148.405H34.7768C34.8422 147.122 35.6801 146.114 37.7222 146.114C39.0968 146.114 40.1964 146.69 40.1964 148.418V151.481C40.1964 151.966 40.2619 152.215 40.5106 152.215C40.5499 152.215 40.5891 152.215 40.6677 152.201V152.987C40.4451 153.039 40.2226 153.065 40.0131 153.065C39.3717 153.065 39.0313 152.817 38.9528 152.057H38.9266C38.4946 152.751 37.7353 153.183 36.6488 153.183ZM36.9368 152.149C38.0888 152.149 38.9397 151.56 38.9397 150.395V149.439C38.7302 149.636 38.1542 149.78 37.4735 149.924C36.2953 150.159 35.7979 150.487 35.7979 151.18C35.7979 151.809 36.1382 152.149 36.9368 152.149ZM44.991 146.167C45.2266 146.167 45.4099 146.18 45.6062 146.206V147.436C45.4491 147.41 45.3313 147.397 45.1742 147.397C44.0091 147.397 43.1713 148.274 43.1713 149.544V153H41.8884V146.324H43.1713V147.593H43.1975C43.551 146.756 44.0877 146.167 44.991 146.167ZM49.0316 152.018C49.2541 152.018 49.3588 152.005 49.5814 151.966V153C49.2541 153.065 49.0446 153.079 48.7697 153.079C47.6701 153.079 47.0025 152.66 47.0025 151.115V147.384H46.0337V146.324H47.0025V144.177H48.2854V146.324H49.5683V147.384H48.2854V151.154C48.2854 151.861 48.4817 152.018 49.0316 152.018ZM57.7571 153.183C55.0996 153.183 53.3847 151.141 53.3847 148.327C53.3847 145.499 55.1127 143.457 57.7701 143.457C60.1134 143.457 61.5665 144.949 61.7891 146.821H60.2836C60.1134 145.905 59.5374 144.7 57.744 144.7C55.6756 144.7 54.8901 146.455 54.8901 148.313C54.8901 150.185 55.6756 151.94 57.744 151.94C59.5505 151.94 60.192 150.735 60.2836 149.596H61.7891C61.5796 151.678 60.1134 153.183 57.7571 153.183ZM65.9664 153.196C63.8849 153.196 62.6282 151.756 62.6282 149.662C62.6282 147.58 63.8849 146.114 65.9795 146.114C68.0478 146.114 69.3046 147.567 69.3046 149.649C69.3046 151.743 68.0478 153.196 65.9664 153.196ZM65.9795 152.136C67.3409 152.136 67.9693 151.049 67.9693 149.662C67.9693 148.261 67.3409 147.188 65.9795 147.188C64.5918 147.188 63.9635 148.261 63.9635 149.662C63.9635 151.049 64.5918 152.136 65.9795 152.136ZM77.7928 146.127C79.1412 146.127 79.8219 146.939 79.8219 148.366V153H78.539V148.719C78.539 147.829 78.3557 147.227 77.3739 147.227C76.4182 147.227 75.8161 147.895 75.8161 148.903V153H74.5332V148.719C74.5332 147.829 74.3499 147.227 73.3681 147.227C72.4124 147.227 71.8102 147.895 71.8102 148.903V153H70.5273V146.324H71.8102V147.161H71.8364C72.1899 146.651 72.8052 146.127 73.8132 146.127C74.7426 146.127 75.3186 146.546 75.5804 147.292H75.6066C76.091 146.651 76.7717 146.127 77.7928 146.127ZM88.624 146.127C89.9723 146.127 90.6531 146.939 90.6531 148.366V153H89.3702V148.719C89.3702 147.829 89.1869 147.227 88.2051 147.227C87.2494 147.227 86.6473 147.895 86.6473 148.903V153H85.3643V148.719C85.3643 147.829 85.1811 147.227 84.1993 147.227C83.2436 147.227 82.6414 147.895 82.6414 148.903V153H81.3585V146.324H82.6414V147.161H82.6676C83.0211 146.651 83.6363 146.127 84.6443 146.127C85.5738 146.127 86.1498 146.546 86.4116 147.292H86.4378C86.9222 146.651 87.6029 146.127 88.624 146.127ZM94.0355 153.183C92.7003 153.183 91.8494 152.411 91.8494 151.272C91.8494 149.78 92.9752 149.335 94.6377 149.02C95.685 148.824 96.3264 148.693 96.3264 148.039C96.3264 147.554 96.0384 147.148 95.0566 147.148C93.8915 147.148 93.5381 147.515 93.4726 148.405H92.1635C92.229 147.122 93.0668 146.114 95.109 146.114C96.4835 146.114 97.5832 146.69 97.5832 148.418V151.481C97.5832 151.966 97.6486 152.215 97.8974 152.215C97.9366 152.215 97.9759 152.215 98.0544 152.201V152.987C97.8319 153.039 97.6094 153.065 97.3999 153.065C96.7584 153.065 96.4181 152.817 96.3395 152.057H96.3134C95.8814 152.751 95.1221 153.183 94.0355 153.183ZM94.3235 152.149C95.4755 152.149 96.3264 151.56 96.3264 150.395V149.439C96.117 149.636 95.541 149.78 94.8603 149.924C93.6821 150.159 93.1846 150.487 93.1846 151.18C93.1846 151.809 93.525 152.149 94.3235 152.149ZM102.784 146.127C104.014 146.127 105.009 146.834 105.009 148.366V153H103.726V148.719C103.726 147.829 103.333 147.227 102.365 147.227C101.265 147.227 100.558 147.895 100.558 148.903V153H99.2752V146.324H100.558V147.161H100.584C100.938 146.651 101.632 146.127 102.784 146.127ZM111.266 147.135V143.64H112.549V153H111.266V152.215H111.24C110.873 152.686 110.232 153.183 109.184 153.183C107.482 153.183 106.186 151.861 106.186 149.662C106.186 147.463 107.482 146.127 109.184 146.127C110.232 146.127 110.873 146.612 111.24 147.135H111.266ZM109.394 152.123C110.546 152.123 111.253 151.167 111.253 149.662C111.253 148.143 110.546 147.201 109.394 147.201C108.137 147.201 107.522 148.353 107.522 149.662C107.522 150.971 108.137 152.123 109.394 152.123Z"></path>
<rect fill="#272727" height="38.8182" width="210.273" y="128.591" x="133.318"></rect>
<rect stroke-width="0.818182" stroke="#4D4D4D" height="38.8182" width="210.273" y="128.591" x="133.318"></rect>
<path fill="white" d="M147.231 153V146.324H148.278V147.135H148.304C148.671 146.664 149.377 146.14 150.543 146.14C151.747 146.14 152.729 146.821 152.729 148.34V153H151.681V148.601C151.681 147.737 151.302 147.057 150.241 147.057C149.063 147.057 148.278 147.803 148.278 148.837V153H147.231ZM155.028 155.317V146.324H156.075V147.148H156.114C156.468 146.625 157.096 146.14 158.104 146.14C159.688 146.14 160.919 147.463 160.919 149.662C160.919 151.861 159.688 153.183 158.104 153.183C157.083 153.183 156.468 152.725 156.114 152.136H156.075V155.317H155.028ZM156.088 149.662C156.088 151.233 156.821 152.267 157.96 152.267C159.204 152.267 159.819 150.997 159.819 149.662C159.819 148.313 159.204 147.057 157.96 147.057C156.821 147.057 156.088 148.091 156.088 149.662ZM165.129 148.588C165.129 147.751 164.972 147.057 164.383 147.057C163.833 147.057 163.479 147.829 163.479 148.837V153H162.484V146.324H163.479V147.135H163.492C163.754 146.664 164.16 146.14 164.815 146.14C165.417 146.14 165.796 146.572 165.967 147.305H165.98C166.333 146.638 166.765 146.14 167.42 146.14C168.31 146.14 168.768 146.978 168.768 148.34V153H167.773V148.588C167.773 147.724 167.603 147.057 167.027 147.057C166.477 147.057 166.124 147.803 166.124 148.837V153H165.129V148.588ZM181.561 153.183C179.61 153.183 178.628 152.149 178.576 150.775H179.649C179.702 151.599 180.265 152.267 181.548 152.267C182.713 152.267 183.105 151.691 183.105 151.167C183.105 150.356 182.556 150.238 181.26 149.963C179.911 149.675 178.812 149.374 178.812 148.012C178.812 146.887 179.715 146.14 181.26 146.14C183.04 146.14 183.865 147.083 183.969 148.235H182.896C182.739 147.476 182.228 147.057 181.26 147.057C180.396 147.057 179.911 147.423 179.911 147.973C179.911 148.615 180.382 148.759 181.718 149.047C182.974 149.321 184.205 149.662 184.205 151.128C184.205 152.385 183.223 153.183 181.561 153.183ZM190.47 153.065C188.952 153.065 188.127 152.725 188.127 151.207V147.24H185.902V146.324H188.127V144.098H189.174V146.324H192.054V147.24H189.174V151.259C189.174 151.966 189.554 152.149 190.601 152.149C191.361 152.149 191.636 152.136 192.054 152.11V153C191.609 153.052 191.269 153.065 190.47 153.065ZM196.147 153.183C194.838 153.183 194.039 152.437 194.039 151.193C194.039 149.767 195.086 149.335 196.71 149.02C197.809 148.811 198.385 148.693 198.385 147.999C198.385 147.489 198.071 147.044 196.972 147.044C195.78 147.044 195.492 147.554 195.44 148.392H194.353C194.406 147.083 195.257 146.127 197.037 146.127C198.346 146.127 199.42 146.651 199.42 148.287V151.639C199.42 152.136 199.524 152.28 199.878 152.28C199.904 152.28 199.996 152.28 200.113 152.254V152.987C199.943 153.039 199.734 153.065 199.459 153.065C198.909 153.065 198.477 152.843 198.412 152.018H198.385C197.953 152.712 197.181 153.183 196.147 153.183ZM195.139 151.22C195.139 151.9 195.466 152.267 196.382 152.267C197.508 152.267 198.385 151.704 198.385 150.434V149.348C198.11 149.596 197.862 149.662 196.88 149.884C195.636 150.172 195.139 150.395 195.139 151.22ZM204.664 149.439V152.084H207.02V153H202.046V152.084H203.617V147.24H202.046V146.324H204.664V147.646H204.703C205.109 146.769 206.143 146.14 207.243 146.14C207.531 146.14 207.806 146.153 208.067 146.18V147.227C207.871 147.201 207.531 147.188 207.243 147.188C205.999 147.188 204.664 148.156 204.664 149.439ZM214.019 153.065C212.5 153.065 211.675 152.725 211.675 151.207V147.24H209.45V146.324H211.675V144.098H212.723V146.324H215.603V147.24H212.723V151.259C212.723 151.966 213.102 152.149 214.15 152.149C214.909 152.149 215.184 152.136 215.603 152.11V153C215.158 153.052 214.817 153.065 214.019 153.065Z"></path>
<path fill="#C7C7C7" d="M41.5985 209H40.0799L43.5621 199.64H45.1199L48.6283 209H47.0574L46.285 206.748H42.3708L41.5985 209ZM44.3214 200.975L42.8028 205.531H45.8792L44.3476 200.975H44.3214ZM53.7784 206.421V202.324H55.0613V209H53.7784V208.162H53.7522C53.3988 208.673 52.705 209.183 51.553 209.183C50.3224 209.183 49.3275 208.476 49.3275 206.945V202.324H50.6104V206.591C50.6104 207.495 51.0032 208.097 51.9719 208.097C53.0715 208.097 53.7784 207.429 53.7784 206.421ZM59.0926 208.018C59.3152 208.018 59.4199 208.005 59.6424 207.966V209C59.3152 209.065 59.1057 209.079 58.8308 209.079C57.7312 209.079 57.0635 208.66 57.0635 207.115V203.384H56.0948V202.324H57.0635V200.177H58.3464V202.324H59.6294V203.384H58.3464V207.154C58.3464 207.861 58.5428 208.018 59.0926 208.018ZM63.6719 209.196C61.5904 209.196 60.3337 207.756 60.3337 205.662C60.3337 203.58 61.5904 202.114 63.685 202.114C65.7533 202.114 67.0101 203.567 67.0101 205.649C67.0101 207.743 65.7533 209.196 63.6719 209.196ZM63.685 208.136C65.0464 208.136 65.6748 207.049 65.6748 205.662C65.6748 204.261 65.0464 203.188 63.685 203.188C62.2973 203.188 61.669 204.261 61.669 205.662C61.669 207.049 62.2973 208.136 63.685 208.136ZM71.571 206.277H68.0627V205.06H71.571V206.277ZM76.7624 209H73.1755V199.64H76.7362C79.3282 199.64 80.8991 201.316 80.8991 204.327C80.8991 207.337 79.3544 209 76.7624 209ZM74.6155 207.756H76.6707C78.8438 207.756 79.4067 206.133 79.4067 204.327C79.4067 202.52 78.8438 200.884 76.6707 200.884H74.6155V207.756ZM88.3513 205.518C88.3513 205.701 88.3513 205.897 88.3382 206.002H83.2066C83.2328 207.115 83.8873 208.149 85.2095 208.149C86.3877 208.149 86.8459 207.39 86.9637 206.945H88.2728C87.9193 208.228 86.9375 209.196 85.1833 209.196C83.0626 209.196 81.8844 207.691 81.8844 205.649C81.8844 203.554 83.1411 202.114 85.1833 202.114C87.2124 202.114 88.3513 203.449 88.3513 205.518ZM83.2066 204.994H87.016C87.016 203.947 86.283 203.161 85.144 203.161C84.0706 203.161 83.2851 203.895 83.2066 204.994ZM92.9303 202.127C94.6321 202.127 95.9281 203.463 95.9281 205.662C95.9281 207.861 94.6321 209.183 92.9303 209.183C91.883 209.183 91.2415 208.712 90.875 208.175H90.8488V211.317H89.5659V202.324H90.8488V203.109H90.875C91.2415 202.638 91.883 202.127 92.9303 202.127ZM92.7208 208.123C93.9775 208.123 94.5797 206.971 94.5797 205.662C94.5797 204.353 93.9775 203.201 92.7208 203.201C91.5688 203.201 90.8619 204.143 90.8619 205.662C90.8619 207.167 91.5688 208.123 92.7208 208.123ZM98.4456 209H97.1627V199.64H98.4456V209ZM103.001 209.196C100.92 209.196 99.6632 207.756 99.6632 205.662C99.6632 203.58 100.92 202.114 103.014 202.114C105.083 202.114 106.34 203.567 106.34 205.649C106.34 207.743 105.083 209.196 103.001 209.196ZM103.014 208.136C104.376 208.136 105.004 207.049 105.004 205.662C105.004 204.261 104.376 203.188 103.014 203.188C101.627 203.188 100.998 204.261 100.998 205.662C100.998 207.049 101.627 208.136 103.014 208.136ZM108.247 211.343C107.959 211.343 107.763 211.317 107.423 211.252V210.204C107.645 210.231 107.763 210.244 107.972 210.244C108.483 210.244 109.085 209.982 109.347 208.935L106.65 202.324H108.051L110.002 207.429H110.028L111.86 202.324H113.209L110.564 209.157C109.923 210.807 109.282 211.343 108.247 211.343Z"></path>
<rect fill="#272727" height="38.8182" width="210.273" y="184.591" x="133.318"></rect>
<rect stroke-width="0.818182" stroke="#4D4D4D" height="38.8182" width="210.273" y="184.591" x="133.318"></rect>
<path fill="white" d="M151.079 209.183C148.33 209.183 146.497 207.128 146.497 204.313C146.497 201.499 148.33 199.457 151.079 199.457C153.828 199.457 155.661 201.499 155.661 204.313C155.661 207.128 153.828 209.183 151.079 209.183ZM151.079 208.136C153.436 208.136 154.431 206.329 154.431 204.313C154.431 202.297 153.436 200.504 151.079 200.504C148.723 200.504 147.728 202.297 147.728 204.313C147.728 206.329 148.723 208.136 151.079 208.136ZM160.25 202.14C161.467 202.14 162.488 202.808 162.488 204.34V209H161.441V204.601C161.441 203.737 161.035 203.057 159.988 203.057C158.81 203.057 158.024 203.803 158.024 204.837V209H156.977V202.324H158.024V203.122H158.05C158.404 202.651 159.111 202.14 160.25 202.14ZM171.09 209.183C168.524 209.183 166.757 207.141 166.757 204.313C166.757 201.499 168.524 199.457 171.09 199.457C173.381 199.457 174.847 200.949 175.069 202.729H173.839C173.669 201.839 173.04 200.504 171.09 200.504C168.864 200.504 167.987 202.428 167.987 204.313C167.987 206.212 168.864 208.136 171.09 208.136C173.053 208.136 173.76 206.801 173.839 205.623H175.069C174.86 207.691 173.394 209.183 171.09 209.183ZM179.26 209.196C177.218 209.196 175.987 207.743 175.987 205.662C175.987 203.58 177.218 202.127 179.26 202.127C181.289 202.127 182.52 203.58 182.52 205.662C182.52 207.743 181.289 209.196 179.26 209.196ZM179.26 208.28C180.752 208.28 181.42 207.089 181.42 205.662C181.42 204.235 180.752 203.044 179.26 203.044C177.755 203.044 177.087 204.235 177.087 205.662C177.087 207.089 177.755 208.28 179.26 208.28ZM190.775 202.14C192.123 202.14 192.778 202.939 192.778 204.34V209H191.73V204.601C191.73 203.737 191.56 203.057 190.513 203.057C189.466 203.057 188.811 203.803 188.811 204.837V209H187.764V204.601C187.764 203.737 187.594 203.057 186.546 203.057C185.499 203.057 184.845 203.803 184.845 204.837V209H183.797V202.324H184.845V203.122H184.871C185.224 202.651 185.8 202.14 186.808 202.14C187.764 202.14 188.314 202.546 188.589 203.292H188.615C189.073 202.664 189.767 202.14 190.775 202.14ZM201.35 202.14C202.699 202.14 203.353 202.939 203.353 204.34V209H202.306V204.601C202.306 203.737 202.136 203.057 201.088 203.057C200.041 203.057 199.387 203.803 199.387 204.837V209H198.339V204.601C198.339 203.737 198.169 203.057 197.122 203.057C196.075 203.057 195.42 203.803 195.42 204.837V209H194.373V202.324H195.42V203.122H195.446C195.8 202.651 196.376 202.14 197.384 202.14C198.339 202.14 198.889 202.546 199.164 203.292H199.19C199.648 202.664 200.342 202.14 201.35 202.14ZM206.1 201.028H204.844V199.771H206.1V201.028ZM205.996 209H204.948V202.324H205.996V209ZM210.411 202.324V203.24H209.102V207.259C209.102 207.966 209.272 208.149 209.861 208.149C210.084 208.149 210.189 208.136 210.411 208.11V209C210.11 209.052 209.953 209.065 209.717 209.065C208.735 209.065 208.055 208.725 208.055 207.207V203.24H207.073V202.324H208.055V200.098H209.102V202.324H210.411Z"></path>
<path fill="#B3B3B3" d="M321.09 207.682L314.954 201.545L315.813 200.686L321.09 205.964L326.368 200.686L327.227 201.545L321.09 207.682Z"></path>
<rect fill="url(#paint0_linear_423_3920)" height="113.069" width="226.069" y="252.465" x="133.465"></rect>
<rect stroke-width="0.930861" stroke="url(#paint1_linear_423_3920)" height="113.069" width="226.069" y="252.465" x="133.465"></rect>
<path fill="#6B6B6B" d="M175.508 297.528C175.508 297.424 175.488 297.372 175.448 297.372L175.172 297.504C175.172 297.448 175.14 297.408 175.076 297.384L174.98 297.372C174.916 297.372 174.836 297.4 174.74 297.456C174.724 297.416 174.704 297.376 174.68 297.336C174.656 297.296 174.636 297.26 174.62 297.228C174.516 297.028 174.412 296.808 174.308 296.568C174.212 296.32 174.12 296.084 174.032 295.86C173.952 295.636 173.888 295.46 173.84 295.332C173.808 295.228 173.772 295.072 173.732 294.864C173.692 294.656 173.652 294.392 173.612 294.072C173.7 294.128 173.768 294.156 173.816 294.156C173.872 294.156 173.924 294.072 173.972 293.904C173.996 293.936 174.04 293.952 174.104 293.952C174.152 293.952 174.188 293.936 174.212 293.904L174.404 293.616L174.62 293.688H174.632C174.648 293.688 174.664 293.68 174.68 293.664C174.696 293.648 174.72 293.632 174.752 293.616C174.816 293.576 174.864 293.556 174.896 293.556L174.932 293.568C175.132 293.664 175.26 293.84 175.316 294.096C175.46 294.704 175.604 295.008 175.748 295.008C175.892 295.008 176.06 294.856 176.252 294.552C176.348 294.4 176.444 294.224 176.54 294.024C176.644 293.824 176.748 293.6 176.852 293.352C176.868 293.448 176.884 293.496 176.9 293.496C176.94 293.496 177.008 293.396 177.104 293.196C177.208 292.996 177.372 292.72 177.596 292.368C177.724 292.152 177.884 291.908 178.076 291.636C178.276 291.364 178.488 291.084 178.712 290.796C178.936 290.508 179.152 290.236 179.36 289.98C179.576 289.724 179.768 289.504 179.936 289.32C180.104 289.136 180.228 289.016 180.308 288.96C180.612 288.752 180.852 288.552 181.028 288.36C181.02 288.416 181.008 288.468 180.992 288.516C180.984 288.556 180.98 288.584 180.98 288.6C180.98 288.632 180.996 288.648 181.028 288.648L181.364 288.48V288.528C181.364 288.592 181.38 288.624 181.412 288.624C181.436 288.624 181.484 288.588 181.556 288.516C181.628 288.444 181.668 288.392 181.676 288.36L181.652 288.528L182.06 288.288L181.964 288.504C182.092 288.416 182.184 288.372 182.24 288.372C182.272 288.372 182.296 288.392 182.312 288.432C182.328 288.464 182.336 288.496 182.336 288.528C182.336 288.576 182.316 288.632 182.276 288.696C182.236 288.76 182.184 288.836 182.12 288.924C182.072 288.988 181.992 289.084 181.88 289.212C181.776 289.332 181.616 289.512 181.4 289.752C181.184 289.984 180.896 290.308 180.536 290.724C180.44 290.828 180.292 291.012 180.092 291.276C179.892 291.532 179.664 291.832 179.408 292.176C179.16 292.512 178.912 292.852 178.664 293.196C178.416 293.54 178.196 293.852 178.004 294.132C177.812 294.404 177.676 294.608 177.596 294.744L176.852 296.004C176.692 296.276 176.56 296.5 176.456 296.676C176.352 296.844 176.272 296.96 176.216 297.024C176.096 297.168 175.964 297.296 175.82 297.408L175.712 297.348L175.616 297.408L175.508 297.528ZM202.423 297V288.42H205.387C206.827 288.42 207.691 289.248 207.691 290.58C207.691 291.624 207.175 292.116 206.587 292.356V292.38C207.343 292.548 207.967 293.256 207.967 294.504C207.967 296.088 207.019 297 205.567 297H202.423ZM203.503 296.04H205.483C206.527 296.04 206.839 295.32 206.839 294.504C206.839 293.58 206.371 292.968 205.639 292.968H203.503V296.04ZM203.503 292.008H205.363C206.239 292.008 206.563 291.48 206.563 290.7C206.563 289.908 206.167 289.38 205.435 289.38H203.503V292.008ZM213.722 297V296.256H213.698C213.362 296.688 212.714 297.168 211.646 297.168C210.542 297.168 209.642 296.544 209.642 295.152V290.88H210.602V294.912C210.602 295.704 210.95 296.328 211.922 296.328C213.002 296.328 213.722 295.644 213.722 294.696V290.88H214.682V297H213.722ZM217.222 297V296.16H219.142V291.72H217.222V290.88H220.102V296.16H221.782V297H217.222ZM218.782 289.692V288.3H220.198V289.692H218.782ZM223.961 297V296.16H226.121V289.26H223.961V288.42H227.081V296.16H229.241V297H223.961ZM234.984 297.06C233.592 297.06 232.836 296.748 232.836 295.356V291.72H230.796V290.88H232.836V288.84H233.796V290.88H236.436V291.72H233.796V295.404C233.796 296.052 234.144 296.22 235.104 296.22C235.8 296.22 236.052 296.208 236.436 296.184V297C236.028 297.048 235.716 297.06 234.984 297.06ZM246.003 297V296.16H247.923V291.72H246.003V290.88H248.883V296.16H250.563V297H246.003ZM247.563 289.692V288.3H248.979V289.692H247.563ZM252.91 297V290.88H253.87V291.624H253.894C254.23 291.192 254.878 290.712 255.946 290.712C257.05 290.712 257.95 291.336 257.95 292.728V297H256.99V292.968C256.99 292.176 256.642 291.552 255.67 291.552C254.59 291.552 253.87 292.236 253.87 293.184V297H252.91ZM267.013 297C267.013 295.56 267.829 294.396 269.377 293.424C270.745 292.572 271.453 292.224 271.453 291.036C271.453 290.352 271.165 289.5 270.037 289.5C268.765 289.5 268.345 290.472 268.345 291.612H267.217C267.217 289.896 268.129 288.54 270.073 288.54C271.453 288.54 272.581 289.44 272.581 291.024C272.581 292.584 271.453 293.328 270.253 294.096C269.149 294.804 268.585 295.236 268.393 296.016V296.04H272.497V297H267.013ZM276.272 297V295.62H277.664V297H276.272ZM282.4 297C282.4 294.24 283.732 291.012 285.676 289.692V289.668H281.356V288.708H286.9V289.548C284.536 291.132 283.528 294.336 283.528 297H282.4ZM292.211 297V295.056H288.167V294.096L292.211 288.708H293.291V294.096H294.479V295.056H293.291V297H292.211ZM289.271 294.096H292.211V290.208L289.271 294.096ZM298.77 297.168C296.982 297.168 296.082 296.22 296.034 294.96H297.018C297.066 295.716 297.582 296.328 298.758 296.328C299.826 296.328 300.186 295.8 300.186 295.32C300.186 294.576 299.682 294.468 298.494 294.216C297.258 293.952 296.25 293.676 296.25 292.428C296.25 291.396 297.078 290.712 298.494 290.712C300.126 290.712 300.882 291.576 300.978 292.632H299.994C299.85 291.936 299.382 291.552 298.494 291.552C297.702 291.552 297.258 291.888 297.258 292.392C297.258 292.98 297.69 293.112 298.914 293.376C300.066 293.628 301.194 293.94 301.194 295.284C301.194 296.436 300.294 297.168 298.77 297.168Z" opacity="0.6"></path>
<g opacity="0.5">
<path fill="#AA77FD" d="M174.176 319.368V318.24H179.024V319.368H174.176ZM174.176 317.16V316.032H179.024V317.16H174.176ZM181.371 319.368V318.24H186.219V319.368H181.371ZM181.371 317.16V316.032H186.219V317.16H181.371ZM188.327 320.604V319.488L192.659 317.712V317.688L188.327 315.912V314.796L193.655 317.076V318.324L188.327 320.604Z"></path>
<path fill="#8F8F8F" d="M205.381 321.168C203.437 321.168 202.657 319.932 202.657 318.096V312.42H203.977V318.096C203.977 319.428 204.433 320.028 205.381 320.028C206.317 320.028 206.785 319.428 206.785 318.096V312.42H208.105V318.096C208.105 319.92 207.325 321.168 205.381 321.168ZM209.997 323.124V314.88H211.173V315.6H211.209C211.509 315.144 212.085 314.7 212.961 314.7C214.413 314.7 215.493 315.924 215.493 317.94C215.493 319.956 214.413 321.168 212.961 321.168C212.073 321.168 211.497 320.736 211.209 320.244H211.173V323.124H209.997ZM211.197 317.94C211.197 319.32 211.785 320.196 212.733 320.196C213.753 320.196 214.257 319.152 214.257 317.94C214.257 316.704 213.753 315.684 212.733 315.684C211.785 315.684 211.197 316.548 211.197 317.94ZM217.108 321V320.028H219.184V313.392H217.108V312.42H220.36V320.028H222.436V321H217.108ZM226.955 321.18C225.287 321.18 224.255 319.884 224.255 317.94C224.255 315.996 225.287 314.688 226.979 314.688C228.647 314.688 229.679 315.996 229.679 317.928C229.679 319.872 228.647 321.18 226.955 321.18ZM225.479 317.94C225.479 319.26 225.983 320.208 226.967 320.208C227.963 320.208 228.455 319.248 228.455 317.94C228.455 316.62 227.951 315.672 226.967 315.672C225.983 315.672 225.479 316.62 225.479 317.94ZM233.299 321.168C232.111 321.168 231.391 320.484 231.391 319.356C231.391 318.048 232.375 317.628 233.779 317.352C234.787 317.148 235.303 317.04 235.303 316.428C235.303 315.996 235.027 315.636 234.139 315.636C233.155 315.636 232.891 316.068 232.843 316.788H231.667C231.715 315.6 232.507 314.688 234.175 314.688C235.507 314.688 236.443 315.216 236.443 316.8V319.728C236.443 320.148 236.539 320.28 236.839 320.28C236.875 320.28 236.959 320.28 237.055 320.256V320.976C236.851 321.036 236.635 321.06 236.359 321.06C235.783 321.06 235.399 320.856 235.327 320.136H235.303C234.907 320.748 234.211 321.168 233.299 321.168ZM232.615 319.332C232.615 319.92 232.903 320.22 233.659 320.22C234.595 320.22 235.303 319.692 235.303 318.612V317.724C235.075 317.916 234.823 317.988 234.031 318.18C233.011 318.42 232.615 318.648 232.615 319.332ZM240.974 321.168C239.522 321.168 238.442 319.944 238.442 317.94C238.442 315.936 239.522 314.7 240.974 314.7C241.874 314.7 242.438 315.144 242.726 315.624H242.762V312.42H243.938V321H242.762V320.28H242.726C242.426 320.736 241.85 321.168 240.974 321.168ZM239.666 317.94C239.666 319.14 240.182 320.196 241.202 320.196C242.15 320.196 242.75 319.332 242.75 317.94C242.75 316.548 242.15 315.684 241.202 315.684C240.182 315.684 239.666 316.728 239.666 317.94ZM246.309 321V320.028H248.181V315.852H246.309V314.88H249.357V320.028H250.989V321H246.309ZM247.857 313.788V312.276H249.453V313.788H247.857ZM253.216 321V314.88H254.392V315.648H254.416C254.74 315.192 255.364 314.7 256.408 314.7C257.512 314.7 258.376 315.36 258.376 316.752V321H257.188V317.076C257.188 316.26 256.852 315.708 255.988 315.708C255.016 315.708 254.392 316.32 254.392 317.244V321H253.216ZM262.86 323.196C261.228 323.196 260.364 322.38 260.244 321.264H261.468C261.576 321.816 261.96 322.236 262.86 322.236C263.868 322.236 264.396 321.756 264.396 320.592V319.764H264.36C264.036 320.292 263.472 320.688 262.608 320.688C261.18 320.688 260.088 319.656 260.088 317.7C260.088 315.732 261.18 314.7 262.608 314.7C263.484 314.7 264.048 315.144 264.36 315.612H264.396V314.88H265.572V320.52C265.572 322.368 264.516 323.196 262.86 323.196ZM261.312 317.7C261.312 318.864 261.828 319.716 262.848 319.716C263.796 319.716 264.384 319.044 264.384 317.7C264.384 316.344 263.796 315.684 262.848 315.684C261.828 315.684 261.312 316.536 261.312 317.7ZM277.718 321.168C276.83 321.168 276.254 320.736 275.966 320.244H275.93V321H274.754V312.42H275.93V315.6H275.966C276.266 315.144 276.842 314.7 277.718 314.7C279.17 314.7 280.25 315.924 280.25 317.94C280.25 319.956 279.17 321.168 277.718 321.168ZM275.954 317.94C275.954 319.32 276.542 320.196 277.49 320.196C278.51 320.196 279.014 319.152 279.014 317.94C279.014 316.716 278.51 315.684 277.49 315.684C276.542 315.684 275.954 316.548 275.954 317.94ZM285.886 321V320.22H285.862C285.538 320.688 284.914 321.168 283.87 321.168C282.766 321.168 281.902 320.508 281.902 319.116V314.88H283.09V318.792C283.09 319.62 283.426 320.172 284.29 320.172C285.262 320.172 285.886 319.56 285.886 318.636V314.88H287.062V321H285.886ZM289.481 321V320.028H291.353V315.852H289.481V314.88H292.529V320.028H294.161V321H289.481ZM291.029 313.788V312.276H292.625V313.788H291.029ZM296.256 321V320.028H298.332V313.392H296.256V312.42H299.508V320.028H301.584V321H296.256ZM305.732 321.168C304.28 321.168 303.2 319.944 303.2 317.94C303.2 315.936 304.28 314.7 305.732 314.7C306.632 314.7 307.196 315.144 307.484 315.624H307.52V312.42H308.696V321H307.52V320.28H307.484C307.184 320.736 306.608 321.168 305.732 321.168ZM304.424 317.94C304.424 319.14 304.94 320.196 305.96 320.196C306.908 320.196 307.508 319.332 307.508 317.94C307.508 316.548 306.908 315.684 305.96 315.684C304.94 315.684 304.424 316.728 304.424 317.94ZM312.567 321V319.524H314.055V321H312.567ZM319.762 321V319.524H321.25V321H319.762ZM326.958 321V319.524H328.446V321H326.958Z"></path>
</g>
<path fill="#1EFE9D" d="M174.176 343.368V342.24H179.024V343.368H174.176ZM174.176 341.16V340.032H179.024V341.16H174.176ZM181.371 343.368V342.24H186.219V343.368H181.371ZM181.371 341.16V340.032H186.219V341.16H181.371ZM188.327 344.604V343.488L192.659 341.712V341.688L188.327 339.912V338.796L193.655 341.076V342.324L188.327 344.604Z"></path>
<path fill="#C7C7C7" d="M204.721 345V341.556L201.985 336.42H203.413L205.369 340.524H205.393L207.373 336.42H208.777L206.041 341.556V345H204.721ZM212.565 345.18C210.897 345.18 209.865 343.884 209.865 341.94C209.865 339.996 210.897 338.688 212.589 338.688C214.257 338.688 215.289 339.996 215.289 341.928C215.289 343.872 214.257 345.18 212.565 345.18ZM211.089 341.94C211.089 343.26 211.593 344.208 212.577 344.208C213.573 344.208 214.065 343.248 214.065 341.94C214.065 340.62 213.561 339.672 212.577 339.672C211.593 339.672 211.089 340.62 211.089 341.94ZM221.128 345V344.22H221.104C220.78 344.688 220.156 345.168 219.112 345.168C218.008 345.168 217.144 344.508 217.144 343.116V338.88H218.332V342.792C218.332 343.62 218.668 344.172 219.532 344.172C220.504 344.172 221.128 343.56 221.128 342.636V338.88H222.304V345H221.128ZM226.907 341.832V344.028H229.019V345H224.351V344.028H225.731V339.852H224.351V338.88H226.907V340.044H226.943C227.315 339.276 228.167 338.736 229.151 338.736C229.415 338.736 229.667 338.748 229.919 338.772V339.9C229.727 339.876 229.451 339.864 229.199 339.864C228.059 339.864 226.907 340.668 226.907 341.832ZM241.574 345.168C239.702 345.168 238.814 344.208 238.766 342.96H239.942C239.99 343.68 240.482 344.22 241.55 344.22C242.51 344.22 242.846 343.776 242.846 343.32C242.846 342.624 242.318 342.528 241.19 342.288C239.99 342.024 238.958 341.712 238.958 340.464C238.958 339.408 239.822 338.7 241.31 338.7C243.014 338.7 243.77 339.6 243.866 340.656H242.69C242.57 340.008 242.15 339.648 241.31 339.648C240.578 339.648 240.194 339.948 240.194 340.416C240.194 340.956 240.602 341.064 241.754 341.316C242.93 341.58 244.07 341.904 244.07 343.26C244.07 344.448 243.158 345.168 241.574 345.168ZM246.309 345V344.028H248.181V339.852H246.309V338.88H249.357V344.028H250.989V345H246.309ZM247.857 337.788V336.276H249.453V337.788H247.857ZM256.864 345.072C255.364 345.072 254.668 344.724 254.668 343.248V339.852H252.712V338.88H254.668V336.912H255.856V338.88H258.412V339.852H255.856V343.26C255.856 343.956 256.18 344.1 257.056 344.1C257.704 344.1 257.968 344.076 258.412 344.04V344.976C257.992 345.048 257.608 345.072 256.864 345.072ZM263.016 345.18C261.288 345.18 260.304 343.8 260.304 341.928C260.304 340.02 261.324 338.688 263.016 338.688C264.708 338.688 265.632 339.936 265.632 341.808C265.632 341.964 265.632 342.144 265.62 342.252H261.516C261.552 343.284 262.068 344.22 263.04 344.22C263.892 344.22 264.264 343.548 264.372 343.116H265.572C265.284 344.268 264.48 345.18 263.016 345.18ZM261.516 341.328H264.408C264.408 340.368 263.856 339.648 262.992 339.648C262.164 339.648 261.576 340.308 261.516 341.328ZM275.09 345V344.028H276.962V339.852H275.09V338.88H278.138V344.028H279.77V345H275.09ZM276.638 337.788V336.276H278.234V337.788H276.638ZM284.746 345.168C282.874 345.168 281.986 344.208 281.938 342.96H283.114C283.162 343.68 283.654 344.22 284.722 344.22C285.682 344.22 286.018 343.776 286.018 343.32C286.018 342.624 285.49 342.528 284.362 342.288C283.162 342.024 282.13 341.712 282.13 340.464C282.13 339.408 282.994 338.7 284.482 338.7C286.186 338.7 286.942 339.6 287.038 340.656H285.862C285.742 340.008 285.322 339.648 284.482 339.648C283.75 339.648 283.366 339.948 283.366 340.416C283.366 340.956 283.774 341.064 284.926 341.316C286.102 341.58 287.242 341.904 287.242 343.26C287.242 344.448 286.33 345.168 284.746 345.168ZM296.256 345V344.028H298.332V337.392H296.256V336.42H299.508V344.028H301.584V345H296.256ZM303.872 345V344.028H305.744V339.852H303.872V338.88H306.92V344.028H308.552V345H303.872ZM305.42 337.788V336.276H307.016V337.788H305.42ZM312.651 345L310.407 338.88H311.667L313.311 343.8H313.335L314.991 338.88H316.215L313.983 345H312.651ZM320.578 345.18C318.85 345.18 317.866 343.8 317.866 341.928C317.866 340.02 318.886 338.688 320.578 338.688C322.27 338.688 323.194 339.936 323.194 341.808C323.194 341.964 323.194 342.144 323.182 342.252H319.078C319.114 343.284 319.63 344.22 320.602 344.22C321.454 344.22 321.826 343.548 321.934 343.116H323.134C322.846 344.268 322.042 345.18 320.578 345.18ZM319.078 341.328H321.97C321.97 340.368 321.418 339.648 320.554 339.648C319.726 339.648 319.138 340.308 319.078 341.328ZM331.297 345.84H343.297V333.84H331.297V345.84Z"></path>
<rect fill="url(#paint2_linear_423_3920)" transform="translate(0 281)" height="48" width="158"></rect>
<path fill="#0D0D0D" d="M18.46 310.5H17.11V299.775H18.955L22.315 308.685H22.345L25.705 299.775H27.55V310.5H26.2V301.68H26.17L22.93 310.5H21.73L18.49 301.68H18.46V310.5ZM31.6594 310.71C30.1144 310.71 29.1394 309.825 29.1394 308.535C29.1394 306.78 30.4294 306.3 32.4094 305.94C33.7144 305.7 34.3144 305.55 34.3144 304.8C34.3144 304.2 33.9844 303.675 32.7244 303.675C31.2694 303.675 30.8494 304.11 30.7744 305.22H29.5144C29.5894 303.75 30.5194 302.625 32.7694 302.625C34.1944 302.625 35.4844 303.225 35.4844 305.1V308.775C35.4844 309.375 35.5744 309.675 35.8744 309.675C35.9194 309.675 35.9644 309.675 36.0544 309.66V310.5C35.8594 310.545 35.6794 310.575 35.4694 310.575C34.8094 310.575 34.4044 310.32 34.3294 309.375H34.2994C33.8044 310.2 32.9344 310.71 31.6594 310.71ZM31.7794 309.66C33.2194 309.66 34.3144 309.015 34.3144 307.545V306.33C34.0894 306.57 33.3394 306.765 32.5144 306.93C31.0294 307.23 30.3994 307.59 30.3994 308.475C30.3994 309.225 30.7894 309.66 31.7794 309.66ZM41.2667 302.64C42.6617 302.64 43.8317 303.405 43.8317 305.16V310.5H42.6317V305.46C42.6317 304.47 42.1667 303.69 40.9667 303.69C39.6167 303.69 38.7167 304.545 38.7167 305.73V310.5H37.5167V302.85H38.7167V303.765H38.7467C39.1517 303.225 39.9617 302.64 41.2667 302.64ZM50.7197 307.62V302.85H51.9197V310.5H50.7197V309.585H50.6897C50.2847 310.125 49.4747 310.71 48.1697 310.71C46.7747 310.71 45.6047 309.945 45.6047 308.19V302.85H46.8047V307.89C46.8047 308.88 47.2697 309.66 48.4697 309.66C49.8197 309.66 50.7197 308.805 50.7197 307.62ZM55.9278 310.71C54.3828 310.71 53.4078 309.825 53.4078 308.535C53.4078 306.78 54.6978 306.3 56.6778 305.94C57.9828 305.7 58.5828 305.55 58.5828 304.8C58.5828 304.2 58.2528 303.675 56.9928 303.675C55.5378 303.675 55.1178 304.11 55.0428 305.22H53.7828C53.8578 303.75 54.7878 302.625 57.0378 302.625C58.4628 302.625 59.7528 303.225 59.7528 305.1V308.775C59.7528 309.375 59.8428 309.675 60.1428 309.675C60.1878 309.675 60.2328 309.675 60.3228 309.66V310.5C60.1278 310.545 59.9478 310.575 59.7378 310.575C59.0778 310.575 58.6728 310.32 58.5978 309.375H58.5678C58.0728 310.2 57.2028 310.71 55.9278 310.71ZM56.0478 309.66C57.4878 309.66 58.5828 309.015 58.5828 307.545V306.33C58.3578 306.57 57.6078 306.765 56.7828 306.93C55.2978 307.23 54.6678 307.59 54.6678 308.475C54.6678 309.225 55.0578 309.66 56.0478 309.66ZM62.985 310.5H61.785V299.775H62.985V310.5ZM72.3624 310.5H68.4774V299.775H72.3624C75.3174 299.775 77.1324 301.695 77.1324 305.145C77.1324 308.595 75.3174 310.5 72.3624 310.5ZM69.8274 309.3H72.3624C75.0924 309.3 75.7224 307.245 75.7224 305.145C75.7224 303.045 75.0924 300.975 72.3624 300.975H69.8274V309.3ZM85.6135 306.39C85.6135 306.615 85.6135 306.87 85.5985 306.99H79.6135C79.6435 308.34 80.3935 309.69 82.0885 309.69C83.5885 309.69 84.1585 308.685 84.2935 308.145H85.5085C85.1185 309.57 84.0385 310.725 82.0735 310.725C79.6585 310.725 78.3535 308.985 78.3535 306.66C78.3535 304.215 79.8085 302.625 82.0735 302.625C84.3085 302.625 85.6135 304.155 85.6135 306.39ZM79.6135 305.94H84.3385C84.3385 304.68 83.4385 303.66 82.0135 303.66C80.6935 303.66 79.6885 304.605 79.6135 305.94ZM90.7123 302.64C92.6323 302.64 94.1623 304.155 94.1623 306.675C94.1623 309.195 92.6323 310.71 90.7123 310.71C89.4823 310.71 88.7623 310.17 88.3123 309.51H88.2823V313.155H87.0823V302.85H88.2823V303.795H88.3123C88.7623 303.21 89.4823 302.64 90.7123 302.64ZM90.5923 309.66C92.1673 309.66 92.9023 308.175 92.9023 306.675C92.9023 305.175 92.1673 303.69 90.5923 303.69C89.1673 303.69 88.2823 304.875 88.2823 306.675C88.2823 308.475 89.1673 309.66 90.5923 309.66ZM96.8405 310.5H95.6405V299.775H96.8405V310.5ZM102.065 310.725C99.7248 310.725 98.3148 309.06 98.3148 306.675C98.3148 304.29 99.7248 302.625 102.065 302.625C104.39 302.625 105.8 304.29 105.8 306.675C105.8 309.06 104.39 310.725 102.065 310.725ZM102.065 309.675C103.775 309.675 104.54 308.31 104.54 306.675C104.54 305.04 103.775 303.675 102.065 303.675C100.34 303.675 99.5748 305.04 99.5748 306.675C99.5748 308.31 100.34 309.675 102.065 309.675ZM107.868 313.185C107.598 313.185 107.418 313.17 107.073 313.11V312.09C107.328 312.12 107.448 312.135 107.673 312.135C108.303 312.135 108.993 311.745 109.323 310.425L106.218 302.85H107.568L109.923 308.94H109.953L112.203 302.85H113.493L110.403 310.725C109.638 312.66 108.903 313.185 107.868 313.185Z"></path>
<path fill="#0D0D0D" d="M133 309.375L127.375 303.75L128.163 302.963L133 307.8L137.838 302.963L138.625 303.75L133 309.375Z"></path>
<rect fill="url(#paint3_linear_423_3920)" height="105" width="360" y="138"></rect>
<defs>
<linearGradient gradientUnits="userSpaceOnUse" y2="309" x2="332.934" y1="265" x1="319" id="paint0_linear_423_3920">
<stop stop-opacity="0" stop-color="#141414"></stop>
<stop stop-color="#141414" offset="1"></stop>
</linearGradient>
<linearGradient gradientUnits="userSpaceOnUse" y2="365.536" x2="248.034" y1="296" x1="227" id="paint1_linear_423_3920">
<stop stop-opacity="0" stop-color="#272727"></stop>
<stop stop-color="#272727" offset="1"></stop>
</linearGradient>
<linearGradient gradientUnits="userSpaceOnUse" y2="-25.7425" x2="110.727" y1="48" x1="60" id="paint2_linear_423_3920">
<stop stop-color="#E3E3E3"></stop>
<stop stop-color="#6B6B6B" offset="1"></stop>
</linearGradient>
<linearGradient gradientUnits="userSpaceOnUse" y2="229.227" x2="196.311" y1="149.033" x1="190.5" id="paint3_linear_423_3920">
<stop stop-opacity="0" stop-color="#0D0D0D"></stop>
<stop stop-color="#0D0D0D" offset="1"></stop>
</linearGradient>
</defs>
</svg>
