<svg width="540" height="217" viewBox="0 0 540 217" fill="none" xmlns="http://www.w3.org/2000/svg">
<g clip-path="url(#clip0_334_8593)">
<mask id="mask0_334_8593" style="mask-type:luminance" maskUnits="userSpaceOnUse" x="1" y="1" width="538" height="216">
<path d="M538.805 1.19482H1.19482V216.239H538.805V1.19482Z" fill="white"></path>
</mask>
<g mask="url(#mask0_334_8593)">
<mask id="mask1_334_8593" style="mask-type:luminance" maskUnits="userSpaceOnUse" x="1" y="1" width="538" height="269">
<path d="M538.805 1.19482H1.19482V270H538.805V1.19482Z" fill="white"></path>
</mask>
<g mask="url(#mask1_334_8593)">
<path d="M538.805 1.19482H1.19482V270H538.805V1.19482Z" fill="#141414"></path>
<path opacity="0.5" d="M54.9559 54.9561H1.19482V108.717H54.9559V54.9561Z" stroke="#272727" stroke-width="1.19469"></path>
<path opacity="0.5" d="M108.717 54.9561H54.9561V108.717H108.717V54.9561Z" stroke="#272727" stroke-width="1.19469"></path>
<path opacity="0.5" d="M162.478 54.9561H108.717V108.717H162.478V54.9561Z" stroke="#272727" stroke-width="1.19469"></path>
<path opacity="0.5" d="M216.239 54.9561H162.478V108.717H216.239V54.9561Z" stroke="#272727" stroke-width="1.19469"></path>
<path opacity="0.5" d="M270 54.9561H216.239V108.717H270V54.9561Z" stroke="#272727" stroke-width="1.19469"></path>
<path opacity="0.5" d="M323.761 54.9561H270V108.717H323.761V54.9561Z" stroke="#272727" stroke-width="1.19469"></path>
<path opacity="0.5" d="M377.522 54.9561H323.761V108.717H377.522V54.9561Z" stroke="#272727" stroke-width="1.19469"></path>
<path opacity="0.5" d="M431.284 54.9561H377.522V108.717H431.284V54.9561Z" stroke="#272727" stroke-width="1.19469"></path>
<path opacity="0.5" d="M485.044 54.9561H431.283V108.717H485.044V54.9561Z" stroke="#272727" stroke-width="1.19469"></path>
<path opacity="0.5" d="M538.805 54.9561H485.044V108.717H538.805V54.9561Z" stroke="#272727" stroke-width="1.19469"></path>
<path opacity="0.5" d="M54.9559 1.19482H1.19482V54.9559H54.9559V1.19482Z" stroke="#272727" stroke-width="1.19469"></path>
<path opacity="0.5" d="M108.717 1.19482H54.9561V54.9559H108.717V1.19482Z" stroke="#272727" stroke-width="1.19469"></path>
<path opacity="0.5" d="M162.478 1.19482H108.717V54.9559H162.478V1.19482Z" stroke="#272727" stroke-width="1.19469"></path>
<path opacity="0.5" d="M216.239 1.19482H162.478V54.9559H216.239V1.19482Z" stroke="#272727" stroke-width="1.19469"></path>
<path opacity="0.5" d="M270 1.19482H216.239V54.9559H270V1.19482Z" stroke="#272727" stroke-width="1.19469"></path>
<path opacity="0.5" d="M323.761 1.19482H270V54.9559H323.761V1.19482Z" stroke="#272727" stroke-width="1.19469"></path>
<path opacity="0.5" d="M377.522 1.19482H323.761V54.9559H377.522V1.19482Z" stroke="#272727" stroke-width="1.19469"></path>
<path opacity="0.5" d="M431.284 1.19482H377.522V54.9559H431.284V1.19482Z" stroke="#272727" stroke-width="1.19469"></path>
<path opacity="0.5" d="M538.805 1.19482H485.044V54.9559H538.805V1.19482Z" stroke="#272727" stroke-width="1.19469"></path>
<path opacity="0.5" d="M592.567 1.19482H538.806V54.9559H592.567V1.19482Z" stroke="#272727" stroke-width="1.19469"></path>
<path opacity="0.5" d="M54.9559 108.717H1.19482V162.478H54.9559V108.717Z" stroke="#272727" stroke-width="1.19469"></path>
<path opacity="0.5" d="M54.9559 162.478H1.19482V216.239H54.9559V162.478Z" stroke="#272727" stroke-width="1.19469"></path>
<path opacity="0.5" d="M108.717 162.478H54.9561V216.239H108.717V162.478Z" stroke="#272727" stroke-width="1.19469"></path>
<path opacity="0.5" d="M108.717 108.717H54.9561V162.478H108.717V108.717Z" stroke="#272727" stroke-width="1.19469"></path>
<path opacity="0.5" d="M162.478 162.478H108.717V216.239H162.478V162.478Z" stroke="#272727" stroke-width="1.19469"></path>
<path opacity="0.5" d="M216.239 162.478H162.478V216.239H216.239V162.478Z" stroke="#272727" stroke-width="1.19469"></path>
<path opacity="0.5" d="M162.478 108.717H108.717V162.478H162.478V108.717Z" stroke="#272727" stroke-width="1.19469"></path>
<path opacity="0.5" d="M270 162.478H216.239V216.239H270V162.478Z" stroke="#272727" stroke-width="1.19469"></path>
<path opacity="0.5" d="M323.761 162.478H270V216.239H323.761V162.478Z" stroke="#272727" stroke-width="1.19469"></path>
<path opacity="0.5" d="M216.239 108.717H162.478V162.478H216.239V108.717Z" stroke="#272727" stroke-width="1.19469"></path>
<path opacity="0.5" d="M377.522 162.478H323.761V216.239H377.522V162.478Z" stroke="#272727" stroke-width="1.19469"></path>
<path opacity="0.5" d="M431.284 162.478H377.522V216.239H431.284V162.478Z" stroke="#272727" stroke-width="1.19469"></path>
<path opacity="0.5" d="M485.044 162.478H431.283V216.239H485.044V162.478Z" stroke="#272727" stroke-width="1.19469"></path>
<path opacity="0.5" d="M538.805 162.478H485.044V216.239H538.805V162.478Z" stroke="#272727" stroke-width="1.19469"></path>
<path opacity="0.5" d="M270 108.717H216.239V162.478H270V108.717Z" stroke="#272727" stroke-width="1.19469"></path>
<path opacity="0.5" d="M323.761 108.717H270V162.478H323.761V108.717Z" stroke="#272727" stroke-width="1.19469"></path>
<path opacity="0.5" d="M377.522 108.717H323.761V162.478H377.522V108.717Z" stroke="#272727" stroke-width="1.19469"></path>
<path opacity="0.5" d="M431.284 108.717H377.522V162.478H431.284V108.717Z" stroke="#272727" stroke-width="1.19469"></path>
<path opacity="0.5" d="M485.044 1.19482H431.283V54.9559H485.044V1.19482Z" stroke="#272727" stroke-width="1.19469"></path>
<path opacity="0.5" d="M485.044 108.717H431.283V162.478H485.044V108.717Z" stroke="#272727" stroke-width="1.19469"></path>
<path opacity="0.5" d="M54.9559 216.239H1.19482V270H54.9559V216.239Z" stroke="#272727" stroke-width="1.19469"></path>
<path opacity="0.5" d="M108.717 216.239H54.9561V270H108.717V216.239Z" stroke="#272727" stroke-width="1.19469"></path>
<path opacity="0.5" d="M162.478 216.239H108.717V270H162.478V216.239Z" stroke="#272727" stroke-width="1.19469"></path>
<path opacity="0.5" d="M216.239 216.239H162.478V270H216.239V216.239Z" stroke="#272727" stroke-width="1.19469"></path>
<path opacity="0.5" d="M270 216.239H216.239V270H270V216.239Z" stroke="#272727" stroke-width="1.19469"></path>
<path opacity="0.5" d="M323.761 216.239H270V270H323.761V216.239Z" stroke="#272727" stroke-width="1.19469"></path>
<path opacity="0.5" d="M377.522 216.239H323.761V270H377.522V216.239Z" stroke="#272727" stroke-width="1.19469"></path>
<path opacity="0.5" d="M431.284 216.239H377.522V270H431.284V216.239Z" stroke="#272727" stroke-width="1.19469"></path>
<path opacity="0.5" d="M485.044 216.239H431.283V270H485.044V216.239Z" stroke="#272727" stroke-width="1.19469"></path>
<path opacity="0.5" d="M538.805 216.239H485.044V270H538.805V216.239Z" stroke="#272727" stroke-width="1.19469"></path>
</g>
<path d="M538.805 1.19482H1.19482V270H538.805V1.19482Z" stroke="#272727" stroke-width="1.19469"></path>
<path d="M514.912 37.0356H35.8408V240.133H514.912V37.0356Z" fill="#0D0D0D"></path>
<path d="M514.912 37.0356H35.8408V240.133H514.912V37.0356Z" stroke="#272727" stroke-width="1.19469"></path>
<path d="M228.037 75.2658L224.005 71.2337L224.638 70.6002L228.037 73.9983L234.124 67.9121L234.757 68.5457L228.037 75.2658Z" fill="#006D4C"></path>
<path d="M241.448 76.4605H240.337L243.491 67.9185H244.698L247.875 76.4605H246.717L245.964 74.322H242.201L241.448 76.4605ZM244.076 68.9101L242.559 73.3662H245.617L244.1 68.9101H244.076ZM250.988 76.4605H249.9L247.714 70.3676H248.765L250.462 75.5047H250.474L252.146 70.3676H253.174L250.988 76.4605ZM255.563 76.6278C254.333 76.6278 253.556 75.9229 253.556 74.8954C253.556 73.4977 254.584 73.1154 256.161 72.8286C257.2 72.6375 257.678 72.518 257.678 71.9207C257.678 71.4428 257.415 71.0247 256.411 71.0247C255.253 71.0247 254.918 71.3711 254.858 72.2552H253.855C253.915 71.0844 254.655 70.1884 256.447 70.1884C257.582 70.1884 258.61 70.6662 258.61 72.1596V75.0866C258.61 75.5645 258.681 75.8034 258.92 75.8034C258.956 75.8034 258.992 75.8034 259.064 75.7915V76.4605C258.908 76.4963 258.765 76.5202 258.598 76.5202C258.072 76.5202 257.75 76.3171 257.69 75.5645H257.666C257.272 76.2216 256.579 76.6278 255.563 76.6278ZM255.659 75.7915C256.806 75.7915 257.678 75.2778 257.678 74.107V73.1393C257.499 73.3304 256.901 73.4857 256.244 73.6171C255.061 73.8561 254.56 74.1428 254.56 74.8477C254.56 75.445 254.87 75.7915 255.659 75.7915ZM261.28 69.1848H260.133V68.0379H261.28V69.1848ZM261.184 76.4605H260.228V70.3676H261.184V76.4605ZM263.649 76.4605H262.693V67.9185H263.649V76.4605ZM266.842 76.6278C265.612 76.6278 264.835 75.9229 264.835 74.8954C264.835 73.4977 265.863 73.1154 267.44 72.8286C268.479 72.6375 268.957 72.518 268.957 71.9207C268.957 71.4428 268.694 71.0247 267.691 71.0247C266.532 71.0247 266.197 71.3711 266.137 72.2552H265.134C265.194 71.0844 265.934 70.1884 267.726 70.1884C268.861 70.1884 269.889 70.6662 269.889 72.1596V75.0866C269.889 75.5645 269.96 75.8034 270.199 75.8034C270.235 75.8034 270.271 75.8034 270.343 75.7915V76.4605C270.187 76.4963 270.044 76.5202 269.877 76.5202C269.351 76.5202 269.029 76.3171 268.969 75.5645H268.945C268.551 76.2216 267.858 76.6278 266.842 76.6278ZM266.938 75.7915C268.085 75.7915 268.957 75.2778 268.957 74.107V73.1393C268.778 73.3304 268.18 73.4857 267.523 73.6171C266.341 73.8561 265.839 74.1428 265.839 74.8477C265.839 75.445 266.149 75.7915 266.938 75.7915ZM274.398 70.2003C275.927 70.2003 277.145 71.407 277.145 73.414C277.145 75.4211 275.927 76.6278 274.398 76.6278C273.418 76.6278 272.844 76.1977 272.486 75.672H272.462V76.4605H271.506V67.9185H272.462V71.1202H272.486C272.844 70.6543 273.418 70.2003 274.398 70.2003ZM274.302 75.7915C275.556 75.7915 276.142 74.6087 276.142 73.414C276.142 72.2193 275.556 71.0366 274.302 71.0366C273.167 71.0366 272.462 71.9804 272.462 73.414C272.462 74.8477 273.167 75.7915 274.302 75.7915ZM279.279 76.4605H278.323V67.9185H279.279V76.4605ZM286.248 73.187C286.248 73.3662 286.248 73.5693 286.236 73.6649H281.469C281.493 74.7401 282.09 75.8154 283.44 75.8154C284.635 75.8154 285.089 75.0149 285.196 74.5848H286.164C285.853 75.7198 284.993 76.6397 283.428 76.6397C281.505 76.6397 280.465 75.2539 280.465 73.4021C280.465 71.4547 281.624 70.1884 283.428 70.1884C285.208 70.1884 286.248 71.407 286.248 73.187ZM281.469 72.8286H285.232C285.232 71.8251 284.515 71.0127 283.38 71.0127C282.329 71.0127 281.529 71.7654 281.469 72.8286Z" fill="#006D4C"></path>
<path d="M89.3465 76.6945C87.6238 76.6945 86.5366 75.7077 86.5366 74.2693C86.5366 72.3123 87.975 71.7771 90.1828 71.3757C91.638 71.1081 92.307 70.9408 92.307 70.1046C92.307 69.4355 91.939 68.8501 90.5341 68.8501C88.9117 68.8501 88.4433 69.3352 88.3597 70.5729H86.9548C87.0384 68.9338 88.0754 67.6793 90.5842 67.6793C92.1732 67.6793 93.6116 68.3484 93.6116 70.4391V74.5369C93.6116 75.2059 93.7119 75.5404 94.0464 75.5404C94.0966 75.5404 94.1468 75.5404 94.2472 75.5237V76.4603C94.0297 76.5105 93.829 76.5439 93.5949 76.5439C92.8589 76.5439 92.4073 76.2596 92.3237 75.2059H92.2903C91.7383 76.1258 90.7682 76.6945 89.3465 76.6945ZM89.4803 75.5237C91.086 75.5237 92.307 74.8045 92.307 73.1654V71.8106C92.0561 72.0782 91.2198 72.2956 90.2999 72.4796C88.6441 72.8141 87.9416 73.2155 87.9416 74.2023C87.9416 75.0386 88.3764 75.5237 89.4803 75.5237ZM99.9253 67.6961C102.066 67.6961 103.772 69.3854 103.772 72.1953C103.772 75.0052 102.066 76.6945 99.9253 76.6945C98.5538 76.6945 97.7509 76.0923 97.2492 75.3564H97.2157V79.4208H95.8777V67.9302H97.2157V68.9839H97.2492C97.7509 68.3316 98.5538 67.6961 99.9253 67.6961ZM99.7915 75.5237C101.548 75.5237 102.367 73.8678 102.367 72.1953C102.367 70.5227 101.548 68.8669 99.7915 68.8669C98.2025 68.8669 97.2157 70.1882 97.2157 72.1953C97.2157 74.2023 98.2025 75.5237 99.7915 75.5237ZM109.468 67.6961C111.609 67.6961 113.315 69.3854 113.315 72.1953C113.315 75.0052 111.609 76.6945 109.468 76.6945C108.096 76.6945 107.294 76.0923 106.792 75.3564H106.758V79.4208H105.42V67.9302H106.758V68.9839H106.792C107.294 68.3316 108.096 67.6961 109.468 67.6961ZM109.334 75.5237C111.09 75.5237 111.91 73.8678 111.91 72.1953C111.91 70.5227 111.09 68.8669 109.334 68.8669C107.745 68.8669 106.758 70.1882 106.758 72.1953C106.758 74.2023 107.745 75.5237 109.334 75.5237ZM119.178 72.8643H114.696V71.5262H119.178V72.8643ZM127.115 69.0341V64.5015H128.454V76.4603H127.115V75.4066H127.082C126.58 76.0589 125.777 76.6945 124.406 76.6945C122.265 76.6945 120.559 75.0052 120.559 72.1953C120.559 69.3854 122.265 67.6961 124.406 67.6961C125.777 67.6961 126.58 68.2982 127.082 69.0341H127.115ZM124.54 75.5237C126.129 75.5237 127.115 74.2023 127.115 72.1953C127.115 70.1882 126.129 68.8669 124.54 68.8669C122.784 68.8669 121.964 70.5227 121.964 72.1953C121.964 73.8678 122.784 75.5237 124.54 75.5237ZM134.601 67.6961C136.742 67.6961 138.448 69.3854 138.448 72.1953C138.448 75.0052 136.742 76.6945 134.601 76.6945C133.23 76.6945 132.427 76.0923 131.925 75.3564H131.892V76.4603H130.554V64.5015H131.892V68.9839H131.925C132.427 68.3316 133.23 67.6961 134.601 67.6961ZM134.468 75.5237C136.224 75.5237 137.043 73.8678 137.043 72.1953C137.043 70.5227 136.224 68.8669 134.468 68.8669C132.879 68.8669 131.892 70.1882 131.892 72.1953C131.892 74.2023 132.879 75.5237 134.468 75.5237Z" fill="#0D0D0D"></path>
<path d="M60.4038 97.9645C60.4038 96.8176 61.0537 95.8905 62.2866 95.1164C63.3762 94.4378 63.9401 94.1606 63.9401 93.2144C63.9401 92.6696 63.7107 91.9911 62.8123 91.9911C61.7992 91.9911 61.4647 92.7652 61.4647 93.6732H60.5663C60.5663 92.3064 61.2927 91.2265 62.841 91.2265C63.9401 91.2265 64.8385 91.9433 64.8385 93.2049C64.8385 94.4473 63.9401 95.0399 62.9843 95.6516C62.105 96.2155 61.6558 96.5596 61.5029 97.1808V97.1999H64.7716V97.9645H60.4038ZM68.4858 98.0983C67.0426 98.0983 66.2684 97.1234 66.2302 96.0626H67.1286C67.1859 96.7029 67.5396 97.3337 68.4475 97.3337C69.2599 97.3337 69.7951 96.7603 69.7951 95.7089C69.7951 94.7149 69.2886 94.2944 68.5144 94.2944C67.9792 94.2944 67.5109 94.4856 67.2146 94.9157H66.3162L66.9661 91.3603H70.3877V92.1249H67.6447L67.2815 94.1224V94.1415C67.6065 93.7592 68.0748 93.5298 68.7343 93.5298C69.9003 93.5298 70.6936 94.4856 70.6936 95.7089C70.6936 97.133 69.7378 98.0983 68.4858 98.0983ZM74.3407 98.0983C72.6395 98.0983 72.0087 96.7603 72.0087 94.6672C72.0087 92.5549 72.8593 91.2265 74.3694 91.2265C75.5068 91.2265 76.2427 92.0675 76.3382 93.0328H75.4591C75.3922 92.4211 75.0672 91.9911 74.3694 91.9911C73.1651 91.9911 72.8688 93.2718 72.8688 94.5238V94.6194L72.888 94.6289C73.2034 93.9886 73.8056 93.6541 74.4936 93.6541C75.6789 93.6541 76.5008 94.5334 76.5008 95.8332C76.5008 97.0565 75.6789 98.0983 74.3407 98.0983ZM72.974 95.9096C72.974 96.7603 73.4614 97.3337 74.3313 97.3337C75.1627 97.3337 75.6023 96.7794 75.6023 95.8905C75.6023 94.9443 75.1245 94.4187 74.3982 94.4187C73.5379 94.4187 72.974 95.0112 72.974 95.9096ZM85.8501 98.0983C84.3878 98.0983 83.5945 96.5978 83.5945 94.5907C83.5945 92.5072 84.4452 90.9971 85.9935 90.9971C87.1691 90.9971 87.9145 91.8764 88.0675 93.1953H87.1786C87.0639 92.2109 86.586 91.7617 85.9744 91.7617C84.8657 91.7617 84.4834 93.2622 84.4834 94.5907C84.4834 95.8236 84.8083 97.3337 85.9075 97.3337C86.7485 97.3337 87.2646 96.5022 87.2742 95.1737H85.9266V94.4091H88.1439V97.9645H87.5609L87.3793 96.9992H87.3602C87.0257 97.7638 86.5382 98.0983 85.8501 98.0983ZM89.6694 97.9645V91.1309H92.0301C93.177 91.1309 93.8652 91.7903 93.8652 92.8512C93.8652 93.6827 93.4542 94.0746 92.9859 94.2657V94.2849C93.588 94.4187 94.085 94.9826 94.085 95.9765C94.085 97.2381 93.3299 97.9645 92.1735 97.9645H89.6694ZM90.5296 97.1999H92.1066C92.9381 97.1999 93.1866 96.6265 93.1866 95.9765C93.1866 95.2406 92.8138 94.7532 92.2308 94.7532H90.5296V97.1999ZM90.5296 93.9886H92.011C92.7087 93.9886 92.9668 93.568 92.9668 92.9468C92.9668 92.316 92.6514 91.8955 92.0684 91.8955H90.5296V93.9886ZM101.379 97.9645V91.1309H103.731C104.983 91.1309 105.661 91.8381 105.661 93.0997C105.661 93.9503 105.222 94.6003 104.6 94.7723V94.7914C105.91 95.0877 105.432 97.7925 105.738 97.9072V97.9645H104.82C104.562 97.6778 105.107 95.2024 103.711 95.2024H102.24V97.9645H101.379ZM102.24 94.4378H103.559C104.352 94.4378 104.801 93.979 104.801 93.1188C104.801 92.3256 104.447 91.8955 103.578 91.8955H102.24V94.4378ZM106.632 97.9645L108.735 91.1309H109.681L111.793 97.9645H110.866L110.398 96.2537H107.999L107.531 97.9645H106.632ZM108.257 95.4891H110.14L109.222 91.9242H109.184L108.257 95.4891ZM112.765 97.9645V91.1309H113.816L115.03 95.5751H115.049L116.263 91.1309H117.314V97.9645H116.454V92.4689H116.444L115.422 96.4353H114.657L113.634 92.4689H113.625V97.9645H112.765Z" fill="#858585"></path>
<path d="M145.122 98.0983C143.42 98.0983 142.79 96.7603 142.79 94.6672C142.79 92.5549 143.64 91.2265 145.15 91.2265C146.288 91.2265 147.024 92.0675 147.119 93.0328H146.24C146.173 92.4211 145.848 91.9911 145.15 91.9911C143.946 91.9911 143.65 93.2718 143.65 94.5238V94.6194L143.669 94.6289C143.984 93.9886 144.586 93.6541 145.275 93.6541C146.46 93.6541 147.282 94.5334 147.282 95.8332C147.282 97.0565 146.46 98.0983 145.122 98.0983ZM143.755 95.9096C143.755 96.7603 144.242 97.3337 145.112 97.3337C145.944 97.3337 146.383 96.7794 146.383 95.8905C146.383 94.9443 145.905 94.4187 145.179 94.4187C144.319 94.4187 143.755 95.0112 143.755 95.9096ZM151.541 97.9645V96.4162H148.32V95.6516L151.541 91.3603H152.401V95.6516H153.347V96.4162H152.401V97.9645H151.541ZM149.199 95.6516H151.541V92.5549L149.199 95.6516ZM162.63 98.0983C161.158 98.0983 160.336 96.6073 160.336 94.5429C160.336 92.5072 161.158 90.9971 162.649 90.9971C163.93 90.9971 164.627 92.0484 164.752 93.3865H163.853C163.719 92.4976 163.442 91.7617 162.62 91.7617C161.531 91.7617 161.234 93.1762 161.234 94.5429C161.234 95.9192 161.531 97.3337 162.63 97.3337C163.566 97.3337 163.796 96.3397 163.853 95.4987H164.752C164.646 97.0087 163.939 98.0983 162.63 98.0983ZM166.372 97.9645V91.1309H168.79C169.889 91.1309 170.73 91.6852 170.73 93.1188C170.73 94.5525 169.889 95.1068 168.79 95.1068H167.232V97.9645H166.372ZM167.232 94.3422H168.78C169.478 94.3422 169.831 93.9503 169.831 93.1188C169.831 92.2778 169.478 91.8955 168.78 91.8955H167.232V94.3422ZM174.167 98.0983C172.666 98.0983 172.055 97.0852 172.055 95.6898V91.1309H172.915V95.6898C172.915 96.808 173.326 97.3337 174.167 97.3337C174.998 97.3337 175.419 96.808 175.419 95.6898V91.1309H176.279V95.6898C176.279 97.0757 175.667 98.0983 174.167 98.0983Z" fill="#858585"></path>
<path d="M69.2925 62.7212C66.1277 62.7212 62.7217 63.4691 62.7217 65.1106V75.8628C62.7217 77.5043 66.1277 78.2522 69.2925 78.2522C72.4572 78.2522 75.8633 77.5043 75.8633 75.8628V65.1106C75.8633 63.4691 72.4572 62.7212 69.2925 62.7212ZM69.2925 63.9159C72.7556 63.9159 74.546 64.7725 74.6667 65.1106C74.546 65.4485 72.7556 66.3053 69.2925 66.3053C65.8031 66.3053 64.0123 65.4358 63.9164 65.1211V65.1182C64.0123 64.7854 65.8031 63.9159 69.2925 63.9159ZM63.9164 66.5608C65.1875 67.1984 67.2869 67.5 69.2925 67.5C71.298 67.5 73.3976 67.1984 74.6686 66.5608V68.687C74.5726 69.0198 72.7818 69.8893 69.2925 69.8893C65.7979 69.8893 64.0064 69.0172 63.9164 68.6946V66.5608ZM63.9164 70.1449C65.1875 70.7825 67.2869 71.084 69.2925 71.084C71.298 71.084 73.3976 70.7825 74.6686 70.1449V72.2712C74.5726 72.6039 72.7818 73.4734 69.2925 73.4734C65.7979 73.4734 64.0064 72.6013 63.9164 72.2787V70.1449ZM69.2925 77.0575C65.7979 77.0575 64.0064 76.1854 63.9164 75.8628V73.7289C65.1875 74.3666 67.2869 74.6681 69.2925 74.6681C71.298 74.6681 73.3976 74.3666 74.6686 73.7289V75.8553C74.5726 76.188 72.7818 77.0575 69.2925 77.0575Z" fill="#0D0D0D"></path>
<mask id="mask2_334_8593" style="mask-type:luminance" maskUnits="userSpaceOnUse" x="59" y="123" width="109" height="47">
<path d="M167.257 123.053H59.7349V169.646H167.257V123.053Z" fill="white"></path>
</mask>
<g mask="url(#mask2_334_8593)">
<path d="M167.257 123.053H59.7349V169.646H167.257V123.053Z" fill="#F6F6F6" fill-opacity="0.4"></path>
<path d="M72.2744 148.142V141.308H73.3257L74.5395 145.752H74.5587L75.7725 141.308H76.8238V148.142H75.9636V142.646H75.9541L74.9314 146.613H74.1668L73.1441 142.646H73.1346V148.142H72.2744ZM78.4066 148.142V141.308H82.5833V142.073H79.2668V144.223H82.1819V144.988H79.2668V147.377H82.6789V148.142H78.4066ZM83.9271 148.142V141.308H84.9784L86.1923 145.752H86.2114L87.4252 141.308H88.4766V148.142H87.6163V142.646H87.6068L86.5841 146.613H85.8196L84.7968 142.646H84.7872V148.142H83.9271ZM92.0377 148.276C90.5658 148.276 89.6579 146.957 89.6579 144.72C89.6579 142.484 90.5658 141.174 92.0377 141.174C93.5 141.174 94.3984 142.484 94.3984 144.72C94.3984 146.957 93.5 148.276 92.0377 148.276ZM90.5563 144.72C90.5563 146.374 90.9577 147.511 92.0377 147.511C93.0986 147.511 93.5 146.393 93.5 144.72C93.5 143.048 93.0986 141.939 92.0377 141.939C90.9577 141.939 90.5563 143.067 90.5563 144.72ZM95.8475 148.142V141.308H98.1986C99.4506 141.308 100.129 142.015 100.129 143.277C100.129 144.128 99.6896 144.778 99.0683 144.95V144.969C100.378 145.265 99.8998 147.97 100.206 148.084V148.142H99.2882C99.0301 147.855 99.5749 145.38 98.1795 145.38H96.7076V148.142H95.8475ZM96.7076 144.615H98.0266C98.8198 144.615 99.269 144.156 99.269 143.296C99.269 142.503 98.9154 142.073 98.0457 142.073H96.7076V144.615ZM103.251 148.142V145.341L101.005 141.308H101.941L103.671 144.682H103.69L105.43 141.308H106.357L104.111 145.341V148.142H103.251Z" fill="#141414"></path>
<path d="M59.4146 156.175L75.0949 160.357L88.8552 153.885L107.255 151.098L126.616 153.885L154.137 151.098L168.216 152.292" stroke="#005E9E" stroke-width="1.19469"></path>
</g>
<path d="M166.659 123.65H60.332V169.049H166.659V123.65Z" stroke="#E2E2E2" stroke-width="1.19469"></path>
<mask id="mask3_334_8593" style="mask-type:luminance" maskUnits="userSpaceOnUse" x="179" y="123" width="108" height="47">
<path d="M286.726 123.053H179.204V169.646H286.726V123.053Z" fill="white"></path>
</mask>
<g mask="url(#mask3_334_8593)">
<path d="M286.726 123.053H179.204V169.646H286.726V123.053Z" fill="#F6F6F6" fill-opacity="0.4"></path>
<path d="M194.133 148.276C192.661 148.276 191.839 146.785 191.839 144.72C191.839 142.684 192.661 141.174 194.152 141.174C195.432 141.174 196.13 142.226 196.254 143.564H195.356C195.222 142.675 194.945 141.939 194.123 141.939C193.034 141.939 192.737 143.353 192.737 144.72C192.737 146.096 193.034 147.511 194.133 147.511C195.069 147.511 195.299 146.517 195.356 145.676H196.254C196.149 147.186 195.442 148.276 194.133 148.276ZM197.876 148.142V141.308H200.294C201.393 141.308 202.234 141.862 202.234 143.296C202.234 144.73 201.393 145.284 200.294 145.284H198.736V148.142H197.876ZM198.736 144.519H200.284C200.982 144.519 201.335 144.128 201.335 143.296C201.335 142.455 200.982 142.073 200.284 142.073H198.736V144.519ZM205.671 148.276C204.17 148.276 203.559 147.262 203.559 145.867V141.308H204.419V145.867C204.419 146.985 204.83 147.511 205.671 147.511C206.502 147.511 206.923 146.985 206.923 145.867V141.308H207.783V145.867C207.783 147.253 207.172 148.276 205.671 148.276Z" fill="#141414"></path>
<path d="M138.883 167.623L189.924 156.274L211.844 161.55L236.804 157.966L265.765 150.698L286.886 156.274" stroke="#006D4C" stroke-width="1.19469"></path>
</g>
<path d="M286.129 123.65H179.801V169.049H286.129V123.65Z" stroke="#E2E2E2" stroke-width="1.19469"></path>
<mask id="mask4_334_8593" style="mask-type:luminance" maskUnits="userSpaceOnUse" x="59" y="181" width="109" height="48">
<path d="M167.257 181.593H59.7349V228.186H167.257V181.593Z" fill="white"></path>
</mask>
<g mask="url(#mask4_334_8593)">
<path d="M167.257 181.593H59.7349V228.186H167.257V181.593Z" fill="#F6F6F6" fill-opacity="0.4"></path>
<path d="M74.7593 206.816C73.2779 206.816 72.2266 205.917 72.1597 204.388H73.0581C73.125 205.306 73.5646 206.07 74.7306 206.07C75.6959 206.07 76.0018 205.525 76.0018 204.818C76.0018 203.853 75.4283 203.738 74.3101 203.413C73.4213 203.155 72.3986 202.83 72.3986 201.521C72.3986 200.431 73.1632 199.714 74.4344 199.714C75.8106 199.714 76.6421 200.546 76.7282 201.874H75.8298C75.7246 200.957 75.3232 200.46 74.4439 200.46C73.6889 200.46 73.297 200.823 73.297 201.482C73.297 202.304 73.8991 202.496 74.702 202.715C75.8298 203.031 76.9002 203.346 76.9002 204.789C76.9002 205.917 76.2216 206.816 74.7593 206.816ZM79.9453 206.682V200.613H77.9383V199.848H82.8126V200.613H80.8055V206.682H79.9453ZM86.2114 206.816C84.7394 206.816 83.8314 205.497 83.8314 203.26C83.8314 201.024 84.7394 199.714 86.2114 199.714C87.6737 199.714 88.5721 201.024 88.5721 203.26C88.5721 205.497 87.6737 206.816 86.2114 206.816ZM84.7298 203.26C84.7298 204.914 85.1313 206.051 86.2114 206.051C87.2723 206.051 87.6737 204.933 87.6737 203.26C87.6737 201.588 87.2723 200.479 86.2114 200.479C85.1313 200.479 84.7298 201.607 84.7298 203.26ZM90.021 206.682V199.848H92.3722C93.6242 199.848 94.3028 200.555 94.3028 201.817C94.3028 202.668 93.8631 203.318 93.2419 203.49V203.509C94.5513 203.805 94.0734 206.51 94.3792 206.624V206.682H93.4617C93.2037 206.395 93.7484 203.92 92.353 203.92H90.8812V206.682H90.021ZM90.8812 203.155H92.2001C92.9934 203.155 93.4426 202.696 93.4426 201.836C93.4426 201.043 93.089 200.613 92.2192 200.613H90.8812V203.155ZM95.2739 206.682L97.3766 199.848H98.3228L100.435 206.682H99.5079L99.0396 204.971H96.6407L96.1723 206.682H95.2739ZM96.8987 204.206H98.7815L97.864 200.641H97.8258L96.8987 204.206ZM103.624 206.816C102.161 206.816 101.368 205.315 101.368 203.308C101.368 201.224 102.219 199.714 103.767 199.714C104.942 199.714 105.688 200.594 105.841 201.913H104.952C104.837 200.928 104.359 200.479 103.748 200.479C102.639 200.479 102.257 201.979 102.257 203.308C102.257 204.541 102.582 206.051 103.681 206.051C104.522 206.051 105.038 205.219 105.048 203.891H103.7V203.126H105.917V206.682H105.334L105.153 205.716H105.134C104.799 206.481 104.312 206.816 103.624 206.816ZM107.538 206.682V199.848H111.715V200.613H108.398V202.763H111.313V203.528H108.398V205.917H111.81V206.682H107.538Z" fill="#141414"></path>
<path d="M59.4146 214.946H75.0949L107.256 209.868H154.137L168.216 205.089" stroke="#7B4400" stroke-width="1.19469"></path>
</g>
<path d="M166.659 182.19H60.332V227.589H166.659V182.19Z" stroke="#E2E2E2" stroke-width="1.19469"></path>
<mask id="mask5_334_8593" style="mask-type:luminance" maskUnits="userSpaceOnUse" x="179" y="181" width="108" height="48">
<path d="M286.726 181.593H179.204V228.186H286.726V181.593Z" fill="white"></path>
</mask>
<g mask="url(#mask5_334_8593)">
<path d="M286.726 181.593H179.204V228.186H286.726V181.593Z" fill="#F6F6F6" fill-opacity="0.4"></path>
<path d="M194.133 206.816C192.661 206.816 191.839 205.325 191.839 203.26C191.839 201.224 192.661 199.714 194.152 199.714C195.432 199.714 196.13 200.766 196.254 202.104H195.356C195.222 201.215 194.945 200.479 194.123 200.479C193.034 200.479 192.737 201.893 192.737 203.26C192.737 204.636 193.034 206.051 194.133 206.051C195.069 206.051 195.299 205.057 195.356 204.216H196.254C196.149 205.726 195.442 206.816 194.133 206.816ZM199.854 206.816C198.382 206.816 197.474 205.497 197.474 203.26C197.474 201.024 198.382 199.714 199.854 199.714C201.316 199.714 202.215 201.024 202.215 203.26C202.215 205.497 201.316 206.816 199.854 206.816ZM198.373 203.26C198.373 204.914 198.774 206.051 199.854 206.051C200.915 206.051 201.316 204.933 201.316 203.26C201.316 201.588 200.915 200.479 199.854 200.479C198.774 200.479 198.373 201.607 198.373 203.26ZM203.549 206.682V199.848H204.601L206.913 205.458H206.933V199.848H207.793V206.682H206.741L204.419 201.072H204.4L204.409 206.682H203.549ZM209.376 206.682V199.848H210.427L212.74 205.458H212.759V199.848H213.619V206.682H212.568L210.245 201.072H210.226L210.236 206.682H209.376ZM215.354 206.682V199.848H219.531V200.613H216.214V202.763H219.129V203.528H216.214V205.917H219.626V206.682H215.354ZM223.264 206.816C221.792 206.816 220.97 205.325 220.97 203.26C220.97 201.224 221.792 199.714 223.283 199.714C224.564 199.714 225.262 200.766 225.386 202.104H224.487C224.354 201.215 224.076 200.479 223.254 200.479C222.165 200.479 221.869 201.893 221.869 203.26C221.869 204.636 222.165 206.051 223.264 206.051C224.201 206.051 224.43 205.057 224.487 204.216H225.386C225.281 205.726 224.573 206.816 223.264 206.816ZM228.546 206.682V200.613H226.539V199.848H231.413V200.613H229.406V206.682H228.546ZM232.738 206.682V205.917H234.363V200.613H232.738V199.848H236.867V200.613H235.223V205.917H236.867V206.682H232.738ZM240.638 206.816C239.167 206.816 238.259 205.497 238.259 203.26C238.259 201.024 239.167 199.714 240.638 199.714C242.101 199.714 242.999 201.024 242.999 203.26C242.999 205.497 242.101 206.816 240.638 206.816ZM239.157 203.26C239.157 204.914 239.558 206.051 240.638 206.051C241.699 206.051 242.101 204.933 242.101 203.26C242.101 201.588 241.699 200.479 240.638 200.479C239.558 200.479 239.157 201.607 239.157 203.26ZM244.334 206.682V199.848H245.385L247.698 205.458H247.717V199.848H248.577V206.682H247.526L245.203 201.072H245.184L245.194 206.682H244.334ZM252.492 206.816C251.011 206.816 249.959 205.917 249.892 204.388H250.791C250.858 205.306 251.297 206.07 252.463 206.07C253.429 206.07 253.735 205.525 253.735 204.818C253.735 203.853 253.161 203.738 252.043 203.413C251.154 203.155 250.131 202.83 250.131 201.521C250.131 200.431 250.896 199.714 252.167 199.714C253.543 199.714 254.375 200.546 254.461 201.874H253.563C253.457 200.957 253.056 200.46 252.177 200.46C251.422 200.46 251.03 200.823 251.03 201.482C251.03 202.304 251.632 202.496 252.435 202.715C253.563 203.031 254.633 203.346 254.633 204.789C254.633 205.917 253.954 206.816 252.492 206.816Z" fill="#141414"></path>
<path d="M178.883 214.945H194.564L226.725 218.828H261.445L287.046 210.465" stroke="#48008C" stroke-width="1.19469"></path>
</g>
<path d="M286.129 182.19H179.801V227.589H286.129V182.19Z" stroke="#E2E2E2" stroke-width="1.19469"></path>
<path d="M502.965 25.0889H25.0889V228.186H502.965V25.0889Z" fill="#0D0D0D"></path>
<path d="M502.965 25.0889H25.0889V228.186H502.965V25.0889Z" stroke="#272727" stroke-width="1.19469"></path>
<path d="M149.187 63.319L145.155 59.2869L145.788 58.6534L149.187 62.0516L155.274 55.9653L155.907 56.5989L149.187 63.319Z" fill="#00C89B"></path>
<path d="M162.599 64.5137H161.488L164.642 55.9717H165.848L169.026 64.5137H167.867L167.115 62.3752H163.352L162.599 64.5137ZM165.227 56.9633L163.71 61.4195H166.768L165.251 56.9633H165.227ZM172.138 64.5137H171.051L168.865 58.4208H169.916L171.613 63.558H171.625L173.297 58.4208H174.325L172.138 64.5137ZM176.714 64.681C175.484 64.681 174.707 63.9761 174.707 62.9487C174.707 61.5509 175.734 61.1686 177.311 60.8819C178.351 60.6907 178.829 60.5712 178.829 59.9739C178.829 59.496 178.566 59.0779 177.562 59.0779C176.404 59.0779 176.069 59.4243 176.009 60.3084H175.006C175.065 59.1376 175.806 58.2416 177.598 58.2416C178.733 58.2416 179.761 58.7195 179.761 60.2128V63.1398C179.761 63.6177 179.832 63.8566 180.071 63.8566C180.107 63.8566 180.143 63.8566 180.215 63.8447V64.5137C180.059 64.5496 179.916 64.5735 179.749 64.5735C179.223 64.5735 178.9 64.3704 178.841 63.6177H178.817C178.423 64.2748 177.73 64.681 176.714 64.681ZM176.81 63.8447C177.957 63.8447 178.829 63.331 178.829 62.1602V61.1925C178.65 61.3836 178.052 61.5389 177.395 61.6704C176.212 61.9093 175.711 62.196 175.711 62.9009C175.711 63.4982 176.021 63.8447 176.81 63.8447ZM182.431 57.2381H181.284V56.0912H182.431V57.2381ZM182.335 64.5137H181.379V58.4208H182.335V64.5137ZM184.8 64.5137H183.844V55.9717H184.8V64.5137ZM187.993 64.681C186.763 64.681 185.986 63.9761 185.986 62.9487C185.986 61.5509 187.014 61.1686 188.591 60.8819C189.63 60.6907 190.108 60.5712 190.108 59.9739C190.108 59.496 189.845 59.0779 188.841 59.0779C187.683 59.0779 187.348 59.4243 187.288 60.3084H186.285C186.345 59.1376 187.085 58.2416 188.877 58.2416C190.012 58.2416 191.04 58.7195 191.04 60.2128V63.1398C191.04 63.6177 191.111 63.8566 191.35 63.8566C191.386 63.8566 191.422 63.8566 191.494 63.8447V64.5137C191.338 64.5496 191.195 64.5735 191.028 64.5735C190.502 64.5735 190.179 64.3704 190.12 63.6177H190.096C189.702 64.2748 189.009 64.681 187.993 64.681ZM188.089 63.8447C189.236 63.8447 190.108 63.331 190.108 62.1602V61.1925C189.929 61.3836 189.331 61.5389 188.674 61.6704C187.491 61.9093 186.99 62.196 186.99 62.9009C186.99 63.4982 187.3 63.8447 188.089 63.8447ZM195.548 58.2535C197.078 58.2535 198.296 59.4602 198.296 61.4673C198.296 63.4743 197.078 64.681 195.548 64.681C194.569 64.681 193.995 64.2509 193.637 63.7252H193.613V64.5137H192.657V55.9717H193.613V59.1735H193.637C193.995 58.7075 194.569 58.2535 195.548 58.2535ZM195.453 63.8447C196.707 63.8447 197.293 62.6619 197.293 61.4673C197.293 60.2726 196.707 59.0898 195.453 59.0898C194.318 59.0898 193.613 60.0336 193.613 61.4673C193.613 62.9009 194.318 63.8447 195.453 63.8447ZM200.43 64.5137H199.474V55.9717H200.43V64.5137ZM207.399 61.2403C207.399 61.4195 207.399 61.6226 207.387 61.7181H202.62C202.644 62.7934 203.241 63.8686 204.591 63.8686C205.786 63.8686 206.24 63.0681 206.347 62.6381H207.315C207.004 63.773 206.144 64.6929 204.579 64.6929C202.656 64.6929 201.616 63.3071 201.616 61.4553C201.616 59.508 202.775 58.2416 204.579 58.2416C206.359 58.2416 207.399 59.4602 207.399 61.2403ZM202.62 60.8819H206.383C206.383 59.8783 205.666 59.0659 204.531 59.0659C203.48 59.0659 202.68 59.8186 202.62 60.8819Z" fill="#00C89B"></path>
<path d="M78.5941 64.7477C76.8714 64.7477 75.7842 63.7609 75.7842 62.3225C75.7842 60.3656 77.2226 59.8303 79.4304 59.4289C80.8855 59.1613 81.5545 58.9941 81.5545 58.1578C81.5545 57.4888 81.1866 56.9034 79.7816 56.9034C78.1592 56.9034 77.6909 57.3884 77.6073 58.6261H76.2023C76.286 56.987 77.3229 55.7326 79.8318 55.7326C81.4207 55.7326 82.8591 56.4016 82.8591 58.4923V62.5901C82.8591 63.2591 82.9595 63.5936 83.294 63.5936C83.3442 63.5936 83.3944 63.5936 83.4947 63.5769V64.5135C83.2773 64.5637 83.0766 64.5972 82.8424 64.5972C82.1065 64.5972 81.6549 64.3128 81.5713 63.2591H81.5378C80.9859 64.179 80.0158 64.7477 78.5941 64.7477ZM78.7279 63.5769C80.3336 63.5769 81.5545 62.8577 81.5545 61.2186V59.8638C81.3037 60.1314 80.4674 60.3488 79.5475 60.5328C77.8916 60.8673 77.1891 61.2688 77.1891 62.2556C77.1891 63.0919 77.624 63.5769 78.7279 63.5769ZM89.1728 55.7493C91.3137 55.7493 93.0197 57.4386 93.0197 60.2485C93.0197 63.0584 91.3137 64.7477 89.1728 64.7477C87.8013 64.7477 86.9985 64.1456 86.4967 63.4096H86.4633V67.474H85.1252V55.9834H86.4633V57.0372H86.4967C86.9985 56.3849 87.8013 55.7493 89.1728 55.7493ZM89.039 63.5769C90.7952 63.5769 91.6148 61.9211 91.6148 60.2485C91.6148 58.5759 90.7952 56.9201 89.039 56.9201C87.4501 56.9201 86.4633 58.2414 86.4633 60.2485C86.4633 62.2556 87.4501 63.5769 89.039 63.5769ZM98.7155 55.7493C100.856 55.7493 102.562 57.4386 102.562 60.2485C102.562 63.0584 100.856 64.7477 98.7155 64.7477C97.344 64.7477 96.5412 64.1456 96.0394 63.4096H96.006V67.474H94.6679V55.9834H96.006V57.0372H96.0394C96.5412 56.3849 97.344 55.7493 98.7155 55.7493ZM98.5817 63.5769C100.338 63.5769 101.157 61.9211 101.157 60.2485C101.157 58.5759 100.338 56.9201 98.5817 56.9201C96.9928 56.9201 96.006 58.2414 96.006 60.2485C96.006 62.2556 96.9928 63.5769 98.5817 63.5769ZM108.426 60.9175H103.943V59.5795H108.426V60.9175ZM116.363 57.0873V52.5547H117.701V64.5135H116.363V63.4598H116.33C115.828 64.1121 115.025 64.7477 113.653 64.7477C111.513 64.7477 109.807 63.0584 109.807 60.2485C109.807 57.4386 111.513 55.7493 113.653 55.7493C115.025 55.7493 115.828 56.3514 116.33 57.0873H116.363ZM113.787 63.5769C115.376 63.5769 116.363 62.2556 116.363 60.2485C116.363 58.2414 115.376 56.9201 113.787 56.9201C112.031 56.9201 111.212 58.5759 111.212 60.2485C111.212 61.9211 112.031 63.5769 113.787 63.5769ZM123.849 55.7493C125.99 55.7493 127.696 57.4386 127.696 60.2485C127.696 63.0584 125.99 64.7477 123.849 64.7477C122.477 64.7477 121.675 64.1456 121.173 63.4096H121.139V64.5135H119.801V52.5547H121.139V57.0372H121.173C121.675 56.3849 122.477 55.7493 123.849 55.7493ZM123.715 63.5769C125.471 63.5769 126.291 61.9211 126.291 60.2485C126.291 58.5759 125.471 56.9201 123.715 56.9201C122.126 56.9201 121.139 58.2414 121.139 60.2485C121.139 62.2556 122.126 63.5769 123.715 63.5769Z" fill="white"></path>
<path d="M49.6519 86.0177C49.6519 84.8708 50.3018 83.9437 51.5347 83.1696C52.6242 82.491 53.1881 82.2138 53.1881 81.2676C53.1881 80.7229 52.9588 80.0443 52.0603 80.0443C51.0473 80.0443 50.7127 80.8184 50.7127 81.7264H49.8143C49.8143 80.3597 50.5407 79.2797 52.089 79.2797C53.1881 79.2797 54.0865 79.9965 54.0865 81.2581C54.0865 82.5006 53.1881 83.0931 52.2324 83.7048C51.3531 84.2687 50.9039 84.6128 50.751 85.234V85.2531H54.0196V86.0177H49.6519ZM57.7338 86.1515C56.2906 86.1515 55.5165 85.1767 55.4782 84.1158H56.3766C56.434 84.7561 56.7876 85.3869 57.6956 85.3869C58.508 85.3869 59.0432 84.8135 59.0432 83.7622C59.0432 82.7682 58.5366 82.3476 57.7625 82.3476C57.2273 82.3476 56.7589 82.5388 56.4627 82.9689H55.5643L56.2142 79.4135H59.6358V80.1781H56.8928L56.5296 82.1756V82.1947C56.8545 81.8124 57.3228 81.583 57.9823 81.583C59.1483 81.583 59.9416 82.5388 59.9416 83.7622C59.9416 85.1862 58.9859 86.1515 57.7338 86.1515ZM63.5888 86.1515C61.8875 86.1515 61.2567 84.8135 61.2567 82.7204C61.2567 80.6082 62.1073 79.2797 63.6174 79.2797C64.7549 79.2797 65.4907 80.1207 65.5863 81.086H64.7071C64.6402 80.4744 64.3152 80.0443 63.6174 80.0443C62.4132 80.0443 62.1169 81.325 62.1169 82.577V82.6726L62.136 82.6822C62.4514 82.0418 63.0536 81.7073 63.7417 81.7073C64.9269 81.7073 65.7489 82.5866 65.7489 83.8864C65.7489 85.1098 64.9269 86.1515 63.5888 86.1515ZM62.222 83.9629C62.222 84.8135 62.7095 85.3869 63.5793 85.3869C64.4107 85.3869 64.8503 84.8326 64.8503 83.9437C64.8503 82.9976 64.3726 82.4719 63.6462 82.4719C62.7859 82.4719 62.222 83.0645 62.222 83.9629ZM75.0982 86.1515C73.6359 86.1515 72.8426 84.651 72.8426 82.6439C72.8426 80.5604 73.6932 79.0503 75.2415 79.0503C76.4171 79.0503 77.1626 79.9296 77.3155 81.2485H76.4267C76.312 80.2641 75.8341 79.8149 75.2224 79.8149C74.1137 79.8149 73.7314 81.3154 73.7314 82.6439C73.7314 83.8768 74.0564 85.3869 75.1555 85.3869C75.9966 85.3869 76.5127 84.5554 76.5222 83.2269H75.1746V82.4623H77.392V86.0177H76.809L76.6274 85.0524H76.6082C76.2737 85.817 75.7863 86.1515 75.0982 86.1515ZM78.9175 86.0177V79.1841H81.2782C82.4251 79.1841 83.1132 79.8436 83.1132 80.9045C83.1132 81.736 82.7022 82.1278 82.2339 82.319V82.3381C82.836 82.4719 83.333 83.0358 83.333 84.0298C83.333 85.2914 82.578 86.0177 81.4215 86.0177H78.9175ZM79.7776 85.2531H81.3546C82.1861 85.2531 82.4346 84.6797 82.4346 84.0298C82.4346 83.2938 82.0619 82.8064 81.4789 82.8064H79.7776V85.2531ZM79.7776 82.0418H81.2591C81.9568 82.0418 82.2148 81.6213 82.2148 81C82.2148 80.3692 81.8994 79.9487 81.3164 79.9487H79.7776V82.0418ZM90.6275 86.0177V79.1841H92.9786C94.2306 79.1841 94.9092 79.8914 94.9092 81.153C94.9092 82.0036 94.4696 82.6535 93.8483 82.8255V82.8446C95.1577 83.1409 94.6799 85.8457 94.9857 85.9604V86.0177H94.0682C93.8101 85.731 94.3549 83.2556 92.9595 83.2556H91.4876V86.0177H90.6275ZM91.4876 82.491H92.8066C93.5998 82.491 94.049 82.0322 94.049 81.1721C94.049 80.3788 93.6954 79.9487 92.8257 79.9487H91.4876V82.491ZM95.8804 86.0177L97.983 79.1841H98.9292L101.041 86.0177H100.114L99.6461 84.3069H97.2471L96.7788 86.0177H95.8804ZM97.5052 83.5423H99.388L98.4705 79.9774H98.4323L97.5052 83.5423ZM102.013 86.0177V79.1841H103.064L104.278 83.6283H104.297L105.511 79.1841H106.562V86.0177H105.702V80.5222H105.692L104.67 84.4885H103.905L102.882 80.5222H102.873V86.0177H102.013Z" fill="#C3C3C3"></path>
<path d="M134.37 86.1515C132.668 86.1515 132.038 84.8135 132.038 82.7204C132.038 80.6082 132.888 79.2797 134.398 79.2797C135.536 79.2797 136.272 80.1207 136.367 81.086H135.488C135.421 80.4744 135.096 80.0443 134.398 80.0443C133.194 80.0443 132.898 81.325 132.898 82.577V82.6726L132.917 82.6822C133.232 82.0418 133.834 81.7073 134.523 81.7073C135.708 81.7073 136.53 82.5866 136.53 83.8864C136.53 85.1098 135.708 86.1515 134.37 86.1515ZM133.003 83.9629C133.003 84.8135 133.49 85.3869 134.36 85.3869C135.192 85.3869 135.631 84.8326 135.631 83.9437C135.631 82.9976 135.153 82.4719 134.427 82.4719C133.567 82.4719 133.003 83.0645 133.003 83.9629ZM140.789 86.0177V84.4694H137.568V83.7048L140.789 79.4135H141.649V83.7048H142.595V84.4694H141.649V86.0177H140.789ZM138.447 83.7048H140.789V80.6082L138.447 83.7048ZM151.878 86.1515C150.406 86.1515 149.584 84.6606 149.584 82.5961C149.584 80.5604 150.406 79.0503 151.897 79.0503C153.178 79.0503 153.875 80.1016 154 81.4397H153.101C152.967 80.5508 152.69 79.8149 151.868 79.8149C150.779 79.8149 150.482 81.2294 150.482 82.5961C150.482 83.9724 150.779 85.3869 151.878 85.3869C152.814 85.3869 153.044 84.3929 153.101 83.5519H154C153.894 85.062 153.187 86.1515 151.878 86.1515ZM155.62 86.0177V79.1841H158.038C159.137 79.1841 159.978 79.7384 159.978 81.1721C159.978 82.6057 159.137 83.16 158.038 83.16H156.48V86.0177H155.62ZM156.48 82.3954H158.028C158.726 82.3954 159.079 82.0036 159.079 81.1721C159.079 80.331 158.726 79.9487 158.028 79.9487H156.48V82.3954ZM163.415 86.1515C161.914 86.1515 161.303 85.1384 161.303 83.743V79.1841H162.163V83.743C162.163 84.8613 162.574 85.3869 163.415 85.3869C164.246 85.3869 164.667 84.8613 164.667 83.743V79.1841H165.527V83.743C165.527 85.1289 164.915 86.1515 163.415 86.1515Z" fill="#C3C3C3"></path>
<path d="M58.54 50.7744C55.3753 50.7744 51.9692 51.5223 51.9692 53.1638V63.916C51.9692 65.5575 55.3753 66.3054 58.54 66.3054C61.7048 66.3054 65.1108 65.5575 65.1108 63.916V53.1638C65.1108 51.5223 61.7048 50.7744 58.54 50.7744ZM58.54 51.9691C62.0032 51.9691 63.7936 52.8257 63.9142 53.1638C63.7936 53.5018 62.0032 54.3585 58.54 54.3585C55.0507 54.3585 53.2599 53.489 53.1639 53.1743V53.1714C53.2599 52.8386 55.0507 51.9691 58.54 51.9691ZM53.1639 54.614C54.4351 55.2516 56.5345 55.5532 58.54 55.5532C60.5456 55.5532 62.6451 55.2516 63.9161 54.614V56.7402C63.8202 57.0731 62.0294 57.9426 58.54 57.9426C55.0454 57.9426 53.254 57.0704 53.1639 56.7479V54.614ZM53.1639 58.1981C54.4351 58.8357 56.5345 59.1372 58.54 59.1372C60.5456 59.1372 62.6451 58.8357 63.9161 58.1981V60.3244C63.8202 60.6571 62.0294 61.5266 58.54 61.5266C55.0454 61.5266 53.254 60.6545 53.1639 60.3319V58.1981ZM58.54 65.1107C55.0454 65.1107 53.254 64.2386 53.1639 63.916V61.7822C54.4351 62.4198 56.5345 62.7213 58.54 62.7213C60.5456 62.7213 62.6451 62.4198 63.9161 61.7822V63.9085C63.8202 64.2412 62.0294 65.1107 58.54 65.1107Z" fill="white"></path>
<mask id="mask6_334_8593" style="mask-type:luminance" maskUnits="userSpaceOnUse" x="48" y="111" width="211" height="64">
<path d="M258.053 111.106H48.9824V174.425H258.053V111.106Z" fill="white"></path>
</mask>
<g mask="url(#mask6_334_8593)">
<path d="M57.938 127.832V120.999H58.9893L60.2031 125.443H60.2222L61.436 120.999H62.4874V127.832H61.6272V122.337H61.6176L60.595 126.303H59.8304L58.8077 122.337H58.7982V127.832H57.938ZM64.0702 127.832V120.999H68.2469V121.763H64.9304V123.914H67.8454V124.678H64.9304V127.068H68.3424V127.832H64.0702ZM69.5906 127.832V120.999H70.642L71.8559 125.443H71.875L73.0888 120.999H74.1401V127.832H73.2798V122.337H73.2704L72.2476 126.303H71.4832L70.4604 122.337H70.4508V127.832H69.5906ZM77.7013 127.966C76.2294 127.966 75.3215 126.647 75.3215 124.411C75.3215 122.174 76.2294 120.865 77.7013 120.865C79.1636 120.865 80.062 122.174 80.062 124.411C80.062 126.647 79.1636 127.966 77.7013 127.966ZM76.2199 124.411C76.2199 126.064 76.6213 127.201 77.7013 127.201C78.7622 127.201 79.1636 126.083 79.1636 124.411C79.1636 122.738 78.7622 121.629 77.7013 121.629C76.6213 121.629 76.2199 122.757 76.2199 124.411ZM81.511 127.832V120.999H83.8622C85.1142 120.999 85.7928 121.706 85.7928 122.967C85.7928 123.818 85.3531 124.468 84.7319 124.64V124.659C86.0413 124.955 85.5634 127.66 85.8693 127.775V127.832H84.9517C84.6937 127.545 85.2385 125.07 83.8431 125.07H82.3712V127.832H81.511ZM82.3712 124.305H83.6901C84.4834 124.305 84.9326 123.847 84.9326 122.987C84.9326 122.193 84.579 121.763 83.7092 121.763H82.3712V124.305ZM88.9144 127.832V125.032L86.6684 120.999H87.605L89.3349 124.372H89.354L91.0935 120.999H92.0206L89.7746 125.032V127.832H88.9144Z" fill="#C3C3C3"></path>
<path d="M48.3599 159.842L78.8493 165.525L105.605 156.731L141.384 152.942L179.029 156.731L232.542 152.942L259.919 154.566" stroke="#AA77FD" stroke-width="1.19469"></path>
</g>
<path d="M257.456 111.704H49.5801V173.828H257.456V111.704Z" stroke="#272727" stroke-width="1.19469"></path>
<mask id="mask7_334_8593" style="mask-type:luminance" maskUnits="userSpaceOnUse" x="270" y="111" width="210" height="64">
<path d="M479.071 111.106H270V174.425H479.071V111.106Z" fill="white"></path>
</mask>
<g mask="url(#mask7_334_8593)">
<path d="M281.345 127.966C279.873 127.966 279.051 126.475 279.051 124.411C279.051 122.375 279.873 120.865 281.364 120.865C282.645 120.865 283.343 121.916 283.467 123.254H282.568C282.435 122.365 282.157 121.629 281.336 121.629C280.246 121.629 279.95 123.044 279.95 124.411C279.95 125.787 280.246 127.201 281.345 127.201C282.282 127.201 282.511 126.207 282.568 125.366H283.467C283.362 126.876 282.654 127.966 281.345 127.966ZM285.088 127.832V120.999H287.506C288.605 120.999 289.446 121.553 289.446 122.987C289.446 124.42 288.605 124.974 287.506 124.974H285.948V127.832H285.088ZM285.948 124.21H287.497C288.194 124.21 288.548 123.818 288.548 122.987C288.548 122.145 288.194 121.763 287.497 121.763H285.948V124.21ZM292.883 127.966C291.383 127.966 290.771 126.953 290.771 125.557V120.999H291.631V125.557C291.631 126.676 292.042 127.201 292.883 127.201C293.715 127.201 294.135 126.676 294.135 125.557V120.999H294.996V125.557C294.996 126.943 294.384 127.966 292.883 127.966Z" fill="#C3C3C3"></path>
<path d="M191.599 175.401L290.845 159.978L333.468 167.148L382.002 162.277L438.314 152.401L479.382 159.978" stroke="#F680FF" stroke-width="1.19469"></path>
</g>
<path d="M478.474 111.704H270.598V173.828H478.474V111.704Z" stroke="#272727" stroke-width="1.19469"></path>
<mask id="mask8_334_8593" style="mask-type:luminance" maskUnits="userSpaceOnUse" x="48" y="186" width="211" height="64">
<path d="M258.053 186.372H48.9824V249.691H258.053V186.372Z" fill="white"></path>
</mask>
<g mask="url(#mask8_334_8593)">
<path d="M60.4224 203.232C58.941 203.232 57.8897 202.333 57.8228 200.804H58.7212C58.7881 201.722 59.2277 202.486 60.3937 202.486C61.359 202.486 61.6649 201.941 61.6649 201.234C61.6649 200.269 61.0914 200.154 59.9732 199.829C59.0843 199.571 58.0617 199.246 58.0617 197.937C58.0617 196.847 58.8263 196.13 60.0974 196.13C61.4737 196.13 62.3052 196.962 62.3912 198.29H61.4928C61.3877 197.373 60.9863 196.876 60.107 196.876C59.352 196.876 58.9601 197.239 58.9601 197.899C58.9601 198.72 59.5622 198.912 60.3651 199.131C61.4928 199.447 62.5633 199.762 62.5633 201.205C62.5633 202.333 61.8847 203.232 60.4224 203.232ZM65.6084 203.098V197.029H63.6013V196.264H68.4757V197.029H66.4686V203.098H65.6084ZM71.8745 203.232C70.4025 203.232 69.4945 201.913 69.4945 199.676C69.4945 197.44 70.4025 196.13 71.8745 196.13C73.3368 196.13 74.2352 197.44 74.2352 199.676C74.2352 201.913 73.3368 203.232 71.8745 203.232ZM70.3929 199.676C70.3929 201.33 70.7943 202.467 71.8745 202.467C72.9353 202.467 73.3368 201.349 73.3368 199.676C73.3368 198.004 72.9353 196.895 71.8745 196.895C70.7943 196.895 70.3929 198.023 70.3929 199.676ZM75.6841 203.098V196.264H78.0352C79.2873 196.264 79.9659 196.971 79.9659 198.233C79.9659 199.084 79.5262 199.734 78.905 199.906V199.925C80.2144 200.221 79.7365 202.926 80.0423 203.04V203.098H79.1248C78.8667 202.811 79.4115 200.336 78.0161 200.336H76.5443V203.098H75.6841ZM76.5443 199.571H77.8632C78.6565 199.571 79.1057 199.112 79.1057 198.252C79.1057 197.459 78.752 197.029 77.8823 197.029H76.5443V199.571ZM80.937 203.098L83.0397 196.264H83.9859L86.0981 203.098H85.171L84.7027 201.387H82.3037L81.8354 203.098H80.937ZM82.5618 200.622H84.4446L83.5271 197.057H83.4889L82.5618 200.622ZM89.2866 203.232C87.8243 203.232 87.031 201.731 87.031 199.724C87.031 197.64 87.8816 196.13 89.43 196.13C90.6055 196.13 91.351 197.01 91.5039 198.329H90.6151C90.5004 197.344 90.0225 196.895 89.4108 196.895C88.3022 196.895 87.9199 198.395 87.9199 199.724C87.9199 200.957 88.2448 202.467 89.3439 202.467C90.185 202.467 90.7011 201.636 90.7107 200.307H89.3631V199.542H91.5804V203.098H90.9974L90.8158 202.132H90.7967C90.4622 202.897 89.9747 203.232 89.2866 203.232ZM93.2014 203.098V196.264H97.378V197.029H94.0615V199.179H96.9766V199.944H94.0615V202.333H97.4736V203.098H93.2014Z" fill="#C3C3C3"></path>
</g>
<path d="M257.456 186.969H49.5801V249.093H257.456V186.969Z" stroke="#272727" stroke-width="1.19469"></path>
<mask id="mask9_334_8593" style="mask-type:luminance" maskUnits="userSpaceOnUse" x="270" y="186" width="210" height="64">
<path d="M479.071 186.372H270V249.691H479.071V186.372Z" fill="white"></path>
</mask>
<g mask="url(#mask9_334_8593)">
<path d="M281.345 203.232C279.873 203.232 279.051 201.741 279.051 199.676C279.051 197.64 279.873 196.13 281.364 196.13C282.645 196.13 283.343 197.182 283.467 198.52H282.568C282.435 197.631 282.157 196.895 281.336 196.895C280.246 196.895 279.95 198.309 279.95 199.676C279.95 201.052 280.246 202.467 281.345 202.467C282.282 202.467 282.511 201.473 282.568 200.632H283.467C283.362 202.142 282.654 203.232 281.345 203.232ZM287.066 203.232C285.595 203.232 284.687 201.913 284.687 199.676C284.687 197.44 285.595 196.13 287.066 196.13C288.529 196.13 289.427 197.44 289.427 199.676C289.427 201.913 288.529 203.232 287.066 203.232ZM285.585 199.676C285.585 201.33 285.986 202.467 287.066 202.467C288.127 202.467 288.529 201.349 288.529 199.676C288.529 198.004 288.127 196.895 287.066 196.895C285.986 196.895 285.585 198.023 285.585 199.676ZM290.762 203.098V196.264H291.813L294.126 201.874H294.145V196.264H295.005V203.098H293.954L291.631 197.488H291.612L291.622 203.098H290.762ZM296.588 203.098V196.264H297.639L299.952 201.874H299.971V196.264H300.832V203.098H299.78L297.458 197.488H297.439L297.448 203.098H296.588ZM302.566 203.098V196.264H306.743V197.029H303.427V199.179H306.342V199.944H303.427V202.333H306.839V203.098H302.566ZM310.476 203.232C309.005 203.232 308.183 201.741 308.183 199.676C308.183 197.64 309.005 196.13 310.496 196.13C311.776 196.13 312.474 197.182 312.598 198.52H311.7C311.566 197.631 311.289 196.895 310.467 196.895C309.377 196.895 309.081 198.309 309.081 199.676C309.081 201.052 309.377 202.467 310.476 202.467C311.413 202.467 311.642 201.473 311.7 200.632H312.598C312.493 202.142 311.786 203.232 310.476 203.232ZM315.758 203.098V197.029H313.751V196.264H318.625V197.029H316.618V203.098H315.758ZM319.95 203.098V202.333H321.575V197.029H319.95V196.264H324.079V197.029H322.435V202.333H324.079V203.098H319.95ZM327.851 203.232C326.379 203.232 325.471 201.913 325.471 199.676C325.471 197.44 326.379 196.13 327.851 196.13C329.313 196.13 330.211 197.44 330.211 199.676C330.211 201.913 329.313 203.232 327.851 203.232ZM326.369 199.676C326.369 201.33 326.771 202.467 327.851 202.467C328.912 202.467 329.313 201.349 329.313 199.676C329.313 198.004 328.912 196.895 327.851 196.895C326.771 196.895 326.369 198.023 326.369 199.676ZM331.546 203.098V196.264H332.597L334.91 201.874H334.929V196.264H335.789V203.098H334.738L332.416 197.488H332.397L332.406 203.098H331.546ZM339.704 203.232C338.223 203.232 337.172 202.333 337.105 200.804H338.003C338.07 201.722 338.51 202.486 339.676 202.486C340.641 202.486 340.947 201.941 340.947 201.234C340.947 200.269 340.374 200.154 339.255 199.829C338.366 199.571 337.344 199.246 337.344 197.937C337.344 196.847 338.108 196.13 339.38 196.13C340.756 196.13 341.587 196.962 341.673 198.29H340.775C340.67 197.373 340.268 196.876 339.389 196.876C338.634 196.876 338.242 197.239 338.242 197.899C338.242 198.72 338.844 198.912 339.647 199.131C340.775 199.447 341.845 199.762 341.845 201.205C341.845 202.333 341.167 203.232 339.704 203.232Z" fill="#C3C3C3"></path>
</g>
<path d="M478.474 186.969H270.598V249.093H478.474V186.969Z" stroke="#272727" stroke-width="1.19469"></path>
</g>
<path d="M538.805 1.19482H1.19482V216.239H538.805V1.19482Z" stroke="#272727" stroke-width="1.19469"></path>
</g>
<defs>
<clipPath id="clip0_334_8593">
<rect width="540" height="216.239" fill="white"></rect>
</clipPath>
</defs>
</svg>
