<svg xmlns="http://www.w3.org/2000/svg" fill="none" viewBox="0 0 360 400" height="400" width="360">
<rect fill="#141414" height="335" width="355" y="50.5" x="4.5"></rect>
<rect stroke="#272727" height="335" width="355" y="50.5" x="4.5"></rect>
<mask fill="white" id="path-2-inside-1_226_6334">
<path d="M4 50H360V98H4V50Z"></path>
</mask>
<path mask="url(#path-2-inside-1_226_6334)" fill="#272727" d="M4 50V51.3944H360V50V48.6056H4V50Z"></path>
<path fill="white" d="M27.5 84.5H23C22.6022 84.5 22.2206 84.342 21.9393 84.0607C21.658 83.7794 21.5 83.3978 21.5 83V74C21.5 73.6022 21.658 73.2206 21.9393 72.9393C22.2206 72.658 22.6022 72.5 23 72.5H27.5C27.8978 72.5 28.2794 72.658 28.5607 72.9393C28.842 73.2206 29 73.6022 29 74V83C29 83.3978 28.842 83.7794 28.5607 84.0607C28.2794 84.342 27.8978 84.5 27.5 84.5ZM23 74V83H27.5V74H23Z"></path>
<path fill="white" d="M41 65H24.5C24.1022 65 23.7206 65.158 23.4393 65.4393C23.158 65.7206 23 66.1022 23 66.5V71H24.5V66.5H41V77H30.5V78.5H32V81.5H30.5V83H37.25V81.5H33.5V78.5H41C41.3978 78.5 41.7794 78.342 42.0607 78.0607C42.342 77.7794 42.5 77.3978 42.5 77V66.5C42.5 66.1022 42.342 65.7206 42.0607 65.4393C41.7794 65.158 41.3978 65 41 65Z"></path>
<path fill="white" d="M61.408 80.224C58.544 80.224 56.56 78.72 56.4 76.16H57.904C58.064 77.744 58.96 78.96 61.344 78.96C63.408 78.96 63.984 78.048 63.984 76.88C63.984 75.28 62.864 75.088 60.64 74.528C58.912 74.096 56.88 73.568 56.88 71.36C56.88 69.536 58.288 68.336 60.752 68.336C63.344 68.336 64.928 69.648 65.12 71.952H63.616C63.408 70.416 62.608 69.6 60.768 69.6C59.168 69.6 58.384 70.208 58.384 71.296C58.384 72.72 59.76 73.008 61.232 73.36C63.456 73.888 65.488 74.4 65.488 76.832C65.488 78.72 64.256 80.224 61.408 80.224ZM70.3546 71.84V72.96H68.7546V77.872C68.7546 78.736 68.9626 78.96 69.6826 78.96C69.9546 78.96 70.0826 78.944 70.3546 78.912V80C69.9866 80.064 69.7946 80.08 69.5066 80.08C68.3066 80.08 67.4746 79.664 67.4746 77.808V72.96H66.2746V71.84H67.4746V69.12H68.7546V71.84H70.3546ZM74.1134 80.224C72.4654 80.224 71.4254 79.28 71.4254 77.904C71.4254 76.032 72.8014 75.52 74.9134 75.136C76.3054 74.88 76.9454 74.72 76.9454 73.92C76.9454 73.28 76.5934 72.72 75.2494 72.72C73.6974 72.72 73.2494 73.184 73.1694 74.368H71.8254C71.9054 72.8 72.8974 71.6 75.2974 71.6C76.8174 71.6 78.1934 72.24 78.1934 74.24V78.16C78.1934 78.8 78.2894 79.12 78.6094 79.12C78.6574 79.12 78.7054 79.12 78.8014 79.104V80C78.5934 80.048 78.4014 80.08 78.1774 80.08C77.4734 80.08 77.0414 79.808 76.9614 78.8H76.9294C76.4014 79.68 75.4734 80.224 74.1134 80.224ZM74.2414 79.104C75.7774 79.104 76.9454 78.416 76.9454 76.848V75.552C76.7054 75.808 75.9054 76.016 75.0254 76.192C73.4414 76.512 72.7694 76.896 72.7694 77.84C72.7694 78.64 73.1854 79.104 74.2414 79.104ZM83.5965 71.84V72.96H81.9965V77.872C81.9965 78.736 82.2045 78.96 82.9245 78.96C83.1965 78.96 83.3245 78.944 83.5965 78.912V80C83.2285 80.064 83.0365 80.08 82.7485 80.08C81.5485 80.08 80.7165 79.664 80.7165 77.808V72.96H79.5165V71.84H80.7165V69.12H81.9965V71.84H83.5965ZM86.5072 70.256H84.9712V68.72H86.5072V70.256ZM86.3792 80H85.0992V71.84H86.3792V80ZM91.9039 80.224C89.5199 80.224 87.9519 78.48 87.9519 75.92C87.9519 73.36 89.5199 71.616 91.9039 71.616C93.9199 71.616 95.2959 72.96 95.4879 74.784H94.1439C94.0799 73.888 93.5359 72.736 91.9039 72.736C89.9679 72.736 89.2959 74.384 89.2959 75.92C89.2959 77.456 89.9679 79.104 91.9039 79.104C93.5519 79.104 94.0799 77.968 94.1439 76.992H95.4879C95.3759 78.848 93.9199 80.224 91.9039 80.224ZM103.652 80.224C101.3 80.224 100.036 78.96 99.9876 77.28H101.332C101.396 78.272 101.972 79.104 103.652 79.104C105.22 79.104 105.588 78.384 105.588 77.76C105.588 76.64 104.42 76.528 103.412 76.304C101.988 75.984 100.308 75.6 100.308 73.904C100.308 72.528 101.412 71.616 103.284 71.616C105.396 71.616 106.484 72.768 106.612 74.176H105.268C105.14 73.552 104.82 72.736 103.3 72.736C102.148 72.736 101.652 73.2 101.652 73.856C101.652 74.8 102.692 74.896 103.828 75.152C105.284 75.488 106.932 75.904 106.932 77.712C106.932 79.248 105.732 80.224 103.652 80.224ZM109.788 70.256H108.252V68.72H109.788V70.256ZM109.66 80H108.38V71.84H109.66V80ZM115.056 71.84V72.96H113.456V77.872C113.456 78.736 113.664 78.96 114.384 78.96C114.656 78.96 114.784 78.944 115.056 78.912V80C114.688 80.064 114.496 80.08 114.208 80.08C113.008 80.08 112.176 79.664 112.176 77.808V72.96H110.976V71.84H112.176V69.12H113.456V71.84H115.056ZM123.699 75.616C123.699 75.856 123.699 76.128 123.683 76.256H117.299C117.331 77.696 118.131 79.136 119.939 79.136C121.539 79.136 122.147 78.064 122.291 77.488H123.587C123.171 79.008 122.019 80.24 119.923 80.24C117.347 80.24 115.955 78.384 115.955 75.904C115.955 73.296 117.507 71.6 119.923 71.6C122.307 71.6 123.699 73.232 123.699 75.616ZM117.299 75.136H122.339C122.339 73.792 121.379 72.704 119.859 72.704C118.451 72.704 117.379 73.712 117.299 75.136Z"></path>
<path fill="url(#paint0_linear_226_6334)" d="M329.75 80L323 73.25L324.061 72.1895L329.75 77.8782L339.94 67.6895L341 68.75L329.75 80Z"></path>
<rect fill-opacity="0.8" fill="url(#paint1_linear_226_6334)" transform="translate(4 98)" height="48" width="356"></rect>
<path fill="#0D0D0D" d="M32 111.5C29.9233 111.5 27.8932 112.116 26.1665 113.27C24.4398 114.423 23.094 116.063 22.2993 117.982C21.5045 119.9 21.2966 122.012 21.7018 124.048C22.1069 126.085 23.1069 127.956 24.5754 129.425C26.0438 130.893 27.9148 131.893 29.9516 132.298C31.9884 132.703 34.0996 132.495 36.0182 131.701C37.9368 130.906 39.5767 129.56 40.7304 127.833C41.8842 126.107 42.5 124.077 42.5 122C42.5 119.215 41.3938 116.545 39.4246 114.575C37.4555 112.606 34.7848 111.5 32 111.5ZM41 121.25H36.5C36.4125 118.488 35.6969 115.782 34.4075 113.337C36.1839 113.823 37.7685 114.843 38.9474 116.258C40.1263 117.673 40.8427 119.415 41 121.25ZM32 131C31.8327 131.011 31.6648 131.011 31.4975 131C29.9437 128.522 29.0814 125.674 29 122.75H35C34.9254 125.671 34.0709 128.52 32.525 131C32.3502 131.012 32.1748 131.012 32 131ZM29 121.25C29.0746 118.329 29.9291 115.48 31.475 113C31.809 112.962 32.1461 112.962 32.48 113C34.0417 115.476 34.9119 118.324 35 121.25H29ZM29.57 113.337C28.2885 115.784 27.5806 118.49 27.5 121.25H23C23.1573 119.415 23.8737 117.673 25.0526 116.258C26.2315 114.843 27.8161 113.823 29.5925 113.337H29.57ZM23.0375 122.75H27.5375C27.6158 125.51 28.3211 128.216 29.6 130.662C27.8292 130.171 26.2511 129.15 25.0779 127.735C23.9048 126.321 23.1927 124.581 23.0375 122.75ZM34.4075 130.662C35.6969 128.218 36.4125 125.512 36.5 122.75H41C40.8427 124.585 40.1263 126.327 38.9474 127.742C37.7685 129.157 36.1839 130.177 34.4075 130.662Z"></path>
<path fill="#0D0D0D" d="M60.688 128H59.088L56.256 116.56H57.776L59.952 125.936H59.984L62.544 116.56H64.144L66.704 125.936H66.736L68.912 116.56H70.432L67.6 128H66L63.36 118.192H63.328L60.688 128ZM78.4313 123.616C78.4313 123.856 78.4313 124.128 78.4152 124.256H72.0312C72.0632 125.696 72.8633 127.136 74.6712 127.136C76.2713 127.136 76.8793 126.064 77.0233 125.488H78.3193C77.9033 127.008 76.7513 128.24 74.6553 128.24C72.0792 128.24 70.6872 126.384 70.6872 123.904C70.6872 121.296 72.2392 119.6 74.6553 119.6C77.0393 119.6 78.4313 121.232 78.4313 123.616ZM72.0312 123.136H77.0712C77.0712 121.792 76.1112 120.704 74.5912 120.704C73.1832 120.704 72.1112 121.712 72.0312 123.136ZM83.87 119.616C85.918 119.616 87.55 121.232 87.55 123.92C87.55 126.608 85.918 128.224 83.87 128.224C82.558 128.224 81.79 127.648 81.31 126.944H81.278V128H79.998V116.56H81.278V120.848H81.31C81.79 120.224 82.558 119.616 83.87 119.616ZM83.742 127.104C85.422 127.104 86.206 125.52 86.206 123.92C86.206 122.32 85.422 120.736 83.742 120.736C82.222 120.736 81.278 122 81.278 123.92C81.278 125.84 82.222 127.104 83.742 127.104ZM95.7966 128.224C93.4446 128.224 92.1806 126.96 92.1326 125.28H93.4766C93.5406 126.272 94.1166 127.104 95.7966 127.104C97.3646 127.104 97.7326 126.384 97.7326 125.76C97.7326 124.64 96.5646 124.528 95.5566 124.304C94.1326 123.984 92.4526 123.6 92.4526 121.904C92.4526 120.528 93.5566 119.616 95.4286 119.616C97.5406 119.616 98.6286 120.768 98.7566 122.176H97.4126C97.2846 121.552 96.9646 120.736 95.4446 120.736C94.2926 120.736 93.7966 121.2 93.7966 121.856C93.7966 122.8 94.8366 122.896 95.9726 123.152C97.4286 123.488 99.0766 123.904 99.0766 125.712C99.0766 127.248 97.8766 128.224 95.7966 128.224ZM107.837 123.616C107.837 123.856 107.837 124.128 107.821 124.256H101.437C101.469 125.696 102.269 127.136 104.077 127.136C105.677 127.136 106.285 126.064 106.429 125.488H107.725C107.309 127.008 106.157 128.24 104.061 128.24C101.485 128.24 100.093 126.384 100.093 123.904C100.093 121.296 101.645 119.6 104.061 119.6C106.445 119.6 107.837 121.232 107.837 123.616ZM101.437 123.136H106.477C106.477 121.792 105.517 120.704 103.997 120.704C102.589 120.704 101.517 121.712 101.437 123.136ZM112.972 119.616C113.276 119.616 113.5 119.632 113.724 119.664V120.944C113.532 120.912 113.388 120.896 113.196 120.896C111.692 120.896 110.684 122.08 110.684 123.648V128H109.404V119.84H110.684V121.456H110.716C111.148 120.384 111.804 119.616 112.972 119.616ZM118.554 128H117.098L114.17 119.84H115.578L117.85 126.72H117.866L120.106 119.84H121.482L118.554 128ZM124.116 118.256H122.58V116.72H124.116V118.256ZM123.988 128H122.708V119.84H123.988V128ZM129.513 128.224C127.129 128.224 125.561 126.48 125.561 123.92C125.561 121.36 127.129 119.616 129.513 119.616C131.529 119.616 132.905 120.96 133.097 122.784H131.753C131.689 121.888 131.145 120.736 129.513 120.736C127.577 120.736 126.905 122.384 126.905 123.92C126.905 125.456 127.577 127.104 129.513 127.104C131.161 127.104 131.689 125.968 131.753 124.992H133.097C132.985 126.848 131.529 128.224 129.513 128.224ZM141.902 123.616C141.902 123.856 141.902 124.128 141.886 124.256H135.502C135.534 125.696 136.334 127.136 138.142 127.136C139.742 127.136 140.35 126.064 140.494 125.488H141.79C141.374 127.008 140.222 128.24 138.126 128.24C135.55 128.24 134.158 126.384 134.158 123.904C134.158 121.296 135.71 119.6 138.126 119.6C140.51 119.6 141.902 121.232 141.902 123.616ZM135.502 123.136H140.542C140.542 121.792 139.582 120.704 138.062 120.704C136.654 120.704 135.582 121.712 135.502 123.136Z"></path>
<path fill="white" d="M38 168.5H36.5V164C36.5 162.807 36.0259 161.662 35.182 160.818C34.3381 159.974 33.1935 159.5 32 159.5C30.8065 159.5 29.6619 159.974 28.818 160.818C27.9741 161.662 27.5 162.807 27.5 164V168.5H26C25.6022 168.5 25.2206 168.658 24.9393 168.939C24.658 169.221 24.5 169.602 24.5 170V179C24.5 179.398 24.658 179.779 24.9393 180.061C25.2206 180.342 25.6022 180.5 26 180.5H38C38.3978 180.5 38.7794 180.342 39.0607 180.061C39.342 179.779 39.5 179.398 39.5 179V170C39.5 169.602 39.342 169.221 39.0607 168.939C38.7794 168.658 38.3978 168.5 38 168.5ZM29 164C29 163.204 29.3161 162.441 29.8787 161.879C30.4413 161.316 31.2044 161 32 161C32.7956 161 33.5587 161.316 34.1213 161.879C34.6839 162.441 35 163.204 35 164V168.5H29V164ZM38 179H26V170H38V179Z"></path>
<path fill="white" d="M58.624 176H57.184V164.56H61.728C63.824 164.56 65.44 165.488 65.44 167.888C65.44 170.288 63.824 171.216 61.728 171.216H58.624V176ZM58.624 169.936H61.824C63.248 169.936 63.936 169.28 63.936 167.888C63.936 166.496 63.248 165.84 61.824 165.84H58.624V169.936ZM70.3591 167.616C70.6631 167.616 70.8871 167.632 71.1111 167.664V168.944C70.9191 168.912 70.7751 168.896 70.5831 168.896C69.0791 168.896 68.0711 170.08 68.0711 171.648V176H66.7911V167.84H68.0711V169.456H68.1031C68.5351 168.384 69.1911 167.616 70.3591 167.616ZM73.7497 166.256H72.2137V164.72H73.7497V166.256ZM73.6217 176H72.3417V167.84H73.6217V176ZM79.2424 176H77.7864L74.8584 167.84H76.2664L78.5384 174.72H78.5544L80.7944 167.84H82.1704L79.2424 176ZM85.3709 176.224C83.7229 176.224 82.6829 175.28 82.6829 173.904C82.6829 172.032 84.0589 171.52 86.1709 171.136C87.5629 170.88 88.2029 170.72 88.2029 169.92C88.2029 169.28 87.8509 168.72 86.5069 168.72C84.9549 168.72 84.5069 169.184 84.4269 170.368H83.0829C83.1629 168.8 84.1549 167.6 86.5549 167.6C88.0749 167.6 89.4509 168.24 89.4509 170.24V174.16C89.4509 174.8 89.5469 175.12 89.8669 175.12C89.9149 175.12 89.9629 175.12 90.0589 175.104V176C89.8509 176.048 89.6589 176.08 89.4349 176.08C88.7309 176.08 88.2989 175.808 88.2189 174.8H88.1869C87.6589 175.68 86.7309 176.224 85.3709 176.224ZM85.4989 175.104C87.0349 175.104 88.2029 174.416 88.2029 172.848V171.552C87.9629 171.808 87.1629 172.016 86.2829 172.192C84.6989 172.512 84.0269 172.896 84.0269 173.84C84.0269 174.64 84.4429 175.104 85.4989 175.104ZM94.854 167.84V168.96H93.254V173.872C93.254 174.736 93.462 174.96 94.182 174.96C94.454 174.96 94.582 174.944 94.854 174.912V176C94.486 176.064 94.294 176.08 94.006 176.08C92.806 176.08 91.974 175.664 91.974 173.808V168.96H90.774V167.84H91.974V165.12H93.254V167.84H94.854ZM103.497 171.616C103.497 171.856 103.497 172.128 103.481 172.256H97.0969C97.1289 173.696 97.9289 175.136 99.7369 175.136C101.337 175.136 101.945 174.064 102.089 173.488H103.385C102.969 175.008 101.817 176.24 99.7209 176.24C97.1449 176.24 95.7529 174.384 95.7529 171.904C95.7529 169.296 97.3049 167.6 99.7209 167.6C102.105 167.6 103.497 169.232 103.497 171.616ZM97.0969 171.136H102.137C102.137 169.792 101.177 168.704 99.6569 168.704C98.2489 168.704 97.1769 169.712 97.0969 171.136ZM111.733 176.224C109.381 176.224 108.117 174.96 108.069 173.28H109.413C109.477 174.272 110.053 175.104 111.733 175.104C113.301 175.104 113.669 174.384 113.669 173.76C113.669 172.64 112.501 172.528 111.493 172.304C110.069 171.984 108.389 171.6 108.389 169.904C108.389 168.528 109.493 167.616 111.365 167.616C113.477 167.616 114.565 168.768 114.693 170.176H113.349C113.221 169.552 112.901 168.736 111.381 168.736C110.229 168.736 109.733 169.2 109.733 169.856C109.733 170.8 110.773 170.896 111.909 171.152C113.365 171.488 115.013 171.904 115.013 173.712C115.013 175.248 113.813 176.224 111.733 176.224ZM123.774 171.616C123.774 171.856 123.774 172.128 123.758 172.256H117.374C117.406 173.696 118.206 175.136 120.014 175.136C121.614 175.136 122.222 174.064 122.366 173.488H123.662C123.246 175.008 122.094 176.24 119.998 176.24C117.422 176.24 116.03 174.384 116.03 171.904C116.03 169.296 117.582 167.6 119.998 167.6C122.382 167.6 123.774 169.232 123.774 171.616ZM117.374 171.136H122.414C122.414 169.792 121.454 168.704 119.934 168.704C118.526 168.704 117.454 169.712 117.374 171.136ZM128.908 167.616C129.212 167.616 129.436 167.632 129.66 167.664V168.944C129.468 168.912 129.324 168.896 129.132 168.896C127.628 168.896 126.62 170.08 126.62 171.648V176H125.34V167.84H126.62V169.456H126.652C127.084 168.384 127.74 167.616 128.908 167.616ZM134.491 176H133.035L130.107 167.84H131.515L133.787 174.72H133.803L136.043 167.84H137.419L134.491 176ZM140.053 166.256H138.517V164.72H140.053V166.256ZM139.925 176H138.645V167.84H139.925V176ZM145.45 176.224C143.066 176.224 141.498 174.48 141.498 171.92C141.498 169.36 143.066 167.616 145.45 167.616C147.466 167.616 148.842 168.96 149.034 170.784H147.69C147.626 169.888 147.082 168.736 145.45 168.736C143.514 168.736 142.842 170.384 142.842 171.92C142.842 173.456 143.514 175.104 145.45 175.104C147.098 175.104 147.626 173.968 147.69 172.992H149.034C148.922 174.848 147.466 176.224 145.45 176.224ZM157.839 171.616C157.839 171.856 157.839 172.128 157.823 172.256H151.439C151.471 173.696 152.271 175.136 154.079 175.136C155.679 175.136 156.287 174.064 156.431 173.488H157.727C157.311 175.008 156.159 176.24 154.063 176.24C151.487 176.24 150.095 174.384 150.095 171.904C150.095 169.296 151.647 167.6 154.063 167.6C156.447 167.6 157.839 169.232 157.839 171.616ZM151.439 171.136H156.479C156.479 169.792 155.519 168.704 153.999 168.704C152.591 168.704 151.519 169.712 151.439 171.136Z"></path>
<path fill="url(#paint2_linear_226_6334)" d="M329.75 176L323 169.25L324.061 168.189L329.75 173.878L339.94 163.689L341 164.75L329.75 176Z"></path>
<path fill="white" d="M36.8818 215.517L32.3818 212.854C32.264 212.784 32.132 212.75 32 212.75C31.868 212.75 31.736 212.785 31.6182 212.855L27.1183 215.517C26.8903 215.652 26.75 215.897 26.75 216.163V221.338C26.75 221.603 26.8903 221.848 27.1183 221.983L31.6182 224.645C31.736 224.716 31.868 224.75 32 224.75C32.132 224.75 32.264 224.716 32.3818 224.645L36.8818 221.983C37.1098 221.848 37.25 221.603 37.25 221.338V216.163C37.25 215.897 37.1098 215.652 36.8818 215.517ZM35.75 220.91L32 223.128L28.25 220.91V216.59L32 214.371L35.75 216.59V220.91Z"></path>
<path fill="white" d="M24.5 221.138V214.303L29.15 211.555L28.3872 210.263L23.3683 213.229C23.1403 213.364 23 213.61 23 213.875V221.138C22.1292 221.449 21.5 222.274 21.5 223.25C21.5 224.491 22.5095 225.5 23.75 225.5C24.9905 225.5 26 224.491 26 223.25C26 222.274 25.3707 221.449 24.5 221.138ZM23.75 224C23.3368 224 23 223.664 23 223.25C23 222.836 23.3368 222.5 23.75 222.5C24.1632 222.5 24.5 222.836 24.5 223.25C24.5 223.664 24.1632 224 23.75 224Z"></path>
<path fill="white" d="M40.2498 221C39.0093 221 37.9998 222.01 37.9998 223.25C37.9998 223.515 38.0538 223.765 38.1386 224.002L31.9998 227.628L27.1968 224.791L26.4341 226.082L31.6181 229.145C31.7358 229.216 31.8678 229.25 31.9998 229.25C32.1318 229.25 32.2638 229.215 32.3816 229.146L39.1016 225.174C39.4391 225.376 39.8291 225.5 40.2498 225.5C41.4903 225.5 42.4998 224.49 42.4998 223.25C42.4998 222.01 41.4903 221 40.2498 221ZM40.2498 224C39.8366 224 39.4998 223.664 39.4998 223.25C39.4998 222.836 39.8366 222.5 40.2498 222.5C40.6631 222.5 40.9998 222.836 40.9998 223.25C40.9998 223.664 40.6631 224 40.2498 224Z"></path>
<path fill="white" d="M32 211.25C32.5482 211.25 33.044 211.045 33.4348 210.719L39.5 214.303V219.5H41V213.875C41 213.609 40.8598 213.364 40.6318 213.229L34.2065 209.433C34.2335 209.293 34.25 209.148 34.25 209C34.25 207.76 33.2405 206.75 32 206.75C30.7595 206.75 29.75 207.76 29.75 209C29.75 210.24 30.7595 211.25 32 211.25ZM32 208.25C32.4132 208.25 32.75 208.586 32.75 209C32.75 209.414 32.4132 209.75 32 209.75C31.5868 209.75 31.25 209.414 31.25 209C31.25 208.586 31.5868 208.25 32 208.25Z"></path>
<path fill="white" d="M60.688 224H59.088L56.256 212.56H57.776L59.952 221.936H59.984L62.544 212.56H64.144L66.704 221.936H66.736L68.912 212.56H70.432L67.6 224H66L63.36 214.192H63.328L60.688 224ZM74.6712 224.24C72.1752 224.24 70.6712 222.464 70.6712 219.92C70.6712 217.376 72.1752 215.6 74.6712 215.6C77.1513 215.6 78.6553 217.376 78.6553 219.92C78.6553 222.464 77.1513 224.24 74.6712 224.24ZM74.6712 223.12C76.4953 223.12 77.3113 221.664 77.3113 219.92C77.3113 218.176 76.4953 216.72 74.6712 216.72C72.8312 216.72 72.0152 218.176 72.0152 219.92C72.0152 221.664 72.8312 223.12 74.6712 223.12ZM83.7847 215.616C84.0887 215.616 84.3127 215.632 84.5367 215.664V216.944C84.3447 216.912 84.2007 216.896 84.0087 216.896C82.5047 216.896 81.4967 218.08 81.4967 219.648V224H80.2167V215.84H81.4967V217.456H81.5287C81.9607 216.384 82.6167 215.616 83.7847 215.616ZM92.7274 224H91.2074L88.3114 219.6L87.0474 220.752V224H85.7674V212.56H87.0474V219.408L90.8554 215.84H92.3914L89.1754 218.8L92.7274 224ZM94.1589 215.84V214.736C94.1589 212.88 94.9429 212.464 96.1429 212.464C96.3829 212.464 96.5749 212.48 96.9909 212.544V213.632C96.6709 213.6 96.5429 213.584 96.3189 213.584C95.5989 213.584 95.4389 213.808 95.4389 214.672V215.84H96.9909V216.96H95.4389V224H94.1589V216.96H93.0229V215.84H94.1589ZM98.1109 224V212.56H99.3909V224H98.1109ZM104.952 224.24C102.456 224.24 100.952 222.464 100.952 219.92C100.952 217.376 102.456 215.6 104.952 215.6C107.432 215.6 108.936 217.376 108.936 219.92C108.936 222.464 107.432 224.24 104.952 224.24ZM104.952 223.12C106.776 223.12 107.592 221.664 107.592 219.92C107.592 218.176 106.776 216.72 104.952 216.72C103.112 216.72 102.296 218.176 102.296 219.92C102.296 221.664 103.112 223.12 104.952 223.12ZM113.526 224H112.134L109.542 215.84H110.982L112.854 222.56H112.886L114.678 215.84H116.07L117.862 222.56H117.894L119.782 215.84H121.174L118.566 224H117.174L115.366 217.376H115.334L113.526 224Z"></path>
<path fill="url(#paint3_linear_226_6334)" d="M329.75 224L323 217.25L324.061 216.189L329.75 221.878L339.94 211.689L341 212.75L329.75 224Z"></path>
<path fill="white" d="M36.5 258.5H23V260H36.5V258.5Z"></path>
<path fill="white" d="M36.5 263H23V264.5H36.5V263Z"></path>
<path fill="white" d="M32 267.5H23V269H32V267.5Z"></path>
<path fill="white" d="M35.75 267.5L41 271.25L35.75 275V267.5Z"></path>
<path fill="white" d="M62.112 272H57.184V260.56H61.792C64.128 260.56 65.536 261.664 65.536 263.44C65.536 264.848 64.704 265.488 63.76 265.808V265.84C64.96 266.048 65.984 266.96 65.984 268.672C65.984 270.784 64.48 272 62.112 272ZM58.624 265.344H61.952C63.584 265.344 64.032 264.64 64.032 263.6C64.032 262.56 63.424 261.84 62.112 261.84H58.624V265.344ZM58.624 270.72H62.192C64.032 270.72 64.48 269.744 64.48 268.672C64.48 267.44 63.712 266.624 62.512 266.624H58.624V270.72ZM69.9065 272.224C68.2585 272.224 67.2185 271.28 67.2185 269.904C67.2185 268.032 68.5945 267.52 70.7065 267.136C72.0985 266.88 72.7385 266.72 72.7385 265.92C72.7385 265.28 72.3865 264.72 71.0425 264.72C69.4905 264.72 69.0425 265.184 68.9625 266.368H67.6185C67.6985 264.8 68.6905 263.6 71.0905 263.6C72.6105 263.6 73.9865 264.24 73.9865 266.24V270.16C73.9865 270.8 74.0825 271.12 74.4025 271.12C74.4505 271.12 74.4985 271.12 74.5945 271.104V272C74.3865 272.048 74.1945 272.08 73.9705 272.08C73.2665 272.08 72.8345 271.808 72.7545 270.8H72.7225C72.1945 271.68 71.2665 272.224 69.9065 272.224ZM70.0345 271.104C71.5705 271.104 72.7385 270.416 72.7385 268.848V267.552C72.4985 267.808 71.6985 268.016 70.8185 268.192C69.2345 268.512 68.5625 268.896 68.5625 269.84C68.5625 270.64 68.9785 271.104 70.0345 271.104ZM79.5801 272.224C77.1961 272.224 75.6281 270.48 75.6281 267.92C75.6281 265.36 77.1961 263.616 79.5801 263.616C81.5961 263.616 82.9721 264.96 83.1641 266.784H81.8201C81.7561 265.888 81.2121 264.736 79.5801 264.736C77.6441 264.736 76.9721 266.384 76.9721 267.92C76.9721 269.456 77.6441 271.104 79.5801 271.104C81.2281 271.104 81.7561 269.968 81.8201 268.992H83.1641C83.0521 270.848 81.5961 272.224 79.5801 272.224ZM91.618 272H90.098L87.202 267.6L85.938 268.752V272H84.658V260.56H85.938V267.408L89.746 263.84H91.282L88.066 266.8L91.618 272ZM97.9087 264.848V263.84H99.1887V271.456C99.1887 273.776 97.7327 274.928 95.4447 274.928C93.1727 274.928 92.0047 273.872 91.8767 272.352H93.2207C93.3807 273.184 93.9887 273.808 95.4447 273.808C97.0287 273.808 97.9087 273.152 97.9087 271.584V270.304H97.8767C97.3967 271.008 96.6287 271.584 95.2847 271.584C93.2687 271.584 91.6367 270.288 91.6367 267.6C91.6367 264.912 93.2687 263.616 95.2847 263.616C96.6287 263.616 97.3967 264.224 97.8767 264.848H97.9087ZM95.4447 270.464C96.9647 270.464 97.9087 269.52 97.9087 267.6C97.9087 265.68 96.9647 264.736 95.4447 264.736C93.7647 264.736 92.9807 266 92.9807 267.6C92.9807 269.2 93.7647 270.464 95.4447 270.464ZM104.749 263.616C105.053 263.616 105.277 263.632 105.501 263.664V264.944C105.309 264.912 105.165 264.896 104.973 264.896C103.469 264.896 102.461 266.08 102.461 267.648V272H101.181V263.84H102.461V265.456H102.493C102.925 264.384 103.581 263.616 104.749 263.616ZM109.909 272.24C107.413 272.24 105.909 270.464 105.909 267.92C105.909 265.376 107.413 263.6 109.909 263.6C112.389 263.6 113.893 265.376 113.893 267.92C113.893 270.464 112.389 272.24 109.909 272.24ZM109.909 271.12C111.733 271.12 112.549 269.664 112.549 267.92C112.549 266.176 111.733 264.72 109.909 264.72C108.069 264.72 107.253 266.176 107.253 267.92C107.253 269.664 108.069 271.12 109.909 271.12ZM120.846 268.928V263.84H122.126V272H120.846V271.024H120.814C120.382 271.6 119.518 272.224 118.126 272.224C116.638 272.224 115.39 271.408 115.39 269.536V263.84H116.67V269.216C116.67 270.272 117.166 271.104 118.446 271.104C119.886 271.104 120.846 270.192 120.846 268.928ZM128.145 263.616C129.633 263.616 130.881 264.432 130.881 266.304V272H129.601V266.624C129.601 265.568 129.105 264.736 127.825 264.736C126.385 264.736 125.425 265.648 125.425 266.912V272H124.145V263.84H125.425V264.816H125.457C125.889 264.24 126.753 263.616 128.145 263.616ZM138.677 264.896V260.56H139.957V272H138.677V270.992H138.645C138.165 271.616 137.397 272.224 136.085 272.224C134.037 272.224 132.405 270.608 132.405 267.92C132.405 265.232 134.037 263.616 136.085 263.616C137.397 263.616 138.165 264.192 138.645 264.896H138.677ZM136.213 271.104C137.733 271.104 138.677 269.84 138.677 267.92C138.677 266 137.733 264.736 136.213 264.736C134.533 264.736 133.749 266.32 133.749 267.92C133.749 269.52 134.533 271.104 136.213 271.104ZM149.011 272H147.411L144.579 260.56H146.099L148.275 269.936H148.307L150.867 260.56H152.467L155.027 269.936H155.059L157.235 260.56H158.755L155.923 272H154.323L151.683 262.192H151.651L149.011 272ZM162.994 272.24C160.498 272.24 158.994 270.464 158.994 267.92C158.994 265.376 160.498 263.6 162.994 263.6C165.474 263.6 166.978 265.376 166.978 267.92C166.978 270.464 165.474 272.24 162.994 272.24ZM162.994 271.12C164.818 271.12 165.634 269.664 165.634 267.92C165.634 266.176 164.818 264.72 162.994 264.72C161.154 264.72 160.338 266.176 160.338 267.92C160.338 269.664 161.154 271.12 162.994 271.12ZM172.107 263.616C172.411 263.616 172.635 263.632 172.859 263.664V264.944C172.667 264.912 172.523 264.896 172.331 264.896C170.827 264.896 169.819 266.08 169.819 267.648V272H168.539V263.84H169.819V265.456H169.851C170.283 264.384 170.939 263.616 172.107 263.616ZM181.05 272H179.53L176.634 267.6L175.37 268.752V272H174.09V260.56H175.37V267.408L179.178 263.84H180.714L177.498 266.8L181.05 272ZM188.843 267.616C188.843 267.856 188.843 268.128 188.827 268.256H182.443C182.475 269.696 183.275 271.136 185.083 271.136C186.683 271.136 187.291 270.064 187.435 269.488H188.731C188.315 271.008 187.163 272.24 185.067 272.24C182.491 272.24 181.099 270.384 181.099 267.904C181.099 265.296 182.651 263.6 185.067 263.6C187.451 263.6 188.843 265.232 188.843 267.616ZM182.443 267.136H187.483C187.483 265.792 186.523 264.704 185.003 264.704C183.595 264.704 182.523 265.712 182.443 267.136ZM193.978 263.616C194.282 263.616 194.506 263.632 194.73 263.664V264.944C194.538 264.912 194.394 264.896 194.202 264.896C192.698 264.896 191.69 266.08 191.69 267.648V272H190.41V263.84H191.69V265.456H191.722C192.154 264.384 192.81 263.616 193.978 263.616Z"></path>
<path fill="white" d="M32.7501 310.25H31.2501V317H32.7501V310.25Z"></path>
<path fill="white" d="M34.2501 303.5H29.7501V305H34.2501V303.5Z"></path>
<path fill="white" d="M41.0001 308.75L39.9351 307.693L38.2476 309.38C36.8662 307.785 34.9234 306.783 32.8227 306.583C30.722 306.383 28.625 307 26.9674 308.306C25.3098 309.612 24.219 311.506 23.9217 313.595C23.6244 315.684 24.1434 317.808 25.3709 319.524C26.5984 321.24 28.44 322.418 30.5131 322.812C32.5862 323.206 34.7314 322.786 36.5029 321.639C38.2744 320.493 39.5361 318.708 40.0259 316.655C40.5156 314.603 40.1957 312.44 39.1326 310.617L41.0001 308.75ZM32.0001 321.5C30.6651 321.5 29.36 321.104 28.25 320.362C27.1399 319.621 26.2748 318.567 25.7639 317.333C25.253 316.1 25.1193 314.743 25.3798 313.433C25.6402 312.124 26.2831 310.921 27.2271 309.977C28.1711 309.033 29.3738 308.39 30.6832 308.13C31.9926 307.869 33.3498 308.003 34.5832 308.514C35.8166 309.025 36.8708 309.89 37.6125 311C38.3542 312.11 38.7501 313.415 38.7501 314.75C38.7501 316.54 38.0389 318.257 36.773 319.523C35.5072 320.789 33.7903 321.5 32.0001 321.5Z"></path>
<path fill="white" d="M61.904 320.224C58.768 320.224 56.608 317.728 56.608 314.272C56.608 310.832 58.768 308.336 61.904 308.336C64.704 308.336 66.496 310.16 66.768 312.336H65.264C65.056 311.248 64.288 309.616 61.904 309.616C59.184 309.616 58.112 311.968 58.112 314.272C58.112 316.592 59.184 318.944 61.904 318.944C64.304 318.944 65.168 317.312 65.264 315.872H66.768C66.512 318.4 64.72 320.224 61.904 320.224ZM71.906 311.616C72.21 311.616 72.434 311.632 72.658 311.664V312.944C72.466 312.912 72.322 312.896 72.13 312.896C70.626 312.896 69.618 314.08 69.618 315.648V320H68.338V311.84H69.618V313.456H69.65C70.082 312.384 70.738 311.616 71.906 311.616ZM77.0656 320.24C74.5696 320.24 73.0656 318.464 73.0656 315.92C73.0656 313.376 74.5696 311.6 77.0656 311.6C79.5456 311.6 81.0496 313.376 81.0496 315.92C81.0496 318.464 79.5456 320.24 77.0656 320.24ZM77.0656 319.12C78.8896 319.12 79.7056 317.664 79.7056 315.92C79.7056 314.176 78.8896 312.72 77.0656 312.72C75.2256 312.72 74.4096 314.176 74.4096 315.92C74.4096 317.664 75.2256 319.12 77.0656 319.12ZM86.6111 311.616C88.0991 311.616 89.3471 312.432 89.3471 314.304V320H88.0671V314.624C88.0671 313.568 87.5711 312.736 86.2911 312.736C84.8511 312.736 83.8911 313.648 83.8911 314.912V320H82.6111V311.84H83.8911V312.816H83.9231C84.3551 312.24 85.2191 311.616 86.6111 311.616ZM97.1347 320.224C94.5587 320.224 93.8067 318.368 93.8067 316.512V316.192H95.2467V316.512C95.2467 317.888 95.4707 318.944 97.1347 318.944C98.7987 318.944 99.0387 317.888 99.0387 316.512V308.56H100.479V316.512C100.479 318.368 99.7107 320.224 97.1347 320.224ZM106.081 320.24C103.585 320.24 102.081 318.464 102.081 315.92C102.081 313.376 103.585 311.6 106.081 311.6C108.561 311.6 110.065 313.376 110.065 315.92C110.065 318.464 108.561 320.24 106.081 320.24ZM106.081 319.12C107.905 319.12 108.721 317.664 108.721 315.92C108.721 314.176 107.905 312.72 106.081 312.72C104.241 312.72 103.425 314.176 103.425 315.92C103.425 317.664 104.241 319.12 106.081 319.12ZM115.498 311.616C117.546 311.616 119.178 313.232 119.178 315.92C119.178 318.608 117.546 320.224 115.498 320.224C114.186 320.224 113.418 319.648 112.938 318.944H112.906V320H111.626V308.56H112.906V312.848H112.938C113.418 312.224 114.186 311.616 115.498 311.616ZM115.37 319.104C117.05 319.104 117.834 317.52 117.834 315.92C117.834 314.32 117.05 312.736 115.37 312.736C113.85 312.736 112.906 314 112.906 315.92C112.906 317.84 113.85 319.104 115.37 319.104Z"></path>
<path fill="url(#paint4_linear_226_6334)" d="M329.75 320L323 313.25L324.061 312.189L329.75 317.878L339.94 307.689L341 308.75L329.75 320Z"></path>
<path fill="white" d="M32 352.25C28.0266 352.25 23.75 353.189 23.75 355.25V368.75C23.75 370.811 28.0266 371.75 32 371.75C35.9734 371.75 40.25 370.811 40.25 368.75V355.25C40.25 353.189 35.9734 352.25 32 352.25ZM32 353.75C36.3482 353.75 38.5962 354.826 38.7476 355.25C38.5962 355.674 36.3482 356.75 32 356.75C27.619 356.75 25.3705 355.658 25.25 355.263V355.26C25.3705 354.842 27.619 353.75 32 353.75ZM25.25 357.071C26.8459 357.871 29.4819 358.25 32 358.25C34.5181 358.25 37.1541 357.871 38.75 357.071V359.74C38.6295 360.158 36.381 361.25 32 361.25C27.6124 361.25 25.3632 360.155 25.25 359.75V357.071ZM25.25 361.571C26.8459 362.371 29.4819 362.75 32 362.75C34.5181 362.75 37.1541 362.371 38.75 361.571V364.24C38.6295 364.658 36.381 365.75 32 365.75C27.6124 365.75 25.3632 364.655 25.25 364.25V361.571ZM32 370.25C27.6124 370.25 25.3632 369.155 25.25 368.75V366.071C26.8459 366.871 29.4819 367.25 32 367.25C34.5181 367.25 37.1541 366.871 38.75 366.071V368.74C38.6295 369.158 36.381 370.25 32 370.25Z"></path>
<path fill="white" d="M58.624 368H57.184V356.56H61.728C63.824 356.56 65.44 357.488 65.44 359.888C65.44 362.288 63.824 363.216 61.728 363.216H58.624V368ZM58.624 361.936H61.824C63.248 361.936 63.936 361.28 63.936 359.888C63.936 358.496 63.248 357.84 61.824 357.84H58.624V361.936ZM70.0306 368.24C67.5346 368.24 66.0306 366.464 66.0306 363.92C66.0306 361.376 67.5346 359.6 70.0306 359.6C72.5106 359.6 74.0146 361.376 74.0146 363.92C74.0146 366.464 72.5106 368.24 70.0306 368.24ZM70.0306 367.12C71.8546 367.12 72.6706 365.664 72.6706 363.92C72.6706 362.176 71.8546 360.72 70.0306 360.72C68.1906 360.72 67.3746 362.176 67.3746 363.92C67.3746 365.664 68.1906 367.12 70.0306 367.12ZM78.6641 368.224C76.3121 368.224 75.0481 366.96 75.0001 365.28H76.3441C76.4081 366.272 76.9841 367.104 78.6641 367.104C80.2321 367.104 80.6001 366.384 80.6001 365.76C80.6001 364.64 79.4321 364.528 78.4241 364.304C77.0001 363.984 75.3201 363.6 75.3201 361.904C75.3201 360.528 76.4241 359.616 78.2961 359.616C80.4081 359.616 81.4961 360.768 81.6241 362.176H80.2801C80.1521 361.552 79.8321 360.736 78.3121 360.736C77.1601 360.736 76.6641 361.2 76.6641 361.856C76.6641 362.8 77.7041 362.896 78.8401 363.152C80.2961 363.488 81.9441 363.904 81.9441 365.712C81.9441 367.248 80.7441 368.224 78.6641 368.224ZM86.6902 359.84V360.96H85.0902V365.872C85.0902 366.736 85.2982 366.96 86.0182 366.96C86.2902 366.96 86.4182 366.944 86.6902 366.912V368C86.3222 368.064 86.1302 368.08 85.8422 368.08C84.6422 368.08 83.8102 367.664 83.8102 365.808V360.96H82.6102V359.84H83.8102V357.12H85.0902V359.84H86.6902ZM93.8619 360.848V359.84H95.1419V367.456C95.1419 369.776 93.6859 370.928 91.3979 370.928C89.1259 370.928 87.9579 369.872 87.8299 368.352H89.1739C89.3339 369.184 89.9419 369.808 91.3979 369.808C92.9819 369.808 93.8619 369.152 93.8619 367.584V366.304H93.8299C93.3499 367.008 92.5819 367.584 91.2379 367.584C89.2219 367.584 87.5899 366.288 87.5899 363.6C87.5899 360.912 89.2219 359.616 91.2379 359.616C92.5819 359.616 93.3499 360.224 93.8299 360.848H93.8619ZM91.3979 366.464C92.9179 366.464 93.8619 365.52 93.8619 363.6C93.8619 361.68 92.9179 360.736 91.3979 360.736C89.7179 360.736 88.9339 362 88.9339 363.6C88.9339 365.2 89.7179 366.464 91.3979 366.464ZM100.702 359.616C101.006 359.616 101.23 359.632 101.454 359.664V360.944C101.262 360.912 101.118 360.896 100.926 360.896C99.4222 360.896 98.4142 362.08 98.4142 363.648V368H97.1342V359.84H98.4142V361.456H98.4462C98.8782 360.384 99.5342 359.616 100.702 359.616ZM109.622 363.616C109.622 363.856 109.622 364.128 109.606 364.256H103.222C103.254 365.696 104.054 367.136 105.862 367.136C107.462 367.136 108.07 366.064 108.214 365.488H109.51C109.094 367.008 107.942 368.24 105.846 368.24C103.27 368.24 101.878 366.384 101.878 363.904C101.878 361.296 103.43 359.6 105.846 359.6C108.23 359.6 109.622 361.232 109.622 363.616ZM103.222 363.136H108.262C108.262 361.792 107.302 360.704 105.782 360.704C104.374 360.704 103.302 361.712 103.222 363.136ZM114.277 368.224C111.925 368.224 110.661 366.96 110.613 365.28H111.957C112.021 366.272 112.597 367.104 114.277 367.104C115.845 367.104 116.213 366.384 116.213 365.76C116.213 364.64 115.045 364.528 114.037 364.304C112.613 363.984 110.933 363.6 110.933 361.904C110.933 360.528 112.037 359.616 113.909 359.616C116.021 359.616 117.109 360.768 117.237 362.176H115.893C115.765 361.552 115.445 360.736 113.925 360.736C112.773 360.736 112.277 361.2 112.277 361.856C112.277 362.8 113.317 362.896 114.453 363.152C115.909 363.488 117.557 363.904 117.557 365.712C117.557 367.248 116.357 368.224 114.277 368.224Z"></path>
<rect fill="url(#paint5_linear_226_6334)" height="48" width="356"></rect>
<path fill="#C7C7C7" d="M28.75 23.25V18H27.25V23.25H22V24.75H27.25V30H28.75V24.75H34V23.25H28.75Z"></path>
<path fill="#C7C7C7" d="M54.624 30H53.184V18.56H54.944L60.656 27.952H60.688V18.56H62.128V30H60.368L54.656 20.608H54.624V30ZM71.5406 25.616C71.5406 25.856 71.5406 26.128 71.5246 26.256H65.1406C65.1726 27.696 65.9726 29.136 67.7806 29.136C69.3806 29.136 69.9886 28.064 70.1326 27.488H71.4286C71.0126 29.008 69.8606 30.24 67.7646 30.24C65.1886 30.24 63.7966 28.384 63.7966 25.904C63.7966 23.296 65.3486 21.6 67.7646 21.6C70.1486 21.6 71.5406 23.232 71.5406 25.616ZM65.1406 25.136H70.1806C70.1806 23.792 69.2206 22.704 67.7006 22.704C66.2926 22.704 65.2206 23.712 65.1406 25.136ZM76.1675 30H74.7755L72.1835 21.84H73.6235L75.4955 28.56H75.5275L77.3195 21.84H78.7115L80.5035 28.56H80.5355L82.4235 21.84H83.8155L81.2075 30H79.8155L78.0075 23.376H77.9755L76.1675 30ZM91.4372 30.224C89.0852 30.224 87.8212 28.96 87.7732 27.28H89.1172C89.1812 28.272 89.7572 29.104 91.4372 29.104C93.0052 29.104 93.3732 28.384 93.3732 27.76C93.3732 26.64 92.2052 26.528 91.1972 26.304C89.7732 25.984 88.0932 25.6 88.0932 23.904C88.0932 22.528 89.1972 21.616 91.0692 21.616C93.1812 21.616 94.2692 22.768 94.3972 24.176H93.0532C92.9252 23.552 92.6052 22.736 91.0852 22.736C89.9332 22.736 89.4372 23.2 89.4372 23.856C89.4372 24.8 90.4772 24.896 91.6132 25.152C93.0692 25.488 94.7172 25.904 94.7172 27.712C94.7172 29.248 93.5172 30.224 91.4372 30.224ZM103.477 25.616C103.477 25.856 103.477 26.128 103.461 26.256H97.0775C97.1095 27.696 97.9095 29.136 99.7175 29.136C101.317 29.136 101.925 28.064 102.069 27.488H103.365C102.949 29.008 101.797 30.24 99.7015 30.24C97.1255 30.24 95.7335 28.384 95.7335 25.904C95.7335 23.296 97.2855 21.6 99.7015 21.6C102.085 21.6 103.477 23.232 103.477 25.616ZM97.0775 25.136H102.117C102.117 23.792 101.157 22.704 99.6375 22.704C98.2295 22.704 97.1575 23.712 97.0775 25.136ZM108.612 21.616C108.916 21.616 109.14 21.632 109.364 21.664V22.944C109.172 22.912 109.028 22.896 108.836 22.896C107.332 22.896 106.324 24.08 106.324 25.648V30H105.044V21.84H106.324V23.456H106.356C106.788 22.384 107.444 21.616 108.612 21.616ZM114.195 30H112.739L109.811 21.84H111.219L113.491 28.72H113.507L115.747 21.84H117.123L114.195 30ZM119.757 20.256H118.221V18.72H119.757V20.256ZM119.629 30H118.349V21.84H119.629V30ZM125.153 30.224C122.769 30.224 121.201 28.48 121.201 25.92C121.201 23.36 122.769 21.616 125.153 21.616C127.169 21.616 128.545 22.96 128.737 24.784H127.393C127.329 23.888 126.785 22.736 125.153 22.736C123.217 22.736 122.545 24.384 122.545 25.92C122.545 27.456 123.217 29.104 125.153 29.104C126.801 29.104 127.329 27.968 127.393 26.992H128.737C128.625 28.848 127.169 30.224 125.153 30.224ZM137.543 25.616C137.543 25.856 137.543 26.128 137.527 26.256H131.143C131.175 27.696 131.975 29.136 133.783 29.136C135.383 29.136 135.991 28.064 136.135 27.488H137.431C137.015 29.008 135.863 30.24 133.767 30.24C131.191 30.24 129.799 28.384 129.799 25.904C129.799 23.296 131.351 21.6 133.767 21.6C136.151 21.6 137.543 23.232 137.543 25.616ZM131.143 25.136H136.183C136.183 23.792 135.223 22.704 133.703 22.704C132.295 22.704 131.223 23.712 131.143 25.136Z"></path>
<rect fill="url(#paint6_linear_226_6334)" height="138" width="360" y="248"></rect>
<defs>
<linearGradient gradientUnits="userSpaceOnUse" y2="84.5424" x2="348.511" y1="93.5928" x1="329.942" id="paint0_linear_226_6334">
<stop stop-color="#C6FB9D"></stop>
<stop stop-color="#5CFFB8" offset="1"></stop>
</linearGradient>
<linearGradient gradientUnits="userSpaceOnUse" y2="-56.9945" x2="201.207" y1="101" x1="137.299" id="paint1_linear_226_6334">
<stop stop-color="#C6FB9D"></stop>
<stop stop-color="#5CFFB8" offset="1"></stop>
</linearGradient>
<linearGradient gradientUnits="userSpaceOnUse" y2="180.542" x2="348.511" y1="189.593" x1="329.942" id="paint2_linear_226_6334">
<stop stop-color="#C6FB9D"></stop>
<stop stop-color="#5CFFB8" offset="1"></stop>
</linearGradient>
<linearGradient gradientUnits="userSpaceOnUse" y2="228.542" x2="348.511" y1="237.593" x1="329.942" id="paint3_linear_226_6334">
<stop stop-color="#C6FB9D"></stop>
<stop stop-color="#5CFFB8" offset="1"></stop>
</linearGradient>
<linearGradient gradientUnits="userSpaceOnUse" y2="324.542" x2="348.511" y1="333.593" x1="329.942" id="paint4_linear_226_6334">
<stop stop-color="#C6FB9D"></stop>
<stop stop-color="#5CFFB8" offset="1"></stop>
</linearGradient>
<linearGradient gradientUnits="userSpaceOnUse" y2="-47.5" x2="306.5" y1="24" x1="-1.0774e-07" id="paint5_linear_226_6334">
<stop stop-color="#272727"></stop>
<stop stop-opacity="0.5" stop-color="#272727" offset="1"></stop>
</linearGradient>
<linearGradient gradientUnits="userSpaceOnUse" y2="367.5" x2="200.5" y1="262.5" x1="190.5" id="paint6_linear_226_6334">
<stop stop-opacity="0" stop-color="#0D0D0D"></stop>
<stop stop-color="#0D0D0D" offset="1"></stop>
</linearGradient>
</defs>
</svg>
