<svg width="756" height="464" viewBox="0 0 756 464" fill="none" xmlns="http://www.w3.org/2000/svg">
<g clip-path="url(#clip0_376_11889)">
<mask id="mask0_376_11889" style="mask-type:alpha" maskUnits="userSpaceOnUse" x="21" y="1" width="735" height="463">
<rect x="21" y="1" width="735" height="463" fill="url(#paint0_linear_376_11889)"></rect>
</mask>
<g mask="url(#mask0_376_11889)">
<g opacity="0.16">
<path d="M20.865 0.162109V464" stroke="#C29EFF" stroke-width="0.667949" stroke-linecap="round" stroke-linejoin="round"></path>
<path d="M59.656 0.162109V464" stroke="#C29EFF" stroke-width="0.667949" stroke-linecap="round" stroke-linejoin="round"></path>
<path d="M98.448 0.162109V464" stroke="#C29EFF" stroke-width="0.667949" stroke-linecap="round" stroke-linejoin="round"></path>
<path d="M137.239 0.162109V464" stroke="#C29EFF" stroke-width="0.667949" stroke-linecap="round" stroke-linejoin="round"></path>
<path d="M176.03 0.162109V464" stroke="#C29EFF" stroke-width="0.667949" stroke-linecap="round" stroke-linejoin="round"></path>
<path d="M214.822 0.162109V464" stroke="#C29EFF" stroke-width="0.667949" stroke-linecap="round" stroke-linejoin="round"></path>
<path d="M253.613 0.162109V464" stroke="#C29EFF" stroke-width="0.667949" stroke-linecap="round" stroke-linejoin="round"></path>
<path d="M292.404 0.162109V464" stroke="#C29EFF" stroke-width="0.667949" stroke-linecap="round" stroke-linejoin="round"></path>
<path d="M331.196 0.162109V464" stroke="#C29EFF" stroke-width="0.667949" stroke-linecap="round" stroke-linejoin="round"></path>
<path d="M369.987 0.162109V464" stroke="#C29EFF" stroke-width="0.667949" stroke-linecap="round" stroke-linejoin="round"></path>
<path d="M408.779 0.162109V464" stroke="#C29EFF" stroke-width="0.667949" stroke-linecap="round" stroke-linejoin="round"></path>
<path d="M447.57 0.162109V464" stroke="#C29EFF" stroke-width="0.667949" stroke-linecap="round" stroke-linejoin="round"></path>
<path d="M486.361 0.162109V464" stroke="#C29EFF" stroke-width="0.667949" stroke-linecap="round" stroke-linejoin="round"></path>
<path d="M525.153 0.162109V464" stroke="#C29EFF" stroke-width="0.667949" stroke-linecap="round" stroke-linejoin="round"></path>
<path d="M563.944 0.162109V464" stroke="#C29EFF" stroke-width="0.667949" stroke-linecap="round" stroke-linejoin="round"></path>
<path d="M602.736 0.162109V464" stroke="#C29EFF" stroke-width="0.667949" stroke-linecap="round" stroke-linejoin="round"></path>
<path d="M641.527 0.162109V464" stroke="#C29EFF" stroke-width="0.667949" stroke-linecap="round" stroke-linejoin="round"></path>
<path d="M680.318 0.162109V464" stroke="#C29EFF" stroke-width="0.667949" stroke-linecap="round" stroke-linejoin="round"></path>
<path d="M719.11 0.162109V464" stroke="#C29EFF" stroke-width="0.667949" stroke-linecap="round" stroke-linejoin="round"></path>
<path d="M2.79492 39.1504H754.999" stroke="#C29EFF" stroke-width="0.667949" stroke-linecap="round" stroke-linejoin="round"></path>
<path d="M2.79492 77.9419H754.999" stroke="#C29EFF" stroke-width="0.667949" stroke-linecap="round" stroke-linejoin="round"></path>
<path d="M2.79492 116.733H754.999" stroke="#C29EFF" stroke-width="0.667949" stroke-linecap="round" stroke-linejoin="round"></path>
<path d="M2.79492 155.525H754.999" stroke="#C29EFF" stroke-width="0.667949" stroke-linecap="round" stroke-linejoin="round"></path>
<path d="M2.79492 194.316H754.999" stroke="#C29EFF" stroke-width="0.667949" stroke-linecap="round" stroke-linejoin="round"></path>
<path d="M2.79492 233.107H754.999" stroke="#C29EFF" stroke-width="0.667949" stroke-linecap="round" stroke-linejoin="round"></path>
<path d="M2.79492 271.899H754.999" stroke="#C29EFF" stroke-width="0.667949" stroke-linecap="round" stroke-linejoin="round"></path>
<path d="M2.79492 310.69H754.999" stroke="#C29EFF" stroke-width="0.667949" stroke-linecap="round" stroke-linejoin="round"></path>
<path d="M2.79492 349.482H754.999" stroke="#C29EFF" stroke-width="0.667949" stroke-linecap="round" stroke-linejoin="round"></path>
<path d="M2.79492 388.273H754.999" stroke="#C29EFF" stroke-width="0.667949" stroke-linecap="round" stroke-linejoin="round"></path>
<path d="M2.79492 427.064H754.999" stroke="#C29EFF" stroke-width="0.667949" stroke-linecap="round" stroke-linejoin="round"></path>
</g>
</g>
<path d="M180.5 310.5H98.5L60 233L40 272H0.5V465.5H756V116L719 233L682.5 233L643.184 116L603.5 195H564.5L525 258L486 153.5L449 233H409.5H370L346 194.5L292 310.5L253.5 233L214.5 310.5L195.5 288L180.5 310.5Z" fill="url(#paint1_radial_376_11889)" fill-opacity="0.3" stroke="url(#paint2_radial_376_11889)"></path>
</g>
<defs>
<linearGradient id="paint0_linear_376_11889" x1="466.971" y1="-69.5" x2="139.698" y2="236.66" gradientUnits="userSpaceOnUse">
<stop stop-color="#D9D9D9"></stop>
<stop offset="1" stop-color="#D9D9D9" stop-opacity="0"></stop>
</linearGradient>
<radialGradient id="paint1_radial_376_11889" cx="0" cy="0" r="1" gradientUnits="userSpaceOnUse" gradientTransform="translate(399 184) rotate(94.5199) scale(253.789 641.246)">
<stop stop-color="#C29EFF"></stop>
<stop offset="1" stop-color="white" stop-opacity="0"></stop>
</radialGradient>
<radialGradient id="paint2_radial_376_11889" cx="0" cy="0" r="1" gradientUnits="userSpaceOnUse" gradientTransform="translate(386 177) rotate(91.9137) scale(209.617 434.995)">
<stop stop-color="#B500BF"></stop>
<stop offset="0.5" stop-color="#9B52FB"></stop>
<stop offset="1" stop-color="#AA77FD" stop-opacity="0"></stop>
</radialGradient>
<clipPath id="clip0_376_11889">
<rect width="756" height="464" fill="white"></rect>
</clipPath>
</defs>
</svg>
