<svg xmlns="http://www.w3.org/2000/svg" fill="none" viewBox="0 0 50 20" height="20" width="50">
<path fill="#0D0D0D" d="M42.8189 11.4416L38.4765 4.28921H41.8483L44.2382 9.15067L46.6035 4.28921H50L45.6172 11.4416V15.4117C45.6167 15.6481 45.5221 15.8753 45.3531 16.0432C45.1846 16.2106 44.9565 16.3046 44.7176 16.3056H42.8184L42.8189 11.4416Z"></path>
<path fill="#0D0D0D" d="M29.9021 4.28921H37.1517V5.81114C37.1517 6.04807 37.0571 6.2757 36.8886 6.44311C36.7201 6.61053 36.491 6.70452 36.2526 6.70452H31.6732V9.16144H36.426V10.5478C36.4255 10.7847 36.3299 11.0114 36.1614 11.1793C35.9929 11.3472 35.7648 11.4407 35.5259 11.4416H31.6727V13.8844H37.3487V15.4117C37.3487 15.5287 37.3261 15.6452 37.2808 15.7544C37.2354 15.8625 37.1699 15.9614 37.0862 16.0446C37.0024 16.1279 36.9034 16.193 36.7935 16.238C36.6846 16.283 36.5674 16.306 36.4486 16.3056H28.997V5.18259C28.997 5.06462 29.0202 4.94811 29.0665 4.83943C29.1118 4.73027 29.1788 4.63188 29.2626 4.54866C29.3468 4.46544 29.4463 4.40033 29.5557 4.35529C29.6661 4.31124 29.7833 4.28872 29.9021 4.28921Z"></path>
<path fill="#0D0D0D" d="M20.6207 16.3051H18.8495V5.18259C18.8495 4.94566 18.9441 4.71803 19.1126 4.55062C19.2821 4.3832 19.5102 4.28921 19.7486 4.28921H27.116V5.81114C27.1155 6.04807 27.0199 6.27472 26.8519 6.44263C26.6834 6.61004 26.4544 6.70403 26.2164 6.70501H21.5119V9.41648H26.1691V10.8028C26.1691 11.0397 26.0745 11.2674 25.906 11.4348C25.7375 11.6022 25.5084 11.6972 25.27 11.6972H21.5124V15.4146C21.5124 15.6496 21.4183 15.8758 21.2513 16.0427C21.0848 16.2101 20.8581 16.3041 20.6207 16.3051Z"></path>
<path fill="#0D0D0D" d="M9.67109 16.263C9.84057 16.4279 9.97458 16.6237 10.0657 16.8406C10.1574 17.057 10.2047 17.2895 10.2047 17.5245C10.2047 17.7594 10.1574 17.9925 10.0657 18.2088C9.97458 18.4252 9.84008 18.6215 9.67109 18.7865L8.4478 20L7.20381 18.7615C6.52048 18.0811 6.11599 17.1735 6.06968 16.214C6.02239 15.2545 6.33622 14.3122 6.94959 13.5691L9.67109 16.263Z"></path>
<path fill="#0D0D0D" d="M9.7046 7.27139C10.0303 7.59545 10.213 8.03456 10.213 8.49226C10.213 8.95046 10.0303 9.38956 9.7046 9.71313L6.65744 12.7408C6.22241 13.1706 5.87754 13.6812 5.64303 14.2447C5.40852 14.8076 5.2893 15.4112 5.29127 16.0207C5.29176 16.3388 5.32477 16.6561 5.3898 16.9674L4.18917 15.7411C3.45854 15.0137 3.04814 14.0283 3.04814 13.0018C3.04814 11.9742 3.45854 10.9888 4.18917 10.2614L8.45962 6.02114L9.7046 7.27139Z"></path>
<path fill="#0D0D0D" d="M9.69917 1.24486C10.0263 1.5699 10.2096 2.01047 10.2096 2.46916C10.2096 2.92882 10.0258 3.36939 9.69917 3.69444L3.63836 9.72342C3.08953 10.2683 2.68652 10.9399 2.46433 11.6776C2.24312 12.4158 2.21011 13.1976 2.36925 13.9519L1.1425 12.7301C0.780387 12.3713 0.492669 11.9444 0.296586 11.4749C0.100504 11.005 0 10.5018 0 9.99314C0 9.48453 0.100504 8.9813 0.296586 8.51135C0.492669 8.04141 0.780387 7.61504 1.1425 7.25573L8.44484 0L9.69917 1.24486Z"></path>
</svg>
