<svg xmlns="http://www.w3.org/2000/svg" fill="none" viewBox="0 0 139 40" height="40" width="139">
<g clip-path="url(#clip0_70_39)">
<path fill="black" d="M135.088 25.6659C134.992 25.6659 134.897 25.6847 134.808 25.7214C134.72 25.758 134.639 25.8117 134.571 25.8795C134.503 25.9472 134.449 26.0276 134.412 26.1162C134.376 26.2047 134.357 26.2996 134.357 26.3954C134.357 26.4913 134.376 26.5862 134.412 26.6747C134.449 26.7633 134.503 26.8437 134.571 26.9115C134.639 26.9793 134.719 27.0331 134.808 27.0698C134.896 27.1065 134.992 27.1254 135.088 27.1254C135.281 27.1255 135.467 27.0487 135.605 26.9119C135.742 26.775 135.819 26.5895 135.819 26.3959C135.819 26.2024 135.742 26.0167 135.605 25.8798C135.468 25.7429 135.282 25.666 135.088 25.6659ZM135.088 27.0112C134.924 27.0112 134.768 26.9464 134.652 26.8309C134.536 26.7155 134.471 26.5589 134.471 26.3957C134.471 26.2324 134.536 26.0758 134.652 25.9604C134.768 25.845 134.924 25.7801 135.088 25.7801C135.252 25.7801 135.408 25.845 135.524 25.9604C135.64 26.0758 135.705 26.2324 135.705 26.3957C135.705 26.5589 135.64 26.7155 135.524 26.8309C135.408 26.9464 135.252 27.0112 135.088 27.0112ZM135.326 26.2715C135.326 26.1387 135.231 26.0598 135.091 26.0598H134.858V26.7247H134.973V26.4835H135.098L135.218 26.7247H135.342L135.211 26.4586C135.247 26.4426 135.277 26.4162 135.297 26.3828C135.318 26.3494 135.328 26.3106 135.326 26.2715ZM135.087 26.3819H134.974V26.1617H135.087C135.164 26.1617 135.21 26.2004 135.21 26.2715C135.21 26.3427 135.164 26.3828 135.087 26.3828V26.3819ZM48.9918 16.4977H50.2604V19.0042H48.7758C47.6326 19.0042 46.8987 19.5641 46.8987 20.7057V27.0066H44.1848V16.4982H46.8987V18.2638C47.1363 17.0148 47.9993 16.4977 48.9918 16.4977ZM54.4427 13.9992C54.4427 14.2142 54.4002 14.427 54.3177 14.6256C54.2352 14.8241 54.1144 15.0045 53.962 15.1564C53.8097 15.3084 53.6289 15.4289 53.4299 15.511C53.2309 15.5932 53.0176 15.6355 52.8023 15.6354C52.3676 15.6352 51.9507 15.4628 51.6433 15.156C51.336 14.8492 51.1633 14.4331 51.1632 13.9992C51.1632 13.073 51.875 12.3408 52.803 12.3408C53.7307 12.3408 54.4427 13.073 54.4427 13.9992ZM51.4495 16.4975H54.1552V27.0061H51.4486L51.4495 16.4975ZM61.61 16.3201C60.4565 16.3145 59.3333 16.6893 58.4151 17.3862V16.4975H55.7089V30.0909H58.4151V26.1179C59.3333 26.8149 60.4564 27.1897 61.61 27.1842C64.6158 27.1842 67.0507 24.7523 67.0507 21.7522C67.0507 18.7526 64.6158 16.3206 61.61 16.3206M61.3717 24.7031C59.7387 24.7031 58.4151 23.382 58.4151 21.7524C58.4151 20.1228 59.7387 18.8014 61.3717 18.8014C63.0047 18.8014 64.3281 20.1226 64.3281 21.7524C64.3281 23.3823 63.0044 24.7029 61.3717 24.7031ZM116.674 23.6871C116.674 25.7133 114.932 27.1842 112.532 27.1842C110.133 27.1842 108.304 25.6785 108.304 23.5226V23.4641H110.952V23.5226C110.952 24.4222 111.595 25.0269 112.554 25.0269C113.513 25.0269 114.091 24.5793 114.091 23.9134C114.091 23.2826 113.664 22.9298 112.515 22.6126L111.002 22.2008C109.412 21.7713 108.501 20.7376 108.501 19.3647C108.501 17.6008 110.168 16.3206 112.467 16.3206C114.765 16.3206 116.345 17.6016 116.345 19.5089V19.5687H113.85V19.5089C113.85 18.8614 113.242 18.3543 112.467 18.3543C111.652 18.3543 111.084 18.7274 111.084 19.2619C111.084 19.7966 111.489 20.1281 112.528 20.3979L114.107 20.8303C116.228 21.3953 116.674 22.6958 116.674 23.6871ZM76.6575 17.3864C75.7389 16.6892 74.6152 16.3143 73.4612 16.3201C70.4553 16.3201 68.019 18.7523 68.019 21.7522C68.019 24.752 70.4561 27.184 73.4612 27.184C74.6147 27.1895 75.7379 26.8146 76.6561 26.1177V27.0064H79.3625V16.498H76.6561L76.6575 17.3864ZM76.6575 21.7524C76.6575 23.382 75.3336 24.7031 73.7009 24.7029C72.0679 24.7029 70.7443 23.3815 70.7446 21.7519C70.7446 20.1221 72.0682 18.8012 73.7012 18.8012C75.3336 18.8019 76.6568 20.123 76.6568 21.7524H76.6575ZM89.1399 17.3864C88.2218 16.6895 87.0988 16.3147 85.9453 16.3201C82.9397 16.3201 80.5029 18.7523 80.5029 21.7522C80.5029 24.752 82.9397 27.184 85.9453 27.184C87.0988 27.1894 88.2218 26.8146 89.1399 26.1177V27.0064H91.8466V12.7572H89.1399V17.3864ZM86.1838 24.7029C84.5511 24.7029 83.2275 23.382 83.2272 21.7524C83.227 20.1228 84.5506 18.8017 86.1833 18.8012C87.8161 18.8012 89.1397 20.1223 89.1399 21.7519C89.1402 23.3815 87.8168 24.7029 86.1838 24.7029ZM104.418 16.4989H107.124V27.0064H104.418V16.4989ZM107.411 14.0002C107.411 14.2151 107.368 14.4279 107.286 14.6265C107.204 14.8251 107.083 15.0055 106.93 15.1575C106.778 15.3094 106.597 15.43 106.398 15.5122C106.2 15.5945 105.986 15.6368 105.771 15.6368C105.556 15.6368 105.342 15.5945 105.143 15.5122C104.945 15.43 104.764 15.3094 104.611 15.1575C104.459 15.0055 104.338 14.8251 104.256 14.6265C104.174 14.4279 104.131 14.2151 104.131 14.0002C104.131 13.074 104.843 12.3418 105.771 12.3418C106.699 12.3418 107.409 13.0727 107.409 13.999L107.411 14.0002ZM122.935 16.3213C119.929 16.3213 117.493 18.7533 117.493 21.7534C117.493 24.7535 119.929 27.1852 122.935 27.1852C125.94 27.1852 128.376 24.7532 128.376 21.7531C128.376 18.7535 125.938 16.3204 122.933 16.3204L122.935 16.3213ZM122.935 24.7041C121.302 24.7041 119.978 23.383 119.978 21.7534C119.978 20.1238 121.302 18.8024 122.935 18.8024C124.568 18.8024 125.891 20.1235 125.891 21.7534C125.891 23.3828 124.567 24.7036 122.934 24.7029H122.933L122.935 24.7041ZM45.5128 15.1679H41.6689V27.0064H38.9715V15.1679H35.1273V12.7572H45.5118L45.5128 15.1679ZM100.44 16.4977H103.284L99.6505 27.0064H96.3945L92.7809 16.498H95.6243L98.0326 24.1287L100.44 16.4977ZM134.436 16.4977H135.705V19.0042H134.22C133.077 19.0042 132.343 19.5641 132.343 20.7057V27.0066H129.629V16.4982H132.343V18.2638C132.58 17.0148 133.443 16.4977 134.436 16.4977ZM10.7899 21.6128C10.7899 23.1701 9.52492 24.4326 7.96492 24.4326C6.40492 24.4326 5.13995 23.1701 5.13995 21.6128C5.13995 20.0558 6.40492 18.793 7.96492 18.793C9.52492 18.793 10.7899 20.0558 10.7899 21.6128ZM23.8876 18.793C22.3276 18.793 21.0626 20.0558 21.0626 21.6128C21.0626 23.1701 22.3276 24.4326 23.8876 24.4326C25.4476 24.4326 26.7126 23.1701 26.7126 21.6128C26.7121 20.0565 25.4483 18.7947 23.889 18.7939L23.8876 18.793ZM31.8524 21.6128C31.8524 26.001 28.2852 29.5588 23.8876 29.5588C21.8816 29.5623 19.9489 28.8066 18.4791 27.4441L15.9298 30.2121L13.3795 27.4409C11.9097 28.8049 9.97624 29.5617 7.96929 29.5586C3.57486 29.5586 0.00880255 26.001 0.00880255 21.6126C0.007247 20.5071 0.237441 19.4136 0.684588 18.4022C1.13174 17.3909 1.78594 16.4841 2.60517 15.7401L7.52756e-05 12.9111H5.7882C11.9126 8.75082 19.962 8.75082 26.0864 12.9111H31.8595L29.2546 15.7401C30.0741 16.484 30.7286 17.3907 31.176 18.4021C31.6234 19.4136 31.8538 20.5072 31.8524 21.6128ZM13.3543 21.6128C13.3543 18.6432 10.9421 16.2352 7.96686 16.2352C4.99159 16.2352 2.57947 18.6432 2.57947 21.6128C2.57947 24.5824 4.99159 26.9904 7.96686 26.9904C10.9421 26.9904 13.354 24.5834 13.3543 21.6138V21.6128ZM21.9077 13.5845C20.0132 12.7967 17.9812 12.3911 15.9288 12.3911C13.8764 12.3911 11.8444 12.7967 9.94989 13.5845C13.3511 14.8838 15.9298 17.919 15.9298 21.4579C15.9298 17.9192 18.5077 14.8838 21.9077 13.5845ZM29.2764 21.6126C29.2764 18.6427 26.8643 16.2349 23.889 16.2349C20.9138 16.2349 18.5016 18.6425 18.5016 21.6126C18.5016 24.5822 20.9138 26.9902 23.889 26.9902C26.8643 26.9902 29.2764 24.5822 29.2764 21.6126Z"></path>
</g>
<defs>
<clipPath id="clip0_70_39">
<rect transform="translate(0 9.59656)" fill="white" height="20.8485" width="136"></rect>
</clipPath>
</defs>
</svg>
