<svg xmlns="http://www.w3.org/2000/svg" fill="none" viewBox="0 0 134 40" height="40" width="134">
<path fill="#0D0D0D" d="M25.8379 32.6219C25.8806 32.6219 25.8987 32.6752 25.8646 32.7019C23.0743 34.8453 19.6531 36.0049 16.1346 36C12.616 36.0057 9.19449 34.846 6.40456 32.7019C6.37043 32.6763 6.38963 32.6219 6.43123 32.6219H25.8379ZM30.0107 27.9713C29.4518 28.9419 28.7947 29.8486 28.0512 30.6774C28.0373 30.6927 28.0204 30.705 28.0015 30.7135C27.9826 30.7219 27.9621 30.7263 27.9414 30.7264H4.32886C4.30788 30.7263 4.28716 30.7218 4.26805 30.7132C4.24894 30.7046 4.23186 30.692 4.21792 30.6763C3.47213 29.8451 2.8154 28.9381 2.25848 27.9702C2.25352 27.9612 2.25097 27.9511 2.25108 27.9408C2.25118 27.9305 2.25395 27.9204 2.2591 27.9115C2.26425 27.9026 2.27161 27.8952 2.28047 27.8899C2.28933 27.8847 2.29939 27.8819 2.30968 27.8817H29.9595C30.0054 27.8817 30.0342 27.9318 30.0107 27.9713ZM31.8176 23.1809C31.629 24.1127 31.3577 25.0258 31.0069 25.9094C30.9983 25.9315 30.9832 25.9505 30.9636 25.9638C30.944 25.9771 30.9208 25.9842 30.8971 25.9841H1.37209C1.34838 25.9842 1.32519 25.9771 1.30557 25.9638C1.28596 25.9505 1.27085 25.9315 1.26222 25.9094C0.911481 25.0258 0.640189 24.1127 0.451568 23.1809C0.450021 23.1724 0.450342 23.1637 0.452507 23.1553C0.454672 23.1469 0.45863 23.1391 0.464108 23.1324C0.469585 23.1257 0.476451 23.1203 0.484231 23.1165C0.492011 23.1127 0.500519 23.1107 0.509167 23.1105H31.7611C31.7984 23.1105 31.8261 23.1447 31.8187 23.1809M16.0279 4.00036C24.9131 3.94169 32.1344 11.1277 32.1344 20.0002C32.1344 20.3906 32.1209 20.777 32.0939 21.1596C32.0928 21.1745 32.0862 21.1885 32.0753 21.1988C32.0645 21.209 32.0501 21.2149 32.0352 21.2151H0.235037C0.220092 21.2149 0.205776 21.209 0.194915 21.1988C0.184053 21.1885 0.177437 21.1745 0.176371 21.1596C0.14885 20.7787 0.134975 20.397 0.134771 20.0151C0.127305 11.3091 7.32189 4.05796 16.0279 4.00036Z"></path>
<path fill="#0D0D0D" d="M41.6863 10.3288H50.4723C54.6461 10.3288 56.6504 12.2552 56.6504 15.3122C56.6504 17.3218 55.5517 18.7821 54.0157 19.469C55.9112 20.0183 57.4472 21.5063 57.4472 23.9543C57.4472 27.4486 55.0323 29.4326 50.4713 29.4326H41.6863V10.3288ZM49.4835 13.4946H45.6116V18.2295H49.4835C51.5966 18.2295 52.6419 17.597 52.6419 15.8616C52.6419 14.1272 51.5987 13.4946 49.4835 13.4946ZM50.0905 21.229H45.6169V26.2668H50.0905C52.2611 26.2668 53.4397 25.5798 53.4397 23.7623C53.4397 21.9447 52.2579 21.229 50.0905 21.229ZM67.8961 29.3995V27.2694C66.902 28.8801 65.0215 29.6715 62.8903 29.6715C60.2365 29.6715 58.164 28.2529 58.164 25.6854C58.164 23.2833 59.9901 21.9169 62.6695 21.4508L67.6465 20.605V20.2786C67.6465 18.8055 66.5393 18.1495 64.9639 18.1495C63.3042 18.1495 62.502 18.8876 62.3932 20.0343H58.661C58.7997 17.1415 61.1229 15.5821 64.9671 15.5821C69.1964 15.5821 71.2977 17.3037 71.2977 20.9068V29.3995H67.8961ZM67.6497 23.774V23.1468L63.9164 23.8028C62.4252 24.0503 61.7319 24.4844 61.7319 25.5233C61.7319 26.4236 62.534 26.9974 63.9175 26.9974C65.7148 26.9974 67.6497 25.8497 67.6497 23.774ZM78.7387 15.5821C82.0261 15.5821 84.8506 16.973 84.9039 19.9511H81.2314C81.1493 18.941 80.2458 18.1485 78.6288 18.1485C77.3115 18.1485 76.3803 18.6935 76.3803 19.5138C76.3803 20.3351 77.0096 20.5783 78.1893 20.797L81.2858 21.3996C83.753 21.8615 85.1482 23.1201 85.1482 25.3036C85.1482 27.951 82.9829 29.6715 78.9829 29.6715C74.984 29.6715 72.6289 27.8977 72.4923 25.0305H76.3259C76.4336 26.1772 77.3115 27.1052 79.1205 27.1052C80.793 27.1052 81.5845 26.478 81.5845 25.6865C81.5845 24.895 80.9552 24.5676 79.7754 24.3489L76.6789 23.7751C74.215 23.3132 72.8166 22.03 72.8166 19.8434C72.8166 17.2237 75.2006 15.5853 78.7322 15.5853L78.7387 15.5821ZM92.7417 15.5821C97.1192 15.5821 99.7155 18.1773 99.7155 22.5431V23.7185H89.3775C89.4607 25.3846 90.7172 26.9398 92.714 26.9398C94.1646 26.9398 95.3667 26.2305 95.6942 25.0305H99.5213C98.9219 28.0342 96.2115 29.6715 92.7108 29.6715C88.6639 29.6715 85.626 27.1596 85.626 22.6284C85.626 18.3959 88.3876 15.5853 92.7353 15.5853L92.7417 15.5821ZM95.9673 21.2066C95.8841 19.4604 94.5166 18.2029 92.8206 18.2029C90.9614 18.2029 89.6217 19.5938 89.4031 21.2066H95.9673ZM113.198 29.4326V25.4678H103.775V22.2732L112.458 10.3288H116.909V29.4326H113.198ZM113.198 14.4312L107.537 22.3596H113.198V14.4312ZM127.799 25.4657H118.342V22.2721L127.054 10.3288H131.521V22.3575H133.864V25.4689H131.521V29.4326H127.799V25.4657ZM127.799 14.4301L122.118 22.3575H127.799V14.4301Z"></path>
</svg>
