<svg width="540" height="216" viewBox="0 0 540 216" fill="none" xmlns="http://www.w3.org/2000/svg">
<g clip-path="url(#clip0_334_7953)">
<rect width="540" height="216" fill="#F5FFF9"></rect>
<g clip-path="url(#clip1_334_7953)">
<rect width="16.875" height="16.875" stroke="#C7C7C7" stroke-width="0.420561"></rect>
<rect x="16.875" width="16.875" height="16.875" stroke="#C7C7C7" stroke-width="0.420561"></rect>
<rect x="33.75" width="16.875" height="16.875" stroke="#C7C7C7" stroke-width="0.420561"></rect>
<rect x="50.625" width="16.875" height="16.875" stroke="#C7C7C7" stroke-width="0.420561"></rect>
<rect x="67.5" width="16.875" height="16.875" stroke="#C7C7C7" stroke-width="0.420561"></rect>
<rect x="84.375" width="16.875" height="16.875" stroke="#C7C7C7" stroke-width="0.420561"></rect>
<rect x="101.25" width="16.875" height="16.875" stroke="#C7C7C7" stroke-width="0.420561"></rect>
<rect x="118.125" width="16.875" height="16.875" stroke="#C7C7C7" stroke-width="0.420561"></rect>
<rect x="135" width="16.875" height="16.875" stroke="#C7C7C7" stroke-width="0.420561"></rect>
<rect x="151.875" width="16.875" height="16.875" stroke="#C7C7C7" stroke-width="0.420561"></rect>
<rect x="168.75" width="16.875" height="16.875" stroke="#C7C7C7" stroke-width="0.420561"></rect>
<rect x="185.625" width="16.875" height="16.875" stroke="#C7C7C7" stroke-width="0.420561"></rect>
<rect x="202.5" width="16.875" height="16.875" stroke="#C7C7C7" stroke-width="0.420561"></rect>
<rect x="219.375" width="16.875" height="16.875" stroke="#C7C7C7" stroke-width="0.420561"></rect>
<rect x="236.25" width="16.875" height="16.875" stroke="#C7C7C7" stroke-width="0.420561"></rect>
<rect x="253.125" width="16.875" height="16.875" stroke="#C7C7C7" stroke-width="0.420561"></rect>
<rect y="16.875" width="16.875" height="16.875" stroke="#C7C7C7" stroke-width="0.420561"></rect>
<rect x="16.875" y="16.875" width="16.875" height="16.875" stroke="#C7C7C7" stroke-width="0.420561"></rect>
<rect x="33.75" y="16.875" width="16.875" height="16.875" stroke="#C7C7C7" stroke-width="0.420561"></rect>
<rect x="50.625" y="16.875" width="16.875" height="16.875" stroke="#C7C7C7" stroke-width="0.420561"></rect>
<rect x="67.5" y="16.875" width="16.875" height="16.875" stroke="#C7C7C7" stroke-width="0.420561"></rect>
<rect x="84.375" y="16.875" width="16.875" height="16.875" stroke="#C7C7C7" stroke-width="0.420561"></rect>
<rect x="101.25" y="16.875" width="16.875" height="16.875" stroke="#C7C7C7" stroke-width="0.420561"></rect>
<rect x="118.125" y="16.875" width="16.875" height="16.875" stroke="#C7C7C7" stroke-width="0.420561"></rect>
<rect x="135" y="16.875" width="16.875" height="16.875" stroke="#C7C7C7" stroke-width="0.420561"></rect>
<rect x="151.875" y="16.875" width="16.875" height="16.875" stroke="#C7C7C7" stroke-width="0.420561"></rect>
<rect x="168.75" y="16.875" width="16.875" height="16.875" stroke="#C7C7C7" stroke-width="0.420561"></rect>
<rect x="185.625" y="16.875" width="16.875" height="16.875" stroke="#C7C7C7" stroke-width="0.420561"></rect>
<rect x="202.5" y="16.875" width="16.875" height="16.875" stroke="#C7C7C7" stroke-width="0.420561"></rect>
<rect x="219.375" y="16.875" width="16.875" height="16.875" stroke="#C7C7C7" stroke-width="0.420561"></rect>
<rect x="236.25" y="16.875" width="16.875" height="16.875" stroke="#C7C7C7" stroke-width="0.420561"></rect>
<rect x="253.125" y="16.875" width="16.875" height="16.875" stroke="#C7C7C7" stroke-width="0.420561"></rect>
<rect y="33.75" width="16.875" height="16.875" stroke="#C7C7C7" stroke-width="0.420561"></rect>
<rect x="16.875" y="33.75" width="16.875" height="16.875" stroke="#C7C7C7" stroke-width="0.420561"></rect>
<rect x="33.75" y="33.75" width="16.875" height="16.875" stroke="#C7C7C7" stroke-width="0.420561"></rect>
<rect x="50.625" y="33.75" width="16.875" height="16.875" stroke="#C7C7C7" stroke-width="0.420561"></rect>
<rect x="67.5" y="33.75" width="16.875" height="16.875" stroke="#C7C7C7" stroke-width="0.420561"></rect>
<rect x="84.375" y="33.75" width="16.875" height="16.875" stroke="#C7C7C7" stroke-width="0.420561"></rect>
<rect x="101.25" y="33.75" width="16.875" height="16.875" stroke="#C7C7C7" stroke-width="0.420561"></rect>
<rect x="118.125" y="33.75" width="16.875" height="16.875" stroke="#C7C7C7" stroke-width="0.420561"></rect>
<rect x="135" y="33.75" width="16.875" height="16.875" stroke="#C7C7C7" stroke-width="0.420561"></rect>
<rect x="151.875" y="33.75" width="16.875" height="16.875" stroke="#C7C7C7" stroke-width="0.420561"></rect>
<rect x="168.75" y="33.75" width="16.875" height="16.875" stroke="#C7C7C7" stroke-width="0.420561"></rect>
<rect x="185.625" y="33.75" width="16.875" height="16.875" stroke="#C7C7C7" stroke-width="0.420561"></rect>
<rect x="202.5" y="33.75" width="16.875" height="16.875" stroke="#C7C7C7" stroke-width="0.420561"></rect>
<rect x="219.375" y="33.75" width="16.875" height="16.875" stroke="#C7C7C7" stroke-width="0.420561"></rect>
<rect x="236.25" y="33.75" width="16.875" height="16.875" stroke="#C7C7C7" stroke-width="0.420561"></rect>
<rect x="253.125" y="33.75" width="16.875" height="16.875" stroke="#C7C7C7" stroke-width="0.420561"></rect>
<rect y="50.625" width="16.875" height="16.875" stroke="#C7C7C7" stroke-width="0.420561"></rect>
<rect x="16.875" y="50.625" width="16.875" height="16.875" stroke="#C7C7C7" stroke-width="0.420561"></rect>
<rect x="33.75" y="50.625" width="16.875" height="16.875" stroke="#C7C7C7" stroke-width="0.420561"></rect>
<rect x="50.625" y="50.625" width="16.875" height="16.875" stroke="#C7C7C7" stroke-width="0.420561"></rect>
<rect x="67.5" y="50.625" width="16.875" height="16.875" stroke="#C7C7C7" stroke-width="0.420561"></rect>
<rect x="84.375" y="50.625" width="16.875" height="16.875" stroke="#C7C7C7" stroke-width="0.420561"></rect>
<rect x="101.25" y="50.625" width="16.875" height="16.875" stroke="#C7C7C7" stroke-width="0.420561"></rect>
<rect x="118.125" y="50.625" width="16.875" height="16.875" stroke="#C7C7C7" stroke-width="0.420561"></rect>
<rect x="135" y="50.625" width="16.875" height="16.875" stroke="#C7C7C7" stroke-width="0.420561"></rect>
<rect x="151.875" y="50.625" width="16.875" height="16.875" stroke="#C7C7C7" stroke-width="0.420561"></rect>
<rect x="168.75" y="50.625" width="16.875" height="16.875" stroke="#C7C7C7" stroke-width="0.420561"></rect>
<rect x="185.625" y="50.625" width="16.875" height="16.875" stroke="#C7C7C7" stroke-width="0.420561"></rect>
<rect x="202.5" y="50.625" width="16.875" height="16.875" stroke="#C7C7C7" stroke-width="0.420561"></rect>
<rect x="219.375" y="50.625" width="16.875" height="16.875" stroke="#C7C7C7" stroke-width="0.420561"></rect>
<rect x="236.25" y="50.625" width="16.875" height="16.875" stroke="#C7C7C7" stroke-width="0.420561"></rect>
<rect x="253.125" y="50.625" width="16.875" height="16.875" stroke="#C7C7C7" stroke-width="0.420561"></rect>
<rect y="67.5" width="16.875" height="16.875" stroke="#C7C7C7" stroke-width="0.420561"></rect>
<rect x="16.875" y="67.5" width="16.875" height="16.875" stroke="#C7C7C7" stroke-width="0.420561"></rect>
<rect x="33.75" y="67.5" width="16.875" height="16.875" stroke="#C7C7C7" stroke-width="0.420561"></rect>
<rect x="50.625" y="67.5" width="16.875" height="16.875" stroke="#C7C7C7" stroke-width="0.420561"></rect>
<rect x="67.5" y="67.5" width="16.875" height="16.875" stroke="#C7C7C7" stroke-width="0.420561"></rect>
<rect x="84.375" y="67.5" width="16.875" height="16.875" stroke="#C7C7C7" stroke-width="0.420561"></rect>
<rect x="101.25" y="67.5" width="16.875" height="16.875" stroke="#C7C7C7" stroke-width="0.420561"></rect>
<rect x="118.125" y="67.5" width="16.875" height="16.875" stroke="#C7C7C7" stroke-width="0.420561"></rect>
<rect x="135" y="67.5" width="16.875" height="16.875" stroke="#C7C7C7" stroke-width="0.420561"></rect>
<rect x="151.875" y="67.5" width="16.875" height="16.875" stroke="#C7C7C7" stroke-width="0.420561"></rect>
<rect x="168.75" y="67.5" width="16.875" height="16.875" stroke="#C7C7C7" stroke-width="0.420561"></rect>
<rect x="185.625" y="67.5" width="16.875" height="16.875" stroke="#C7C7C7" stroke-width="0.420561"></rect>
<rect x="202.5" y="67.5" width="16.875" height="16.875" stroke="#C7C7C7" stroke-width="0.420561"></rect>
<rect x="219.375" y="67.5" width="16.875" height="16.875" stroke="#C7C7C7" stroke-width="0.420561"></rect>
<rect x="236.25" y="67.5" width="16.875" height="16.875" stroke="#C7C7C7" stroke-width="0.420561"></rect>
<rect x="253.125" y="67.5" width="16.875" height="16.875" stroke="#C7C7C7" stroke-width="0.420561"></rect>
<rect y="84.375" width="16.875" height="16.875" stroke="#C7C7C7" stroke-width="0.420561"></rect>
<rect x="16.875" y="84.375" width="16.875" height="16.875" stroke="#C7C7C7" stroke-width="0.420561"></rect>
<rect x="33.75" y="84.375" width="16.875" height="16.875" stroke="#C7C7C7" stroke-width="0.420561"></rect>
<rect x="50.625" y="84.375" width="16.875" height="16.875" stroke="#C7C7C7" stroke-width="0.420561"></rect>
<rect x="67.5" y="84.375" width="16.875" height="16.875" stroke="#C7C7C7" stroke-width="0.420561"></rect>
<rect x="84.375" y="84.375" width="16.875" height="16.875" stroke="#C7C7C7" stroke-width="0.420561"></rect>
<rect x="101.25" y="84.375" width="16.875" height="16.875" stroke="#C7C7C7" stroke-width="0.420561"></rect>
<rect x="118.125" y="84.375" width="16.875" height="16.875" stroke="#C7C7C7" stroke-width="0.420561"></rect>
<rect x="135" y="84.375" width="16.875" height="16.875" stroke="#C7C7C7" stroke-width="0.420561"></rect>
<rect x="151.875" y="84.375" width="16.875" height="16.875" stroke="#C7C7C7" stroke-width="0.420561"></rect>
<rect x="168.75" y="84.375" width="16.875" height="16.875" stroke="#C7C7C7" stroke-width="0.420561"></rect>
<rect x="185.625" y="84.375" width="16.875" height="16.875" stroke="#C7C7C7" stroke-width="0.420561"></rect>
<rect x="202.5" y="84.375" width="16.875" height="16.875" stroke="#C7C7C7" stroke-width="0.420561"></rect>
<rect x="219.375" y="84.375" width="16.875" height="16.875" stroke="#C7C7C7" stroke-width="0.420561"></rect>
<rect x="236.25" y="84.375" width="16.875" height="16.875" stroke="#C7C7C7" stroke-width="0.420561"></rect>
<rect x="253.125" y="84.375" width="16.875" height="16.875" stroke="#C7C7C7" stroke-width="0.420561"></rect>
</g>
<g clip-path="url(#clip2_334_7953)">
<rect x="270" width="16.875" height="16.875" stroke="#C7C7C7" stroke-width="0.420561"></rect>
<rect x="286.875" width="16.875" height="16.875" stroke="#C7C7C7" stroke-width="0.420561"></rect>
<rect x="303.75" width="16.875" height="16.875" stroke="#C7C7C7" stroke-width="0.420561"></rect>
<rect x="320.625" width="16.875" height="16.875" stroke="#C7C7C7" stroke-width="0.420561"></rect>
<rect x="337.5" width="16.875" height="16.875" stroke="#C7C7C7" stroke-width="0.420561"></rect>
<rect x="354.375" width="16.875" height="16.875" stroke="#C7C7C7" stroke-width="0.420561"></rect>
<rect x="371.25" width="16.875" height="16.875" stroke="#C7C7C7" stroke-width="0.420561"></rect>
<rect x="388.125" width="16.875" height="16.875" stroke="#C7C7C7" stroke-width="0.420561"></rect>
<rect x="405" width="16.875" height="16.875" stroke="#C7C7C7" stroke-width="0.420561"></rect>
<rect x="421.875" width="16.875" height="16.875" stroke="#C7C7C7" stroke-width="0.420561"></rect>
<rect x="438.75" width="16.875" height="16.875" stroke="#C7C7C7" stroke-width="0.420561"></rect>
<rect x="455.625" width="16.875" height="16.875" stroke="#C7C7C7" stroke-width="0.420561"></rect>
<rect x="472.5" width="16.875" height="16.875" stroke="#C7C7C7" stroke-width="0.420561"></rect>
<rect x="489.375" width="16.875" height="16.875" stroke="#C7C7C7" stroke-width="0.420561"></rect>
<rect x="506.25" width="16.875" height="16.875" stroke="#C7C7C7" stroke-width="0.420561"></rect>
<rect x="523.125" width="16.875" height="16.875" stroke="#C7C7C7" stroke-width="0.420561"></rect>
<rect x="270" y="16.875" width="16.875" height="16.875" stroke="#C7C7C7" stroke-width="0.420561"></rect>
<rect x="286.875" y="16.875" width="16.875" height="16.875" stroke="#C7C7C7" stroke-width="0.420561"></rect>
<rect x="303.75" y="16.875" width="16.875" height="16.875" stroke="#C7C7C7" stroke-width="0.420561"></rect>
<rect x="320.625" y="16.875" width="16.875" height="16.875" stroke="#C7C7C7" stroke-width="0.420561"></rect>
<rect x="337.5" y="16.875" width="16.875" height="16.875" stroke="#C7C7C7" stroke-width="0.420561"></rect>
<rect x="354.375" y="16.875" width="16.875" height="16.875" stroke="#C7C7C7" stroke-width="0.420561"></rect>
<rect x="371.25" y="16.875" width="16.875" height="16.875" stroke="#C7C7C7" stroke-width="0.420561"></rect>
<rect x="388.125" y="16.875" width="16.875" height="16.875" stroke="#C7C7C7" stroke-width="0.420561"></rect>
<rect x="405" y="16.875" width="16.875" height="16.875" stroke="#C7C7C7" stroke-width="0.420561"></rect>
<rect x="421.875" y="16.875" width="16.875" height="16.875" stroke="#C7C7C7" stroke-width="0.420561"></rect>
<rect x="438.75" y="16.875" width="16.875" height="16.875" stroke="#C7C7C7" stroke-width="0.420561"></rect>
<rect x="455.625" y="16.875" width="16.875" height="16.875" stroke="#C7C7C7" stroke-width="0.420561"></rect>
<rect x="472.5" y="16.875" width="16.875" height="16.875" stroke="#C7C7C7" stroke-width="0.420561"></rect>
<rect x="489.375" y="16.875" width="16.875" height="16.875" stroke="#C7C7C7" stroke-width="0.420561"></rect>
<rect x="506.25" y="16.875" width="16.875" height="16.875" stroke="#C7C7C7" stroke-width="0.420561"></rect>
<rect x="523.125" y="16.875" width="16.875" height="16.875" stroke="#C7C7C7" stroke-width="0.420561"></rect>
<rect x="270" y="33.75" width="16.875" height="16.875" stroke="#C7C7C7" stroke-width="0.420561"></rect>
<rect x="286.875" y="33.75" width="16.875" height="16.875" stroke="#C7C7C7" stroke-width="0.420561"></rect>
<rect x="303.75" y="33.75" width="16.875" height="16.875" stroke="#C7C7C7" stroke-width="0.420561"></rect>
<rect x="320.625" y="33.75" width="16.875" height="16.875" stroke="#C7C7C7" stroke-width="0.420561"></rect>
<rect x="337.5" y="33.75" width="16.875" height="16.875" stroke="#C7C7C7" stroke-width="0.420561"></rect>
<rect x="354.375" y="33.75" width="16.875" height="16.875" stroke="#C7C7C7" stroke-width="0.420561"></rect>
<rect x="371.25" y="33.75" width="16.875" height="16.875" stroke="#C7C7C7" stroke-width="0.420561"></rect>
<rect x="388.125" y="33.75" width="16.875" height="16.875" stroke="#C7C7C7" stroke-width="0.420561"></rect>
<rect x="405" y="33.75" width="16.875" height="16.875" stroke="#C7C7C7" stroke-width="0.420561"></rect>
<rect x="421.875" y="33.75" width="16.875" height="16.875" stroke="#C7C7C7" stroke-width="0.420561"></rect>
<rect x="438.75" y="33.75" width="16.875" height="16.875" stroke="#C7C7C7" stroke-width="0.420561"></rect>
<rect x="455.625" y="33.75" width="16.875" height="16.875" stroke="#C7C7C7" stroke-width="0.420561"></rect>
<rect x="472.5" y="33.75" width="16.875" height="16.875" stroke="#C7C7C7" stroke-width="0.420561"></rect>
<rect x="489.375" y="33.75" width="16.875" height="16.875" stroke="#C7C7C7" stroke-width="0.420561"></rect>
<rect x="506.25" y="33.75" width="16.875" height="16.875" stroke="#C7C7C7" stroke-width="0.420561"></rect>
<rect x="523.125" y="33.75" width="16.875" height="16.875" stroke="#C7C7C7" stroke-width="0.420561"></rect>
<rect x="270" y="50.625" width="16.875" height="16.875" stroke="#C7C7C7" stroke-width="0.420561"></rect>
<rect x="286.875" y="50.625" width="16.875" height="16.875" stroke="#C7C7C7" stroke-width="0.420561"></rect>
<rect x="303.75" y="50.625" width="16.875" height="16.875" stroke="#C7C7C7" stroke-width="0.420561"></rect>
<rect x="320.625" y="50.625" width="16.875" height="16.875" stroke="#C7C7C7" stroke-width="0.420561"></rect>
<rect x="337.5" y="50.625" width="16.875" height="16.875" stroke="#C7C7C7" stroke-width="0.420561"></rect>
<rect x="354.375" y="50.625" width="16.875" height="16.875" stroke="#C7C7C7" stroke-width="0.420561"></rect>
<rect x="371.25" y="50.625" width="16.875" height="16.875" stroke="#C7C7C7" stroke-width="0.420561"></rect>
<rect x="388.125" y="50.625" width="16.875" height="16.875" stroke="#C7C7C7" stroke-width="0.420561"></rect>
<rect x="405" y="50.625" width="16.875" height="16.875" stroke="#C7C7C7" stroke-width="0.420561"></rect>
<rect x="421.875" y="50.625" width="16.875" height="16.875" stroke="#C7C7C7" stroke-width="0.420561"></rect>
<rect x="438.75" y="50.625" width="16.875" height="16.875" stroke="#C7C7C7" stroke-width="0.420561"></rect>
<rect x="455.625" y="50.625" width="16.875" height="16.875" stroke="#C7C7C7" stroke-width="0.420561"></rect>
<rect x="472.5" y="50.625" width="16.875" height="16.875" stroke="#C7C7C7" stroke-width="0.420561"></rect>
<rect x="489.375" y="50.625" width="16.875" height="16.875" stroke="#C7C7C7" stroke-width="0.420561"></rect>
<rect x="506.25" y="50.625" width="16.875" height="16.875" stroke="#C7C7C7" stroke-width="0.420561"></rect>
<rect x="523.125" y="50.625" width="16.875" height="16.875" stroke="#C7C7C7" stroke-width="0.420561"></rect>
<rect x="270" y="67.5" width="16.875" height="16.875" stroke="#C7C7C7" stroke-width="0.420561"></rect>
<rect x="286.875" y="67.5" width="16.875" height="16.875" stroke="#C7C7C7" stroke-width="0.420561"></rect>
<rect x="303.75" y="67.5" width="16.875" height="16.875" stroke="#C7C7C7" stroke-width="0.420561"></rect>
<rect x="320.625" y="67.5" width="16.875" height="16.875" stroke="#C7C7C7" stroke-width="0.420561"></rect>
<rect x="337.5" y="67.5" width="16.875" height="16.875" stroke="#C7C7C7" stroke-width="0.420561"></rect>
<rect x="354.375" y="67.5" width="16.875" height="16.875" stroke="#C7C7C7" stroke-width="0.420561"></rect>
<rect x="371.25" y="67.5" width="16.875" height="16.875" stroke="#C7C7C7" stroke-width="0.420561"></rect>
<rect x="388.125" y="67.5" width="16.875" height="16.875" stroke="#C7C7C7" stroke-width="0.420561"></rect>
<rect x="405" y="67.5" width="16.875" height="16.875" stroke="#C7C7C7" stroke-width="0.420561"></rect>
<rect x="421.875" y="67.5" width="16.875" height="16.875" stroke="#C7C7C7" stroke-width="0.420561"></rect>
<rect x="438.75" y="67.5" width="16.875" height="16.875" stroke="#C7C7C7" stroke-width="0.420561"></rect>
<rect x="455.625" y="67.5" width="16.875" height="16.875" stroke="#C7C7C7" stroke-width="0.420561"></rect>
<rect x="472.5" y="67.5" width="16.875" height="16.875" stroke="#C7C7C7" stroke-width="0.420561"></rect>
<rect x="489.375" y="67.5" width="16.875" height="16.875" stroke="#C7C7C7" stroke-width="0.420561"></rect>
<rect x="506.25" y="67.5" width="16.875" height="16.875" stroke="#C7C7C7" stroke-width="0.420561"></rect>
<rect x="523.125" y="67.5" width="16.875" height="16.875" stroke="#C7C7C7" stroke-width="0.420561"></rect>
<rect x="270" y="84.375" width="16.875" height="16.875" stroke="#C7C7C7" stroke-width="0.420561"></rect>
<rect x="286.875" y="84.375" width="16.875" height="16.875" stroke="#C7C7C7" stroke-width="0.420561"></rect>
<rect x="303.75" y="84.375" width="16.875" height="16.875" stroke="#C7C7C7" stroke-width="0.420561"></rect>
<rect x="320.625" y="84.375" width="16.875" height="16.875" stroke="#C7C7C7" stroke-width="0.420561"></rect>
<rect x="337.5" y="84.375" width="16.875" height="16.875" stroke="#C7C7C7" stroke-width="0.420561"></rect>
<rect x="354.375" y="84.375" width="16.875" height="16.875" stroke="#C7C7C7" stroke-width="0.420561"></rect>
<rect x="371.25" y="84.375" width="16.875" height="16.875" stroke="#C7C7C7" stroke-width="0.420561"></rect>
<rect x="388.125" y="84.375" width="16.875" height="16.875" stroke="#C7C7C7" stroke-width="0.420561"></rect>
<rect x="405" y="84.375" width="16.875" height="16.875" stroke="#C7C7C7" stroke-width="0.420561"></rect>
<rect x="421.875" y="84.375" width="16.875" height="16.875" stroke="#C7C7C7" stroke-width="0.420561"></rect>
<rect x="438.75" y="84.375" width="16.875" height="16.875" stroke="#C7C7C7" stroke-width="0.420561"></rect>
<rect x="455.625" y="84.375" width="16.875" height="16.875" stroke="#C7C7C7" stroke-width="0.420561"></rect>
<rect x="472.5" y="84.375" width="16.875" height="16.875" stroke="#C7C7C7" stroke-width="0.420561"></rect>
<rect x="489.375" y="84.375" width="16.875" height="16.875" stroke="#C7C7C7" stroke-width="0.420561"></rect>
<rect x="506.25" y="84.375" width="16.875" height="16.875" stroke="#C7C7C7" stroke-width="0.420561"></rect>
<rect x="523.125" y="84.375" width="16.875" height="16.875" stroke="#C7C7C7" stroke-width="0.420561"></rect>
</g>
<g clip-path="url(#clip3_334_7953)">
<rect y="101.25" width="16.875" height="16.875" stroke="#C7C7C7" stroke-width="0.420561"></rect>
<rect x="16.875" y="101.25" width="16.875" height="16.875" stroke="#C7C7C7" stroke-width="0.420561"></rect>
<rect x="33.75" y="101.25" width="16.875" height="16.875" stroke="#C7C7C7" stroke-width="0.420561"></rect>
<rect x="50.625" y="101.25" width="16.875" height="16.875" stroke="#C7C7C7" stroke-width="0.420561"></rect>
<rect x="67.5" y="101.25" width="16.875" height="16.875" stroke="#C7C7C7" stroke-width="0.420561"></rect>
<rect x="84.375" y="101.25" width="16.875" height="16.875" stroke="#C7C7C7" stroke-width="0.420561"></rect>
<rect x="101.25" y="101.25" width="16.875" height="16.875" stroke="#C7C7C7" stroke-width="0.420561"></rect>
<rect x="118.125" y="101.25" width="16.875" height="16.875" stroke="#C7C7C7" stroke-width="0.420561"></rect>
<rect x="135" y="101.25" width="16.875" height="16.875" stroke="#C7C7C7" stroke-width="0.420561"></rect>
<rect x="151.875" y="101.25" width="16.875" height="16.875" stroke="#C7C7C7" stroke-width="0.420561"></rect>
<rect x="168.75" y="101.25" width="16.875" height="16.875" stroke="#C7C7C7" stroke-width="0.420561"></rect>
<rect x="185.625" y="101.25" width="16.875" height="16.875" stroke="#C7C7C7" stroke-width="0.420561"></rect>
<rect x="202.5" y="101.25" width="16.875" height="16.875" stroke="#C7C7C7" stroke-width="0.420561"></rect>
<rect x="219.375" y="101.25" width="16.875" height="16.875" stroke="#C7C7C7" stroke-width="0.420561"></rect>
<rect x="236.25" y="101.25" width="16.875" height="16.875" stroke="#C7C7C7" stroke-width="0.420561"></rect>
<rect x="253.125" y="101.25" width="16.875" height="16.875" stroke="#C7C7C7" stroke-width="0.420561"></rect>
<rect y="118.125" width="16.875" height="16.875" stroke="#C7C7C7" stroke-width="0.420561"></rect>
<rect x="16.875" y="118.125" width="16.875" height="16.875" stroke="#C7C7C7" stroke-width="0.420561"></rect>
<rect x="33.75" y="118.125" width="16.875" height="16.875" stroke="#C7C7C7" stroke-width="0.420561"></rect>
<rect x="50.625" y="118.125" width="16.875" height="16.875" stroke="#C7C7C7" stroke-width="0.420561"></rect>
<rect x="67.5" y="118.125" width="16.875" height="16.875" stroke="#C7C7C7" stroke-width="0.420561"></rect>
<rect x="84.375" y="118.125" width="16.875" height="16.875" stroke="#C7C7C7" stroke-width="0.420561"></rect>
<rect x="101.25" y="118.125" width="16.875" height="16.875" stroke="#C7C7C7" stroke-width="0.420561"></rect>
<rect x="118.125" y="118.125" width="16.875" height="16.875" stroke="#C7C7C7" stroke-width="0.420561"></rect>
<rect x="135" y="118.125" width="16.875" height="16.875" stroke="#C7C7C7" stroke-width="0.420561"></rect>
<rect x="151.875" y="118.125" width="16.875" height="16.875" stroke="#C7C7C7" stroke-width="0.420561"></rect>
<rect x="168.75" y="118.125" width="16.875" height="16.875" stroke="#C7C7C7" stroke-width="0.420561"></rect>
<rect x="185.625" y="118.125" width="16.875" height="16.875" stroke="#C7C7C7" stroke-width="0.420561"></rect>
<rect x="202.5" y="118.125" width="16.875" height="16.875" stroke="#C7C7C7" stroke-width="0.420561"></rect>
<rect x="219.375" y="118.125" width="16.875" height="16.875" stroke="#C7C7C7" stroke-width="0.420561"></rect>
<rect x="236.25" y="118.125" width="16.875" height="16.875" stroke="#C7C7C7" stroke-width="0.420561"></rect>
<rect x="253.125" y="118.125" width="16.875" height="16.875" stroke="#C7C7C7" stroke-width="0.420561"></rect>
<rect y="135" width="16.875" height="16.875" stroke="#C7C7C7" stroke-width="0.420561"></rect>
<rect x="16.875" y="135" width="16.875" height="16.875" stroke="#C7C7C7" stroke-width="0.420561"></rect>
<rect x="33.75" y="135" width="16.875" height="16.875" stroke="#C7C7C7" stroke-width="0.420561"></rect>
<rect x="50.625" y="135" width="16.875" height="16.875" stroke="#C7C7C7" stroke-width="0.420561"></rect>
<rect x="67.5" y="135" width="16.875" height="16.875" stroke="#C7C7C7" stroke-width="0.420561"></rect>
<rect x="84.375" y="135" width="16.875" height="16.875" stroke="#C7C7C7" stroke-width="0.420561"></rect>
<rect x="101.25" y="135" width="16.875" height="16.875" stroke="#C7C7C7" stroke-width="0.420561"></rect>
<rect x="118.125" y="135" width="16.875" height="16.875" stroke="#C7C7C7" stroke-width="0.420561"></rect>
<rect x="135" y="135" width="16.875" height="16.875" stroke="#C7C7C7" stroke-width="0.420561"></rect>
<rect x="151.875" y="135" width="16.875" height="16.875" stroke="#C7C7C7" stroke-width="0.420561"></rect>
<rect x="168.75" y="135" width="16.875" height="16.875" stroke="#C7C7C7" stroke-width="0.420561"></rect>
<rect x="185.625" y="135" width="16.875" height="16.875" stroke="#C7C7C7" stroke-width="0.420561"></rect>
<rect x="202.5" y="135" width="16.875" height="16.875" stroke="#C7C7C7" stroke-width="0.420561"></rect>
<rect x="219.375" y="135" width="16.875" height="16.875" stroke="#C7C7C7" stroke-width="0.420561"></rect>
<rect x="236.25" y="135" width="16.875" height="16.875" stroke="#C7C7C7" stroke-width="0.420561"></rect>
<rect x="253.125" y="135" width="16.875" height="16.875" stroke="#C7C7C7" stroke-width="0.420561"></rect>
<rect y="151.875" width="16.875" height="16.875" stroke="#C7C7C7" stroke-width="0.420561"></rect>
<rect x="16.875" y="151.875" width="16.875" height="16.875" stroke="#C7C7C7" stroke-width="0.420561"></rect>
<rect x="33.75" y="151.875" width="16.875" height="16.875" stroke="#C7C7C7" stroke-width="0.420561"></rect>
<rect x="50.625" y="151.875" width="16.875" height="16.875" stroke="#C7C7C7" stroke-width="0.420561"></rect>
<rect x="67.5" y="151.875" width="16.875" height="16.875" stroke="#C7C7C7" stroke-width="0.420561"></rect>
<rect x="84.375" y="151.875" width="16.875" height="16.875" stroke="#C7C7C7" stroke-width="0.420561"></rect>
<rect x="101.25" y="151.875" width="16.875" height="16.875" stroke="#C7C7C7" stroke-width="0.420561"></rect>
<rect x="118.125" y="151.875" width="16.875" height="16.875" stroke="#C7C7C7" stroke-width="0.420561"></rect>
<rect x="135" y="151.875" width="16.875" height="16.875" stroke="#C7C7C7" stroke-width="0.420561"></rect>
<rect x="151.875" y="151.875" width="16.875" height="16.875" stroke="#C7C7C7" stroke-width="0.420561"></rect>
<rect x="168.75" y="151.875" width="16.875" height="16.875" stroke="#C7C7C7" stroke-width="0.420561"></rect>
<rect x="185.625" y="151.875" width="16.875" height="16.875" stroke="#C7C7C7" stroke-width="0.420561"></rect>
<rect x="202.5" y="151.875" width="16.875" height="16.875" stroke="#C7C7C7" stroke-width="0.420561"></rect>
<rect x="219.375" y="151.875" width="16.875" height="16.875" stroke="#C7C7C7" stroke-width="0.420561"></rect>
<rect x="236.25" y="151.875" width="16.875" height="16.875" stroke="#C7C7C7" stroke-width="0.420561"></rect>
<rect x="253.125" y="151.875" width="16.875" height="16.875" stroke="#C7C7C7" stroke-width="0.420561"></rect>
<rect y="168.75" width="16.875" height="16.875" stroke="#C7C7C7" stroke-width="0.420561"></rect>
<rect x="16.875" y="168.75" width="16.875" height="16.875" stroke="#C7C7C7" stroke-width="0.420561"></rect>
<rect x="33.75" y="168.75" width="16.875" height="16.875" stroke="#C7C7C7" stroke-width="0.420561"></rect>
<rect x="50.625" y="168.75" width="16.875" height="16.875" stroke="#C7C7C7" stroke-width="0.420561"></rect>
<rect x="67.5" y="168.75" width="16.875" height="16.875" stroke="#C7C7C7" stroke-width="0.420561"></rect>
<rect x="84.375" y="168.75" width="16.875" height="16.875" stroke="#C7C7C7" stroke-width="0.420561"></rect>
<rect x="101.25" y="168.75" width="16.875" height="16.875" stroke="#C7C7C7" stroke-width="0.420561"></rect>
<rect x="118.125" y="168.75" width="16.875" height="16.875" stroke="#C7C7C7" stroke-width="0.420561"></rect>
<rect x="135" y="168.75" width="16.875" height="16.875" stroke="#C7C7C7" stroke-width="0.420561"></rect>
<rect x="151.875" y="168.75" width="16.875" height="16.875" stroke="#C7C7C7" stroke-width="0.420561"></rect>
<rect x="168.75" y="168.75" width="16.875" height="16.875" stroke="#C7C7C7" stroke-width="0.420561"></rect>
<rect x="185.625" y="168.75" width="16.875" height="16.875" stroke="#C7C7C7" stroke-width="0.420561"></rect>
<rect x="202.5" y="168.75" width="16.875" height="16.875" stroke="#C7C7C7" stroke-width="0.420561"></rect>
<rect x="219.375" y="168.75" width="16.875" height="16.875" stroke="#C7C7C7" stroke-width="0.420561"></rect>
<rect x="236.25" y="168.75" width="16.875" height="16.875" stroke="#C7C7C7" stroke-width="0.420561"></rect>
<rect x="253.125" y="168.75" width="16.875" height="16.875" stroke="#C7C7C7" stroke-width="0.420561"></rect>
<rect y="185.625" width="16.875" height="16.875" stroke="#C7C7C7" stroke-width="0.420561"></rect>
<rect x="16.875" y="185.625" width="16.875" height="16.875" stroke="#C7C7C7" stroke-width="0.420561"></rect>
<rect x="33.75" y="185.625" width="16.875" height="16.875" stroke="#C7C7C7" stroke-width="0.420561"></rect>
<rect x="50.625" y="185.625" width="16.875" height="16.875" stroke="#C7C7C7" stroke-width="0.420561"></rect>
<rect x="67.5" y="185.625" width="16.875" height="16.875" stroke="#C7C7C7" stroke-width="0.420561"></rect>
<rect x="84.375" y="185.625" width="16.875" height="16.875" stroke="#C7C7C7" stroke-width="0.420561"></rect>
<rect x="101.25" y="185.625" width="16.875" height="16.875" stroke="#C7C7C7" stroke-width="0.420561"></rect>
<rect x="118.125" y="185.625" width="16.875" height="16.875" stroke="#C7C7C7" stroke-width="0.420561"></rect>
<rect x="135" y="185.625" width="16.875" height="16.875" stroke="#C7C7C7" stroke-width="0.420561"></rect>
<rect x="151.875" y="185.625" width="16.875" height="16.875" stroke="#C7C7C7" stroke-width="0.420561"></rect>
<rect x="168.75" y="185.625" width="16.875" height="16.875" stroke="#C7C7C7" stroke-width="0.420561"></rect>
<rect x="185.625" y="185.625" width="16.875" height="16.875" stroke="#C7C7C7" stroke-width="0.420561"></rect>
<rect x="202.5" y="185.625" width="16.875" height="16.875" stroke="#C7C7C7" stroke-width="0.420561"></rect>
<rect x="219.375" y="185.625" width="16.875" height="16.875" stroke="#C7C7C7" stroke-width="0.420561"></rect>
<rect x="236.25" y="185.625" width="16.875" height="16.875" stroke="#C7C7C7" stroke-width="0.420561"></rect>
<rect x="253.125" y="185.625" width="16.875" height="16.875" stroke="#C7C7C7" stroke-width="0.420561"></rect>
</g>
<g clip-path="url(#clip4_334_7953)">
<rect x="270" y="101.25" width="16.875" height="16.875" stroke="#C7C7C7" stroke-width="0.420561"></rect>
<rect x="286.875" y="101.25" width="16.875" height="16.875" stroke="#C7C7C7" stroke-width="0.420561"></rect>
<rect x="303.75" y="101.25" width="16.875" height="16.875" stroke="#C7C7C7" stroke-width="0.420561"></rect>
<rect x="320.625" y="101.25" width="16.875" height="16.875" stroke="#C7C7C7" stroke-width="0.420561"></rect>
<rect x="337.5" y="101.25" width="16.875" height="16.875" stroke="#C7C7C7" stroke-width="0.420561"></rect>
<rect x="354.375" y="101.25" width="16.875" height="16.875" stroke="#C7C7C7" stroke-width="0.420561"></rect>
<rect x="371.25" y="101.25" width="16.875" height="16.875" stroke="#C7C7C7" stroke-width="0.420561"></rect>
<rect x="388.125" y="101.25" width="16.875" height="16.875" stroke="#C7C7C7" stroke-width="0.420561"></rect>
<rect x="405" y="101.25" width="16.875" height="16.875" stroke="#C7C7C7" stroke-width="0.420561"></rect>
<rect x="421.875" y="101.25" width="16.875" height="16.875" stroke="#C7C7C7" stroke-width="0.420561"></rect>
<rect x="438.75" y="101.25" width="16.875" height="16.875" stroke="#C7C7C7" stroke-width="0.420561"></rect>
<rect x="455.625" y="101.25" width="16.875" height="16.875" stroke="#C7C7C7" stroke-width="0.420561"></rect>
<rect x="472.5" y="101.25" width="16.875" height="16.875" stroke="#C7C7C7" stroke-width="0.420561"></rect>
<rect x="489.375" y="101.25" width="16.875" height="16.875" stroke="#C7C7C7" stroke-width="0.420561"></rect>
<rect x="506.25" y="101.25" width="16.875" height="16.875" stroke="#C7C7C7" stroke-width="0.420561"></rect>
<rect x="523.125" y="101.25" width="16.875" height="16.875" stroke="#C7C7C7" stroke-width="0.420561"></rect>
<rect x="270" y="118.125" width="16.875" height="16.875" stroke="#C7C7C7" stroke-width="0.420561"></rect>
<rect x="286.875" y="118.125" width="16.875" height="16.875" stroke="#C7C7C7" stroke-width="0.420561"></rect>
<rect x="303.75" y="118.125" width="16.875" height="16.875" stroke="#C7C7C7" stroke-width="0.420561"></rect>
<rect x="320.625" y="118.125" width="16.875" height="16.875" stroke="#C7C7C7" stroke-width="0.420561"></rect>
<rect x="337.5" y="118.125" width="16.875" height="16.875" stroke="#C7C7C7" stroke-width="0.420561"></rect>
<rect x="354.375" y="118.125" width="16.875" height="16.875" stroke="#C7C7C7" stroke-width="0.420561"></rect>
<rect x="371.25" y="118.125" width="16.875" height="16.875" stroke="#C7C7C7" stroke-width="0.420561"></rect>
<rect x="388.125" y="118.125" width="16.875" height="16.875" stroke="#C7C7C7" stroke-width="0.420561"></rect>
<rect x="405" y="118.125" width="16.875" height="16.875" stroke="#C7C7C7" stroke-width="0.420561"></rect>
<rect x="421.875" y="118.125" width="16.875" height="16.875" stroke="#C7C7C7" stroke-width="0.420561"></rect>
<rect x="438.75" y="118.125" width="16.875" height="16.875" stroke="#C7C7C7" stroke-width="0.420561"></rect>
<rect x="455.625" y="118.125" width="16.875" height="16.875" stroke="#C7C7C7" stroke-width="0.420561"></rect>
<rect x="472.5" y="118.125" width="16.875" height="16.875" stroke="#C7C7C7" stroke-width="0.420561"></rect>
<rect x="489.375" y="118.125" width="16.875" height="16.875" stroke="#C7C7C7" stroke-width="0.420561"></rect>
<rect x="506.25" y="118.125" width="16.875" height="16.875" stroke="#C7C7C7" stroke-width="0.420561"></rect>
<rect x="523.125" y="118.125" width="16.875" height="16.875" stroke="#C7C7C7" stroke-width="0.420561"></rect>
<rect x="270" y="135" width="16.875" height="16.875" stroke="#C7C7C7" stroke-width="0.420561"></rect>
<rect x="286.875" y="135" width="16.875" height="16.875" stroke="#C7C7C7" stroke-width="0.420561"></rect>
<rect x="303.75" y="135" width="16.875" height="16.875" stroke="#C7C7C7" stroke-width="0.420561"></rect>
<rect x="320.625" y="135" width="16.875" height="16.875" stroke="#C7C7C7" stroke-width="0.420561"></rect>
<rect x="337.5" y="135" width="16.875" height="16.875" stroke="#C7C7C7" stroke-width="0.420561"></rect>
<rect x="354.375" y="135" width="16.875" height="16.875" stroke="#C7C7C7" stroke-width="0.420561"></rect>
<rect x="371.25" y="135" width="16.875" height="16.875" stroke="#C7C7C7" stroke-width="0.420561"></rect>
<rect x="388.125" y="135" width="16.875" height="16.875" stroke="#C7C7C7" stroke-width="0.420561"></rect>
<rect x="405" y="135" width="16.875" height="16.875" stroke="#C7C7C7" stroke-width="0.420561"></rect>
<rect x="421.875" y="135" width="16.875" height="16.875" stroke="#C7C7C7" stroke-width="0.420561"></rect>
<rect x="438.75" y="135" width="16.875" height="16.875" stroke="#C7C7C7" stroke-width="0.420561"></rect>
<rect x="455.625" y="135" width="16.875" height="16.875" stroke="#C7C7C7" stroke-width="0.420561"></rect>
<rect x="472.5" y="135" width="16.875" height="16.875" stroke="#C7C7C7" stroke-width="0.420561"></rect>
<rect x="489.375" y="135" width="16.875" height="16.875" stroke="#C7C7C7" stroke-width="0.420561"></rect>
<rect x="506.25" y="135" width="16.875" height="16.875" stroke="#C7C7C7" stroke-width="0.420561"></rect>
<rect x="523.125" y="135" width="16.875" height="16.875" stroke="#C7C7C7" stroke-width="0.420561"></rect>
<rect x="270" y="151.875" width="16.875" height="16.875" stroke="#C7C7C7" stroke-width="0.420561"></rect>
<rect x="286.875" y="151.875" width="16.875" height="16.875" stroke="#C7C7C7" stroke-width="0.420561"></rect>
<rect x="303.75" y="151.875" width="16.875" height="16.875" stroke="#C7C7C7" stroke-width="0.420561"></rect>
<rect x="320.625" y="151.875" width="16.875" height="16.875" stroke="#C7C7C7" stroke-width="0.420561"></rect>
<rect x="337.5" y="151.875" width="16.875" height="16.875" stroke="#C7C7C7" stroke-width="0.420561"></rect>
<rect x="354.375" y="151.875" width="16.875" height="16.875" stroke="#C7C7C7" stroke-width="0.420561"></rect>
<rect x="371.25" y="151.875" width="16.875" height="16.875" stroke="#C7C7C7" stroke-width="0.420561"></rect>
<rect x="388.125" y="151.875" width="16.875" height="16.875" stroke="#C7C7C7" stroke-width="0.420561"></rect>
<rect x="405" y="151.875" width="16.875" height="16.875" stroke="#C7C7C7" stroke-width="0.420561"></rect>
<rect x="421.875" y="151.875" width="16.875" height="16.875" stroke="#C7C7C7" stroke-width="0.420561"></rect>
<rect x="438.75" y="151.875" width="16.875" height="16.875" stroke="#C7C7C7" stroke-width="0.420561"></rect>
<rect x="455.625" y="151.875" width="16.875" height="16.875" stroke="#C7C7C7" stroke-width="0.420561"></rect>
<rect x="472.5" y="151.875" width="16.875" height="16.875" stroke="#C7C7C7" stroke-width="0.420561"></rect>
<rect x="489.375" y="151.875" width="16.875" height="16.875" stroke="#C7C7C7" stroke-width="0.420561"></rect>
<rect x="506.25" y="151.875" width="16.875" height="16.875" stroke="#C7C7C7" stroke-width="0.420561"></rect>
<rect x="523.125" y="151.875" width="16.875" height="16.875" stroke="#C7C7C7" stroke-width="0.420561"></rect>
<rect x="270" y="168.75" width="16.875" height="16.875" stroke="#C7C7C7" stroke-width="0.420561"></rect>
<rect x="286.875" y="168.75" width="16.875" height="16.875" stroke="#C7C7C7" stroke-width="0.420561"></rect>
<rect x="303.75" y="168.75" width="16.875" height="16.875" stroke="#C7C7C7" stroke-width="0.420561"></rect>
<rect x="320.625" y="168.75" width="16.875" height="16.875" stroke="#C7C7C7" stroke-width="0.420561"></rect>
<rect x="337.5" y="168.75" width="16.875" height="16.875" stroke="#C7C7C7" stroke-width="0.420561"></rect>
<rect x="354.375" y="168.75" width="16.875" height="16.875" stroke="#C7C7C7" stroke-width="0.420561"></rect>
<rect x="371.25" y="168.75" width="16.875" height="16.875" stroke="#C7C7C7" stroke-width="0.420561"></rect>
<rect x="388.125" y="168.75" width="16.875" height="16.875" stroke="#C7C7C7" stroke-width="0.420561"></rect>
<rect x="405" y="168.75" width="16.875" height="16.875" stroke="#C7C7C7" stroke-width="0.420561"></rect>
<rect x="421.875" y="168.75" width="16.875" height="16.875" stroke="#C7C7C7" stroke-width="0.420561"></rect>
<rect x="438.75" y="168.75" width="16.875" height="16.875" stroke="#C7C7C7" stroke-width="0.420561"></rect>
<rect x="455.625" y="168.75" width="16.875" height="16.875" stroke="#C7C7C7" stroke-width="0.420561"></rect>
<rect x="472.5" y="168.75" width="16.875" height="16.875" stroke="#C7C7C7" stroke-width="0.420561"></rect>
<rect x="489.375" y="168.75" width="16.875" height="16.875" stroke="#C7C7C7" stroke-width="0.420561"></rect>
<rect x="506.25" y="168.75" width="16.875" height="16.875" stroke="#C7C7C7" stroke-width="0.420561"></rect>
<rect x="523.125" y="168.75" width="16.875" height="16.875" stroke="#C7C7C7" stroke-width="0.420561"></rect>
<rect x="270" y="185.625" width="16.875" height="16.875" stroke="#C7C7C7" stroke-width="0.420561"></rect>
<rect x="286.875" y="185.625" width="16.875" height="16.875" stroke="#C7C7C7" stroke-width="0.420561"></rect>
<rect x="303.75" y="185.625" width="16.875" height="16.875" stroke="#C7C7C7" stroke-width="0.420561"></rect>
<rect x="320.625" y="185.625" width="16.875" height="16.875" stroke="#C7C7C7" stroke-width="0.420561"></rect>
<rect x="337.5" y="185.625" width="16.875" height="16.875" stroke="#C7C7C7" stroke-width="0.420561"></rect>
<rect x="354.375" y="185.625" width="16.875" height="16.875" stroke="#C7C7C7" stroke-width="0.420561"></rect>
<rect x="371.25" y="185.625" width="16.875" height="16.875" stroke="#C7C7C7" stroke-width="0.420561"></rect>
<rect x="388.125" y="185.625" width="16.875" height="16.875" stroke="#C7C7C7" stroke-width="0.420561"></rect>
<rect x="405" y="185.625" width="16.875" height="16.875" stroke="#C7C7C7" stroke-width="0.420561"></rect>
<rect x="421.875" y="185.625" width="16.875" height="16.875" stroke="#C7C7C7" stroke-width="0.420561"></rect>
<rect x="438.75" y="185.625" width="16.875" height="16.875" stroke="#C7C7C7" stroke-width="0.420561"></rect>
<rect x="455.625" y="185.625" width="16.875" height="16.875" stroke="#C7C7C7" stroke-width="0.420561"></rect>
<rect x="472.5" y="185.625" width="16.875" height="16.875" stroke="#C7C7C7" stroke-width="0.420561"></rect>
<rect x="489.375" y="185.625" width="16.875" height="16.875" stroke="#C7C7C7" stroke-width="0.420561"></rect>
<rect x="506.25" y="185.625" width="16.875" height="16.875" stroke="#C7C7C7" stroke-width="0.420561"></rect>
<rect x="523.125" y="185.625" width="16.875" height="16.875" stroke="#C7C7C7" stroke-width="0.420561"></rect>
</g>
<g clip-path="url(#clip5_334_7953)">
<rect y="202.5" width="16.875" height="16.875" stroke="#C7C7C7" stroke-width="0.420561"></rect>
<rect x="16.875" y="202.5" width="16.875" height="16.875" stroke="#C7C7C7" stroke-width="0.420561"></rect>
<rect x="33.75" y="202.5" width="16.875" height="16.875" stroke="#C7C7C7" stroke-width="0.420561"></rect>
<rect x="50.625" y="202.5" width="16.875" height="16.875" stroke="#C7C7C7" stroke-width="0.420561"></rect>
<rect x="67.5" y="202.5" width="16.875" height="16.875" stroke="#C7C7C7" stroke-width="0.420561"></rect>
<rect x="84.375" y="202.5" width="16.875" height="16.875" stroke="#C7C7C7" stroke-width="0.420561"></rect>
<rect x="101.25" y="202.5" width="16.875" height="16.875" stroke="#C7C7C7" stroke-width="0.420561"></rect>
<rect x="118.125" y="202.5" width="16.875" height="16.875" stroke="#C7C7C7" stroke-width="0.420561"></rect>
<rect x="135" y="202.5" width="16.875" height="16.875" stroke="#C7C7C7" stroke-width="0.420561"></rect>
<rect x="151.875" y="202.5" width="16.875" height="16.875" stroke="#C7C7C7" stroke-width="0.420561"></rect>
<rect x="168.75" y="202.5" width="16.875" height="16.875" stroke="#C7C7C7" stroke-width="0.420561"></rect>
<rect x="185.625" y="202.5" width="16.875" height="16.875" stroke="#C7C7C7" stroke-width="0.420561"></rect>
<rect x="202.5" y="202.5" width="16.875" height="16.875" stroke="#C7C7C7" stroke-width="0.420561"></rect>
<rect x="219.375" y="202.5" width="16.875" height="16.875" stroke="#C7C7C7" stroke-width="0.420561"></rect>
<rect x="236.25" y="202.5" width="16.875" height="16.875" stroke="#C7C7C7" stroke-width="0.420561"></rect>
<rect x="253.125" y="202.5" width="16.875" height="16.875" stroke="#C7C7C7" stroke-width="0.420561"></rect>
</g>
<g clip-path="url(#clip6_334_7953)">
<rect x="270" y="202.5" width="16.875" height="16.875" stroke="#C7C7C7" stroke-width="0.420561"></rect>
<rect x="286.875" y="202.5" width="16.875" height="16.875" stroke="#C7C7C7" stroke-width="0.420561"></rect>
<rect x="303.75" y="202.5" width="16.875" height="16.875" stroke="#C7C7C7" stroke-width="0.420561"></rect>
<rect x="320.625" y="202.5" width="16.875" height="16.875" stroke="#C7C7C7" stroke-width="0.420561"></rect>
<rect x="337.5" y="202.5" width="16.875" height="16.875" stroke="#C7C7C7" stroke-width="0.420561"></rect>
<rect x="354.375" y="202.5" width="16.875" height="16.875" stroke="#C7C7C7" stroke-width="0.420561"></rect>
<rect x="371.25" y="202.5" width="16.875" height="16.875" stroke="#C7C7C7" stroke-width="0.420561"></rect>
<rect x="388.125" y="202.5" width="16.875" height="16.875" stroke="#C7C7C7" stroke-width="0.420561"></rect>
<rect x="405" y="202.5" width="16.875" height="16.875" stroke="#C7C7C7" stroke-width="0.420561"></rect>
<rect x="421.875" y="202.5" width="16.875" height="16.875" stroke="#C7C7C7" stroke-width="0.420561"></rect>
<rect x="438.75" y="202.5" width="16.875" height="16.875" stroke="#C7C7C7" stroke-width="0.420561"></rect>
<rect x="455.625" y="202.5" width="16.875" height="16.875" stroke="#C7C7C7" stroke-width="0.420561"></rect>
<rect x="472.5" y="202.5" width="16.875" height="16.875" stroke="#C7C7C7" stroke-width="0.420561"></rect>
<rect x="489.375" y="202.5" width="16.875" height="16.875" stroke="#C7C7C7" stroke-width="0.420561"></rect>
<rect x="506.25" y="202.5" width="16.875" height="16.875" stroke="#C7C7C7" stroke-width="0.420561"></rect>
<rect x="523.125" y="202.5" width="16.875" height="16.875" stroke="#C7C7C7" stroke-width="0.420561"></rect>
</g>
<rect width="540" height="225" fill="url(#paint0_radial_334_7953)"></rect>
<g clip-path="url(#clip7_334_7953)">
<rect x="270" y="1" width="269" height="186" fill="#FAFAFA"></rect>
<path d="M270 34.1238H539.315" stroke="#E3E3E3"></path>
<path d="M289.487 14.7599C291.279 14.7599 292.707 16.1739 292.707 18.5259C292.707 20.8779 291.279 22.2919 289.487 22.2919C288.339 22.2919 287.667 21.7879 287.247 21.1719H287.219V24.5739H286.099V14.9559H287.219V15.8379H287.247C287.667 15.2919 288.339 14.7599 289.487 14.7599ZM289.375 21.3119C290.845 21.3119 291.531 19.9259 291.531 18.5259C291.531 17.1259 290.845 15.7399 289.375 15.7399C288.045 15.7399 287.219 16.8459 287.219 18.5259C287.219 20.2059 288.045 21.3119 289.375 21.3119ZM297.209 14.7599C297.475 14.7599 297.671 14.7739 297.867 14.8019V15.9219C297.699 15.8939 297.573 15.8799 297.405 15.8799C296.089 15.8799 295.207 16.9159 295.207 18.2879V22.0959H294.087V14.9559H295.207V16.3699H295.235C295.613 15.4319 296.187 14.7599 297.209 14.7599ZM305.013 18.2599C305.013 18.4699 305.013 18.7079 304.999 18.8199H299.413C299.441 20.0799 300.141 21.3399 301.723 21.3399C303.123 21.3399 303.655 20.4019 303.781 19.8979H304.915C304.551 21.2279 303.543 22.3059 301.709 22.3059C299.455 22.3059 298.237 20.6819 298.237 18.5119C298.237 16.2299 299.595 14.7459 301.709 14.7459C303.795 14.7459 305.013 16.1739 305.013 18.2599ZM299.413 17.8399H303.823C303.823 16.6639 302.983 15.7119 301.653 15.7119C300.421 15.7119 299.483 16.5939 299.413 17.8399ZM309.343 22.0959H308.069L305.507 14.9559H306.739L308.727 20.9759H308.741L310.701 14.9559H311.905L309.343 22.0959ZM314.209 13.5699H312.865V12.2259H314.209V13.5699ZM314.097 22.0959H312.977V14.9559H314.097V22.0959ZM322.264 18.2599C322.264 18.4699 322.264 18.7079 322.25 18.8199H316.664C316.692 20.0799 317.392 21.3399 318.974 21.3399C320.374 21.3399 320.906 20.4019 321.032 19.8979H322.166C321.802 21.2279 320.794 22.3059 318.96 22.3059C316.706 22.3059 315.488 20.6819 315.488 18.5119C315.488 16.2299 316.846 14.7459 318.96 14.7459C321.046 14.7459 322.264 16.1739 322.264 18.2599ZM316.664 17.8399H321.074C321.074 16.6639 320.234 15.7119 318.904 15.7119C317.672 15.7119 316.734 16.5939 316.664 17.8399ZM326.312 22.0959H325.094L322.826 14.9559H324.086L325.724 20.8359H325.752L327.32 14.9559H328.538L330.106 20.8359H330.134L331.786 14.9559H333.004L330.722 22.0959H329.504L327.922 16.2999H327.894L326.312 22.0959ZM337.42 19.0859H333.668V17.9659H337.42V19.0859ZM345.351 18.2599C345.351 18.4699 345.351 18.7079 345.337 18.8199H339.751C339.779 20.0799 340.479 21.3399 342.061 21.3399C343.461 21.3399 343.993 20.4019 344.119 19.8979H345.253C344.889 21.2279 343.881 22.3059 342.047 22.3059C339.793 22.3059 338.575 20.6819 338.575 18.5119C338.575 16.2299 339.933 14.7459 342.047 14.7459C344.133 14.7459 345.351 16.1739 345.351 18.2599ZM339.751 17.8399H344.161C344.161 16.6639 343.321 15.7119 341.991 15.7119C340.759 15.7119 339.821 16.5939 339.751 17.8399ZM350.222 14.7599C351.524 14.7599 352.616 15.4739 352.616 17.1119V22.0959H351.496V17.3919C351.496 16.4679 351.062 15.7399 349.942 15.7399C348.682 15.7399 347.842 16.5379 347.842 17.6439V22.0959H346.722V14.9559H347.842V15.8099H347.87C348.248 15.3059 349.004 14.7599 350.222 14.7599ZM357.341 22.0959H356.067L353.505 14.9559H354.737L356.725 20.9759H356.739L358.699 14.9559H359.903L357.341 22.0959Z" fill="#0D0D0D"></path>
<path d="M295.479 52.6851C293.716 52.6851 291.991 53.2081 290.525 54.188C289.058 55.1679 287.915 56.5607 287.24 58.1902C286.565 59.8197 286.389 61.6128 286.733 63.3426C287.077 65.0725 287.926 66.6615 289.173 67.9087C290.421 69.1559 292.01 70.0052 293.74 70.3493C295.469 70.6934 297.263 70.5168 298.892 69.8419C300.522 69.1669 301.914 68.0239 302.894 66.5573C303.874 65.0908 304.397 63.3666 304.397 61.6029C304.397 59.2377 303.458 56.9694 301.785 55.297C300.113 53.6246 297.844 52.6851 295.479 52.6851ZM294.205 65.1641L291.02 61.9792L292.034 60.9659L294.205 63.1375L298.925 58.4179L299.942 59.4281L294.205 65.1641Z" fill="url(#paint1_linear_334_7953)" fill-opacity="0.8"></path>
<path d="M318.229 66.603H317.011L314.743 59.463H316.003L317.641 65.343H317.669L319.237 59.463H320.455L322.023 65.343H322.051L323.703 59.463H324.921L322.639 66.603H321.421L319.839 60.807H319.811L318.229 66.603ZM332.234 62.767C332.234 62.977 332.234 63.215 332.22 63.327H326.634C326.662 64.587 327.362 65.847 328.944 65.847C330.344 65.847 330.876 64.909 331.002 64.405H332.136C331.772 65.735 330.764 66.813 328.93 66.813C326.676 66.813 325.458 65.189 325.458 63.019C325.458 60.737 326.816 59.253 328.93 59.253C331.016 59.253 332.234 60.681 332.234 62.767ZM326.634 62.347H331.044C331.044 61.171 330.204 60.219 328.874 60.219C327.642 60.219 326.704 61.101 326.634 62.347ZM336.993 59.267C338.785 59.267 340.213 60.681 340.213 63.033C340.213 65.385 338.785 66.799 336.993 66.799C335.845 66.799 335.173 66.295 334.753 65.679H334.725V66.603H333.605V56.593H334.725V60.345H334.753C335.173 59.799 335.845 59.267 336.993 59.267ZM336.881 65.819C338.351 65.819 339.037 64.433 339.037 63.033C339.037 61.633 338.351 60.247 336.881 60.247C335.551 60.247 334.725 61.353 334.725 63.033C334.725 64.713 335.551 65.819 336.881 65.819Z" fill="#0D0D0D"></path>
<path d="M470.426 66.603H469.124L472.82 56.593H474.234L477.958 66.603H476.6L475.718 64.097H471.308L470.426 66.603ZM473.506 57.755L471.728 62.977H475.312L473.534 57.755H473.506ZM481.605 66.603H480.331L477.769 59.463H479.001L480.989 65.483H481.003L482.963 59.463H484.167L481.605 66.603ZM486.967 66.799C485.525 66.799 484.615 65.973 484.615 64.769C484.615 63.131 485.819 62.683 487.667 62.347C488.885 62.123 489.445 61.983 489.445 61.283C489.445 60.723 489.137 60.233 487.961 60.233C486.603 60.233 486.211 60.639 486.141 61.675H484.965C485.035 60.303 485.903 59.253 488.003 59.253C489.333 59.253 490.537 59.813 490.537 61.563V64.993C490.537 65.553 490.621 65.833 490.901 65.833C490.943 65.833 490.985 65.833 491.069 65.819V66.603C490.887 66.645 490.719 66.673 490.523 66.673C489.907 66.673 489.529 66.435 489.459 65.553H489.431C488.969 66.323 488.157 66.799 486.967 66.799ZM487.079 65.819C488.423 65.819 489.445 65.217 489.445 63.845V62.711C489.235 62.935 488.535 63.117 487.765 63.271C486.379 63.551 485.791 63.887 485.791 64.713C485.791 65.413 486.155 65.819 487.079 65.819ZM493.666 58.077H492.322V56.733H493.666V58.077ZM493.554 66.603H492.434V59.463H493.554V66.603ZM496.442 66.603H495.322V56.593H496.442V66.603ZM500.184 66.799C498.742 66.799 497.832 65.973 497.832 64.769C497.832 63.131 499.036 62.683 500.884 62.347C502.102 62.123 502.662 61.983 502.662 61.283C502.662 60.723 502.354 60.233 501.178 60.233C499.82 60.233 499.428 60.639 499.358 61.675H498.182C498.252 60.303 499.12 59.253 501.22 59.253C502.55 59.253 503.754 59.813 503.754 61.563V64.993C503.754 65.553 503.838 65.833 504.118 65.833C504.16 65.833 504.202 65.833 504.286 65.819V66.603C504.104 66.645 503.936 66.673 503.74 66.673C503.124 66.673 502.746 66.435 502.676 65.553H502.648C502.186 66.323 501.374 66.799 500.184 66.799ZM500.296 65.819C501.64 65.819 502.662 65.217 502.662 63.845V62.711C502.452 62.935 501.752 63.117 500.982 63.271C499.596 63.551 499.008 63.887 499.008 64.713C499.008 65.413 499.372 65.819 500.296 65.819ZM509.039 59.267C510.831 59.267 512.259 60.681 512.259 63.033C512.259 65.385 510.831 66.799 509.039 66.799C507.891 66.799 507.219 66.295 506.799 65.679H506.771V66.603H505.651V56.593H506.771V60.345H506.799C507.219 59.799 507.891 59.267 509.039 59.267ZM508.927 65.819C510.397 65.819 511.083 64.433 511.083 63.033C511.083 61.633 510.397 60.247 508.927 60.247C507.597 60.247 506.771 61.353 506.771 63.033C506.771 64.713 507.597 65.819 508.927 65.819ZM514.759 66.603H513.639V56.593H514.759V66.603ZM522.925 62.767C522.925 62.977 522.925 63.215 522.911 63.327H517.325C517.353 64.587 518.053 65.847 519.635 65.847C521.035 65.847 521.567 64.909 521.693 64.405H522.827C522.463 65.735 521.455 66.813 519.621 66.813C517.367 66.813 516.149 65.189 516.149 63.019C516.149 60.737 517.507 59.253 519.621 59.253C521.707 59.253 522.925 60.681 522.925 62.767ZM517.325 62.347H521.735C521.735 61.171 520.895 60.219 519.565 60.219C518.333 60.219 517.395 61.101 517.325 62.347Z" fill="#6B6B6B"></path>
<path d="M295.479 85.0686C293.716 85.0686 291.991 85.5916 290.525 86.5715C289.058 87.5514 287.915 88.9442 287.24 90.5737C286.565 92.2032 286.389 93.9963 286.733 95.7262C287.077 97.4561 287.926 99.0451 289.173 100.292C290.421 101.539 292.01 102.389 293.74 102.733C295.469 103.077 297.263 102.9 298.892 102.225C300.522 101.55 301.914 100.407 302.894 98.9409C303.874 97.4744 304.397 95.7502 304.397 93.9864C304.397 91.6213 303.458 89.353 301.785 87.6806C300.113 86.0082 297.844 85.0686 295.479 85.0686ZM294.205 97.5477L291.02 94.3627L292.034 93.3494L294.205 95.521L298.925 90.8015L299.942 91.8117L294.205 97.5477Z" fill="url(#paint2_linear_334_7953)" fill-opacity="0.8"></path>
<path d="M317.375 99.1826C315.933 99.1826 315.023 98.3566 315.023 97.1526C315.023 95.5146 316.227 95.0666 318.075 94.7306C319.293 94.5066 319.853 94.3666 319.853 93.6666C319.853 93.1066 319.545 92.6166 318.369 92.6166C317.011 92.6166 316.619 93.0226 316.549 94.0586H315.373C315.443 92.6866 316.311 91.6366 318.411 91.6366C319.741 91.6366 320.945 92.1966 320.945 93.9466V97.3766C320.945 97.9366 321.029 98.2166 321.309 98.2166C321.351 98.2166 321.393 98.2166 321.477 98.2026V98.9866C321.295 99.0286 321.127 99.0566 320.931 99.0566C320.315 99.0566 319.937 98.8186 319.867 97.9366H319.839C319.377 98.7066 318.565 99.1826 317.375 99.1826ZM317.487 98.2026C318.831 98.2026 319.853 97.6006 319.853 96.2286V95.0946C319.643 95.3186 318.943 95.5006 318.173 95.6546C316.787 95.9346 316.199 96.2706 316.199 97.0966C316.199 97.7966 316.563 98.2026 317.487 98.2026ZM326.23 91.6506C328.022 91.6506 329.45 93.0646 329.45 95.4166C329.45 97.7686 328.022 99.1826 326.23 99.1826C325.082 99.1826 324.41 98.6786 323.99 98.0626H323.962V101.465H322.842V91.8466H323.962V92.7286H323.99C324.41 92.1826 325.082 91.6506 326.23 91.6506ZM326.118 98.2026C327.588 98.2026 328.274 96.8166 328.274 95.4166C328.274 94.0166 327.588 92.6306 326.118 92.6306C324.788 92.6306 323.962 93.7366 323.962 95.4166C323.962 97.0966 324.788 98.2026 326.118 98.2026ZM332.061 90.4606H330.717V89.1166H332.061V90.4606ZM331.949 98.9866H330.829V91.8466H331.949V98.9866Z" fill="#0D0D0D"></path>
<path d="M470.426 98.9866H469.124L472.82 88.9766H474.234L477.958 98.9866H476.6L475.718 96.4806H471.308L470.426 98.9866ZM473.506 90.1386L471.728 95.3606H475.312L473.534 90.1386H473.506ZM481.605 98.9866H480.331L477.769 91.8466H479.001L480.989 97.8666H481.003L482.963 91.8466H484.167L481.605 98.9866ZM486.967 99.1826C485.525 99.1826 484.615 98.3566 484.615 97.1526C484.615 95.5146 485.819 95.0666 487.667 94.7306C488.885 94.5066 489.445 94.3666 489.445 93.6666C489.445 93.1066 489.137 92.6166 487.961 92.6166C486.603 92.6166 486.211 93.0226 486.141 94.0586H484.965C485.035 92.6866 485.903 91.6366 488.003 91.6366C489.333 91.6366 490.537 92.1966 490.537 93.9466V97.3766C490.537 97.9366 490.621 98.2166 490.901 98.2166C490.943 98.2166 490.985 98.2166 491.069 98.2026V98.9866C490.887 99.0286 490.719 99.0566 490.523 99.0566C489.907 99.0566 489.529 98.8186 489.459 97.9366H489.431C488.969 98.7066 488.157 99.1826 486.967 99.1826ZM487.079 98.2026C488.423 98.2026 489.445 97.6006 489.445 96.2286V95.0946C489.235 95.3186 488.535 95.5006 487.765 95.6546C486.379 95.9346 485.791 96.2706 485.791 97.0966C485.791 97.7966 486.155 98.2026 487.079 98.2026ZM493.666 90.4606H492.322V89.1166H493.666V90.4606ZM493.554 98.9866H492.434V91.8466H493.554V98.9866ZM496.442 98.9866H495.322V88.9766H496.442V98.9866ZM500.184 99.1826C498.742 99.1826 497.832 98.3566 497.832 97.1526C497.832 95.5146 499.036 95.0666 500.884 94.7306C502.102 94.5066 502.662 94.3666 502.662 93.6666C502.662 93.1066 502.354 92.6166 501.178 92.6166C499.82 92.6166 499.428 93.0226 499.358 94.0586H498.182C498.252 92.6866 499.12 91.6366 501.22 91.6366C502.55 91.6366 503.754 92.1966 503.754 93.9466V97.3766C503.754 97.9366 503.838 98.2166 504.118 98.2166C504.16 98.2166 504.202 98.2166 504.286 98.2026V98.9866C504.104 99.0286 503.936 99.0566 503.74 99.0566C503.124 99.0566 502.746 98.8186 502.676 97.9366H502.648C502.186 98.7066 501.374 99.1826 500.184 99.1826ZM500.296 98.2026C501.64 98.2026 502.662 97.6006 502.662 96.2286V95.0946C502.452 95.3186 501.752 95.5006 500.982 95.6546C499.596 95.9346 499.008 96.2706 499.008 97.0966C499.008 97.7966 499.372 98.2026 500.296 98.2026ZM509.039 91.6506C510.831 91.6506 512.259 93.0646 512.259 95.4166C512.259 97.7686 510.831 99.1826 509.039 99.1826C507.891 99.1826 507.219 98.6786 506.799 98.0626H506.771V98.9866H505.651V88.9766H506.771V92.7286H506.799C507.219 92.1826 507.891 91.6506 509.039 91.6506ZM508.927 98.2026C510.397 98.2026 511.083 96.8166 511.083 95.4166C511.083 94.0166 510.397 92.6306 508.927 92.6306C507.597 92.6306 506.771 93.7366 506.771 95.4166C506.771 97.0966 507.597 98.2026 508.927 98.2026ZM514.759 98.9866H513.639V88.9766H514.759V98.9866ZM522.925 95.1506C522.925 95.3606 522.925 95.5986 522.911 95.7106H517.325C517.353 96.9706 518.053 98.2306 519.635 98.2306C521.035 98.2306 521.567 97.2926 521.693 96.7886H522.827C522.463 98.1186 521.455 99.1966 519.621 99.1966C517.367 99.1966 516.149 97.5726 516.149 95.4026C516.149 93.1206 517.507 91.6366 519.621 91.6366C521.707 91.6366 522.925 93.0646 522.925 95.1506ZM517.325 94.7306H521.735C521.735 93.5546 520.895 92.6026 519.565 92.6026C518.333 92.6026 517.395 93.4846 517.325 94.7306Z" fill="#6B6B6B"></path>
<path d="M295.479 117.452C293.716 117.452 291.991 117.975 290.525 118.955C289.058 119.935 287.915 121.328 287.24 122.957C286.565 124.587 286.389 126.38 286.733 128.11C287.077 129.84 287.926 131.429 289.173 132.676C290.421 133.923 292.01 134.772 293.74 135.116C295.469 135.461 297.263 135.284 298.892 134.609C300.522 133.934 301.914 132.791 302.894 131.324C303.874 129.858 304.397 128.134 304.397 126.37C304.397 124.005 303.458 121.737 301.785 120.064C300.113 118.392 297.844 117.452 295.479 117.452ZM294.205 129.931L291.02 126.746L292.034 125.733L294.205 127.905L298.925 123.185L299.942 124.195L294.205 129.931Z" fill="url(#paint3_linear_334_7953)" fill-opacity="0.8"></path>
<path d="M320.511 125.154V121.36H321.631V131.37H320.511V130.488H320.483C320.063 131.034 319.391 131.566 318.243 131.566C316.451 131.566 315.023 130.152 315.023 127.8C315.023 125.448 316.451 124.034 318.243 124.034C319.391 124.034 320.063 124.538 320.483 125.154H320.511ZM318.355 130.586C319.685 130.586 320.511 129.48 320.511 127.8C320.511 126.12 319.685 125.014 318.355 125.014C316.885 125.014 316.199 126.4 316.199 127.8C316.199 129.2 316.885 130.586 318.355 130.586ZM325.363 131.566C323.921 131.566 323.011 130.74 323.011 129.536C323.011 127.898 324.215 127.45 326.063 127.114C327.281 126.89 327.841 126.75 327.841 126.05C327.841 125.49 327.533 125 326.357 125C324.999 125 324.607 125.406 324.537 126.442H323.361C323.431 125.07 324.299 124.02 326.399 124.02C327.729 124.02 328.933 124.58 328.933 126.33V129.76C328.933 130.32 329.017 130.6 329.297 130.6C329.339 130.6 329.381 130.6 329.465 130.586V131.37C329.283 131.412 329.115 131.44 328.919 131.44C328.303 131.44 327.925 131.202 327.855 130.32H327.827C327.365 131.09 326.553 131.566 325.363 131.566ZM325.475 130.586C326.819 130.586 327.841 129.984 327.841 128.612V127.478C327.631 127.702 326.931 127.884 326.161 128.038C324.775 128.318 324.187 128.654 324.187 129.48C324.187 130.18 324.551 130.586 325.475 130.586ZM333.66 124.23V125.21H332.26V129.508C332.26 130.264 332.442 130.46 333.072 130.46C333.31 130.46 333.422 130.446 333.66 130.418V131.37C333.338 131.426 333.17 131.44 332.918 131.44C331.868 131.44 331.14 131.076 331.14 129.452V125.21H330.09V124.23H331.14V121.85H332.26V124.23H333.66ZM336.949 131.566C335.507 131.566 334.597 130.74 334.597 129.536C334.597 127.898 335.801 127.45 337.649 127.114C338.867 126.89 339.427 126.75 339.427 126.05C339.427 125.49 339.119 125 337.943 125C336.585 125 336.193 125.406 336.123 126.442H334.947C335.017 125.07 335.885 124.02 337.985 124.02C339.315 124.02 340.519 124.58 340.519 126.33V129.76C340.519 130.32 340.603 130.6 340.883 130.6C340.925 130.6 340.967 130.6 341.051 130.586V131.37C340.869 131.412 340.701 131.44 340.505 131.44C339.889 131.44 339.511 131.202 339.441 130.32H339.413C338.951 131.09 338.139 131.566 336.949 131.566ZM337.061 130.586C338.405 130.586 339.427 129.984 339.427 128.612V127.478C339.217 127.702 338.517 127.884 337.747 128.038C336.361 128.318 335.773 128.654 335.773 129.48C335.773 130.18 336.137 130.586 337.061 130.586ZM345.804 124.034C347.596 124.034 349.024 125.448 349.024 127.8C349.024 130.152 347.596 131.566 345.804 131.566C344.656 131.566 343.984 131.062 343.564 130.446H343.536V131.37H342.416V121.36H343.536V125.112H343.564C343.984 124.566 344.656 124.034 345.804 124.034ZM345.692 130.586C347.162 130.586 347.848 129.2 347.848 127.8C347.848 126.4 347.162 125.014 345.692 125.014C344.362 125.014 343.536 126.12 343.536 127.8C343.536 129.48 344.362 130.586 345.692 130.586ZM352.378 131.566C350.936 131.566 350.026 130.74 350.026 129.536C350.026 127.898 351.23 127.45 353.078 127.114C354.296 126.89 354.856 126.75 354.856 126.05C354.856 125.49 354.548 125 353.372 125C352.014 125 351.622 125.406 351.552 126.442H350.376C350.446 125.07 351.314 124.02 353.414 124.02C354.744 124.02 355.948 124.58 355.948 126.33V129.76C355.948 130.32 356.032 130.6 356.312 130.6C356.354 130.6 356.396 130.6 356.48 130.586V131.37C356.298 131.412 356.13 131.44 355.934 131.44C355.318 131.44 354.94 131.202 354.87 130.32H354.842C354.38 131.09 353.568 131.566 352.378 131.566ZM352.49 130.586C353.834 130.586 354.856 129.984 354.856 128.612V127.478C354.646 127.702 353.946 127.884 353.176 128.038C351.79 128.318 351.202 128.654 351.202 129.48C351.202 130.18 351.566 130.586 352.49 130.586ZM360.546 131.566C358.488 131.566 357.382 130.46 357.34 128.99H358.516C358.572 129.858 359.076 130.586 360.546 130.586C361.918 130.586 362.24 129.956 362.24 129.41C362.24 128.43 361.218 128.332 360.336 128.136C359.09 127.856 357.62 127.52 357.62 126.036C357.62 124.832 358.586 124.034 360.224 124.034C362.072 124.034 363.024 125.042 363.136 126.274H361.96C361.848 125.728 361.568 125.014 360.238 125.014C359.23 125.014 358.796 125.42 358.796 125.994C358.796 126.82 359.706 126.904 360.7 127.128C361.974 127.422 363.416 127.786 363.416 129.368C363.416 130.712 362.366 131.566 360.546 131.566ZM371.082 127.534C371.082 127.744 371.082 127.982 371.068 128.094H365.482C365.51 129.354 366.21 130.614 367.792 130.614C369.192 130.614 369.724 129.676 369.85 129.172H370.984C370.62 130.502 369.612 131.58 367.778 131.58C365.524 131.58 364.306 129.956 364.306 127.786C364.306 125.504 365.664 124.02 367.778 124.02C369.864 124.02 371.082 125.448 371.082 127.534ZM365.482 127.114H369.892C369.892 125.938 369.052 124.986 367.722 124.986C366.49 124.986 365.552 125.868 365.482 127.114Z" fill="#0D0D0D"></path>
<path d="M470.426 131.37H469.124L472.82 121.36H474.234L477.958 131.37H476.6L475.718 128.864H471.308L470.426 131.37ZM473.506 122.522L471.728 127.744H475.312L473.534 122.522H473.506ZM481.605 131.37H480.331L477.769 124.23H479.001L480.989 130.25H481.003L482.963 124.23H484.167L481.605 131.37ZM486.967 131.566C485.525 131.566 484.615 130.74 484.615 129.536C484.615 127.898 485.819 127.45 487.667 127.114C488.885 126.89 489.445 126.75 489.445 126.05C489.445 125.49 489.137 125 487.961 125C486.603 125 486.211 125.406 486.141 126.442H484.965C485.035 125.07 485.903 124.02 488.003 124.02C489.333 124.02 490.537 124.58 490.537 126.33V129.76C490.537 130.32 490.621 130.6 490.901 130.6C490.943 130.6 490.985 130.6 491.069 130.586V131.37C490.887 131.412 490.719 131.44 490.523 131.44C489.907 131.44 489.529 131.202 489.459 130.32H489.431C488.969 131.09 488.157 131.566 486.967 131.566ZM487.079 130.586C488.423 130.586 489.445 129.984 489.445 128.612V127.478C489.235 127.702 488.535 127.884 487.765 128.038C486.379 128.318 485.791 128.654 485.791 129.48C485.791 130.18 486.155 130.586 487.079 130.586ZM493.666 122.844H492.322V121.5H493.666V122.844ZM493.554 131.37H492.434V124.23H493.554V131.37ZM496.442 131.37H495.322V121.36H496.442V131.37ZM500.184 131.566C498.742 131.566 497.832 130.74 497.832 129.536C497.832 127.898 499.036 127.45 500.884 127.114C502.102 126.89 502.662 126.75 502.662 126.05C502.662 125.49 502.354 125 501.178 125C499.82 125 499.428 125.406 499.358 126.442H498.182C498.252 125.07 499.12 124.02 501.22 124.02C502.55 124.02 503.754 124.58 503.754 126.33V129.76C503.754 130.32 503.838 130.6 504.118 130.6C504.16 130.6 504.202 130.6 504.286 130.586V131.37C504.104 131.412 503.936 131.44 503.74 131.44C503.124 131.44 502.746 131.202 502.676 130.32H502.648C502.186 131.09 501.374 131.566 500.184 131.566ZM500.296 130.586C501.64 130.586 502.662 129.984 502.662 128.612V127.478C502.452 127.702 501.752 127.884 500.982 128.038C499.596 128.318 499.008 128.654 499.008 129.48C499.008 130.18 499.372 130.586 500.296 130.586ZM509.039 124.034C510.831 124.034 512.259 125.448 512.259 127.8C512.259 130.152 510.831 131.566 509.039 131.566C507.891 131.566 507.219 131.062 506.799 130.446H506.771V131.37H505.651V121.36H506.771V125.112H506.799C507.219 124.566 507.891 124.034 509.039 124.034ZM508.927 130.586C510.397 130.586 511.083 129.2 511.083 127.8C511.083 126.4 510.397 125.014 508.927 125.014C507.597 125.014 506.771 126.12 506.771 127.8C506.771 129.48 507.597 130.586 508.927 130.586ZM514.759 131.37H513.639V121.36H514.759V131.37ZM522.925 127.534C522.925 127.744 522.925 127.982 522.911 128.094H517.325C517.353 129.354 518.053 130.614 519.635 130.614C521.035 130.614 521.567 129.676 521.693 129.172H522.827C522.463 130.502 521.455 131.58 519.621 131.58C517.367 131.58 516.149 129.956 516.149 127.786C516.149 125.504 517.507 124.02 519.621 124.02C521.707 124.02 522.925 125.448 522.925 127.534ZM517.325 127.114H521.735C521.735 125.938 520.895 124.986 519.565 124.986C518.333 124.986 517.395 125.868 517.325 127.114Z" fill="#6B6B6B"></path>
<path d="M295.479 149.836C293.716 149.836 291.991 150.359 290.525 151.339C289.058 152.319 287.915 153.711 287.24 155.341C286.565 156.97 286.389 158.763 286.733 160.493C287.077 162.223 287.926 163.812 289.173 165.059C290.421 166.307 292.01 167.156 293.74 167.5C295.469 167.844 297.263 167.667 298.892 166.992C300.522 166.318 301.914 165.175 302.894 163.708C303.874 162.241 304.397 160.517 304.397 158.754C304.397 156.388 303.458 154.12 301.785 152.448C300.113 150.775 297.844 149.836 295.479 149.836ZM294.205 162.315L291.02 159.13L292.034 158.117L294.205 160.288L298.925 155.569L299.942 156.579L294.205 162.315Z" fill="url(#paint4_linear_334_7953)" fill-opacity="0.8"></path>
<path d="M318.229 163.754H317.011L314.743 156.614H316.003L317.641 162.494H317.669L319.237 156.614H320.455L322.023 162.494H322.051L323.703 156.614H324.921L322.639 163.754H321.421L319.839 157.958H319.811L318.229 163.754ZM328.944 163.964C326.76 163.964 325.444 162.41 325.444 160.184C325.444 157.958 326.76 156.404 328.944 156.404C331.114 156.404 332.43 157.958 332.43 160.184C332.43 162.41 331.114 163.964 328.944 163.964ZM328.944 162.984C330.54 162.984 331.254 161.71 331.254 160.184C331.254 158.658 330.54 157.384 328.944 157.384C327.334 157.384 326.62 158.658 326.62 160.184C326.62 161.71 327.334 162.984 328.944 162.984ZM336.918 156.418C337.184 156.418 337.38 156.432 337.576 156.46V157.58C337.408 157.552 337.282 157.538 337.114 157.538C335.798 157.538 334.916 158.574 334.916 159.946V163.754H333.796V156.614H334.916V158.028H334.944C335.322 157.09 335.896 156.418 336.918 156.418ZM344.743 163.754H343.413L340.879 159.904L339.773 160.912V163.754H338.653V153.744H339.773V159.736L343.105 156.614H344.449L341.635 159.204L344.743 163.754ZM345.995 156.614V155.648C345.995 154.024 346.681 153.66 347.731 153.66C347.941 153.66 348.109 153.674 348.473 153.73V154.682C348.193 154.654 348.081 154.64 347.885 154.64C347.255 154.64 347.115 154.836 347.115 155.592V156.614H348.473V157.594H347.115V163.754H345.995V157.594H345.001V156.614H345.995ZM349.453 163.754V153.744H350.573V163.754H349.453ZM355.439 163.964C353.255 163.964 351.939 162.41 351.939 160.184C351.939 157.958 353.255 156.404 355.439 156.404C357.609 156.404 358.925 157.958 358.925 160.184C358.925 162.41 357.609 163.964 355.439 163.964ZM355.439 162.984C357.035 162.984 357.749 161.71 357.749 160.184C357.749 158.658 357.035 157.384 355.439 157.384C353.829 157.384 353.115 158.658 353.115 160.184C353.115 161.71 353.829 162.984 355.439 162.984ZM362.942 163.754H361.724L359.456 156.614H360.716L362.354 162.494H362.382L363.95 156.614H365.168L366.736 162.494H366.764L368.416 156.614H369.634L367.352 163.754H366.134L364.552 157.958H364.524L362.942 163.754Z" fill="#0D0D0D"></path>
<path d="M470.426 163.754H469.124L472.82 153.744H474.234L477.958 163.754H476.6L475.718 161.248H471.308L470.426 163.754ZM473.506 154.906L471.728 160.128H475.312L473.534 154.906H473.506ZM481.605 163.754H480.331L477.769 156.614H479.001L480.989 162.634H481.003L482.963 156.614H484.167L481.605 163.754ZM486.967 163.95C485.525 163.95 484.615 163.124 484.615 161.92C484.615 160.282 485.819 159.834 487.667 159.498C488.885 159.274 489.445 159.134 489.445 158.434C489.445 157.874 489.137 157.384 487.961 157.384C486.603 157.384 486.211 157.79 486.141 158.826H484.965C485.035 157.454 485.903 156.404 488.003 156.404C489.333 156.404 490.537 156.964 490.537 158.714V162.144C490.537 162.704 490.621 162.984 490.901 162.984C490.943 162.984 490.985 162.984 491.069 162.97V163.754C490.887 163.796 490.719 163.824 490.523 163.824C489.907 163.824 489.529 163.586 489.459 162.704H489.431C488.969 163.474 488.157 163.95 486.967 163.95ZM487.079 162.97C488.423 162.97 489.445 162.368 489.445 160.996V159.862C489.235 160.086 488.535 160.268 487.765 160.422C486.379 160.702 485.791 161.038 485.791 161.864C485.791 162.564 486.155 162.97 487.079 162.97ZM493.666 155.228H492.322V153.884H493.666V155.228ZM493.554 163.754H492.434V156.614H493.554V163.754ZM496.442 163.754H495.322V153.744H496.442V163.754ZM500.184 163.95C498.742 163.95 497.832 163.124 497.832 161.92C497.832 160.282 499.036 159.834 500.884 159.498C502.102 159.274 502.662 159.134 502.662 158.434C502.662 157.874 502.354 157.384 501.178 157.384C499.82 157.384 499.428 157.79 499.358 158.826H498.182C498.252 157.454 499.12 156.404 501.22 156.404C502.55 156.404 503.754 156.964 503.754 158.714V162.144C503.754 162.704 503.838 162.984 504.118 162.984C504.16 162.984 504.202 162.984 504.286 162.97V163.754C504.104 163.796 503.936 163.824 503.74 163.824C503.124 163.824 502.746 163.586 502.676 162.704H502.648C502.186 163.474 501.374 163.95 500.184 163.95ZM500.296 162.97C501.64 162.97 502.662 162.368 502.662 160.996V159.862C502.452 160.086 501.752 160.268 500.982 160.422C499.596 160.702 499.008 161.038 499.008 161.864C499.008 162.564 499.372 162.97 500.296 162.97ZM509.039 156.418C510.831 156.418 512.259 157.832 512.259 160.184C512.259 162.536 510.831 163.95 509.039 163.95C507.891 163.95 507.219 163.446 506.799 162.83H506.771V163.754H505.651V153.744H506.771V157.496H506.799C507.219 156.95 507.891 156.418 509.039 156.418ZM508.927 162.97C510.397 162.97 511.083 161.584 511.083 160.184C511.083 158.784 510.397 157.398 508.927 157.398C507.597 157.398 506.771 158.504 506.771 160.184C506.771 161.864 507.597 162.97 508.927 162.97ZM514.759 163.754H513.639V153.744H514.759V163.754ZM522.925 159.918C522.925 160.128 522.925 160.366 522.911 160.478H517.325C517.353 161.738 518.053 162.998 519.635 162.998C521.035 162.998 521.567 162.06 521.693 161.556H522.827C522.463 162.886 521.455 163.964 519.621 163.964C517.367 163.964 516.149 162.34 516.149 160.17C516.149 157.888 517.507 156.404 519.621 156.404C521.707 156.404 522.925 157.832 522.925 159.918ZM517.325 159.498H521.735C521.735 158.322 520.895 157.37 519.565 157.37C518.333 157.37 517.395 158.252 517.325 159.498Z" fill="#6B6B6B"></path>
</g>
<rect x="270" y="1" width="269" height="186" stroke="#E3E3E3"></rect>
<path d="M266.53 93.5303C266.823 93.2374 266.823 92.7626 266.53 92.4697L261.757 87.6967C261.464 87.4038 260.99 87.4038 260.697 87.6967C260.404 87.9896 260.404 88.4645 260.697 88.7574L264.939 93L260.697 97.2426C260.404 97.5355 260.404 98.0104 260.697 98.3033C260.99 98.5962 261.464 98.5962 261.757 98.3033L266.53 93.5303ZM266 93L266 92.25L222 92.25L222 93L222 93.75L266 93.75L266 93Z" fill="url(#paint5_linear_334_7953)"></path>
<rect y="40" width="219" height="106" fill="#FAFAFA"></rect>
<rect y="40" width="219" height="106" stroke="#E3E3E3"></rect>
<path d="M0 73.1238H218.299" stroke="#E3E3E3"></path>
<path d="M17.5831 62H16.3231V51.99H20.2991C22.1331 51.99 23.5471 52.802 23.5471 54.902C23.5471 57.002 22.1331 57.814 20.2991 57.814H17.5831V62ZM17.5831 56.694H20.3831C21.6291 56.694 22.2311 56.12 22.2311 54.902C22.2311 53.684 21.6291 53.11 20.3831 53.11H17.5831V56.694ZM26.2954 62H25.0354V51.99H29.0534C31.2514 51.99 32.3994 53.026 32.3994 54.874C32.3994 56.12 31.6294 57.072 30.5794 57.324V57.352C32.8334 57.786 32.0074 61.748 32.5394 61.916V62H31.1814C30.7474 61.58 31.6994 57.954 29.1654 57.954H26.2954V62ZM26.2954 56.834H28.7594C30.2854 56.834 31.1394 56.148 31.1394 54.902C31.1394 53.754 30.4954 53.11 28.8014 53.11H26.2954V56.834ZM43.9683 54.986L43.7863 55.966H42.3303L41.9103 58.122H43.5343L43.3803 59.102H41.7143L41.1403 62H40.1603L40.7343 59.102H39.0543L38.4803 62H37.5003L38.0743 59.102H36.7303L36.8983 58.122H38.2703L38.6903 55.966H37.1643L37.3323 54.986H38.8863L39.4043 52.326H40.3843L39.8663 54.986H41.5463L42.0643 52.326H43.0443L42.5263 54.986H43.9683ZM39.2503 58.122H40.9303L41.3503 55.966H39.6703L39.2503 58.122ZM46.6877 62V54.622C46.2677 55.028 45.5397 55.098 44.6717 55.098V54.048C46.4777 53.992 46.8137 53.488 46.9677 52.326H47.9477V62H46.6877ZM56.2944 62H49.5884C49.5884 60.25 50.6944 58.878 52.4724 57.842C54.2784 56.792 55.1184 56.456 55.1184 55.042C55.1184 54.23 54.8104 53.25 53.3264 53.25C51.6324 53.25 51.1844 54.384 51.1844 55.714H49.8684C49.8684 53.712 50.9604 52.13 53.3544 52.13C55.0064 52.13 56.4344 53.18 56.4344 55.028C56.4344 56.904 54.9224 57.8 53.5084 58.612C52.4164 59.242 51.3804 59.844 51.1144 60.852V60.88H56.2944V62ZM61.3287 62.196C59.2567 62.196 57.7027 61.23 57.7027 59.284C57.7027 57.94 58.5707 57.282 59.4947 56.876V56.848C58.8087 56.484 58.1927 55.868 58.1927 54.776C58.1927 53.11 59.4807 52.13 61.3287 52.13C63.1767 52.13 64.4647 53.11 64.4647 54.776C64.4647 55.868 63.8347 56.484 63.1627 56.848V56.876C64.0727 57.282 64.9547 57.94 64.9547 59.284C64.9547 61.23 63.4007 62.196 61.3287 62.196ZM61.3287 56.302C62.4487 56.302 63.1487 55.854 63.1487 54.776C63.1487 53.726 62.4487 53.25 61.3287 53.25C60.2087 53.25 59.5087 53.726 59.5087 54.776C59.5087 55.854 60.2087 56.302 61.3287 56.302ZM61.3287 61.076C62.7707 61.076 63.6387 60.446 63.6387 59.242C63.6387 58.066 62.7707 57.422 61.3287 57.422C59.8867 57.422 59.0187 58.066 59.0187 59.242C59.0187 60.446 59.8867 61.076 61.3287 61.076Z" fill="#0D0D0D"></path>
<path d="M18.4661 89.2009C17.8361 89.2009 17.6961 89.3969 17.6961 90.1529V91.1749H19.0541V92.1549H17.6961V98.3149H16.5761V92.1549H15.5821V91.1749H16.5761V90.2089C16.5761 88.5849 17.2621 88.2209 18.3121 88.2209C18.5221 88.2209 18.6901 88.2349 19.0541 88.2909V89.2429C18.7741 89.2149 18.6621 89.2009 18.4661 89.2009ZM26.3432 94.4789C26.3432 94.6889 26.3432 94.9269 26.3292 95.0389H20.7432C20.7712 96.2989 21.4712 97.5589 23.0532 97.5589C24.4532 97.5589 24.9852 96.6209 25.1112 96.1169H26.2452C25.8812 97.4469 24.8732 98.5249 23.0392 98.5249C20.7852 98.5249 19.5672 96.9009 19.5672 94.7309C19.5672 92.4489 20.9252 90.9649 23.0392 90.9649C25.1252 90.9649 26.3432 92.3929 26.3432 94.4789ZM20.7432 94.0589H25.1532C25.1532 92.8829 24.3132 91.9309 22.9832 91.9309C21.7512 91.9309 20.8132 92.8129 20.7432 94.0589ZM29.6881 98.5109C28.2461 98.5109 27.3361 97.6849 27.3361 96.4809C27.3361 94.8429 28.5401 94.3949 30.3881 94.0589C31.6061 93.8349 32.1661 93.6949 32.1661 92.9949C32.1661 92.4349 31.8581 91.9449 30.6821 91.9449C29.3241 91.9449 28.9321 92.3509 28.8621 93.3869H27.6861C27.7561 92.0149 28.6241 90.9649 30.7241 90.9649C32.0541 90.9649 33.2581 91.5249 33.2581 93.2749V96.7049C33.2581 97.2649 33.3421 97.5449 33.6221 97.5449C33.6641 97.5449 33.7061 97.5449 33.7901 97.5309V98.3149C33.6081 98.3569 33.4401 98.3849 33.2441 98.3849C32.6281 98.3849 32.2501 98.1469 32.1801 97.2649H32.1521C31.6901 98.0349 30.8781 98.5109 29.6881 98.5109ZM29.8001 97.5309C31.1441 97.5309 32.1661 96.9289 32.1661 95.5569V94.4229C31.9561 94.6469 31.2561 94.8289 30.4861 94.9829C29.1001 95.2629 28.5121 95.5989 28.5121 96.4249C28.5121 97.1249 28.8761 97.5309 29.8001 97.5309ZM37.9858 91.1749V92.1549H36.5858V96.4529C36.5858 97.2089 36.7678 97.4049 37.3978 97.4049C37.6358 97.4049 37.7478 97.3909 37.9858 97.3629V98.3149C37.6638 98.3709 37.4958 98.3849 37.2438 98.3849C36.1938 98.3849 35.4658 98.0209 35.4658 96.3969V92.1549H34.4158V91.1749H35.4658V88.7949H36.5858V91.1749H37.9858ZM44.0187 95.6269V91.1749H45.1387V98.3149H44.0187V97.4609H43.9907C43.6127 97.9649 42.8567 98.5109 41.6387 98.5109C40.3367 98.5109 39.2447 97.7969 39.2447 96.1589V91.1749H40.3647V95.8789C40.3647 96.8029 40.7987 97.5309 41.9187 97.5309C43.1787 97.5309 44.0187 96.7329 44.0187 95.6269ZM50.0276 90.9789C50.2936 90.9789 50.4896 90.9929 50.6856 91.0209V92.1409C50.5176 92.1129 50.3916 92.0989 50.2236 92.0989C48.9076 92.0989 48.0256 93.1349 48.0256 94.5069V98.3149H46.9056V91.1749H48.0256V92.5889H48.0536C48.4316 91.6509 49.0056 90.9789 50.0276 90.9789ZM57.8322 94.4789C57.8322 94.6889 57.8322 94.9269 57.8182 95.0389H52.2322C52.2602 96.2989 52.9602 97.5589 54.5422 97.5589C55.9422 97.5589 56.4742 96.6209 56.6002 96.1169H57.7342C57.3702 97.4469 56.3622 98.5249 54.5282 98.5249C52.2742 98.5249 51.0562 96.9009 51.0562 94.7309C51.0562 92.4489 52.4142 90.9649 54.5282 90.9649C56.6142 90.9649 57.8322 92.3929 57.8322 94.4789ZM52.2322 94.0589H56.6422C56.6422 92.8829 55.8022 91.9309 54.4722 91.9309C53.2402 91.9309 52.3022 92.8129 52.2322 94.0589ZM59.4877 98.3149H58.3677L62.2457 88.3049H63.3657L59.4877 98.3149ZM68.8008 92.0989V88.3049H69.9208V98.3149H68.8008V97.4329H68.7728C68.3528 97.9789 67.6808 98.5109 66.5328 98.5109C64.7408 98.5109 63.3128 97.0969 63.3128 94.7449C63.3128 92.3929 64.7408 90.9789 66.5328 90.9789C67.6808 90.9789 68.3528 91.4829 68.7728 92.0989H68.8008ZM66.6448 97.5309C67.9748 97.5309 68.8008 96.4249 68.8008 94.7449C68.8008 93.0649 67.9748 91.9589 66.6448 91.9589C65.1748 91.9589 64.4888 93.3449 64.4888 94.7449C64.4888 96.1449 65.1748 97.5309 66.6448 97.5309ZM73.6524 98.5109C72.2104 98.5109 71.3004 97.6849 71.3004 96.4809C71.3004 94.8429 72.5044 94.3949 74.3524 94.0589C75.5704 93.8349 76.1304 93.6949 76.1304 92.9949C76.1304 92.4349 75.8224 91.9449 74.6464 91.9449C73.2884 91.9449 72.8964 92.3509 72.8264 93.3869H71.6504C71.7204 92.0149 72.5884 90.9649 74.6884 90.9649C76.0184 90.9649 77.2224 91.5249 77.2224 93.2749V96.7049C77.2224 97.2649 77.3064 97.5449 77.5864 97.5449C77.6284 97.5449 77.6704 97.5449 77.7544 97.5309V98.3149C77.5724 98.3569 77.4044 98.3849 77.2084 98.3849C76.5924 98.3849 76.2144 98.1469 76.1444 97.2649H76.1164C75.6544 98.0349 74.8424 98.5109 73.6524 98.5109ZM73.7644 97.5309C75.1084 97.5309 76.1304 96.9289 76.1304 95.5569V94.4229C75.9204 94.6469 75.2204 94.8289 74.4504 94.9829C73.0644 95.2629 72.4764 95.5989 72.4764 96.4249C72.4764 97.1249 72.8404 97.5309 73.7644 97.5309ZM81.9502 91.1749V92.1549H80.5502V96.4529C80.5502 97.2089 80.7322 97.4049 81.3622 97.4049C81.6002 97.4049 81.7122 97.3909 81.9502 97.3629V98.3149C81.6282 98.3709 81.4602 98.3849 81.2082 98.3849C80.1582 98.3849 79.4302 98.0209 79.4302 96.3969V92.1549H78.3802V91.1749H79.4302V88.7949H80.5502V91.1749H81.9502ZM85.2391 98.5109C83.7971 98.5109 82.8871 97.6849 82.8871 96.4809C82.8871 94.8429 84.0911 94.3949 85.9391 94.0589C87.1571 93.8349 87.7171 93.6949 87.7171 92.9949C87.7171 92.4349 87.4091 91.9449 86.2331 91.9449C84.8751 91.9449 84.4831 92.3509 84.4131 93.3869H83.2371C83.3071 92.0149 84.1751 90.9649 86.2751 90.9649C87.6051 90.9649 88.8091 91.5249 88.8091 93.2749V96.7049C88.8091 97.2649 88.8931 97.5449 89.1731 97.5449C89.2151 97.5449 89.2571 97.5449 89.3411 97.5309V98.3149C89.1591 98.3569 88.9911 98.3849 88.7951 98.3849C88.1791 98.3849 87.8011 98.1469 87.7311 97.2649H87.7031C87.2411 98.0349 86.4291 98.5109 85.2391 98.5109ZM85.3511 97.5309C86.6951 97.5309 87.7171 96.9289 87.7171 95.5569V94.4229C87.5071 94.6469 86.8071 94.8289 86.0371 94.9829C84.6511 95.2629 84.0631 95.5989 84.0631 96.4249C84.0631 97.1249 84.4271 97.5309 85.3511 97.5309ZM94.0939 90.9789C95.8859 90.9789 97.3139 92.3929 97.3139 94.7449C97.3139 97.0969 95.8859 98.5109 94.0939 98.5109C92.9459 98.5109 92.2739 98.0069 91.8539 97.3909H91.8259V98.3149H90.7059V88.3049H91.8259V92.0569H91.8539C92.2739 91.5109 92.9459 90.9789 94.0939 90.9789ZM93.9819 97.5309C95.4519 97.5309 96.1379 96.1449 96.1379 94.7449C96.1379 93.3449 95.4519 91.9589 93.9819 91.9589C92.6519 91.9589 91.8259 93.0649 91.8259 94.7449C91.8259 96.4249 92.6519 97.5309 93.9819 97.5309ZM100.668 98.5109C99.2255 98.5109 98.3155 97.6849 98.3155 96.4809C98.3155 94.8429 99.5195 94.3949 101.368 94.0589C102.586 93.8349 103.146 93.6949 103.146 92.9949C103.146 92.4349 102.838 91.9449 101.662 91.9449C100.304 91.9449 99.9115 92.3509 99.8415 93.3869H98.6655C98.7355 92.0149 99.6035 90.9649 101.704 90.9649C103.034 90.9649 104.238 91.5249 104.238 93.2749V96.7049C104.238 97.2649 104.322 97.5449 104.602 97.5449C104.644 97.5449 104.686 97.5449 104.77 97.5309V98.3149C104.588 98.3569 104.42 98.3849 104.224 98.3849C103.608 98.3849 103.23 98.1469 103.16 97.2649H103.132C102.67 98.0349 101.858 98.5109 100.668 98.5109ZM100.78 97.5309C102.124 97.5309 103.146 96.9289 103.146 95.5569V94.4229C102.936 94.6469 102.236 94.8289 101.466 94.9829C100.08 95.2629 99.4915 95.5989 99.4915 96.4249C99.4915 97.1249 99.8555 97.5309 100.78 97.5309ZM108.836 98.5109C106.778 98.5109 105.672 97.4049 105.63 95.9349H106.806C106.862 96.8029 107.366 97.5309 108.836 97.5309C110.208 97.5309 110.53 96.9009 110.53 96.3549C110.53 95.3749 109.508 95.2769 108.626 95.0809C107.38 94.8009 105.91 94.4649 105.91 92.9809C105.91 91.7769 106.876 90.9789 108.514 90.9789C110.362 90.9789 111.314 91.9869 111.426 93.2189H110.25C110.138 92.6729 109.858 91.9589 108.528 91.9589C107.52 91.9589 107.086 92.3649 107.086 92.9389C107.086 93.7649 107.996 93.8489 108.99 94.0729C110.264 94.3669 111.706 94.7309 111.706 96.3129C111.706 97.6569 110.656 98.5109 108.836 98.5109ZM119.372 94.4789C119.372 94.6889 119.372 94.9269 119.358 95.0389H113.772C113.8 96.2989 114.5 97.5589 116.082 97.5589C117.482 97.5589 118.014 96.6209 118.14 96.1169H119.274C118.91 97.4469 117.902 98.5249 116.068 98.5249C113.814 98.5249 112.596 96.9009 112.596 94.7309C112.596 92.4489 113.954 90.9649 116.068 90.9649C118.154 90.9649 119.372 92.3929 119.372 94.4789ZM113.772 94.0589H118.182C118.182 92.8829 117.342 91.9309 116.012 91.9309C114.78 91.9309 113.842 92.8129 113.772 94.0589Z" fill="#0D0D0D"></path>
<path d="M25.4803 112.617C23.7165 112.617 21.9924 113.14 20.5258 114.12C19.0593 115.1 17.9163 116.493 17.2413 118.122C16.5664 119.752 16.3898 121.545 16.7339 123.275C17.078 125.004 17.9273 126.593 19.1745 127.841C20.4216 129.088 22.0107 129.937 23.7405 130.281C25.4704 130.625 27.2635 130.449 28.893 129.774C30.5225 129.099 31.9153 127.956 32.8952 126.489C33.8751 125.023 34.3981 123.299 34.3981 121.535C34.3981 119.17 33.4586 116.901 31.7862 115.229C30.1137 113.556 27.8455 112.617 25.4803 112.617ZM24.2063 125.096L21.0214 121.911L22.0346 120.898L24.2063 123.069L28.9264 118.35L29.9429 119.36L24.2063 125.096Z" fill="url(#paint6_linear_334_7953)" fill-opacity="0.8"></path>
<path d="M49.7558 126.731C47.0118 126.731 45.1218 124.547 45.1218 121.523C45.1218 118.513 47.0118 116.329 49.7558 116.329C52.2058 116.329 53.7738 117.925 54.0118 119.829H52.6958C52.5138 118.877 51.8418 117.449 49.7558 117.449C47.3758 117.449 46.4378 119.507 46.4378 121.523C46.4378 123.553 47.3758 125.611 49.7558 125.611C51.8558 125.611 52.6118 124.183 52.6958 122.923H54.0118C53.7878 125.135 52.2198 126.731 49.7558 126.731ZM58.8856 119.199C60.1876 119.199 61.2796 119.913 61.2796 121.551V126.535H60.1596V121.831C60.1596 120.907 59.7256 120.179 58.6056 120.179C57.3456 120.179 56.5056 120.977 56.5056 122.083V126.535H55.3856V116.525H56.5056V120.249H56.5336C56.9116 119.745 57.6676 119.199 58.8856 119.199ZM69.3884 122.699C69.3884 122.909 69.3884 123.147 69.3744 123.259H63.7884C63.8164 124.519 64.5164 125.779 66.0984 125.779C67.4984 125.779 68.0304 124.841 68.1564 124.337H69.2904C68.9264 125.667 67.9184 126.745 66.0844 126.745C63.8304 126.745 62.6124 125.121 62.6124 122.951C62.6124 120.669 63.9704 119.185 66.0844 119.185C68.1704 119.185 69.3884 120.613 69.3884 122.699ZM63.7884 122.279H68.1984C68.1984 121.103 67.3584 120.151 66.0284 120.151C64.7964 120.151 63.8584 121.033 63.7884 122.279ZM73.8253 126.731C71.7393 126.731 70.3673 125.205 70.3673 122.965C70.3673 120.725 71.7393 119.199 73.8253 119.199C75.5893 119.199 76.7933 120.375 76.9613 121.971H75.7853C75.7293 121.187 75.2533 120.179 73.8253 120.179C72.1313 120.179 71.5433 121.621 71.5433 122.965C71.5433 124.309 72.1313 125.751 73.8253 125.751C75.2673 125.751 75.7293 124.757 75.7853 123.903H76.9613C76.8633 125.527 75.5893 126.731 73.8253 126.731ZM84.3585 126.535H83.0285L80.4945 122.685L79.3885 123.693V126.535H78.2685V116.525H79.3885V122.517L82.7205 119.395H84.0645L81.2505 121.985L84.3585 126.535ZM87.6593 126.731C85.6013 126.731 84.4953 125.625 84.4533 124.155H85.6293C85.6853 125.023 86.1893 125.751 87.6593 125.751C89.0313 125.751 89.3533 125.121 89.3533 124.575C89.3533 123.595 88.3313 123.497 87.4493 123.301C86.2033 123.021 84.7333 122.685 84.7333 121.201C84.7333 119.997 85.6993 119.199 87.3373 119.199C89.1853 119.199 90.1373 120.207 90.2493 121.439H89.0733C88.9613 120.893 88.6813 120.179 87.3513 120.179C86.3433 120.179 85.9093 120.585 85.9093 121.159C85.9093 121.985 86.8193 122.069 87.8133 122.293C89.0873 122.587 90.5293 122.951 90.5293 124.533C90.5293 125.877 89.4793 126.731 87.6593 126.731ZM98.3187 119.199C100.111 119.199 101.539 120.613 101.539 122.965C101.539 125.317 100.111 126.731 98.3187 126.731C97.1707 126.731 96.4987 126.227 96.0787 125.611H96.0507V129.013H94.9307V119.395H96.0507V120.277H96.0787C96.4987 119.731 97.1707 119.199 98.3187 119.199ZM98.2067 125.751C99.6767 125.751 100.363 124.365 100.363 122.965C100.363 121.565 99.6767 120.179 98.2067 120.179C96.8767 120.179 96.0507 121.285 96.0507 122.965C96.0507 124.645 96.8767 125.751 98.2067 125.751ZM104.892 126.731C103.45 126.731 102.54 125.905 102.54 124.701C102.54 123.063 103.744 122.615 105.592 122.279C106.81 122.055 107.37 121.915 107.37 121.215C107.37 120.655 107.062 120.165 105.886 120.165C104.528 120.165 104.136 120.571 104.066 121.607H102.89C102.96 120.235 103.828 119.185 105.928 119.185C107.258 119.185 108.462 119.745 108.462 121.495V124.925C108.462 125.485 108.546 125.765 108.826 125.765C108.868 125.765 108.91 125.765 108.994 125.751V126.535C108.812 126.577 108.644 126.605 108.448 126.605C107.832 126.605 107.454 126.367 107.384 125.485H107.356C106.894 126.255 106.082 126.731 104.892 126.731ZM105.004 125.751C106.348 125.751 107.37 125.149 107.37 123.777V122.643C107.16 122.867 106.46 123.049 105.69 123.203C104.304 123.483 103.716 123.819 103.716 124.645C103.716 125.345 104.08 125.751 105.004 125.751ZM113.061 126.731C111.003 126.731 109.897 125.625 109.855 124.155H111.031C111.087 125.023 111.591 125.751 113.061 125.751C114.433 125.751 114.755 125.121 114.755 124.575C114.755 123.595 113.733 123.497 112.851 123.301C111.605 123.021 110.135 122.685 110.135 121.201C110.135 119.997 111.101 119.199 112.739 119.199C114.587 119.199 115.539 120.207 115.651 121.439H114.475C114.363 120.893 114.083 120.179 112.753 120.179C111.745 120.179 111.311 120.585 111.311 121.159C111.311 121.985 112.221 122.069 113.215 122.293C114.489 122.587 115.931 122.951 115.931 124.533C115.931 125.877 114.881 126.731 113.061 126.731ZM119.9 126.731C117.842 126.731 116.736 125.625 116.694 124.155H117.87C117.926 125.023 118.43 125.751 119.9 125.751C121.272 125.751 121.594 125.121 121.594 124.575C121.594 123.595 120.572 123.497 119.69 123.301C118.444 123.021 116.974 122.685 116.974 121.201C116.974 119.997 117.94 119.199 119.578 119.199C121.426 119.199 122.378 120.207 122.49 121.439H121.314C121.202 120.893 120.922 120.179 119.592 120.179C118.584 120.179 118.15 120.585 118.15 121.159C118.15 121.985 119.06 122.069 120.054 122.293C121.328 122.587 122.77 122.951 122.77 124.533C122.77 125.877 121.72 126.731 119.9 126.731ZM130.436 122.699C130.436 122.909 130.436 123.147 130.422 123.259H124.836C124.864 124.519 125.564 125.779 127.146 125.779C128.546 125.779 129.078 124.841 129.204 124.337H130.338C129.974 125.667 128.966 126.745 127.132 126.745C124.878 126.745 123.66 125.121 123.66 122.951C123.66 120.669 125.018 119.185 127.132 119.185C129.218 119.185 130.436 120.613 130.436 122.699ZM124.836 122.279H129.246C129.246 121.103 128.406 120.151 127.076 120.151C125.844 120.151 124.906 121.033 124.836 122.279ZM136.916 120.319V116.525H138.036V126.535H136.916V125.653H136.888C136.468 126.199 135.796 126.731 134.648 126.731C132.856 126.731 131.428 125.317 131.428 122.965C131.428 120.613 132.856 119.199 134.648 119.199C135.796 119.199 136.468 119.703 136.888 120.319H136.916ZM134.76 125.751C136.09 125.751 136.916 124.645 136.916 122.965C136.916 121.285 136.09 120.179 134.76 120.179C133.29 120.179 132.604 121.565 132.604 122.965C132.604 124.365 133.29 125.751 134.76 125.751Z" fill="#6B6B6B"></path>
<path d="M123.656 61.668C121.136 61.668 119.456 59.784 119.456 57.204C119.456 54.624 121.136 52.752 123.656 52.752C126.176 52.752 127.856 54.624 127.856 57.204C127.856 59.784 126.176 61.668 123.656 61.668ZM123.656 60.708C125.816 60.708 126.728 59.052 126.728 57.204C126.728 55.356 125.816 53.712 123.656 53.712C121.496 53.712 120.584 55.356 120.584 57.204C120.584 59.052 121.496 60.708 123.656 60.708ZM132.086 55.212C133.622 55.212 134.846 56.424 134.846 58.44C134.846 60.456 133.622 61.668 132.086 61.668C131.102 61.668 130.526 61.236 130.166 60.708H130.142V63.624H129.182V55.38H130.142V56.136H130.166C130.526 55.668 131.102 55.212 132.086 55.212ZM131.99 60.828C133.25 60.828 133.838 59.64 133.838 58.44C133.838 57.24 133.25 56.052 131.99 56.052C130.85 56.052 130.142 57 130.142 58.44C130.142 59.88 130.85 60.828 131.99 60.828ZM141.633 58.212C141.633 58.392 141.633 58.596 141.621 58.692H136.833C136.857 59.772 137.457 60.852 138.813 60.852C140.013 60.852 140.469 60.048 140.577 59.616H141.549C141.237 60.756 140.373 61.68 138.801 61.68C136.869 61.68 135.825 60.288 135.825 58.428C135.825 56.472 136.989 55.2 138.801 55.2C140.589 55.2 141.633 56.424 141.633 58.212ZM136.833 57.852H140.613C140.613 56.844 139.893 56.028 138.753 56.028C137.697 56.028 136.893 56.784 136.833 57.852ZM145.928 55.212C147.044 55.212 147.98 55.824 147.98 57.228V61.5H147.02V57.468C147.02 56.676 146.648 56.052 145.688 56.052C144.608 56.052 143.888 56.736 143.888 57.684V61.5H142.928V55.38H143.888V56.112H143.912C144.236 55.68 144.884 55.212 145.928 55.212ZM155.277 55.212C156.813 55.212 158.037 56.424 158.037 58.44C158.037 60.456 156.813 61.668 155.277 61.668C154.293 61.668 153.717 61.236 153.357 60.708H153.333V63.624H152.373V55.38H153.333V56.136H153.357C153.717 55.668 154.293 55.212 155.277 55.212ZM155.181 60.828C156.441 60.828 157.029 59.64 157.029 58.44C157.029 57.24 156.441 56.052 155.181 56.052C154.041 56.052 153.333 57 153.333 58.44C153.333 59.88 154.041 60.828 155.181 60.828ZM162.015 55.212C162.243 55.212 162.411 55.224 162.579 55.248V56.208C162.435 56.184 162.327 56.172 162.183 56.172C161.055 56.172 160.299 57.06 160.299 58.236V61.5H159.339V55.38H160.299V56.592H160.323C160.647 55.788 161.139 55.212 162.015 55.212ZM168.825 58.212C168.825 58.392 168.825 58.596 168.813 58.692H164.025C164.049 59.772 164.649 60.852 166.005 60.852C167.205 60.852 167.661 60.048 167.769 59.616H168.741C168.429 60.756 167.565 61.68 165.993 61.68C164.061 61.68 163.017 60.288 163.017 58.428C163.017 56.472 164.181 55.2 165.993 55.2C167.781 55.2 168.825 56.424 168.825 58.212ZM164.025 57.852H167.805C167.805 56.844 167.085 56.028 165.945 56.028C164.889 56.028 164.085 56.784 164.025 57.852ZM172.656 61.5H171.564L169.368 55.38H170.424L172.128 60.54H172.14L173.82 55.38H174.852L172.656 61.5ZM176.947 54.192H175.795V53.04H176.947V54.192ZM176.851 61.5H175.891V55.38H176.851V61.5ZM183.971 58.212C183.971 58.392 183.971 58.596 183.959 58.692H179.171C179.195 59.772 179.795 60.852 181.151 60.852C182.351 60.852 182.807 60.048 182.915 59.616H183.887C183.575 60.756 182.711 61.68 181.139 61.68C179.207 61.68 178.163 60.288 178.163 58.428C178.163 56.472 179.327 55.2 181.139 55.2C182.927 55.2 183.971 56.424 183.971 58.212ZM179.171 57.852H182.951C182.951 56.844 182.231 56.028 181.091 56.028C180.035 56.028 179.231 56.784 179.171 57.852ZM187.561 61.5H186.517L184.573 55.38H185.653L187.057 60.42H187.081L188.425 55.38H189.469L190.813 60.42H190.837L192.253 55.38H193.297L191.341 61.5H190.297L188.941 56.532H188.917L187.561 61.5ZM205.109 57.672L202.109 60.912L201.461 60.324L203.561 58.092H196.817V57.252H203.561L201.461 55.02L202.109 54.432L205.109 57.672Z" fill="#6B6B6B"></path>
<rect y="146" width="540" height="79" fill="url(#paint7_linear_334_7953)"></rect>
</g>
<defs>
<radialGradient id="paint0_radial_334_7953" cx="0" cy="0" r="1" gradientUnits="userSpaceOnUse" gradientTransform="translate(270 121.573) rotate(90) scale(128.74 297.184)">
<stop stop-color="white" stop-opacity="0"></stop>
<stop offset="1" stop-color="white"></stop>
</radialGradient>
<linearGradient id="paint1_linear_334_7953" x1="307.582" y1="43.1303" x2="290.383" y2="68.6097" gradientUnits="userSpaceOnUse">
<stop stop-color="#5DC70A"></stop>
<stop offset="1" stop-color="#009E7A"></stop>
</linearGradient>
<linearGradient id="paint2_linear_334_7953" x1="307.582" y1="75.5138" x2="290.383" y2="100.993" gradientUnits="userSpaceOnUse">
<stop stop-color="#5DC70A"></stop>
<stop offset="1" stop-color="#009E7A"></stop>
</linearGradient>
<linearGradient id="paint3_linear_334_7953" x1="307.582" y1="107.897" x2="290.383" y2="133.377" gradientUnits="userSpaceOnUse">
<stop stop-color="#5DC70A"></stop>
<stop offset="1" stop-color="#009E7A"></stop>
</linearGradient>
<linearGradient id="paint4_linear_334_7953" x1="307.582" y1="140.281" x2="290.383" y2="165.76" gradientUnits="userSpaceOnUse">
<stop stop-color="#5DC70A"></stop>
<stop offset="1" stop-color="#009E7A"></stop>
</linearGradient>
<linearGradient id="paint5_linear_334_7953" x1="222" y1="93.5" x2="266" y2="93.5" gradientUnits="userSpaceOnUse">
<stop stop-color="#8F8F8F" stop-opacity="0.1"></stop>
<stop offset="1" stop-color="#8F8F8F"></stop>
</linearGradient>
<linearGradient id="paint6_linear_334_7953" x1="37.5831" y1="103.062" x2="20.3844" y2="128.542" gradientUnits="userSpaceOnUse">
<stop stop-color="#5DC70A"></stop>
<stop offset="1" stop-color="#009E7A"></stop>
</linearGradient>
<linearGradient id="paint7_linear_334_7953" x1="270" y1="146" x2="270" y2="217.594" gradientUnits="userSpaceOnUse">
<stop stop-color="white" stop-opacity="0"></stop>
<stop offset="0.3" stop-color="white" stop-opacity="0.5"></stop>
<stop offset="0.65" stop-color="white" stop-opacity="0.8"></stop>
<stop offset="1" stop-color="white"></stop>
</linearGradient>
<clipPath id="clip0_334_7953">
<rect width="540" height="216" fill="white"></rect>
</clipPath>
<clipPath id="clip1_334_7953">
<rect width="270" height="101.25" fill="white"></rect>
</clipPath>
<clipPath id="clip2_334_7953">
<rect width="270" height="101.25" fill="white" transform="translate(270)"></rect>
</clipPath>
<clipPath id="clip3_334_7953">
<rect width="270" height="101.25" fill="white" transform="translate(0 101.25)"></rect>
</clipPath>
<clipPath id="clip4_334_7953">
<rect width="270" height="101.25" fill="white" transform="translate(270 101.25)"></rect>
</clipPath>
<clipPath id="clip5_334_7953">
<rect width="270" height="101.25" fill="white" transform="translate(0 202.5)"></rect>
</clipPath>
<clipPath id="clip6_334_7953">
<rect width="270" height="101.25" fill="white" transform="translate(270 202.5)"></rect>
</clipPath>
<clipPath id="clip7_334_7953">
<rect x="270" y="1" width="269" height="186" fill="white"></rect>
</clipPath>
</defs>
</svg>
