<svg xmlns="http://www.w3.org/2000/svg" fill="none" viewBox="0 0 76 40" height="40" width="76">
<path fill="black" d="M18.8258 12.3015C21.7928 12.3015 23.4909 14.0534 23.4909 17.1053V27.8123H20.6876V18.4833C20.6876 15.5911 19.5232 14.8185 17.9648 14.8185C15.8173 14.8185 14.4314 17.1053 14.4314 21.0226V27.8123H11.628V18.4833C11.628 15.7768 10.6021 14.8185 8.8876 14.8185C6.72247 14.8185 5.37052 17.291 5.37052 21.0226V27.8123H2.56969V12.5392H5.37304V14.9411C6.32469 13.1904 7.87175 12.299 9.88961 12.299C11.9075 12.299 13.5628 13.3576 14.133 15.2197C14.9726 13.4318 16.6934 12.2977 18.8258 12.2977M44.8616 7.17079L42.0582 8.91032V12.5404H39.4223V15.0612H42.0582V22.9813C42.0582 26.2065 43.7173 28.055 46.6113 28.055C47.4308 28.055 48.3661 27.7999 48.8104 27.5746V24.9523C48.0023 25.3869 47.3313 25.5342 46.7624 25.5342C45.5375 25.5342 44.8616 24.701 44.8616 23.1868V15.0587H48.8104V12.5392H44.8616V7.16956V7.17079ZM71.9132 12.3027C70.2767 12.3027 68.4578 13.1297 67.5577 14.9473V12.5392H64.7544V27.8123H67.5577V21.0177C67.5577 17.4643 68.9386 14.8185 71.7004 14.8185C72.3915 14.8185 73.0624 15.0203 73.0624 15.0203V12.3968C72.683 12.3311 72.2984 12.3005 71.9132 12.3027ZM38.6758 23.999C37.1703 26.8181 35.2947 28.0525 32.1729 28.0525C29.941 28.0525 28.1837 27.2849 26.9514 25.7695C25.7291 24.1971 25.1362 22.3684 25.1362 20.1782C25.1362 17.9868 25.7454 16.1334 26.9514 14.6167C28.1938 13.0592 29.902 12.3039 32.1729 12.3039C34.445 12.3039 36.1091 13.022 37.3314 14.4335C38.5953 15.8288 39.2108 17.5039 39.2108 19.5542V20.8418H28.0075C28.049 23.6399 29.7522 25.5342 32.1741 25.5342C34.1454 25.5342 35.3287 24.7716 36.2161 22.9157L38.6758 24.0015V23.999ZM28.1837 18.3198H36.2552C36.021 16.0739 34.2763 14.8185 32.1766 14.8185C30.0745 14.8185 28.584 16.0566 28.1863 18.3198H28.1837ZM62.6169 23.999C61.1101 26.8181 59.2345 28.0525 56.114 28.0525C53.8809 28.0525 52.1236 27.2849 50.8912 25.7695C49.6689 24.1971 49.076 22.3684 49.076 20.1782C49.076 17.9868 49.6865 16.1334 50.8912 14.6167C52.1337 13.0592 53.8418 12.3039 56.1127 12.3039C58.3848 12.3039 60.049 13.022 61.2713 14.4335C62.5364 15.8288 63.1507 17.5039 63.1507 19.5542V20.8418H51.9473C51.9901 23.6399 53.692 25.5342 56.114 25.5342C58.0853 25.5342 59.2685 24.7716 60.1572 22.9157L62.6169 24.0015V23.999ZM52.1236 18.3198H60.1963C59.9609 16.0739 58.2162 14.8185 56.1152 14.8185C54.0143 14.8185 52.5239 16.0566 52.1261 18.3198H52.1236Z"></path>
</svg>
