<svg width="540" height="216" viewBox="0 0 540 216" fill="none" xmlns="http://www.w3.org/2000/svg">
<g clip-path="url(#clip0_334_7280)">
<rect width="540" height="216" fill="#001913"></rect>
<g clip-path="url(#clip1_334_7280)">
<rect width="16.875" height="16.875" stroke="#272727" stroke-width="0.420561"></rect>
<rect x="16.875" width="16.875" height="16.875" stroke="#272727" stroke-width="0.420561"></rect>
<rect x="33.75" width="16.875" height="16.875" stroke="#272727" stroke-width="0.420561"></rect>
<rect x="50.625" width="16.875" height="16.875" stroke="#272727" stroke-width="0.420561"></rect>
<rect x="67.5" width="16.875" height="16.875" stroke="#272727" stroke-width="0.420561"></rect>
<rect x="84.375" width="16.875" height="16.875" stroke="#272727" stroke-width="0.420561"></rect>
<rect x="101.25" width="16.875" height="16.875" stroke="#272727" stroke-width="0.420561"></rect>
<rect x="118.125" width="16.875" height="16.875" stroke="#272727" stroke-width="0.420561"></rect>
<rect x="135" width="16.875" height="16.875" stroke="#272727" stroke-width="0.420561"></rect>
<rect x="151.875" width="16.875" height="16.875" stroke="#272727" stroke-width="0.420561"></rect>
<rect x="168.75" width="16.875" height="16.875" stroke="#272727" stroke-width="0.420561"></rect>
<rect x="185.625" width="16.875" height="16.875" stroke="#272727" stroke-width="0.420561"></rect>
<rect x="202.5" width="16.875" height="16.875" stroke="#272727" stroke-width="0.420561"></rect>
<rect x="219.375" width="16.875" height="16.875" stroke="#272727" stroke-width="0.420561"></rect>
<rect x="236.25" width="16.875" height="16.875" stroke="#272727" stroke-width="0.420561"></rect>
<rect x="253.125" width="16.875" height="16.875" stroke="#272727" stroke-width="0.420561"></rect>
<rect y="16.875" width="16.875" height="16.875" stroke="#272727" stroke-width="0.420561"></rect>
<rect x="16.875" y="16.875" width="16.875" height="16.875" stroke="#272727" stroke-width="0.420561"></rect>
<rect x="33.75" y="16.875" width="16.875" height="16.875" stroke="#272727" stroke-width="0.420561"></rect>
<rect x="50.625" y="16.875" width="16.875" height="16.875" stroke="#272727" stroke-width="0.420561"></rect>
<rect x="67.5" y="16.875" width="16.875" height="16.875" stroke="#272727" stroke-width="0.420561"></rect>
<rect x="84.375" y="16.875" width="16.875" height="16.875" stroke="#272727" stroke-width="0.420561"></rect>
<rect x="101.25" y="16.875" width="16.875" height="16.875" stroke="#272727" stroke-width="0.420561"></rect>
<rect x="118.125" y="16.875" width="16.875" height="16.875" stroke="#272727" stroke-width="0.420561"></rect>
<rect x="135" y="16.875" width="16.875" height="16.875" stroke="#272727" stroke-width="0.420561"></rect>
<rect x="151.875" y="16.875" width="16.875" height="16.875" stroke="#272727" stroke-width="0.420561"></rect>
<rect x="168.75" y="16.875" width="16.875" height="16.875" stroke="#272727" stroke-width="0.420561"></rect>
<rect x="185.625" y="16.875" width="16.875" height="16.875" stroke="#272727" stroke-width="0.420561"></rect>
<rect x="202.5" y="16.875" width="16.875" height="16.875" stroke="#272727" stroke-width="0.420561"></rect>
<rect x="219.375" y="16.875" width="16.875" height="16.875" stroke="#272727" stroke-width="0.420561"></rect>
<rect x="236.25" y="16.875" width="16.875" height="16.875" stroke="#272727" stroke-width="0.420561"></rect>
<rect x="253.125" y="16.875" width="16.875" height="16.875" stroke="#272727" stroke-width="0.420561"></rect>
<rect y="33.75" width="16.875" height="16.875" stroke="#272727" stroke-width="0.420561"></rect>
<rect x="16.875" y="33.75" width="16.875" height="16.875" stroke="#272727" stroke-width="0.420561"></rect>
<rect x="33.75" y="33.75" width="16.875" height="16.875" stroke="#272727" stroke-width="0.420561"></rect>
<rect x="50.625" y="33.75" width="16.875" height="16.875" stroke="#272727" stroke-width="0.420561"></rect>
<rect x="67.5" y="33.75" width="16.875" height="16.875" stroke="#272727" stroke-width="0.420561"></rect>
<rect x="84.375" y="33.75" width="16.875" height="16.875" stroke="#272727" stroke-width="0.420561"></rect>
<rect x="101.25" y="33.75" width="16.875" height="16.875" stroke="#272727" stroke-width="0.420561"></rect>
<rect x="118.125" y="33.75" width="16.875" height="16.875" stroke="#272727" stroke-width="0.420561"></rect>
<rect x="135" y="33.75" width="16.875" height="16.875" stroke="#272727" stroke-width="0.420561"></rect>
<rect x="151.875" y="33.75" width="16.875" height="16.875" stroke="#272727" stroke-width="0.420561"></rect>
<rect x="168.75" y="33.75" width="16.875" height="16.875" stroke="#272727" stroke-width="0.420561"></rect>
<rect x="185.625" y="33.75" width="16.875" height="16.875" stroke="#272727" stroke-width="0.420561"></rect>
<rect x="202.5" y="33.75" width="16.875" height="16.875" stroke="#272727" stroke-width="0.420561"></rect>
<rect x="219.375" y="33.75" width="16.875" height="16.875" stroke="#272727" stroke-width="0.420561"></rect>
<rect x="236.25" y="33.75" width="16.875" height="16.875" stroke="#272727" stroke-width="0.420561"></rect>
<rect x="253.125" y="33.75" width="16.875" height="16.875" stroke="#272727" stroke-width="0.420561"></rect>
<rect y="50.625" width="16.875" height="16.875" stroke="#272727" stroke-width="0.420561"></rect>
<rect x="16.875" y="50.625" width="16.875" height="16.875" stroke="#272727" stroke-width="0.420561"></rect>
<rect x="33.75" y="50.625" width="16.875" height="16.875" stroke="#272727" stroke-width="0.420561"></rect>
<rect x="50.625" y="50.625" width="16.875" height="16.875" stroke="#272727" stroke-width="0.420561"></rect>
<rect x="67.5" y="50.625" width="16.875" height="16.875" stroke="#272727" stroke-width="0.420561"></rect>
<rect x="84.375" y="50.625" width="16.875" height="16.875" stroke="#272727" stroke-width="0.420561"></rect>
<rect x="101.25" y="50.625" width="16.875" height="16.875" stroke="#272727" stroke-width="0.420561"></rect>
<rect x="118.125" y="50.625" width="16.875" height="16.875" stroke="#272727" stroke-width="0.420561"></rect>
<rect x="135" y="50.625" width="16.875" height="16.875" stroke="#272727" stroke-width="0.420561"></rect>
<rect x="151.875" y="50.625" width="16.875" height="16.875" stroke="#272727" stroke-width="0.420561"></rect>
<rect x="168.75" y="50.625" width="16.875" height="16.875" stroke="#272727" stroke-width="0.420561"></rect>
<rect x="185.625" y="50.625" width="16.875" height="16.875" stroke="#272727" stroke-width="0.420561"></rect>
<rect x="202.5" y="50.625" width="16.875" height="16.875" stroke="#272727" stroke-width="0.420561"></rect>
<rect x="219.375" y="50.625" width="16.875" height="16.875" stroke="#272727" stroke-width="0.420561"></rect>
<rect x="236.25" y="50.625" width="16.875" height="16.875" stroke="#272727" stroke-width="0.420561"></rect>
<rect x="253.125" y="50.625" width="16.875" height="16.875" stroke="#272727" stroke-width="0.420561"></rect>
<rect y="67.5" width="16.875" height="16.875" stroke="#272727" stroke-width="0.420561"></rect>
<rect x="16.875" y="67.5" width="16.875" height="16.875" stroke="#272727" stroke-width="0.420561"></rect>
<rect x="33.75" y="67.5" width="16.875" height="16.875" stroke="#272727" stroke-width="0.420561"></rect>
<rect x="50.625" y="67.5" width="16.875" height="16.875" stroke="#272727" stroke-width="0.420561"></rect>
<rect x="67.5" y="67.5" width="16.875" height="16.875" stroke="#272727" stroke-width="0.420561"></rect>
<rect x="84.375" y="67.5" width="16.875" height="16.875" stroke="#272727" stroke-width="0.420561"></rect>
<rect x="101.25" y="67.5" width="16.875" height="16.875" stroke="#272727" stroke-width="0.420561"></rect>
<rect x="118.125" y="67.5" width="16.875" height="16.875" stroke="#272727" stroke-width="0.420561"></rect>
<rect x="135" y="67.5" width="16.875" height="16.875" stroke="#272727" stroke-width="0.420561"></rect>
<rect x="151.875" y="67.5" width="16.875" height="16.875" stroke="#272727" stroke-width="0.420561"></rect>
<rect x="168.75" y="67.5" width="16.875" height="16.875" stroke="#272727" stroke-width="0.420561"></rect>
<rect x="185.625" y="67.5" width="16.875" height="16.875" stroke="#272727" stroke-width="0.420561"></rect>
<rect x="202.5" y="67.5" width="16.875" height="16.875" stroke="#272727" stroke-width="0.420561"></rect>
<rect x="219.375" y="67.5" width="16.875" height="16.875" stroke="#272727" stroke-width="0.420561"></rect>
<rect x="236.25" y="67.5" width="16.875" height="16.875" stroke="#272727" stroke-width="0.420561"></rect>
<rect x="253.125" y="67.5" width="16.875" height="16.875" stroke="#272727" stroke-width="0.420561"></rect>
<rect y="84.375" width="16.875" height="16.875" stroke="#272727" stroke-width="0.420561"></rect>
<rect x="16.875" y="84.375" width="16.875" height="16.875" stroke="#272727" stroke-width="0.420561"></rect>
<rect x="33.75" y="84.375" width="16.875" height="16.875" stroke="#272727" stroke-width="0.420561"></rect>
<rect x="50.625" y="84.375" width="16.875" height="16.875" stroke="#272727" stroke-width="0.420561"></rect>
<rect x="67.5" y="84.375" width="16.875" height="16.875" stroke="#272727" stroke-width="0.420561"></rect>
<rect x="84.375" y="84.375" width="16.875" height="16.875" stroke="#272727" stroke-width="0.420561"></rect>
<rect x="101.25" y="84.375" width="16.875" height="16.875" stroke="#272727" stroke-width="0.420561"></rect>
<rect x="118.125" y="84.375" width="16.875" height="16.875" stroke="#272727" stroke-width="0.420561"></rect>
<rect x="135" y="84.375" width="16.875" height="16.875" stroke="#272727" stroke-width="0.420561"></rect>
<rect x="151.875" y="84.375" width="16.875" height="16.875" stroke="#272727" stroke-width="0.420561"></rect>
<rect x="168.75" y="84.375" width="16.875" height="16.875" stroke="#272727" stroke-width="0.420561"></rect>
<rect x="185.625" y="84.375" width="16.875" height="16.875" stroke="#272727" stroke-width="0.420561"></rect>
<rect x="202.5" y="84.375" width="16.875" height="16.875" stroke="#272727" stroke-width="0.420561"></rect>
<rect x="219.375" y="84.375" width="16.875" height="16.875" stroke="#272727" stroke-width="0.420561"></rect>
<rect x="236.25" y="84.375" width="16.875" height="16.875" stroke="#272727" stroke-width="0.420561"></rect>
<rect x="253.125" y="84.375" width="16.875" height="16.875" stroke="#272727" stroke-width="0.420561"></rect>
</g>
<g clip-path="url(#clip2_334_7280)">
<rect x="270" width="16.875" height="16.875" stroke="#272727" stroke-width="0.420561"></rect>
<rect x="286.875" width="16.875" height="16.875" stroke="#272727" stroke-width="0.420561"></rect>
<rect x="303.75" width="16.875" height="16.875" stroke="#272727" stroke-width="0.420561"></rect>
<rect x="320.625" width="16.875" height="16.875" stroke="#272727" stroke-width="0.420561"></rect>
<rect x="337.5" width="16.875" height="16.875" stroke="#272727" stroke-width="0.420561"></rect>
<rect x="354.375" width="16.875" height="16.875" stroke="#272727" stroke-width="0.420561"></rect>
<rect x="371.25" width="16.875" height="16.875" stroke="#272727" stroke-width="0.420561"></rect>
<rect x="388.125" width="16.875" height="16.875" stroke="#272727" stroke-width="0.420561"></rect>
<rect x="405" width="16.875" height="16.875" stroke="#272727" stroke-width="0.420561"></rect>
<rect x="421.875" width="16.875" height="16.875" stroke="#272727" stroke-width="0.420561"></rect>
<rect x="438.75" width="16.875" height="16.875" stroke="#272727" stroke-width="0.420561"></rect>
<rect x="455.625" width="16.875" height="16.875" stroke="#272727" stroke-width="0.420561"></rect>
<rect x="472.5" width="16.875" height="16.875" stroke="#272727" stroke-width="0.420561"></rect>
<rect x="489.375" width="16.875" height="16.875" stroke="#272727" stroke-width="0.420561"></rect>
<rect x="506.25" width="16.875" height="16.875" stroke="#272727" stroke-width="0.420561"></rect>
<rect x="523.125" width="16.875" height="16.875" stroke="#272727" stroke-width="0.420561"></rect>
<rect x="270" y="16.875" width="16.875" height="16.875" stroke="#272727" stroke-width="0.420561"></rect>
<rect x="286.875" y="16.875" width="16.875" height="16.875" stroke="#272727" stroke-width="0.420561"></rect>
<rect x="303.75" y="16.875" width="16.875" height="16.875" stroke="#272727" stroke-width="0.420561"></rect>
<rect x="320.625" y="16.875" width="16.875" height="16.875" stroke="#272727" stroke-width="0.420561"></rect>
<rect x="337.5" y="16.875" width="16.875" height="16.875" stroke="#272727" stroke-width="0.420561"></rect>
<rect x="354.375" y="16.875" width="16.875" height="16.875" stroke="#272727" stroke-width="0.420561"></rect>
<rect x="371.25" y="16.875" width="16.875" height="16.875" stroke="#272727" stroke-width="0.420561"></rect>
<rect x="388.125" y="16.875" width="16.875" height="16.875" stroke="#272727" stroke-width="0.420561"></rect>
<rect x="405" y="16.875" width="16.875" height="16.875" stroke="#272727" stroke-width="0.420561"></rect>
<rect x="421.875" y="16.875" width="16.875" height="16.875" stroke="#272727" stroke-width="0.420561"></rect>
<rect x="438.75" y="16.875" width="16.875" height="16.875" stroke="#272727" stroke-width="0.420561"></rect>
<rect x="455.625" y="16.875" width="16.875" height="16.875" stroke="#272727" stroke-width="0.420561"></rect>
<rect x="472.5" y="16.875" width="16.875" height="16.875" stroke="#272727" stroke-width="0.420561"></rect>
<rect x="489.375" y="16.875" width="16.875" height="16.875" stroke="#272727" stroke-width="0.420561"></rect>
<rect x="506.25" y="16.875" width="16.875" height="16.875" stroke="#272727" stroke-width="0.420561"></rect>
<rect x="523.125" y="16.875" width="16.875" height="16.875" stroke="#272727" stroke-width="0.420561"></rect>
<rect x="270" y="33.75" width="16.875" height="16.875" stroke="#272727" stroke-width="0.420561"></rect>
<rect x="286.875" y="33.75" width="16.875" height="16.875" stroke="#272727" stroke-width="0.420561"></rect>
<rect x="303.75" y="33.75" width="16.875" height="16.875" stroke="#272727" stroke-width="0.420561"></rect>
<rect x="320.625" y="33.75" width="16.875" height="16.875" stroke="#272727" stroke-width="0.420561"></rect>
<rect x="337.5" y="33.75" width="16.875" height="16.875" stroke="#272727" stroke-width="0.420561"></rect>
<rect x="354.375" y="33.75" width="16.875" height="16.875" stroke="#272727" stroke-width="0.420561"></rect>
<rect x="371.25" y="33.75" width="16.875" height="16.875" stroke="#272727" stroke-width="0.420561"></rect>
<rect x="388.125" y="33.75" width="16.875" height="16.875" stroke="#272727" stroke-width="0.420561"></rect>
<rect x="405" y="33.75" width="16.875" height="16.875" stroke="#272727" stroke-width="0.420561"></rect>
<rect x="421.875" y="33.75" width="16.875" height="16.875" stroke="#272727" stroke-width="0.420561"></rect>
<rect x="438.75" y="33.75" width="16.875" height="16.875" stroke="#272727" stroke-width="0.420561"></rect>
<rect x="455.625" y="33.75" width="16.875" height="16.875" stroke="#272727" stroke-width="0.420561"></rect>
<rect x="472.5" y="33.75" width="16.875" height="16.875" stroke="#272727" stroke-width="0.420561"></rect>
<rect x="489.375" y="33.75" width="16.875" height="16.875" stroke="#272727" stroke-width="0.420561"></rect>
<rect x="506.25" y="33.75" width="16.875" height="16.875" stroke="#272727" stroke-width="0.420561"></rect>
<rect x="523.125" y="33.75" width="16.875" height="16.875" stroke="#272727" stroke-width="0.420561"></rect>
<rect x="270" y="50.625" width="16.875" height="16.875" stroke="#272727" stroke-width="0.420561"></rect>
<rect x="286.875" y="50.625" width="16.875" height="16.875" stroke="#272727" stroke-width="0.420561"></rect>
<rect x="303.75" y="50.625" width="16.875" height="16.875" stroke="#272727" stroke-width="0.420561"></rect>
<rect x="320.625" y="50.625" width="16.875" height="16.875" stroke="#272727" stroke-width="0.420561"></rect>
<rect x="337.5" y="50.625" width="16.875" height="16.875" stroke="#272727" stroke-width="0.420561"></rect>
<rect x="354.375" y="50.625" width="16.875" height="16.875" stroke="#272727" stroke-width="0.420561"></rect>
<rect x="371.25" y="50.625" width="16.875" height="16.875" stroke="#272727" stroke-width="0.420561"></rect>
<rect x="388.125" y="50.625" width="16.875" height="16.875" stroke="#272727" stroke-width="0.420561"></rect>
<rect x="405" y="50.625" width="16.875" height="16.875" stroke="#272727" stroke-width="0.420561"></rect>
<rect x="421.875" y="50.625" width="16.875" height="16.875" stroke="#272727" stroke-width="0.420561"></rect>
<rect x="438.75" y="50.625" width="16.875" height="16.875" stroke="#272727" stroke-width="0.420561"></rect>
<rect x="455.625" y="50.625" width="16.875" height="16.875" stroke="#272727" stroke-width="0.420561"></rect>
<rect x="472.5" y="50.625" width="16.875" height="16.875" stroke="#272727" stroke-width="0.420561"></rect>
<rect x="489.375" y="50.625" width="16.875" height="16.875" stroke="#272727" stroke-width="0.420561"></rect>
<rect x="506.25" y="50.625" width="16.875" height="16.875" stroke="#272727" stroke-width="0.420561"></rect>
<rect x="523.125" y="50.625" width="16.875" height="16.875" stroke="#272727" stroke-width="0.420561"></rect>
<rect x="270" y="67.5" width="16.875" height="16.875" stroke="#272727" stroke-width="0.420561"></rect>
<rect x="286.875" y="67.5" width="16.875" height="16.875" stroke="#272727" stroke-width="0.420561"></rect>
<rect x="303.75" y="67.5" width="16.875" height="16.875" stroke="#272727" stroke-width="0.420561"></rect>
<rect x="320.625" y="67.5" width="16.875" height="16.875" stroke="#272727" stroke-width="0.420561"></rect>
<rect x="337.5" y="67.5" width="16.875" height="16.875" stroke="#272727" stroke-width="0.420561"></rect>
<rect x="354.375" y="67.5" width="16.875" height="16.875" stroke="#272727" stroke-width="0.420561"></rect>
<rect x="371.25" y="67.5" width="16.875" height="16.875" stroke="#272727" stroke-width="0.420561"></rect>
<rect x="388.125" y="67.5" width="16.875" height="16.875" stroke="#272727" stroke-width="0.420561"></rect>
<rect x="405" y="67.5" width="16.875" height="16.875" stroke="#272727" stroke-width="0.420561"></rect>
<rect x="421.875" y="67.5" width="16.875" height="16.875" stroke="#272727" stroke-width="0.420561"></rect>
<rect x="438.75" y="67.5" width="16.875" height="16.875" stroke="#272727" stroke-width="0.420561"></rect>
<rect x="455.625" y="67.5" width="16.875" height="16.875" stroke="#272727" stroke-width="0.420561"></rect>
<rect x="472.5" y="67.5" width="16.875" height="16.875" stroke="#272727" stroke-width="0.420561"></rect>
<rect x="489.375" y="67.5" width="16.875" height="16.875" stroke="#272727" stroke-width="0.420561"></rect>
<rect x="506.25" y="67.5" width="16.875" height="16.875" stroke="#272727" stroke-width="0.420561"></rect>
<rect x="523.125" y="67.5" width="16.875" height="16.875" stroke="#272727" stroke-width="0.420561"></rect>
<rect x="270" y="84.375" width="16.875" height="16.875" stroke="#272727" stroke-width="0.420561"></rect>
<rect x="286.875" y="84.375" width="16.875" height="16.875" stroke="#272727" stroke-width="0.420561"></rect>
<rect x="303.75" y="84.375" width="16.875" height="16.875" stroke="#272727" stroke-width="0.420561"></rect>
<rect x="320.625" y="84.375" width="16.875" height="16.875" stroke="#272727" stroke-width="0.420561"></rect>
<rect x="337.5" y="84.375" width="16.875" height="16.875" stroke="#272727" stroke-width="0.420561"></rect>
<rect x="354.375" y="84.375" width="16.875" height="16.875" stroke="#272727" stroke-width="0.420561"></rect>
<rect x="371.25" y="84.375" width="16.875" height="16.875" stroke="#272727" stroke-width="0.420561"></rect>
<rect x="388.125" y="84.375" width="16.875" height="16.875" stroke="#272727" stroke-width="0.420561"></rect>
<rect x="405" y="84.375" width="16.875" height="16.875" stroke="#272727" stroke-width="0.420561"></rect>
<rect x="421.875" y="84.375" width="16.875" height="16.875" stroke="#272727" stroke-width="0.420561"></rect>
<rect x="438.75" y="84.375" width="16.875" height="16.875" stroke="#272727" stroke-width="0.420561"></rect>
<rect x="455.625" y="84.375" width="16.875" height="16.875" stroke="#272727" stroke-width="0.420561"></rect>
<rect x="472.5" y="84.375" width="16.875" height="16.875" stroke="#272727" stroke-width="0.420561"></rect>
<rect x="489.375" y="84.375" width="16.875" height="16.875" stroke="#272727" stroke-width="0.420561"></rect>
<rect x="506.25" y="84.375" width="16.875" height="16.875" stroke="#272727" stroke-width="0.420561"></rect>
<rect x="523.125" y="84.375" width="16.875" height="16.875" stroke="#272727" stroke-width="0.420561"></rect>
</g>
<g clip-path="url(#clip3_334_7280)">
<rect y="101.25" width="16.875" height="16.875" stroke="#272727" stroke-width="0.420561"></rect>
<rect x="16.875" y="101.25" width="16.875" height="16.875" stroke="#272727" stroke-width="0.420561"></rect>
<rect x="33.75" y="101.25" width="16.875" height="16.875" stroke="#272727" stroke-width="0.420561"></rect>
<rect x="50.625" y="101.25" width="16.875" height="16.875" stroke="#272727" stroke-width="0.420561"></rect>
<rect x="67.5" y="101.25" width="16.875" height="16.875" stroke="#272727" stroke-width="0.420561"></rect>
<rect x="84.375" y="101.25" width="16.875" height="16.875" stroke="#272727" stroke-width="0.420561"></rect>
<rect x="101.25" y="101.25" width="16.875" height="16.875" stroke="#272727" stroke-width="0.420561"></rect>
<rect x="118.125" y="101.25" width="16.875" height="16.875" stroke="#272727" stroke-width="0.420561"></rect>
<rect x="135" y="101.25" width="16.875" height="16.875" stroke="#272727" stroke-width="0.420561"></rect>
<rect x="151.875" y="101.25" width="16.875" height="16.875" stroke="#272727" stroke-width="0.420561"></rect>
<rect x="168.75" y="101.25" width="16.875" height="16.875" stroke="#272727" stroke-width="0.420561"></rect>
<rect x="185.625" y="101.25" width="16.875" height="16.875" stroke="#272727" stroke-width="0.420561"></rect>
<rect x="202.5" y="101.25" width="16.875" height="16.875" stroke="#272727" stroke-width="0.420561"></rect>
<rect x="219.375" y="101.25" width="16.875" height="16.875" stroke="#272727" stroke-width="0.420561"></rect>
<rect x="236.25" y="101.25" width="16.875" height="16.875" stroke="#272727" stroke-width="0.420561"></rect>
<rect x="253.125" y="101.25" width="16.875" height="16.875" stroke="#272727" stroke-width="0.420561"></rect>
<rect y="118.125" width="16.875" height="16.875" stroke="#272727" stroke-width="0.420561"></rect>
<rect x="16.875" y="118.125" width="16.875" height="16.875" stroke="#272727" stroke-width="0.420561"></rect>
<rect x="33.75" y="118.125" width="16.875" height="16.875" stroke="#272727" stroke-width="0.420561"></rect>
<rect x="50.625" y="118.125" width="16.875" height="16.875" stroke="#272727" stroke-width="0.420561"></rect>
<rect x="67.5" y="118.125" width="16.875" height="16.875" stroke="#272727" stroke-width="0.420561"></rect>
<rect x="84.375" y="118.125" width="16.875" height="16.875" stroke="#272727" stroke-width="0.420561"></rect>
<rect x="101.25" y="118.125" width="16.875" height="16.875" stroke="#272727" stroke-width="0.420561"></rect>
<rect x="118.125" y="118.125" width="16.875" height="16.875" stroke="#272727" stroke-width="0.420561"></rect>
<rect x="135" y="118.125" width="16.875" height="16.875" stroke="#272727" stroke-width="0.420561"></rect>
<rect x="151.875" y="118.125" width="16.875" height="16.875" stroke="#272727" stroke-width="0.420561"></rect>
<rect x="168.75" y="118.125" width="16.875" height="16.875" stroke="#272727" stroke-width="0.420561"></rect>
<rect x="185.625" y="118.125" width="16.875" height="16.875" stroke="#272727" stroke-width="0.420561"></rect>
<rect x="202.5" y="118.125" width="16.875" height="16.875" stroke="#272727" stroke-width="0.420561"></rect>
<rect x="219.375" y="118.125" width="16.875" height="16.875" stroke="#272727" stroke-width="0.420561"></rect>
<rect x="236.25" y="118.125" width="16.875" height="16.875" stroke="#272727" stroke-width="0.420561"></rect>
<rect x="253.125" y="118.125" width="16.875" height="16.875" stroke="#272727" stroke-width="0.420561"></rect>
<rect y="135" width="16.875" height="16.875" stroke="#272727" stroke-width="0.420561"></rect>
<rect x="16.875" y="135" width="16.875" height="16.875" stroke="#272727" stroke-width="0.420561"></rect>
<rect x="33.75" y="135" width="16.875" height="16.875" stroke="#272727" stroke-width="0.420561"></rect>
<rect x="50.625" y="135" width="16.875" height="16.875" stroke="#272727" stroke-width="0.420561"></rect>
<rect x="67.5" y="135" width="16.875" height="16.875" stroke="#272727" stroke-width="0.420561"></rect>
<rect x="84.375" y="135" width="16.875" height="16.875" stroke="#272727" stroke-width="0.420561"></rect>
<rect x="101.25" y="135" width="16.875" height="16.875" stroke="#272727" stroke-width="0.420561"></rect>
<rect x="118.125" y="135" width="16.875" height="16.875" stroke="#272727" stroke-width="0.420561"></rect>
<rect x="135" y="135" width="16.875" height="16.875" stroke="#272727" stroke-width="0.420561"></rect>
<rect x="151.875" y="135" width="16.875" height="16.875" stroke="#272727" stroke-width="0.420561"></rect>
<rect x="168.75" y="135" width="16.875" height="16.875" stroke="#272727" stroke-width="0.420561"></rect>
<rect x="185.625" y="135" width="16.875" height="16.875" stroke="#272727" stroke-width="0.420561"></rect>
<rect x="202.5" y="135" width="16.875" height="16.875" stroke="#272727" stroke-width="0.420561"></rect>
<rect x="219.375" y="135" width="16.875" height="16.875" stroke="#272727" stroke-width="0.420561"></rect>
<rect x="236.25" y="135" width="16.875" height="16.875" stroke="#272727" stroke-width="0.420561"></rect>
<rect x="253.125" y="135" width="16.875" height="16.875" stroke="#272727" stroke-width="0.420561"></rect>
<rect y="151.875" width="16.875" height="16.875" stroke="#272727" stroke-width="0.420561"></rect>
<rect x="16.875" y="151.875" width="16.875" height="16.875" stroke="#272727" stroke-width="0.420561"></rect>
<rect x="33.75" y="151.875" width="16.875" height="16.875" stroke="#272727" stroke-width="0.420561"></rect>
<rect x="50.625" y="151.875" width="16.875" height="16.875" stroke="#272727" stroke-width="0.420561"></rect>
<rect x="67.5" y="151.875" width="16.875" height="16.875" stroke="#272727" stroke-width="0.420561"></rect>
<rect x="84.375" y="151.875" width="16.875" height="16.875" stroke="#272727" stroke-width="0.420561"></rect>
<rect x="101.25" y="151.875" width="16.875" height="16.875" stroke="#272727" stroke-width="0.420561"></rect>
<rect x="118.125" y="151.875" width="16.875" height="16.875" stroke="#272727" stroke-width="0.420561"></rect>
<rect x="135" y="151.875" width="16.875" height="16.875" stroke="#272727" stroke-width="0.420561"></rect>
<rect x="151.875" y="151.875" width="16.875" height="16.875" stroke="#272727" stroke-width="0.420561"></rect>
<rect x="168.75" y="151.875" width="16.875" height="16.875" stroke="#272727" stroke-width="0.420561"></rect>
<rect x="185.625" y="151.875" width="16.875" height="16.875" stroke="#272727" stroke-width="0.420561"></rect>
<rect x="202.5" y="151.875" width="16.875" height="16.875" stroke="#272727" stroke-width="0.420561"></rect>
<rect x="219.375" y="151.875" width="16.875" height="16.875" stroke="#272727" stroke-width="0.420561"></rect>
<rect x="236.25" y="151.875" width="16.875" height="16.875" stroke="#272727" stroke-width="0.420561"></rect>
<rect x="253.125" y="151.875" width="16.875" height="16.875" stroke="#272727" stroke-width="0.420561"></rect>
<rect y="168.75" width="16.875" height="16.875" stroke="#272727" stroke-width="0.420561"></rect>
<rect x="16.875" y="168.75" width="16.875" height="16.875" stroke="#272727" stroke-width="0.420561"></rect>
<rect x="33.75" y="168.75" width="16.875" height="16.875" stroke="#272727" stroke-width="0.420561"></rect>
<rect x="50.625" y="168.75" width="16.875" height="16.875" stroke="#272727" stroke-width="0.420561"></rect>
<rect x="67.5" y="168.75" width="16.875" height="16.875" stroke="#272727" stroke-width="0.420561"></rect>
<rect x="84.375" y="168.75" width="16.875" height="16.875" stroke="#272727" stroke-width="0.420561"></rect>
<rect x="101.25" y="168.75" width="16.875" height="16.875" stroke="#272727" stroke-width="0.420561"></rect>
<rect x="118.125" y="168.75" width="16.875" height="16.875" stroke="#272727" stroke-width="0.420561"></rect>
<rect x="135" y="168.75" width="16.875" height="16.875" stroke="#272727" stroke-width="0.420561"></rect>
<rect x="151.875" y="168.75" width="16.875" height="16.875" stroke="#272727" stroke-width="0.420561"></rect>
<rect x="168.75" y="168.75" width="16.875" height="16.875" stroke="#272727" stroke-width="0.420561"></rect>
<rect x="185.625" y="168.75" width="16.875" height="16.875" stroke="#272727" stroke-width="0.420561"></rect>
<rect x="202.5" y="168.75" width="16.875" height="16.875" stroke="#272727" stroke-width="0.420561"></rect>
<rect x="219.375" y="168.75" width="16.875" height="16.875" stroke="#272727" stroke-width="0.420561"></rect>
<rect x="236.25" y="168.75" width="16.875" height="16.875" stroke="#272727" stroke-width="0.420561"></rect>
<rect x="253.125" y="168.75" width="16.875" height="16.875" stroke="#272727" stroke-width="0.420561"></rect>
<rect y="185.625" width="16.875" height="16.875" stroke="#272727" stroke-width="0.420561"></rect>
<rect x="16.875" y="185.625" width="16.875" height="16.875" stroke="#272727" stroke-width="0.420561"></rect>
<rect x="33.75" y="185.625" width="16.875" height="16.875" stroke="#272727" stroke-width="0.420561"></rect>
<rect x="50.625" y="185.625" width="16.875" height="16.875" stroke="#272727" stroke-width="0.420561"></rect>
<rect x="67.5" y="185.625" width="16.875" height="16.875" stroke="#272727" stroke-width="0.420561"></rect>
<rect x="84.375" y="185.625" width="16.875" height="16.875" stroke="#272727" stroke-width="0.420561"></rect>
<rect x="101.25" y="185.625" width="16.875" height="16.875" stroke="#272727" stroke-width="0.420561"></rect>
<rect x="118.125" y="185.625" width="16.875" height="16.875" stroke="#272727" stroke-width="0.420561"></rect>
<rect x="135" y="185.625" width="16.875" height="16.875" stroke="#272727" stroke-width="0.420561"></rect>
<rect x="151.875" y="185.625" width="16.875" height="16.875" stroke="#272727" stroke-width="0.420561"></rect>
<rect x="168.75" y="185.625" width="16.875" height="16.875" stroke="#272727" stroke-width="0.420561"></rect>
<rect x="185.625" y="185.625" width="16.875" height="16.875" stroke="#272727" stroke-width="0.420561"></rect>
<rect x="202.5" y="185.625" width="16.875" height="16.875" stroke="#272727" stroke-width="0.420561"></rect>
<rect x="219.375" y="185.625" width="16.875" height="16.875" stroke="#272727" stroke-width="0.420561"></rect>
<rect x="236.25" y="185.625" width="16.875" height="16.875" stroke="#272727" stroke-width="0.420561"></rect>
<rect x="253.125" y="185.625" width="16.875" height="16.875" stroke="#272727" stroke-width="0.420561"></rect>
</g>
<g clip-path="url(#clip4_334_7280)">
<rect x="270" y="101.25" width="16.875" height="16.875" stroke="#272727" stroke-width="0.420561"></rect>
<rect x="286.875" y="101.25" width="16.875" height="16.875" stroke="#272727" stroke-width="0.420561"></rect>
<rect x="303.75" y="101.25" width="16.875" height="16.875" stroke="#272727" stroke-width="0.420561"></rect>
<rect x="320.625" y="101.25" width="16.875" height="16.875" stroke="#272727" stroke-width="0.420561"></rect>
<rect x="337.5" y="101.25" width="16.875" height="16.875" stroke="#272727" stroke-width="0.420561"></rect>
<rect x="354.375" y="101.25" width="16.875" height="16.875" stroke="#272727" stroke-width="0.420561"></rect>
<rect x="371.25" y="101.25" width="16.875" height="16.875" stroke="#272727" stroke-width="0.420561"></rect>
<rect x="388.125" y="101.25" width="16.875" height="16.875" stroke="#272727" stroke-width="0.420561"></rect>
<rect x="405" y="101.25" width="16.875" height="16.875" stroke="#272727" stroke-width="0.420561"></rect>
<rect x="421.875" y="101.25" width="16.875" height="16.875" stroke="#272727" stroke-width="0.420561"></rect>
<rect x="438.75" y="101.25" width="16.875" height="16.875" stroke="#272727" stroke-width="0.420561"></rect>
<rect x="455.625" y="101.25" width="16.875" height="16.875" stroke="#272727" stroke-width="0.420561"></rect>
<rect x="472.5" y="101.25" width="16.875" height="16.875" stroke="#272727" stroke-width="0.420561"></rect>
<rect x="489.375" y="101.25" width="16.875" height="16.875" stroke="#272727" stroke-width="0.420561"></rect>
<rect x="506.25" y="101.25" width="16.875" height="16.875" stroke="#272727" stroke-width="0.420561"></rect>
<rect x="523.125" y="101.25" width="16.875" height="16.875" stroke="#272727" stroke-width="0.420561"></rect>
<rect x="270" y="118.125" width="16.875" height="16.875" stroke="#272727" stroke-width="0.420561"></rect>
<rect x="286.875" y="118.125" width="16.875" height="16.875" stroke="#272727" stroke-width="0.420561"></rect>
<rect x="303.75" y="118.125" width="16.875" height="16.875" stroke="#272727" stroke-width="0.420561"></rect>
<rect x="320.625" y="118.125" width="16.875" height="16.875" stroke="#272727" stroke-width="0.420561"></rect>
<rect x="337.5" y="118.125" width="16.875" height="16.875" stroke="#272727" stroke-width="0.420561"></rect>
<rect x="354.375" y="118.125" width="16.875" height="16.875" stroke="#272727" stroke-width="0.420561"></rect>
<rect x="371.25" y="118.125" width="16.875" height="16.875" stroke="#272727" stroke-width="0.420561"></rect>
<rect x="388.125" y="118.125" width="16.875" height="16.875" stroke="#272727" stroke-width="0.420561"></rect>
<rect x="405" y="118.125" width="16.875" height="16.875" stroke="#272727" stroke-width="0.420561"></rect>
<rect x="421.875" y="118.125" width="16.875" height="16.875" stroke="#272727" stroke-width="0.420561"></rect>
<rect x="438.75" y="118.125" width="16.875" height="16.875" stroke="#272727" stroke-width="0.420561"></rect>
<rect x="455.625" y="118.125" width="16.875" height="16.875" stroke="#272727" stroke-width="0.420561"></rect>
<rect x="472.5" y="118.125" width="16.875" height="16.875" stroke="#272727" stroke-width="0.420561"></rect>
<rect x="489.375" y="118.125" width="16.875" height="16.875" stroke="#272727" stroke-width="0.420561"></rect>
<rect x="506.25" y="118.125" width="16.875" height="16.875" stroke="#272727" stroke-width="0.420561"></rect>
<rect x="523.125" y="118.125" width="16.875" height="16.875" stroke="#272727" stroke-width="0.420561"></rect>
<rect x="270" y="135" width="16.875" height="16.875" stroke="#272727" stroke-width="0.420561"></rect>
<rect x="286.875" y="135" width="16.875" height="16.875" stroke="#272727" stroke-width="0.420561"></rect>
<rect x="303.75" y="135" width="16.875" height="16.875" stroke="#272727" stroke-width="0.420561"></rect>
<rect x="320.625" y="135" width="16.875" height="16.875" stroke="#272727" stroke-width="0.420561"></rect>
<rect x="337.5" y="135" width="16.875" height="16.875" stroke="#272727" stroke-width="0.420561"></rect>
<rect x="354.375" y="135" width="16.875" height="16.875" stroke="#272727" stroke-width="0.420561"></rect>
<rect x="371.25" y="135" width="16.875" height="16.875" stroke="#272727" stroke-width="0.420561"></rect>
<rect x="388.125" y="135" width="16.875" height="16.875" stroke="#272727" stroke-width="0.420561"></rect>
<rect x="405" y="135" width="16.875" height="16.875" stroke="#272727" stroke-width="0.420561"></rect>
<rect x="421.875" y="135" width="16.875" height="16.875" stroke="#272727" stroke-width="0.420561"></rect>
<rect x="438.75" y="135" width="16.875" height="16.875" stroke="#272727" stroke-width="0.420561"></rect>
<rect x="455.625" y="135" width="16.875" height="16.875" stroke="#272727" stroke-width="0.420561"></rect>
<rect x="472.5" y="135" width="16.875" height="16.875" stroke="#272727" stroke-width="0.420561"></rect>
<rect x="489.375" y="135" width="16.875" height="16.875" stroke="#272727" stroke-width="0.420561"></rect>
<rect x="506.25" y="135" width="16.875" height="16.875" stroke="#272727" stroke-width="0.420561"></rect>
<rect x="523.125" y="135" width="16.875" height="16.875" stroke="#272727" stroke-width="0.420561"></rect>
<rect x="270" y="151.875" width="16.875" height="16.875" stroke="#272727" stroke-width="0.420561"></rect>
<rect x="286.875" y="151.875" width="16.875" height="16.875" stroke="#272727" stroke-width="0.420561"></rect>
<rect x="303.75" y="151.875" width="16.875" height="16.875" stroke="#272727" stroke-width="0.420561"></rect>
<rect x="320.625" y="151.875" width="16.875" height="16.875" stroke="#272727" stroke-width="0.420561"></rect>
<rect x="337.5" y="151.875" width="16.875" height="16.875" stroke="#272727" stroke-width="0.420561"></rect>
<rect x="354.375" y="151.875" width="16.875" height="16.875" stroke="#272727" stroke-width="0.420561"></rect>
<rect x="371.25" y="151.875" width="16.875" height="16.875" stroke="#272727" stroke-width="0.420561"></rect>
<rect x="388.125" y="151.875" width="16.875" height="16.875" stroke="#272727" stroke-width="0.420561"></rect>
<rect x="405" y="151.875" width="16.875" height="16.875" stroke="#272727" stroke-width="0.420561"></rect>
<rect x="421.875" y="151.875" width="16.875" height="16.875" stroke="#272727" stroke-width="0.420561"></rect>
<rect x="438.75" y="151.875" width="16.875" height="16.875" stroke="#272727" stroke-width="0.420561"></rect>
<rect x="455.625" y="151.875" width="16.875" height="16.875" stroke="#272727" stroke-width="0.420561"></rect>
<rect x="472.5" y="151.875" width="16.875" height="16.875" stroke="#272727" stroke-width="0.420561"></rect>
<rect x="489.375" y="151.875" width="16.875" height="16.875" stroke="#272727" stroke-width="0.420561"></rect>
<rect x="506.25" y="151.875" width="16.875" height="16.875" stroke="#272727" stroke-width="0.420561"></rect>
<rect x="523.125" y="151.875" width="16.875" height="16.875" stroke="#272727" stroke-width="0.420561"></rect>
<rect x="270" y="168.75" width="16.875" height="16.875" stroke="#272727" stroke-width="0.420561"></rect>
<rect x="286.875" y="168.75" width="16.875" height="16.875" stroke="#272727" stroke-width="0.420561"></rect>
<rect x="303.75" y="168.75" width="16.875" height="16.875" stroke="#272727" stroke-width="0.420561"></rect>
<rect x="320.625" y="168.75" width="16.875" height="16.875" stroke="#272727" stroke-width="0.420561"></rect>
<rect x="337.5" y="168.75" width="16.875" height="16.875" stroke="#272727" stroke-width="0.420561"></rect>
<rect x="354.375" y="168.75" width="16.875" height="16.875" stroke="#272727" stroke-width="0.420561"></rect>
<rect x="371.25" y="168.75" width="16.875" height="16.875" stroke="#272727" stroke-width="0.420561"></rect>
<rect x="388.125" y="168.75" width="16.875" height="16.875" stroke="#272727" stroke-width="0.420561"></rect>
<rect x="405" y="168.75" width="16.875" height="16.875" stroke="#272727" stroke-width="0.420561"></rect>
<rect x="421.875" y="168.75" width="16.875" height="16.875" stroke="#272727" stroke-width="0.420561"></rect>
<rect x="438.75" y="168.75" width="16.875" height="16.875" stroke="#272727" stroke-width="0.420561"></rect>
<rect x="455.625" y="168.75" width="16.875" height="16.875" stroke="#272727" stroke-width="0.420561"></rect>
<rect x="472.5" y="168.75" width="16.875" height="16.875" stroke="#272727" stroke-width="0.420561"></rect>
<rect x="489.375" y="168.75" width="16.875" height="16.875" stroke="#272727" stroke-width="0.420561"></rect>
<rect x="506.25" y="168.75" width="16.875" height="16.875" stroke="#272727" stroke-width="0.420561"></rect>
<rect x="523.125" y="168.75" width="16.875" height="16.875" stroke="#272727" stroke-width="0.420561"></rect>
<rect x="270" y="185.625" width="16.875" height="16.875" stroke="#272727" stroke-width="0.420561"></rect>
<rect x="286.875" y="185.625" width="16.875" height="16.875" stroke="#272727" stroke-width="0.420561"></rect>
<rect x="303.75" y="185.625" width="16.875" height="16.875" stroke="#272727" stroke-width="0.420561"></rect>
<rect x="320.625" y="185.625" width="16.875" height="16.875" stroke="#272727" stroke-width="0.420561"></rect>
<rect x="337.5" y="185.625" width="16.875" height="16.875" stroke="#272727" stroke-width="0.420561"></rect>
<rect x="354.375" y="185.625" width="16.875" height="16.875" stroke="#272727" stroke-width="0.420561"></rect>
<rect x="371.25" y="185.625" width="16.875" height="16.875" stroke="#272727" stroke-width="0.420561"></rect>
<rect x="388.125" y="185.625" width="16.875" height="16.875" stroke="#272727" stroke-width="0.420561"></rect>
<rect x="405" y="185.625" width="16.875" height="16.875" stroke="#272727" stroke-width="0.420561"></rect>
<rect x="421.875" y="185.625" width="16.875" height="16.875" stroke="#272727" stroke-width="0.420561"></rect>
<rect x="438.75" y="185.625" width="16.875" height="16.875" stroke="#272727" stroke-width="0.420561"></rect>
<rect x="455.625" y="185.625" width="16.875" height="16.875" stroke="#272727" stroke-width="0.420561"></rect>
<rect x="472.5" y="185.625" width="16.875" height="16.875" stroke="#272727" stroke-width="0.420561"></rect>
<rect x="489.375" y="185.625" width="16.875" height="16.875" stroke="#272727" stroke-width="0.420561"></rect>
<rect x="506.25" y="185.625" width="16.875" height="16.875" stroke="#272727" stroke-width="0.420561"></rect>
<rect x="523.125" y="185.625" width="16.875" height="16.875" stroke="#272727" stroke-width="0.420561"></rect>
</g>
<g clip-path="url(#clip5_334_7280)">
<rect y="202.5" width="16.875" height="16.875" stroke="#272727" stroke-width="0.420561"></rect>
<rect x="16.875" y="202.5" width="16.875" height="16.875" stroke="#272727" stroke-width="0.420561"></rect>
<rect x="33.75" y="202.5" width="16.875" height="16.875" stroke="#272727" stroke-width="0.420561"></rect>
<rect x="50.625" y="202.5" width="16.875" height="16.875" stroke="#272727" stroke-width="0.420561"></rect>
<rect x="67.5" y="202.5" width="16.875" height="16.875" stroke="#272727" stroke-width="0.420561"></rect>
<rect x="84.375" y="202.5" width="16.875" height="16.875" stroke="#272727" stroke-width="0.420561"></rect>
<rect x="101.25" y="202.5" width="16.875" height="16.875" stroke="#272727" stroke-width="0.420561"></rect>
<rect x="118.125" y="202.5" width="16.875" height="16.875" stroke="#272727" stroke-width="0.420561"></rect>
<rect x="135" y="202.5" width="16.875" height="16.875" stroke="#272727" stroke-width="0.420561"></rect>
<rect x="151.875" y="202.5" width="16.875" height="16.875" stroke="#272727" stroke-width="0.420561"></rect>
<rect x="168.75" y="202.5" width="16.875" height="16.875" stroke="#272727" stroke-width="0.420561"></rect>
<rect x="185.625" y="202.5" width="16.875" height="16.875" stroke="#272727" stroke-width="0.420561"></rect>
<rect x="202.5" y="202.5" width="16.875" height="16.875" stroke="#272727" stroke-width="0.420561"></rect>
<rect x="219.375" y="202.5" width="16.875" height="16.875" stroke="#272727" stroke-width="0.420561"></rect>
<rect x="236.25" y="202.5" width="16.875" height="16.875" stroke="#272727" stroke-width="0.420561"></rect>
<rect x="253.125" y="202.5" width="16.875" height="16.875" stroke="#272727" stroke-width="0.420561"></rect>
</g>
<g clip-path="url(#clip6_334_7280)">
<rect x="270" y="202.5" width="16.875" height="16.875" stroke="#272727" stroke-width="0.420561"></rect>
<rect x="286.875" y="202.5" width="16.875" height="16.875" stroke="#272727" stroke-width="0.420561"></rect>
<rect x="303.75" y="202.5" width="16.875" height="16.875" stroke="#272727" stroke-width="0.420561"></rect>
<rect x="320.625" y="202.5" width="16.875" height="16.875" stroke="#272727" stroke-width="0.420561"></rect>
<rect x="337.5" y="202.5" width="16.875" height="16.875" stroke="#272727" stroke-width="0.420561"></rect>
<rect x="354.375" y="202.5" width="16.875" height="16.875" stroke="#272727" stroke-width="0.420561"></rect>
<rect x="371.25" y="202.5" width="16.875" height="16.875" stroke="#272727" stroke-width="0.420561"></rect>
<rect x="388.125" y="202.5" width="16.875" height="16.875" stroke="#272727" stroke-width="0.420561"></rect>
<rect x="405" y="202.5" width="16.875" height="16.875" stroke="#272727" stroke-width="0.420561"></rect>
<rect x="421.875" y="202.5" width="16.875" height="16.875" stroke="#272727" stroke-width="0.420561"></rect>
<rect x="438.75" y="202.5" width="16.875" height="16.875" stroke="#272727" stroke-width="0.420561"></rect>
<rect x="455.625" y="202.5" width="16.875" height="16.875" stroke="#272727" stroke-width="0.420561"></rect>
<rect x="472.5" y="202.5" width="16.875" height="16.875" stroke="#272727" stroke-width="0.420561"></rect>
<rect x="489.375" y="202.5" width="16.875" height="16.875" stroke="#272727" stroke-width="0.420561"></rect>
<rect x="506.25" y="202.5" width="16.875" height="16.875" stroke="#272727" stroke-width="0.420561"></rect>
<rect x="523.125" y="202.5" width="16.875" height="16.875" stroke="#272727" stroke-width="0.420561"></rect>
</g>
<rect width="540" height="225" fill="url(#paint0_radial_334_7280)"></rect>
<g clip-path="url(#clip7_334_7280)">
<rect x="270" y="1" width="269" height="186" fill="#141414"></rect>
<path d="M270 34.1238H539.315" stroke="#272727"></path>
<path d="M289.488 14.7599C291.28 14.7599 292.708 16.1739 292.708 18.5259C292.708 20.8779 291.28 22.2919 289.488 22.2919C288.34 22.2919 287.668 21.7879 287.248 21.1719H287.22V24.5739H286.1V14.9559H287.22V15.8379H287.248C287.668 15.2919 288.34 14.7599 289.488 14.7599ZM289.376 21.3119C290.846 21.3119 291.532 19.9259 291.532 18.5259C291.532 17.1259 290.846 15.7399 289.376 15.7399C288.046 15.7399 287.22 16.8459 287.22 18.5259C287.22 20.2059 288.046 21.3119 289.376 21.3119ZM297.209 14.7599C297.475 14.7599 297.671 14.7739 297.867 14.8019V15.9219C297.699 15.8939 297.573 15.8799 297.405 15.8799C296.089 15.8799 295.207 16.9159 295.207 18.2879V22.0959H294.087V14.9559H295.207V16.3699H295.235C295.613 15.4319 296.187 14.7599 297.209 14.7599ZM305.014 18.2599C305.014 18.4699 305.014 18.7079 305 18.8199H299.414C299.442 20.0799 300.142 21.3399 301.724 21.3399C303.124 21.3399 303.656 20.4019 303.782 19.8979H304.916C304.552 21.2279 303.544 22.3059 301.71 22.3059C299.456 22.3059 298.238 20.6819 298.238 18.5119C298.238 16.2299 299.596 14.7459 301.71 14.7459C303.796 14.7459 305.014 16.1739 305.014 18.2599ZM299.414 17.8399H303.824C303.824 16.6639 302.984 15.7119 301.654 15.7119C300.422 15.7119 299.484 16.5939 299.414 17.8399ZM309.343 22.0959H308.069L305.507 14.9559H306.739L308.727 20.9759H308.741L310.701 14.9559H311.905L309.343 22.0959ZM314.21 13.5699H312.866V12.2259H314.21V13.5699ZM314.098 22.0959H312.978V14.9559H314.098V22.0959ZM322.264 18.2599C322.264 18.4699 322.264 18.7079 322.25 18.8199H316.664C316.692 20.0799 317.392 21.3399 318.974 21.3399C320.374 21.3399 320.906 20.4019 321.032 19.8979H322.166C321.802 21.2279 320.794 22.3059 318.96 22.3059C316.706 22.3059 315.488 20.6819 315.488 18.5119C315.488 16.2299 316.846 14.7459 318.96 14.7459C321.046 14.7459 322.264 16.1739 322.264 18.2599ZM316.664 17.8399H321.074C321.074 16.6639 320.234 15.7119 318.904 15.7119C317.672 15.7119 316.734 16.5939 316.664 17.8399ZM326.313 22.0959H325.095L322.827 14.9559H324.087L325.725 20.8359H325.753L327.321 14.9559H328.539L330.107 20.8359H330.135L331.787 14.9559H333.005L330.723 22.0959H329.505L327.923 16.2999H327.895L326.313 22.0959ZM337.42 19.0859H333.668V17.9659H337.42V19.0859ZM345.352 18.2599C345.352 18.4699 345.352 18.7079 345.338 18.8199H339.752C339.78 20.0799 340.48 21.3399 342.062 21.3399C343.462 21.3399 343.994 20.4019 344.12 19.8979H345.254C344.89 21.2279 343.882 22.3059 342.048 22.3059C339.794 22.3059 338.576 20.6819 338.576 18.5119C338.576 16.2299 339.934 14.7459 342.048 14.7459C344.134 14.7459 345.352 16.1739 345.352 18.2599ZM339.752 17.8399H344.162C344.162 16.6639 343.322 15.7119 341.992 15.7119C340.76 15.7119 339.822 16.5939 339.752 17.8399ZM350.223 14.7599C351.525 14.7599 352.617 15.4739 352.617 17.1119V22.0959H351.497V17.3919C351.497 16.4679 351.063 15.7399 349.943 15.7399C348.683 15.7399 347.843 16.5379 347.843 17.6439V22.0959H346.723V14.9559H347.843V15.8099H347.871C348.249 15.3059 349.005 14.7599 350.223 14.7599ZM357.341 22.0959H356.067L353.505 14.9559H354.737L356.725 20.9759H356.739L358.699 14.9559H359.903L357.341 22.0959Z" fill="white"></path>
<path d="M295.479 52.6851C293.716 52.6851 291.991 53.2081 290.525 54.188C289.058 55.1679 287.915 56.5607 287.24 58.1902C286.565 59.8197 286.389 61.6128 286.733 63.3426C287.077 65.0725 287.926 66.6615 289.173 67.9087C290.421 69.1559 292.01 70.0052 293.74 70.3493C295.469 70.6934 297.263 70.5168 298.892 69.8419C300.522 69.1669 301.914 68.0239 302.894 66.5573C303.874 65.0908 304.397 63.3666 304.397 61.6029C304.397 59.2377 303.458 56.9694 301.785 55.297C300.113 53.6246 297.844 52.6851 295.479 52.6851ZM294.205 65.1641L291.02 61.9792L292.034 60.9659L294.205 63.1375L298.925 58.4179L299.942 59.4281L294.205 65.1641Z" fill="url(#paint1_linear_334_7280)" fill-opacity="0.8"></path>
<path d="M318.229 66.603H317.011L314.743 59.463H316.003L317.641 65.343H317.669L319.237 59.463H320.455L322.023 65.343H322.051L323.703 59.463H324.921L322.639 66.603H321.421L319.839 60.807H319.811L318.229 66.603ZM332.234 62.767C332.234 62.977 332.234 63.215 332.22 63.327H326.634C326.662 64.587 327.362 65.847 328.944 65.847C330.344 65.847 330.876 64.909 331.002 64.405H332.136C331.772 65.735 330.764 66.813 328.93 66.813C326.676 66.813 325.458 65.189 325.458 63.019C325.458 60.737 326.816 59.253 328.93 59.253C331.016 59.253 332.234 60.681 332.234 62.767ZM326.634 62.347H331.044C331.044 61.171 330.204 60.219 328.874 60.219C327.642 60.219 326.704 61.101 326.634 62.347ZM336.993 59.267C338.785 59.267 340.213 60.681 340.213 63.033C340.213 65.385 338.785 66.799 336.993 66.799C335.845 66.799 335.173 66.295 334.753 65.679H334.725V66.603H333.605V56.593H334.725V60.345H334.753C335.173 59.799 335.845 59.267 336.993 59.267ZM336.881 65.819C338.351 65.819 339.037 64.433 339.037 63.033C339.037 61.633 338.351 60.247 336.881 60.247C335.551 60.247 334.725 61.353 334.725 63.033C334.725 64.713 335.551 65.819 336.881 65.819Z" fill="white"></path>
<path d="M470.427 66.603H469.125L472.821 56.593H474.235L477.959 66.603H476.601L475.719 64.097H471.309L470.427 66.603ZM473.507 57.755L471.729 62.977H475.313L473.535 57.755H473.507ZM481.606 66.603H480.332L477.77 59.463H479.002L480.99 65.483H481.004L482.964 59.463H484.168L481.606 66.603ZM486.968 66.799C485.526 66.799 484.616 65.973 484.616 64.769C484.616 63.131 485.82 62.683 487.668 62.347C488.886 62.123 489.446 61.983 489.446 61.283C489.446 60.723 489.138 60.233 487.962 60.233C486.604 60.233 486.212 60.639 486.142 61.675H484.966C485.036 60.303 485.904 59.253 488.004 59.253C489.334 59.253 490.538 59.813 490.538 61.563V64.993C490.538 65.553 490.622 65.833 490.902 65.833C490.944 65.833 490.986 65.833 491.07 65.819V66.603C490.888 66.645 490.72 66.673 490.524 66.673C489.908 66.673 489.53 66.435 489.46 65.553H489.432C488.97 66.323 488.158 66.799 486.968 66.799ZM487.08 65.819C488.424 65.819 489.446 65.217 489.446 63.845V62.711C489.236 62.935 488.536 63.117 487.766 63.271C486.38 63.551 485.792 63.887 485.792 64.713C485.792 65.413 486.156 65.819 487.08 65.819ZM493.667 58.077H492.323V56.733H493.667V58.077ZM493.555 66.603H492.435V59.463H493.555V66.603ZM496.443 66.603H495.323V56.593H496.443V66.603ZM500.185 66.799C498.743 66.799 497.833 65.973 497.833 64.769C497.833 63.131 499.037 62.683 500.885 62.347C502.103 62.123 502.663 61.983 502.663 61.283C502.663 60.723 502.355 60.233 501.179 60.233C499.821 60.233 499.429 60.639 499.359 61.675H498.183C498.253 60.303 499.121 59.253 501.221 59.253C502.551 59.253 503.755 59.813 503.755 61.563V64.993C503.755 65.553 503.839 65.833 504.119 65.833C504.161 65.833 504.203 65.833 504.287 65.819V66.603C504.105 66.645 503.937 66.673 503.741 66.673C503.125 66.673 502.747 66.435 502.677 65.553H502.649C502.187 66.323 501.375 66.799 500.185 66.799ZM500.297 65.819C501.641 65.819 502.663 65.217 502.663 63.845V62.711C502.453 62.935 501.753 63.117 500.983 63.271C499.597 63.551 499.009 63.887 499.009 64.713C499.009 65.413 499.373 65.819 500.297 65.819ZM509.04 59.267C510.832 59.267 512.26 60.681 512.26 63.033C512.26 65.385 510.832 66.799 509.04 66.799C507.892 66.799 507.22 66.295 506.8 65.679H506.772V66.603H505.652V56.593H506.772V60.345H506.8C507.22 59.799 507.892 59.267 509.04 59.267ZM508.928 65.819C510.398 65.819 511.084 64.433 511.084 63.033C511.084 61.633 510.398 60.247 508.928 60.247C507.598 60.247 506.772 61.353 506.772 63.033C506.772 64.713 507.598 65.819 508.928 65.819ZM514.76 66.603H513.64V56.593H514.76V66.603ZM522.926 62.767C522.926 62.977 522.926 63.215 522.912 63.327H517.326C517.354 64.587 518.054 65.847 519.636 65.847C521.036 65.847 521.568 64.909 521.694 64.405H522.828C522.464 65.735 521.456 66.813 519.622 66.813C517.368 66.813 516.15 65.189 516.15 63.019C516.15 60.737 517.508 59.253 519.622 59.253C521.708 59.253 522.926 60.681 522.926 62.767ZM517.326 62.347H521.736C521.736 61.171 520.896 60.219 519.566 60.219C518.334 60.219 517.396 61.101 517.326 62.347Z" fill="#B3B3B3"></path>
<path d="M295.479 85.0686C293.716 85.0686 291.991 85.5916 290.525 86.5715C289.058 87.5514 287.915 88.9442 287.24 90.5737C286.565 92.2032 286.389 93.9963 286.733 95.7262C287.077 97.4561 287.926 99.0451 289.173 100.292C290.421 101.539 292.01 102.389 293.74 102.733C295.469 103.077 297.263 102.9 298.892 102.225C300.522 101.55 301.914 100.407 302.894 98.9409C303.874 97.4744 304.397 95.7502 304.397 93.9864C304.397 91.6213 303.458 89.353 301.785 87.6806C300.113 86.0082 297.844 85.0686 295.479 85.0686ZM294.205 97.5477L291.02 94.3627L292.034 93.3494L294.205 95.521L298.925 90.8015L299.942 91.8117L294.205 97.5477Z" fill="url(#paint2_linear_334_7280)" fill-opacity="0.8"></path>
<path d="M317.375 99.1826C315.933 99.1826 315.023 98.3566 315.023 97.1526C315.023 95.5146 316.227 95.0666 318.075 94.7306C319.293 94.5066 319.853 94.3666 319.853 93.6666C319.853 93.1066 319.545 92.6166 318.369 92.6166C317.011 92.6166 316.619 93.0226 316.549 94.0586H315.373C315.443 92.6866 316.311 91.6366 318.411 91.6366C319.741 91.6366 320.945 92.1966 320.945 93.9466V97.3766C320.945 97.9366 321.029 98.2166 321.309 98.2166C321.351 98.2166 321.393 98.2166 321.477 98.2026V98.9866C321.295 99.0286 321.127 99.0566 320.931 99.0566C320.315 99.0566 319.937 98.8186 319.867 97.9366H319.839C319.377 98.7066 318.565 99.1826 317.375 99.1826ZM317.487 98.2026C318.831 98.2026 319.853 97.6006 319.853 96.2286V95.0946C319.643 95.3186 318.943 95.5006 318.173 95.6546C316.787 95.9346 316.199 96.2706 316.199 97.0966C316.199 97.7966 316.563 98.2026 317.487 98.2026ZM326.23 91.6506C328.022 91.6506 329.45 93.0646 329.45 95.4166C329.45 97.7686 328.022 99.1826 326.23 99.1826C325.082 99.1826 324.41 98.6786 323.99 98.0626H323.962V101.465H322.842V91.8466H323.962V92.7286H323.99C324.41 92.1826 325.082 91.6506 326.23 91.6506ZM326.118 98.2026C327.588 98.2026 328.274 96.8166 328.274 95.4166C328.274 94.0166 327.588 92.6306 326.118 92.6306C324.788 92.6306 323.962 93.7366 323.962 95.4166C323.962 97.0966 324.788 98.2026 326.118 98.2026ZM332.061 90.4606H330.717V89.1166H332.061V90.4606ZM331.949 98.9866H330.829V91.8466H331.949V98.9866Z" fill="white"></path>
<path d="M470.427 98.9866H469.125L472.821 88.9766H474.235L477.959 98.9866H476.601L475.719 96.4806H471.309L470.427 98.9866ZM473.507 90.1386L471.729 95.3606H475.313L473.535 90.1386H473.507ZM481.606 98.9866H480.332L477.77 91.8466H479.002L480.99 97.8666H481.004L482.964 91.8466H484.168L481.606 98.9866ZM486.968 99.1826C485.526 99.1826 484.616 98.3566 484.616 97.1526C484.616 95.5146 485.82 95.0666 487.668 94.7306C488.886 94.5066 489.446 94.3666 489.446 93.6666C489.446 93.1066 489.138 92.6166 487.962 92.6166C486.604 92.6166 486.212 93.0226 486.142 94.0586H484.966C485.036 92.6866 485.904 91.6366 488.004 91.6366C489.334 91.6366 490.538 92.1966 490.538 93.9466V97.3766C490.538 97.9366 490.622 98.2166 490.902 98.2166C490.944 98.2166 490.986 98.2166 491.07 98.2026V98.9866C490.888 99.0286 490.72 99.0566 490.524 99.0566C489.908 99.0566 489.53 98.8186 489.46 97.9366H489.432C488.97 98.7066 488.158 99.1826 486.968 99.1826ZM487.08 98.2026C488.424 98.2026 489.446 97.6006 489.446 96.2286V95.0946C489.236 95.3186 488.536 95.5006 487.766 95.6546C486.38 95.9346 485.792 96.2706 485.792 97.0966C485.792 97.7966 486.156 98.2026 487.08 98.2026ZM493.667 90.4606H492.323V89.1166H493.667V90.4606ZM493.555 98.9866H492.435V91.8466H493.555V98.9866ZM496.443 98.9866H495.323V88.9766H496.443V98.9866ZM500.185 99.1826C498.743 99.1826 497.833 98.3566 497.833 97.1526C497.833 95.5146 499.037 95.0666 500.885 94.7306C502.103 94.5066 502.663 94.3666 502.663 93.6666C502.663 93.1066 502.355 92.6166 501.179 92.6166C499.821 92.6166 499.429 93.0226 499.359 94.0586H498.183C498.253 92.6866 499.121 91.6366 501.221 91.6366C502.551 91.6366 503.755 92.1966 503.755 93.9466V97.3766C503.755 97.9366 503.839 98.2166 504.119 98.2166C504.161 98.2166 504.203 98.2166 504.287 98.2026V98.9866C504.105 99.0286 503.937 99.0566 503.741 99.0566C503.125 99.0566 502.747 98.8186 502.677 97.9366H502.649C502.187 98.7066 501.375 99.1826 500.185 99.1826ZM500.297 98.2026C501.641 98.2026 502.663 97.6006 502.663 96.2286V95.0946C502.453 95.3186 501.753 95.5006 500.983 95.6546C499.597 95.9346 499.009 96.2706 499.009 97.0966C499.009 97.7966 499.373 98.2026 500.297 98.2026ZM509.04 91.6506C510.832 91.6506 512.26 93.0646 512.26 95.4166C512.26 97.7686 510.832 99.1826 509.04 99.1826C507.892 99.1826 507.22 98.6786 506.8 98.0626H506.772V98.9866H505.652V88.9766H506.772V92.7286H506.8C507.22 92.1826 507.892 91.6506 509.04 91.6506ZM508.928 98.2026C510.398 98.2026 511.084 96.8166 511.084 95.4166C511.084 94.0166 510.398 92.6306 508.928 92.6306C507.598 92.6306 506.772 93.7366 506.772 95.4166C506.772 97.0966 507.598 98.2026 508.928 98.2026ZM514.76 98.9866H513.64V88.9766H514.76V98.9866ZM522.926 95.1506C522.926 95.3606 522.926 95.5986 522.912 95.7106H517.326C517.354 96.9706 518.054 98.2306 519.636 98.2306C521.036 98.2306 521.568 97.2926 521.694 96.7886H522.828C522.464 98.1186 521.456 99.1966 519.622 99.1966C517.368 99.1966 516.15 97.5726 516.15 95.4026C516.15 93.1206 517.508 91.6366 519.622 91.6366C521.708 91.6366 522.926 93.0646 522.926 95.1506ZM517.326 94.7306H521.736C521.736 93.5546 520.896 92.6026 519.566 92.6026C518.334 92.6026 517.396 93.4846 517.326 94.7306Z" fill="#B3B3B3"></path>
<path d="M295.479 117.452C293.716 117.452 291.991 117.975 290.525 118.955C289.058 119.935 287.915 121.328 287.24 122.957C286.565 124.587 286.389 126.38 286.733 128.11C287.077 129.84 287.926 131.429 289.173 132.676C290.421 133.923 292.01 134.772 293.74 135.116C295.469 135.461 297.263 135.284 298.892 134.609C300.522 133.934 301.914 132.791 302.894 131.324C303.874 129.858 304.397 128.134 304.397 126.37C304.397 124.005 303.458 121.737 301.785 120.064C300.113 118.392 297.844 117.452 295.479 117.452ZM294.205 129.931L291.02 126.746L292.034 125.733L294.205 127.905L298.925 123.185L299.942 124.195L294.205 129.931Z" fill="url(#paint3_linear_334_7280)" fill-opacity="0.8"></path>
<path d="M320.511 125.154V121.36H321.631V131.37H320.511V130.488H320.483C320.063 131.034 319.391 131.566 318.243 131.566C316.451 131.566 315.023 130.152 315.023 127.8C315.023 125.448 316.451 124.034 318.243 124.034C319.391 124.034 320.063 124.538 320.483 125.154H320.511ZM318.355 130.586C319.685 130.586 320.511 129.48 320.511 127.8C320.511 126.12 319.685 125.014 318.355 125.014C316.885 125.014 316.199 126.4 316.199 127.8C316.199 129.2 316.885 130.586 318.355 130.586ZM325.363 131.566C323.921 131.566 323.011 130.74 323.011 129.536C323.011 127.898 324.215 127.45 326.063 127.114C327.281 126.89 327.841 126.75 327.841 126.05C327.841 125.49 327.533 125 326.357 125C324.999 125 324.607 125.406 324.537 126.442H323.361C323.431 125.07 324.299 124.02 326.399 124.02C327.729 124.02 328.933 124.58 328.933 126.33V129.76C328.933 130.32 329.017 130.6 329.297 130.6C329.339 130.6 329.381 130.6 329.465 130.586V131.37C329.283 131.412 329.115 131.44 328.919 131.44C328.303 131.44 327.925 131.202 327.855 130.32H327.827C327.365 131.09 326.553 131.566 325.363 131.566ZM325.475 130.586C326.819 130.586 327.841 129.984 327.841 128.612V127.478C327.631 127.702 326.931 127.884 326.161 128.038C324.775 128.318 324.187 128.654 324.187 129.48C324.187 130.18 324.551 130.586 325.475 130.586ZM333.66 124.23V125.21H332.26V129.508C332.26 130.264 332.442 130.46 333.072 130.46C333.31 130.46 333.422 130.446 333.66 130.418V131.37C333.338 131.426 333.17 131.44 332.918 131.44C331.868 131.44 331.14 131.076 331.14 129.452V125.21H330.09V124.23H331.14V121.85H332.26V124.23H333.66ZM336.949 131.566C335.507 131.566 334.597 130.74 334.597 129.536C334.597 127.898 335.801 127.45 337.649 127.114C338.867 126.89 339.427 126.75 339.427 126.05C339.427 125.49 339.119 125 337.943 125C336.585 125 336.193 125.406 336.123 126.442H334.947C335.017 125.07 335.885 124.02 337.985 124.02C339.315 124.02 340.519 124.58 340.519 126.33V129.76C340.519 130.32 340.603 130.6 340.883 130.6C340.925 130.6 340.967 130.6 341.051 130.586V131.37C340.869 131.412 340.701 131.44 340.505 131.44C339.889 131.44 339.511 131.202 339.441 130.32H339.413C338.951 131.09 338.139 131.566 336.949 131.566ZM337.061 130.586C338.405 130.586 339.427 129.984 339.427 128.612V127.478C339.217 127.702 338.517 127.884 337.747 128.038C336.361 128.318 335.773 128.654 335.773 129.48C335.773 130.18 336.137 130.586 337.061 130.586ZM345.804 124.034C347.596 124.034 349.024 125.448 349.024 127.8C349.024 130.152 347.596 131.566 345.804 131.566C344.656 131.566 343.984 131.062 343.564 130.446H343.536V131.37H342.416V121.36H343.536V125.112H343.564C343.984 124.566 344.656 124.034 345.804 124.034ZM345.692 130.586C347.162 130.586 347.848 129.2 347.848 127.8C347.848 126.4 347.162 125.014 345.692 125.014C344.362 125.014 343.536 126.12 343.536 127.8C343.536 129.48 344.362 130.586 345.692 130.586ZM352.378 131.566C350.936 131.566 350.026 130.74 350.026 129.536C350.026 127.898 351.23 127.45 353.078 127.114C354.296 126.89 354.856 126.75 354.856 126.05C354.856 125.49 354.548 125 353.372 125C352.014 125 351.622 125.406 351.552 126.442H350.376C350.446 125.07 351.314 124.02 353.414 124.02C354.744 124.02 355.948 124.58 355.948 126.33V129.76C355.948 130.32 356.032 130.6 356.312 130.6C356.354 130.6 356.396 130.6 356.48 130.586V131.37C356.298 131.412 356.13 131.44 355.934 131.44C355.318 131.44 354.94 131.202 354.87 130.32H354.842C354.38 131.09 353.568 131.566 352.378 131.566ZM352.49 130.586C353.834 130.586 354.856 129.984 354.856 128.612V127.478C354.646 127.702 353.946 127.884 353.176 128.038C351.79 128.318 351.202 128.654 351.202 129.48C351.202 130.18 351.566 130.586 352.49 130.586ZM360.546 131.566C358.488 131.566 357.382 130.46 357.34 128.99H358.516C358.572 129.858 359.076 130.586 360.546 130.586C361.918 130.586 362.24 129.956 362.24 129.41C362.24 128.43 361.218 128.332 360.336 128.136C359.09 127.856 357.62 127.52 357.62 126.036C357.62 124.832 358.586 124.034 360.224 124.034C362.072 124.034 363.024 125.042 363.136 126.274H361.96C361.848 125.728 361.568 125.014 360.238 125.014C359.23 125.014 358.796 125.42 358.796 125.994C358.796 126.82 359.706 126.904 360.7 127.128C361.974 127.422 363.416 127.786 363.416 129.368C363.416 130.712 362.366 131.566 360.546 131.566ZM371.082 127.534C371.082 127.744 371.082 127.982 371.068 128.094H365.482C365.51 129.354 366.21 130.614 367.792 130.614C369.192 130.614 369.724 129.676 369.85 129.172H370.984C370.62 130.502 369.612 131.58 367.778 131.58C365.524 131.58 364.306 129.956 364.306 127.786C364.306 125.504 365.664 124.02 367.778 124.02C369.864 124.02 371.082 125.448 371.082 127.534ZM365.482 127.114H369.892C369.892 125.938 369.052 124.986 367.722 124.986C366.49 124.986 365.552 125.868 365.482 127.114Z" fill="white"></path>
<path d="M470.427 131.37H469.125L472.821 121.36H474.235L477.959 131.37H476.601L475.719 128.864H471.309L470.427 131.37ZM473.507 122.522L471.729 127.744H475.313L473.535 122.522H473.507ZM481.606 131.37H480.332L477.77 124.23H479.002L480.99 130.25H481.004L482.964 124.23H484.168L481.606 131.37ZM486.968 131.566C485.526 131.566 484.616 130.74 484.616 129.536C484.616 127.898 485.82 127.45 487.668 127.114C488.886 126.89 489.446 126.75 489.446 126.05C489.446 125.49 489.138 125 487.962 125C486.604 125 486.212 125.406 486.142 126.442H484.966C485.036 125.07 485.904 124.02 488.004 124.02C489.334 124.02 490.538 124.58 490.538 126.33V129.76C490.538 130.32 490.622 130.6 490.902 130.6C490.944 130.6 490.986 130.6 491.07 130.586V131.37C490.888 131.412 490.72 131.44 490.524 131.44C489.908 131.44 489.53 131.202 489.46 130.32H489.432C488.97 131.09 488.158 131.566 486.968 131.566ZM487.08 130.586C488.424 130.586 489.446 129.984 489.446 128.612V127.478C489.236 127.702 488.536 127.884 487.766 128.038C486.38 128.318 485.792 128.654 485.792 129.48C485.792 130.18 486.156 130.586 487.08 130.586ZM493.667 122.844H492.323V121.5H493.667V122.844ZM493.555 131.37H492.435V124.23H493.555V131.37ZM496.443 131.37H495.323V121.36H496.443V131.37ZM500.185 131.566C498.743 131.566 497.833 130.74 497.833 129.536C497.833 127.898 499.037 127.45 500.885 127.114C502.103 126.89 502.663 126.75 502.663 126.05C502.663 125.49 502.355 125 501.179 125C499.821 125 499.429 125.406 499.359 126.442H498.183C498.253 125.07 499.121 124.02 501.221 124.02C502.551 124.02 503.755 124.58 503.755 126.33V129.76C503.755 130.32 503.839 130.6 504.119 130.6C504.161 130.6 504.203 130.6 504.287 130.586V131.37C504.105 131.412 503.937 131.44 503.741 131.44C503.125 131.44 502.747 131.202 502.677 130.32H502.649C502.187 131.09 501.375 131.566 500.185 131.566ZM500.297 130.586C501.641 130.586 502.663 129.984 502.663 128.612V127.478C502.453 127.702 501.753 127.884 500.983 128.038C499.597 128.318 499.009 128.654 499.009 129.48C499.009 130.18 499.373 130.586 500.297 130.586ZM509.04 124.034C510.832 124.034 512.26 125.448 512.26 127.8C512.26 130.152 510.832 131.566 509.04 131.566C507.892 131.566 507.22 131.062 506.8 130.446H506.772V131.37H505.652V121.36H506.772V125.112H506.8C507.22 124.566 507.892 124.034 509.04 124.034ZM508.928 130.586C510.398 130.586 511.084 129.2 511.084 127.8C511.084 126.4 510.398 125.014 508.928 125.014C507.598 125.014 506.772 126.12 506.772 127.8C506.772 129.48 507.598 130.586 508.928 130.586ZM514.76 131.37H513.64V121.36H514.76V131.37ZM522.926 127.534C522.926 127.744 522.926 127.982 522.912 128.094H517.326C517.354 129.354 518.054 130.614 519.636 130.614C521.036 130.614 521.568 129.676 521.694 129.172H522.828C522.464 130.502 521.456 131.58 519.622 131.58C517.368 131.58 516.15 129.956 516.15 127.786C516.15 125.504 517.508 124.02 519.622 124.02C521.708 124.02 522.926 125.448 522.926 127.534ZM517.326 127.114H521.736C521.736 125.938 520.896 124.986 519.566 124.986C518.334 124.986 517.396 125.868 517.326 127.114Z" fill="#B3B3B3"></path>
<path d="M295.479 149.836C293.716 149.836 291.991 150.359 290.525 151.339C289.058 152.319 287.915 153.711 287.24 155.341C286.565 156.97 286.389 158.763 286.733 160.493C287.077 162.223 287.926 163.812 289.173 165.059C290.421 166.307 292.01 167.156 293.74 167.5C295.469 167.844 297.263 167.667 298.892 166.992C300.522 166.318 301.914 165.175 302.894 163.708C303.874 162.241 304.397 160.517 304.397 158.754C304.397 156.388 303.458 154.12 301.785 152.448C300.113 150.775 297.844 149.836 295.479 149.836ZM294.205 162.315L291.02 159.13L292.034 158.117L294.205 160.288L298.925 155.569L299.942 156.579L294.205 162.315Z" fill="url(#paint4_linear_334_7280)" fill-opacity="0.8"></path>
<path d="M318.229 163.754H317.011L314.743 156.614H316.003L317.641 162.494H317.669L319.237 156.614H320.455L322.023 162.494H322.051L323.703 156.614H324.921L322.639 163.754H321.421L319.839 157.958H319.811L318.229 163.754ZM328.944 163.964C326.76 163.964 325.444 162.41 325.444 160.184C325.444 157.958 326.76 156.404 328.944 156.404C331.114 156.404 332.43 157.958 332.43 160.184C332.43 162.41 331.114 163.964 328.944 163.964ZM328.944 162.984C330.54 162.984 331.254 161.71 331.254 160.184C331.254 158.658 330.54 157.384 328.944 157.384C327.334 157.384 326.62 158.658 326.62 160.184C326.62 161.71 327.334 162.984 328.944 162.984ZM336.918 156.418C337.184 156.418 337.38 156.432 337.576 156.46V157.58C337.408 157.552 337.282 157.538 337.114 157.538C335.798 157.538 334.916 158.574 334.916 159.946V163.754H333.796V156.614H334.916V158.028H334.944C335.322 157.09 335.896 156.418 336.918 156.418ZM344.743 163.754H343.413L340.879 159.904L339.773 160.912V163.754H338.653V153.744H339.773V159.736L343.105 156.614H344.449L341.635 159.204L344.743 163.754ZM345.995 156.614V155.648C345.995 154.024 346.681 153.66 347.731 153.66C347.941 153.66 348.109 153.674 348.473 153.73V154.682C348.193 154.654 348.081 154.64 347.885 154.64C347.255 154.64 347.115 154.836 347.115 155.592V156.614H348.473V157.594H347.115V163.754H345.995V157.594H345.001V156.614H345.995ZM349.453 163.754V153.744H350.573V163.754H349.453ZM355.439 163.964C353.255 163.964 351.939 162.41 351.939 160.184C351.939 157.958 353.255 156.404 355.439 156.404C357.609 156.404 358.925 157.958 358.925 160.184C358.925 162.41 357.609 163.964 355.439 163.964ZM355.439 162.984C357.035 162.984 357.749 161.71 357.749 160.184C357.749 158.658 357.035 157.384 355.439 157.384C353.829 157.384 353.115 158.658 353.115 160.184C353.115 161.71 353.829 162.984 355.439 162.984ZM362.942 163.754H361.724L359.456 156.614H360.716L362.354 162.494H362.382L363.95 156.614H365.168L366.736 162.494H366.764L368.416 156.614H369.634L367.352 163.754H366.134L364.552 157.958H364.524L362.942 163.754Z" fill="white"></path>
<path d="M470.427 163.754H469.125L472.821 153.744H474.235L477.959 163.754H476.601L475.719 161.248H471.309L470.427 163.754ZM473.507 154.906L471.729 160.128H475.313L473.535 154.906H473.507ZM481.606 163.754H480.332L477.77 156.614H479.002L480.99 162.634H481.004L482.964 156.614H484.168L481.606 163.754ZM486.968 163.95C485.526 163.95 484.616 163.124 484.616 161.92C484.616 160.282 485.82 159.834 487.668 159.498C488.886 159.274 489.446 159.134 489.446 158.434C489.446 157.874 489.138 157.384 487.962 157.384C486.604 157.384 486.212 157.79 486.142 158.826H484.966C485.036 157.454 485.904 156.404 488.004 156.404C489.334 156.404 490.538 156.964 490.538 158.714V162.144C490.538 162.704 490.622 162.984 490.902 162.984C490.944 162.984 490.986 162.984 491.07 162.97V163.754C490.888 163.796 490.72 163.824 490.524 163.824C489.908 163.824 489.53 163.586 489.46 162.704H489.432C488.97 163.474 488.158 163.95 486.968 163.95ZM487.08 162.97C488.424 162.97 489.446 162.368 489.446 160.996V159.862C489.236 160.086 488.536 160.268 487.766 160.422C486.38 160.702 485.792 161.038 485.792 161.864C485.792 162.564 486.156 162.97 487.08 162.97ZM493.667 155.228H492.323V153.884H493.667V155.228ZM493.555 163.754H492.435V156.614H493.555V163.754ZM496.443 163.754H495.323V153.744H496.443V163.754ZM500.185 163.95C498.743 163.95 497.833 163.124 497.833 161.92C497.833 160.282 499.037 159.834 500.885 159.498C502.103 159.274 502.663 159.134 502.663 158.434C502.663 157.874 502.355 157.384 501.179 157.384C499.821 157.384 499.429 157.79 499.359 158.826H498.183C498.253 157.454 499.121 156.404 501.221 156.404C502.551 156.404 503.755 156.964 503.755 158.714V162.144C503.755 162.704 503.839 162.984 504.119 162.984C504.161 162.984 504.203 162.984 504.287 162.97V163.754C504.105 163.796 503.937 163.824 503.741 163.824C503.125 163.824 502.747 163.586 502.677 162.704H502.649C502.187 163.474 501.375 163.95 500.185 163.95ZM500.297 162.97C501.641 162.97 502.663 162.368 502.663 160.996V159.862C502.453 160.086 501.753 160.268 500.983 160.422C499.597 160.702 499.009 161.038 499.009 161.864C499.009 162.564 499.373 162.97 500.297 162.97ZM509.04 156.418C510.832 156.418 512.26 157.832 512.26 160.184C512.26 162.536 510.832 163.95 509.04 163.95C507.892 163.95 507.22 163.446 506.8 162.83H506.772V163.754H505.652V153.744H506.772V157.496H506.8C507.22 156.95 507.892 156.418 509.04 156.418ZM508.928 162.97C510.398 162.97 511.084 161.584 511.084 160.184C511.084 158.784 510.398 157.398 508.928 157.398C507.598 157.398 506.772 158.504 506.772 160.184C506.772 161.864 507.598 162.97 508.928 162.97ZM514.76 163.754H513.64V153.744H514.76V163.754ZM522.926 159.918C522.926 160.128 522.926 160.366 522.912 160.478H517.326C517.354 161.738 518.054 162.998 519.636 162.998C521.036 162.998 521.568 162.06 521.694 161.556H522.828C522.464 162.886 521.456 163.964 519.622 163.964C517.368 163.964 516.15 162.34 516.15 160.17C516.15 157.888 517.508 156.404 519.622 156.404C521.708 156.404 522.926 157.832 522.926 159.918ZM517.326 159.498H521.736C521.736 158.322 520.896 157.37 519.566 157.37C518.334 157.37 517.396 158.252 517.326 159.498Z" fill="#B3B3B3"></path>
</g>
<rect x="270" y="1" width="269" height="186" stroke="#272727"></rect>
<path d="M266.53 93.5303C266.823 93.2374 266.823 92.7626 266.53 92.4697L261.757 87.6967C261.464 87.4038 260.99 87.4038 260.697 87.6967C260.404 87.9896 260.404 88.4645 260.697 88.7574L264.939 93L260.697 97.2426C260.404 97.5355 260.404 98.0104 260.697 98.3033C260.99 98.5962 261.464 98.5962 261.757 98.3033L266.53 93.5303ZM266 93L266 92.25L222 92.25L222 93L222 93.75L266 93.75L266 93Z" fill="url(#paint5_linear_334_7280)"></path>
<rect y="40" width="219" height="106" fill="#141414"></rect>
<rect y="40" width="219" height="106" stroke="#272727"></rect>
<path d="M0 73.1238H218.299" stroke="#272727"></path>
<path d="M17.5836 62H16.3236V51.99H20.2996C22.1336 51.99 23.5476 52.802 23.5476 54.902C23.5476 57.002 22.1336 57.814 20.2996 57.814H17.5836V62ZM17.5836 56.694H20.3836C21.6296 56.694 22.2316 56.12 22.2316 54.902C22.2316 53.684 21.6296 53.11 20.3836 53.11H17.5836V56.694ZM26.2959 62H25.0359V51.99H29.0539C31.2519 51.99 32.3999 53.026 32.3999 54.874C32.3999 56.12 31.6299 57.072 30.5799 57.324V57.352C32.8339 57.786 32.0079 61.748 32.5399 61.916V62H31.1819C30.7479 61.58 31.6999 57.954 29.1659 57.954H26.2959V62ZM26.2959 56.834H28.7599C30.2859 56.834 31.1399 56.148 31.1399 54.902C31.1399 53.754 30.4959 53.11 28.8019 53.11H26.2959V56.834ZM43.9688 54.986L43.7868 55.966H42.3308L41.9108 58.122H43.5348L43.3808 59.102H41.7148L41.1408 62H40.1608L40.7348 59.102H39.0548L38.4808 62H37.5008L38.0748 59.102H36.7308L36.8988 58.122H38.2708L38.6908 55.966H37.1648L37.3328 54.986H38.8868L39.4048 52.326H40.3848L39.8668 54.986H41.5468L42.0648 52.326H43.0448L42.5268 54.986H43.9688ZM39.2508 58.122H40.9308L41.3508 55.966H39.6708L39.2508 58.122ZM46.6882 62V54.622C46.2682 55.028 45.5402 55.098 44.6722 55.098V54.048C46.4782 53.992 46.8142 53.488 46.9682 52.326H47.9482V62H46.6882ZM56.2949 62H49.5889C49.5889 60.25 50.6949 58.878 52.4729 57.842C54.2789 56.792 55.1189 56.456 55.1189 55.042C55.1189 54.23 54.8109 53.25 53.3269 53.25C51.6329 53.25 51.1849 54.384 51.1849 55.714H49.8689C49.8689 53.712 50.9609 52.13 53.3549 52.13C55.0069 52.13 56.4349 53.18 56.4349 55.028C56.4349 56.904 54.9229 57.8 53.5089 58.612C52.4169 59.242 51.3809 59.844 51.1149 60.852V60.88H56.2949V62ZM61.3292 62.196C59.2572 62.196 57.7032 61.23 57.7032 59.284C57.7032 57.94 58.5712 57.282 59.4952 56.876V56.848C58.8092 56.484 58.1932 55.868 58.1932 54.776C58.1932 53.11 59.4812 52.13 61.3292 52.13C63.1772 52.13 64.4652 53.11 64.4652 54.776C64.4652 55.868 63.8352 56.484 63.1632 56.848V56.876C64.0732 57.282 64.9552 57.94 64.9552 59.284C64.9552 61.23 63.4012 62.196 61.3292 62.196ZM61.3292 56.302C62.4492 56.302 63.1492 55.854 63.1492 54.776C63.1492 53.726 62.4492 53.25 61.3292 53.25C60.2092 53.25 59.5092 53.726 59.5092 54.776C59.5092 55.854 60.2092 56.302 61.3292 56.302ZM61.3292 61.076C62.7712 61.076 63.6392 60.446 63.6392 59.242C63.6392 58.066 62.7712 57.422 61.3292 57.422C59.8872 57.422 59.0192 58.066 59.0192 59.242C59.0192 60.446 59.8872 61.076 61.3292 61.076Z" fill="white"></path>
<path d="M18.4656 89.2009C17.8356 89.2009 17.6956 89.3969 17.6956 90.1529V91.1749H19.0536V92.1549H17.6956V98.3149H16.5756V92.1549H15.5816V91.1749H16.5756V90.2089C16.5756 88.5849 17.2616 88.2209 18.3116 88.2209C18.5216 88.2209 18.6896 88.2349 19.0536 88.2909V89.2429C18.7736 89.2149 18.6616 89.2009 18.4656 89.2009ZM26.3427 94.4789C26.3427 94.6889 26.3427 94.9269 26.3287 95.0389H20.7427C20.7707 96.2989 21.4707 97.5589 23.0527 97.5589C24.4527 97.5589 24.9847 96.6209 25.1107 96.1169H26.2447C25.8807 97.4469 24.8727 98.5249 23.0387 98.5249C20.7847 98.5249 19.5667 96.9009 19.5667 94.7309C19.5667 92.4489 20.9247 90.9649 23.0387 90.9649C25.1247 90.9649 26.3427 92.3929 26.3427 94.4789ZM20.7427 94.0589H25.1527C25.1527 92.8829 24.3127 91.9309 22.9827 91.9309C21.7507 91.9309 20.8127 92.8129 20.7427 94.0589ZM29.6876 98.5109C28.2456 98.5109 27.3356 97.6849 27.3356 96.4809C27.3356 94.8429 28.5396 94.3949 30.3876 94.0589C31.6056 93.8349 32.1656 93.6949 32.1656 92.9949C32.1656 92.4349 31.8576 91.9449 30.6816 91.9449C29.3236 91.9449 28.9316 92.3509 28.8616 93.3869H27.6856C27.7556 92.0149 28.6236 90.9649 30.7236 90.9649C32.0536 90.9649 33.2576 91.5249 33.2576 93.2749V96.7049C33.2576 97.2649 33.3416 97.5449 33.6216 97.5449C33.6636 97.5449 33.7056 97.5449 33.7896 97.5309V98.3149C33.6076 98.3569 33.4396 98.3849 33.2436 98.3849C32.6276 98.3849 32.2496 98.1469 32.1796 97.2649H32.1516C31.6896 98.0349 30.8776 98.5109 29.6876 98.5109ZM29.7996 97.5309C31.1436 97.5309 32.1656 96.9289 32.1656 95.5569V94.4229C31.9556 94.6469 31.2556 94.8289 30.4856 94.9829C29.0996 95.2629 28.5116 95.5989 28.5116 96.4249C28.5116 97.1249 28.8756 97.5309 29.7996 97.5309ZM37.9853 91.1749V92.1549H36.5853V96.4529C36.5853 97.2089 36.7673 97.4049 37.3973 97.4049C37.6353 97.4049 37.7473 97.3909 37.9853 97.3629V98.3149C37.6633 98.3709 37.4953 98.3849 37.2433 98.3849C36.1933 98.3849 35.4653 98.0209 35.4653 96.3969V92.1549H34.4153V91.1749H35.4653V88.7949H36.5853V91.1749H37.9853ZM44.0182 95.6269V91.1749H45.1382V98.3149H44.0182V97.4609H43.9902C43.6122 97.9649 42.8562 98.5109 41.6382 98.5109C40.3362 98.5109 39.2442 97.7969 39.2442 96.1589V91.1749H40.3642V95.8789C40.3642 96.8029 40.7982 97.5309 41.9182 97.5309C43.1782 97.5309 44.0182 96.7329 44.0182 95.6269ZM50.0271 90.9789C50.2931 90.9789 50.4891 90.9929 50.6851 91.0209V92.1409C50.5171 92.1129 50.3911 92.0989 50.2231 92.0989C48.9071 92.0989 48.0251 93.1349 48.0251 94.5069V98.3149H46.9051V91.1749H48.0251V92.5889H48.0531C48.4311 91.6509 49.0051 90.9789 50.0271 90.9789ZM57.8317 94.4789C57.8317 94.6889 57.8317 94.9269 57.8177 95.0389H52.2317C52.2597 96.2989 52.9597 97.5589 54.5417 97.5589C55.9417 97.5589 56.4737 96.6209 56.5997 96.1169H57.7337C57.3697 97.4469 56.3617 98.5249 54.5277 98.5249C52.2737 98.5249 51.0557 96.9009 51.0557 94.7309C51.0557 92.4489 52.4137 90.9649 54.5277 90.9649C56.6137 90.9649 57.8317 92.3929 57.8317 94.4789ZM52.2317 94.0589H56.6417C56.6417 92.8829 55.8017 91.9309 54.4717 91.9309C53.2397 91.9309 52.3017 92.8129 52.2317 94.0589ZM59.4872 98.3149H58.3672L62.2452 88.3049H63.3652L59.4872 98.3149ZM68.8003 92.0989V88.3049H69.9203V98.3149H68.8003V97.4329H68.7723C68.3523 97.9789 67.6803 98.5109 66.5323 98.5109C64.7403 98.5109 63.3123 97.0969 63.3123 94.7449C63.3123 92.3929 64.7403 90.9789 66.5323 90.9789C67.6803 90.9789 68.3523 91.4829 68.7723 92.0989H68.8003ZM66.6443 97.5309C67.9743 97.5309 68.8003 96.4249 68.8003 94.7449C68.8003 93.0649 67.9743 91.9589 66.6443 91.9589C65.1743 91.9589 64.4883 93.3449 64.4883 94.7449C64.4883 96.1449 65.1743 97.5309 66.6443 97.5309ZM73.652 98.5109C72.21 98.5109 71.3 97.6849 71.3 96.4809C71.3 94.8429 72.504 94.3949 74.352 94.0589C75.57 93.8349 76.13 93.6949 76.13 92.9949C76.13 92.4349 75.822 91.9449 74.646 91.9449C73.288 91.9449 72.896 92.3509 72.826 93.3869H71.65C71.72 92.0149 72.588 90.9649 74.688 90.9649C76.018 90.9649 77.222 91.5249 77.222 93.2749V96.7049C77.222 97.2649 77.306 97.5449 77.586 97.5449C77.628 97.5449 77.67 97.5449 77.754 97.5309V98.3149C77.572 98.3569 77.404 98.3849 77.208 98.3849C76.592 98.3849 76.214 98.1469 76.144 97.2649H76.116C75.654 98.0349 74.842 98.5109 73.652 98.5109ZM73.764 97.5309C75.108 97.5309 76.13 96.9289 76.13 95.5569V94.4229C75.92 94.6469 75.22 94.8289 74.45 94.9829C73.064 95.2629 72.476 95.5989 72.476 96.4249C72.476 97.1249 72.84 97.5309 73.764 97.5309ZM81.9497 91.1749V92.1549H80.5497V96.4529C80.5497 97.2089 80.7317 97.4049 81.3617 97.4049C81.5997 97.4049 81.7117 97.3909 81.9497 97.3629V98.3149C81.6277 98.3709 81.4597 98.3849 81.2077 98.3849C80.1577 98.3849 79.4297 98.0209 79.4297 96.3969V92.1549H78.3797V91.1749H79.4297V88.7949H80.5497V91.1749H81.9497ZM85.2386 98.5109C83.7966 98.5109 82.8866 97.6849 82.8866 96.4809C82.8866 94.8429 84.0906 94.3949 85.9386 94.0589C87.1566 93.8349 87.7166 93.6949 87.7166 92.9949C87.7166 92.4349 87.4086 91.9449 86.2326 91.9449C84.8746 91.9449 84.4826 92.3509 84.4126 93.3869H83.2366C83.3066 92.0149 84.1746 90.9649 86.2746 90.9649C87.6046 90.9649 88.8086 91.5249 88.8086 93.2749V96.7049C88.8086 97.2649 88.8926 97.5449 89.1726 97.5449C89.2146 97.5449 89.2566 97.5449 89.3406 97.5309V98.3149C89.1586 98.3569 88.9906 98.3849 88.7946 98.3849C88.1786 98.3849 87.8006 98.1469 87.7306 97.2649H87.7026C87.2406 98.0349 86.4286 98.5109 85.2386 98.5109ZM85.3506 97.5309C86.6946 97.5309 87.7166 96.9289 87.7166 95.5569V94.4229C87.5066 94.6469 86.8066 94.8289 86.0366 94.9829C84.6506 95.2629 84.0626 95.5989 84.0626 96.4249C84.0626 97.1249 84.4266 97.5309 85.3506 97.5309ZM94.0934 90.9789C95.8854 90.9789 97.3134 92.3929 97.3134 94.7449C97.3134 97.0969 95.8854 98.5109 94.0934 98.5109C92.9454 98.5109 92.2734 98.0069 91.8534 97.3909H91.8254V98.3149H90.7054V88.3049H91.8254V92.0569H91.8534C92.2734 91.5109 92.9454 90.9789 94.0934 90.9789ZM93.9814 97.5309C95.4514 97.5309 96.1374 96.1449 96.1374 94.7449C96.1374 93.3449 95.4514 91.9589 93.9814 91.9589C92.6514 91.9589 91.8254 93.0649 91.8254 94.7449C91.8254 96.4249 92.6514 97.5309 93.9814 97.5309ZM100.667 98.5109C99.225 98.5109 98.315 97.6849 98.315 96.4809C98.315 94.8429 99.519 94.3949 101.367 94.0589C102.585 93.8349 103.145 93.6949 103.145 92.9949C103.145 92.4349 102.837 91.9449 101.661 91.9449C100.303 91.9449 99.911 92.3509 99.841 93.3869H98.665C98.735 92.0149 99.603 90.9649 101.703 90.9649C103.033 90.9649 104.237 91.5249 104.237 93.2749V96.7049C104.237 97.2649 104.321 97.5449 104.601 97.5449C104.643 97.5449 104.685 97.5449 104.769 97.5309V98.3149C104.587 98.3569 104.419 98.3849 104.223 98.3849C103.607 98.3849 103.229 98.1469 103.159 97.2649H103.131C102.669 98.0349 101.857 98.5109 100.667 98.5109ZM100.779 97.5309C102.123 97.5309 103.145 96.9289 103.145 95.5569V94.4229C102.935 94.6469 102.235 94.8289 101.465 94.9829C100.079 95.2629 99.491 95.5989 99.491 96.4249C99.491 97.1249 99.855 97.5309 100.779 97.5309ZM108.836 98.5109C106.778 98.5109 105.672 97.4049 105.63 95.9349H106.806C106.862 96.8029 107.366 97.5309 108.836 97.5309C110.208 97.5309 110.53 96.9009 110.53 96.3549C110.53 95.3749 109.508 95.2769 108.626 95.0809C107.38 94.8009 105.91 94.4649 105.91 92.9809C105.91 91.7769 106.876 90.9789 108.514 90.9789C110.362 90.9789 111.314 91.9869 111.426 93.2189H110.25C110.138 92.6729 109.858 91.9589 108.528 91.9589C107.52 91.9589 107.086 92.3649 107.086 92.9389C107.086 93.7649 107.996 93.8489 108.99 94.0729C110.264 94.3669 111.706 94.7309 111.706 96.3129C111.706 97.6569 110.656 98.5109 108.836 98.5109ZM119.371 94.4789C119.371 94.6889 119.371 94.9269 119.357 95.0389H113.771C113.799 96.2989 114.499 97.5589 116.081 97.5589C117.481 97.5589 118.013 96.6209 118.139 96.1169H119.273C118.909 97.4469 117.901 98.5249 116.067 98.5249C113.813 98.5249 112.595 96.9009 112.595 94.7309C112.595 92.4489 113.953 90.9649 116.067 90.9649C118.153 90.9649 119.371 92.3929 119.371 94.4789ZM113.771 94.0589H118.181C118.181 92.8829 117.341 91.9309 116.011 91.9309C114.779 91.9309 113.841 92.8129 113.771 94.0589Z" fill="white"></path>
<path d="M25.4793 112.617C23.7156 112.617 21.9914 113.14 20.5249 114.12C19.0583 115.1 17.9153 116.493 17.2404 118.122C16.5654 119.752 16.3888 121.545 16.7329 123.275C17.077 125.004 17.9263 126.593 19.1735 127.841C20.4207 129.088 22.0097 129.937 23.7396 130.281C25.4694 130.625 27.2625 130.449 28.892 129.774C30.5216 129.099 31.9143 127.956 32.8942 126.489C33.8741 125.023 34.3971 123.299 34.3971 121.535C34.3971 119.17 33.4576 116.901 31.7852 115.229C30.1128 113.556 27.8445 112.617 25.4793 112.617ZM24.2054 125.096L21.0204 121.911L22.0336 120.898L24.2054 123.069L28.9254 118.35L29.9419 119.36L24.2054 125.096Z" fill="url(#paint6_linear_334_7280)" fill-opacity="0.7"></path>
<path d="M49.7549 126.731C47.0109 126.731 45.1209 124.547 45.1209 121.523C45.1209 118.513 47.0109 116.329 49.7549 116.329C52.2049 116.329 53.7729 117.925 54.0109 119.829H52.6949C52.5129 118.877 51.8409 117.449 49.7549 117.449C47.3749 117.449 46.4369 119.507 46.4369 121.523C46.4369 123.553 47.3749 125.611 49.7549 125.611C51.8549 125.611 52.6109 124.183 52.6949 122.923H54.0109C53.7869 125.135 52.2189 126.731 49.7549 126.731ZM58.8846 119.199C60.1866 119.199 61.2786 119.913 61.2786 121.551V126.535H60.1586V121.831C60.1586 120.907 59.7246 120.179 58.6046 120.179C57.3446 120.179 56.5046 120.977 56.5046 122.083V126.535H55.3846V116.525H56.5046V120.249H56.5326C56.9106 119.745 57.6666 119.199 58.8846 119.199ZM69.3875 122.699C69.3875 122.909 69.3875 123.147 69.3735 123.259H63.7875C63.8155 124.519 64.5155 125.779 66.0975 125.779C67.4975 125.779 68.0295 124.841 68.1555 124.337H69.2895C68.9255 125.667 67.9175 126.745 66.0835 126.745C63.8295 126.745 62.6115 125.121 62.6115 122.951C62.6115 120.669 63.9695 119.185 66.0835 119.185C68.1695 119.185 69.3875 120.613 69.3875 122.699ZM63.7875 122.279H68.1975C68.1975 121.103 67.3575 120.151 66.0275 120.151C64.7955 120.151 63.8575 121.033 63.7875 122.279ZM73.8244 126.731C71.7384 126.731 70.3664 125.205 70.3664 122.965C70.3664 120.725 71.7384 119.199 73.8244 119.199C75.5884 119.199 76.7924 120.375 76.9604 121.971H75.7844C75.7284 121.187 75.2524 120.179 73.8244 120.179C72.1304 120.179 71.5424 121.621 71.5424 122.965C71.5424 124.309 72.1304 125.751 73.8244 125.751C75.2664 125.751 75.7284 124.757 75.7844 123.903H76.9604C76.8624 125.527 75.5884 126.731 73.8244 126.731ZM84.3575 126.535H83.0275L80.4935 122.685L79.3875 123.693V126.535H78.2675V116.525H79.3875V122.517L82.7195 119.395H84.0635L81.2495 121.985L84.3575 126.535ZM87.6583 126.731C85.6003 126.731 84.4943 125.625 84.4523 124.155H85.6283C85.6843 125.023 86.1883 125.751 87.6583 125.751C89.0303 125.751 89.3523 125.121 89.3523 124.575C89.3523 123.595 88.3303 123.497 87.4483 123.301C86.2023 123.021 84.7323 122.685 84.7323 121.201C84.7323 119.997 85.6983 119.199 87.3363 119.199C89.1843 119.199 90.1363 120.207 90.2483 121.439H89.0723C88.9603 120.893 88.6803 120.179 87.3503 120.179C86.3423 120.179 85.9083 120.585 85.9083 121.159C85.9083 121.985 86.8183 122.069 87.8123 122.293C89.0863 122.587 90.5283 122.951 90.5283 124.533C90.5283 125.877 89.4783 126.731 87.6583 126.731ZM98.3177 119.199C100.11 119.199 101.538 120.613 101.538 122.965C101.538 125.317 100.11 126.731 98.3177 126.731C97.1697 126.731 96.4977 126.227 96.0777 125.611H96.0497V129.013H94.9297V119.395H96.0497V120.277H96.0777C96.4977 119.731 97.1697 119.199 98.3177 119.199ZM98.2057 125.751C99.6757 125.751 100.362 124.365 100.362 122.965C100.362 121.565 99.6757 120.179 98.2057 120.179C96.8757 120.179 96.0497 121.285 96.0497 122.965C96.0497 124.645 96.8757 125.751 98.2057 125.751ZM104.891 126.731C103.449 126.731 102.539 125.905 102.539 124.701C102.539 123.063 103.743 122.615 105.591 122.279C106.809 122.055 107.369 121.915 107.369 121.215C107.369 120.655 107.061 120.165 105.885 120.165C104.527 120.165 104.135 120.571 104.065 121.607H102.889C102.959 120.235 103.827 119.185 105.927 119.185C107.257 119.185 108.461 119.745 108.461 121.495V124.925C108.461 125.485 108.545 125.765 108.825 125.765C108.867 125.765 108.909 125.765 108.993 125.751V126.535C108.811 126.577 108.643 126.605 108.447 126.605C107.831 126.605 107.453 126.367 107.383 125.485H107.355C106.893 126.255 106.081 126.731 104.891 126.731ZM105.003 125.751C106.347 125.751 107.369 125.149 107.369 123.777V122.643C107.159 122.867 106.459 123.049 105.689 123.203C104.303 123.483 103.715 123.819 103.715 124.645C103.715 125.345 104.079 125.751 105.003 125.751ZM113.06 126.731C111.002 126.731 109.896 125.625 109.854 124.155H111.03C111.086 125.023 111.59 125.751 113.06 125.751C114.432 125.751 114.754 125.121 114.754 124.575C114.754 123.595 113.732 123.497 112.85 123.301C111.604 123.021 110.134 122.685 110.134 121.201C110.134 119.997 111.1 119.199 112.738 119.199C114.586 119.199 115.538 120.207 115.65 121.439H114.474C114.362 120.893 114.082 120.179 112.752 120.179C111.744 120.179 111.31 120.585 111.31 121.159C111.31 121.985 112.22 122.069 113.214 122.293C114.488 122.587 115.93 122.951 115.93 124.533C115.93 125.877 114.88 126.731 113.06 126.731ZM119.899 126.731C117.841 126.731 116.735 125.625 116.693 124.155H117.869C117.925 125.023 118.429 125.751 119.899 125.751C121.271 125.751 121.593 125.121 121.593 124.575C121.593 123.595 120.571 123.497 119.689 123.301C118.443 123.021 116.973 122.685 116.973 121.201C116.973 119.997 117.939 119.199 119.577 119.199C121.425 119.199 122.377 120.207 122.489 121.439H121.313C121.201 120.893 120.921 120.179 119.591 120.179C118.583 120.179 118.149 120.585 118.149 121.159C118.149 121.985 119.059 122.069 120.053 122.293C121.327 122.587 122.769 122.951 122.769 124.533C122.769 125.877 121.719 126.731 119.899 126.731ZM130.435 122.699C130.435 122.909 130.435 123.147 130.421 123.259H124.835C124.863 124.519 125.563 125.779 127.145 125.779C128.545 125.779 129.077 124.841 129.203 124.337H130.337C129.973 125.667 128.965 126.745 127.131 126.745C124.877 126.745 123.659 125.121 123.659 122.951C123.659 120.669 125.017 119.185 127.131 119.185C129.217 119.185 130.435 120.613 130.435 122.699ZM124.835 122.279H129.245C129.245 121.103 128.405 120.151 127.075 120.151C125.843 120.151 124.905 121.033 124.835 122.279ZM136.915 120.319V116.525H138.035V126.535H136.915V125.653H136.887C136.467 126.199 135.795 126.731 134.647 126.731C132.855 126.731 131.427 125.317 131.427 122.965C131.427 120.613 132.855 119.199 134.647 119.199C135.795 119.199 136.467 119.703 136.887 120.319H136.915ZM134.759 125.751C136.089 125.751 136.915 124.645 136.915 122.965C136.915 121.285 136.089 120.179 134.759 120.179C133.289 120.179 132.603 121.565 132.603 122.965C132.603 124.365 133.289 125.751 134.759 125.751Z" fill="#B3B3B3"></path>
<path d="M123.656 61.668C121.136 61.668 119.456 59.784 119.456 57.204C119.456 54.624 121.136 52.752 123.656 52.752C126.176 52.752 127.856 54.624 127.856 57.204C127.856 59.784 126.176 61.668 123.656 61.668ZM123.656 60.708C125.816 60.708 126.728 59.052 126.728 57.204C126.728 55.356 125.816 53.712 123.656 53.712C121.496 53.712 120.584 55.356 120.584 57.204C120.584 59.052 121.496 60.708 123.656 60.708ZM132.086 55.212C133.622 55.212 134.846 56.424 134.846 58.44C134.846 60.456 133.622 61.668 132.086 61.668C131.102 61.668 130.526 61.236 130.166 60.708H130.142V63.624H129.182V55.38H130.142V56.136H130.166C130.526 55.668 131.102 55.212 132.086 55.212ZM131.99 60.828C133.25 60.828 133.838 59.64 133.838 58.44C133.838 57.24 133.25 56.052 131.99 56.052C130.85 56.052 130.142 57 130.142 58.44C130.142 59.88 130.85 60.828 131.99 60.828ZM141.633 58.212C141.633 58.392 141.633 58.596 141.621 58.692H136.833C136.857 59.772 137.457 60.852 138.813 60.852C140.013 60.852 140.469 60.048 140.577 59.616H141.549C141.237 60.756 140.373 61.68 138.801 61.68C136.869 61.68 135.825 60.288 135.825 58.428C135.825 56.472 136.989 55.2 138.801 55.2C140.589 55.2 141.633 56.424 141.633 58.212ZM136.833 57.852H140.613C140.613 56.844 139.893 56.028 138.753 56.028C137.697 56.028 136.893 56.784 136.833 57.852ZM145.928 55.212C147.044 55.212 147.98 55.824 147.98 57.228V61.5H147.02V57.468C147.02 56.676 146.648 56.052 145.688 56.052C144.608 56.052 143.888 56.736 143.888 57.684V61.5H142.928V55.38H143.888V56.112H143.912C144.236 55.68 144.884 55.212 145.928 55.212ZM155.277 55.212C156.813 55.212 158.037 56.424 158.037 58.44C158.037 60.456 156.813 61.668 155.277 61.668C154.293 61.668 153.717 61.236 153.357 60.708H153.333V63.624H152.373V55.38H153.333V56.136H153.357C153.717 55.668 154.293 55.212 155.277 55.212ZM155.181 60.828C156.441 60.828 157.029 59.64 157.029 58.44C157.029 57.24 156.441 56.052 155.181 56.052C154.041 56.052 153.333 57 153.333 58.44C153.333 59.88 154.041 60.828 155.181 60.828ZM162.015 55.212C162.243 55.212 162.411 55.224 162.579 55.248V56.208C162.435 56.184 162.327 56.172 162.183 56.172C161.055 56.172 160.299 57.06 160.299 58.236V61.5H159.339V55.38H160.299V56.592H160.323C160.647 55.788 161.139 55.212 162.015 55.212ZM168.825 58.212C168.825 58.392 168.825 58.596 168.813 58.692H164.025C164.049 59.772 164.649 60.852 166.005 60.852C167.205 60.852 167.661 60.048 167.769 59.616H168.741C168.429 60.756 167.565 61.68 165.993 61.68C164.061 61.68 163.017 60.288 163.017 58.428C163.017 56.472 164.181 55.2 165.993 55.2C167.781 55.2 168.825 56.424 168.825 58.212ZM164.025 57.852H167.805C167.805 56.844 167.085 56.028 165.945 56.028C164.889 56.028 164.085 56.784 164.025 57.852ZM172.656 61.5H171.564L169.368 55.38H170.424L172.128 60.54H172.14L173.82 55.38H174.852L172.656 61.5ZM176.947 54.192H175.795V53.04H176.947V54.192ZM176.851 61.5H175.891V55.38H176.851V61.5ZM183.971 58.212C183.971 58.392 183.971 58.596 183.959 58.692H179.171C179.195 59.772 179.795 60.852 181.151 60.852C182.351 60.852 182.807 60.048 182.915 59.616H183.887C183.575 60.756 182.711 61.68 181.139 61.68C179.207 61.68 178.163 60.288 178.163 58.428C178.163 56.472 179.327 55.2 181.139 55.2C182.927 55.2 183.971 56.424 183.971 58.212ZM179.171 57.852H182.951C182.951 56.844 182.231 56.028 181.091 56.028C180.035 56.028 179.231 56.784 179.171 57.852ZM187.561 61.5H186.517L184.573 55.38H185.653L187.057 60.42H187.081L188.425 55.38H189.469L190.813 60.42H190.837L192.253 55.38H193.297L191.341 61.5H190.297L188.941 56.532H188.917L187.561 61.5ZM205.109 57.672L202.109 60.912L201.461 60.324L203.561 58.092H196.817V57.252H203.561L201.461 55.02L202.109 54.432L205.109 57.672Z" fill="#B3B3B3"></path>
<rect y="146" width="540" height="79" fill="url(#paint7_linear_334_7280)"></rect>
</g>
<defs>
<radialGradient id="paint0_radial_334_7280" cx="0" cy="0" r="1" gradientUnits="userSpaceOnUse" gradientTransform="translate(270 121.573) rotate(90) scale(128.74 297.184)">
<stop stop-color="#0D0D0D" stop-opacity="0"></stop>
<stop offset="1" stop-color="#0D0D0D"></stop>
</radialGradient>
<linearGradient id="paint1_linear_334_7280" x1="307.582" y1="43.1303" x2="290.383" y2="68.6097" gradientUnits="userSpaceOnUse">
<stop stop-color="#C6FB9D"></stop>
<stop offset="1" stop-color="#5CFFB8"></stop>
</linearGradient>
<linearGradient id="paint2_linear_334_7280" x1="307.582" y1="75.5138" x2="290.383" y2="100.993" gradientUnits="userSpaceOnUse">
<stop stop-color="#C6FB9D"></stop>
<stop offset="1" stop-color="#5CFFB8"></stop>
</linearGradient>
<linearGradient id="paint3_linear_334_7280" x1="307.582" y1="107.897" x2="290.383" y2="133.377" gradientUnits="userSpaceOnUse">
<stop stop-color="#C6FB9D"></stop>
<stop offset="1" stop-color="#5CFFB8"></stop>
</linearGradient>
<linearGradient id="paint4_linear_334_7280" x1="307.582" y1="140.281" x2="290.383" y2="165.76" gradientUnits="userSpaceOnUse">
<stop stop-color="#C6FB9D"></stop>
<stop offset="1" stop-color="#5CFFB8"></stop>
</linearGradient>
<linearGradient id="paint5_linear_334_7280" x1="222" y1="93.5" x2="266" y2="93.5" gradientUnits="userSpaceOnUse">
<stop stop-color="#8F8F8F" stop-opacity="0.1"></stop>
<stop offset="1" stop-color="#8F8F8F"></stop>
</linearGradient>
<linearGradient id="paint6_linear_334_7280" x1="37.5821" y1="103.062" x2="20.3834" y2="128.542" gradientUnits="userSpaceOnUse">
<stop stop-color="#C6FB9D"></stop>
<stop offset="1" stop-color="#5CFFB8"></stop>
</linearGradient>
<linearGradient id="paint7_linear_334_7280" x1="270" y1="146" x2="270" y2="217.594" gradientUnits="userSpaceOnUse">
<stop stop-color="#0D0D0D" stop-opacity="0"></stop>
<stop offset="0.3" stop-color="#0D0D0D" stop-opacity="0.5"></stop>
<stop offset="0.65" stop-color="#0D0D0D" stop-opacity="0.8"></stop>
<stop offset="1" stop-color="#0D0D0D"></stop>
</linearGradient>
<clipPath id="clip0_334_7280">
<rect width="540" height="216" fill="white"></rect>
</clipPath>
<clipPath id="clip1_334_7280">
<rect width="270" height="101.25" fill="white"></rect>
</clipPath>
<clipPath id="clip2_334_7280">
<rect width="270" height="101.25" fill="white" transform="translate(270)"></rect>
</clipPath>
<clipPath id="clip3_334_7280">
<rect width="270" height="101.25" fill="white" transform="translate(0 101.25)"></rect>
</clipPath>
<clipPath id="clip4_334_7280">
<rect width="270" height="101.25" fill="white" transform="translate(270 101.25)"></rect>
</clipPath>
<clipPath id="clip5_334_7280">
<rect width="270" height="101.25" fill="white" transform="translate(0 202.5)"></rect>
</clipPath>
<clipPath id="clip6_334_7280">
<rect width="270" height="101.25" fill="white" transform="translate(270 202.5)"></rect>
</clipPath>
<clipPath id="clip7_334_7280">
<rect x="270" y="1" width="269" height="186" fill="white"></rect>
</clipPath>
</defs>
</svg>
