<svg xmlns="http://www.w3.org/2000/svg" fill="none" viewBox="0 0 40 40" height="40" width="40">
<g clip-path="url(#clip0_341_4811)">
<path fill="#8A05FF" d="M40 0H0V40H40V0Z"></path>
<rect fill="#9D66FF" height="4" width="4" x="20"></rect>
<rect fill="#C7AEFF" height="4" width="4" y="4" x="20"></rect>
<rect fill="#9D66FF" height="4" width="4" y="8" x="20"></rect>
<rect fill="#9D66FF" height="4" width="4" y="12" x="20"></rect>
<rect fill="#9D66FF" height="4" width="4" y="16" x="20"></rect>
<rect fill="#8A05FF" height="4" width="4" y="20" x="20"></rect>
<rect fill="#C7AEFF" height="4" width="4" y="20" x="20"></rect>
<rect fill="#9D66FF" height="4" width="4" y="24" x="20"></rect>
<rect fill="#9D66FF" height="4" width="4" y="28" x="20"></rect>
<rect fill="#9D66FF" height="4" width="4" y="32" x="20"></rect>
<rect fill="#9D66FF" height="4" width="4" y="36" x="20"></rect>
<rect fill="#9D66FF" height="4" width="4" x="24"></rect>
<rect fill="#9D66FF" height="4" width="4" y="4" x="24"></rect>
<rect fill="#C7AEFF" height="4" width="4" y="8" x="24"></rect>
<rect fill="#C7AEFF" height="4" width="4" y="12" x="24"></rect>
<rect fill="#C7AEFF" height="4" width="4" y="16" x="24"></rect>
<rect fill="#9D66FF" height="4" width="4" y="20" x="24"></rect>
<rect fill="#C7AEFF" height="4" width="4" y="24" x="24"></rect>
<rect fill="#9D66FF" height="4" width="4" y="28" x="24"></rect>
<rect fill="#9D66FF" height="4" width="4" y="32" x="24"></rect>
<rect fill="#9D66FF" height="4" width="4" y="36" x="24"></rect>
<rect fill="#9D66FF" height="4" width="4" x="28"></rect>
<rect fill="#9D66FF" height="4" width="4" y="4" x="28"></rect>
<rect fill="#9D66FF" height="4" width="4" y="8" x="28"></rect>
<rect fill="#9D66FF" height="4" width="4" y="12" x="28"></rect>
<rect fill="#9D66FF" height="4" width="4" y="16" x="28"></rect>
<rect fill="#9D66FF" height="4" width="4" y="20" x="28"></rect>
<rect fill="#9D66FF" height="4" width="4" y="24" x="28"></rect>
<rect fill="#C7AEFF" height="4" width="4" y="28" x="28"></rect>
<rect fill="#9D66FF" height="4" width="4" y="32" x="28"></rect>
<rect fill="#9D66FF" height="4" width="4" y="36" x="28"></rect>
<rect fill="#9D66FF" height="4" width="4" x="32"></rect>
<rect fill="#9D66FF" height="4" width="4" y="4" x="32"></rect>
<rect fill="#9D66FF" height="4" width="4" y="8" x="32"></rect>
<rect fill="#C7AEFF" height="4" width="4" y="12" x="32"></rect>
<rect fill="#9D66FF" height="4" width="4" y="12" x="32"></rect>
<rect fill="#9D66FF" height="4" width="4" y="20" x="32"></rect>
<rect fill="#9D66FF" height="4" width="4" y="24" x="32"></rect>
<rect fill="#9D66FF" height="4" width="4" y="28" x="32"></rect>
<rect fill="#C7AEFF" height="4" width="4" y="32" x="32"></rect>
<rect fill="#C7AEFF" height="4" width="4" y="36" x="32"></rect>
<rect fill="#9D66FF" height="4" width="4" x="36"></rect>
<rect fill="#9D66FF" height="4" width="4" y="4" x="36"></rect>
<rect fill="#9D66FF" height="4" width="4" y="8" x="36"></rect>
<rect fill="#9D66FF" height="4" width="4" y="12" x="36"></rect>
<rect fill="#9D66FF" height="4" width="4" y="16" x="36"></rect>
<rect fill="#9D66FF" height="4" width="4" y="16" x="32"></rect>
<rect fill="#9D66FF" height="4" width="4" y="20" x="36"></rect>
<rect fill="#9D66FF" height="4" width="4" y="24" x="36"></rect>
<rect fill="#9D66FF" height="4" width="4" y="28" x="36"></rect>
<rect fill="#9D66FF" height="4" width="4" y="32" x="36"></rect>
<rect fill="#9D66FF" height="4" width="4" y="36" x="36"></rect>
<rect fill="#59FFA4" height="4" width="4" y="4" x="16"></rect>
<rect fill="#59FFA4" height="4" width="4" y="8" x="12"></rect>
<rect fill="#59FFA4" height="4" width="4" y="12" x="12"></rect>
<rect fill="#59FFA4" height="4" width="4" y="16" x="12"></rect>
<rect fill="#C7AEFF" height="4" width="4" y="16" x="24"></rect>
<rect fill="#C7AEFF" height="4" width="4" y="8" x="24"></rect>
<rect fill="#C7AEFF" height="4" width="4" y="12" x="24"></rect>
<rect fill="#59FFA4" height="4" width="4" y="20" x="16"></rect>
<rect fill="#59FFA4" height="4" width="4" y="36" x="4"></rect>
<rect fill="#59FFA4" height="4" width="4" y="32" x="4"></rect>
<rect fill="#59FFA4" height="4" width="4" y="28" x="8"></rect>
<rect fill="#59FFA4" height="4" width="4" y="24" x="12"></rect>
<rect fill="#C7AEFF" height="4" width="4" y="4" x="20"></rect>
</g>
<defs>
<clipPath id="clip0_341_4811">
<rect fill="white" height="40" width="40"></rect>
</clipPath>
</defs>
</svg>
