<svg xmlns="http://www.w3.org/2000/svg" fill="none" viewBox="0 0 129 40" height="40" width="129">
<path fill="black" d="M41.7896 28.0805C40.2602 28.0805 38.9339 27.7397 37.8084 27.0526C36.6828 26.3679 35.821 25.4129 35.2219 24.1859C34.6229 22.9606 34.3221 21.5329 34.3221 19.9086C34.3221 18.2842 34.6229 16.8751 35.2219 15.6417C35.821 14.4083 36.6828 13.4492 37.8084 12.7645C38.9339 12.0798 40.2602 11.7366 41.7896 11.7366C43.6174 11.7366 45.1138 12.1802 46.2764 13.068C47.439 13.9567 48.1687 15.2047 48.4694 16.8152H45.9741C45.7499 15.8829 45.292 15.1359 44.6018 14.5807C43.9117 14.023 42.9684 13.7462 41.7687 13.7462C40.7036 13.7462 39.7893 13.9939 39.025 14.4908C38.2599 14.9878 37.6673 15.6951 37.2488 16.6129C36.828 17.5307 36.6183 18.629 36.6183 19.9086C36.6183 21.1881 36.828 22.2904 37.2488 23.2163C37.6673 24.1422 38.2599 24.8496 39.025 25.3384C39.7901 25.8273 40.7036 26.0725 41.7687 26.0725C42.9684 26.0725 43.9117 25.8062 44.6018 25.2712C45.292 24.7363 45.7483 24.0103 45.9741 23.0933H48.4694C48.1687 24.6578 47.439 25.8815 46.2764 26.7612C45.1138 27.641 43.619 28.0821 41.7896 28.0821V28.0805Z"></path>
<path fill="black" d="M55.2412 28.0797C54.1617 28.0797 53.1958 27.832 52.3395 27.3351C51.4857 26.8381 50.8181 26.1429 50.3376 25.2462C49.8571 24.3518 49.6184 23.3159 49.6184 22.1423C49.6184 20.9688 49.8627 19.8891 50.3497 18.9924C50.8367 18.0981 51.5083 17.4012 52.3621 16.9035C53.2159 16.4065 54.1754 16.1589 55.2412 16.1589C56.3071 16.1589 57.281 16.4065 58.1204 16.9035C58.9597 17.4004 59.6272 18.0932 60.1223 18.9794C60.6173 19.8681 60.864 20.9146 60.864 22.1172C60.864 23.3199 60.6173 24.3494 60.1223 25.2445C59.6272 26.1389 58.9556 26.8357 58.1099 27.3335C57.2625 27.8304 56.3071 28.078 55.2437 28.078L55.2412 28.0797ZM55.2187 26.1389C55.8177 26.1389 56.3692 25.9891 56.8723 25.6872C57.3738 25.3854 57.7825 24.9338 58.097 24.3324C58.4122 23.7311 58.5694 22.9921 58.5694 22.1205C58.5694 21.2488 58.4162 20.4913 58.1091 19.8964C57.8027 19.3015 57.4004 18.854 56.9053 18.5521C56.4103 18.2502 55.8629 18.1005 55.2638 18.1005C54.6648 18.1005 54.1093 18.2502 53.5997 18.5521C53.0902 18.854 52.6814 19.3007 52.375 19.8964C52.0686 20.4913 51.9146 21.2318 51.9146 22.1205C51.9146 23.0091 52.0678 23.7311 52.375 24.3324C52.6822 24.9338 53.0837 25.3854 53.5771 25.6872C54.0722 25.9891 54.6196 26.1389 55.2187 26.1389Z"></path>
<path fill="black" d="M68.1759 33.0473C67.4568 33.0473 66.7747 32.9575 66.1305 32.777C65.4863 32.5957 64.8977 32.3254 64.3648 31.9636C63.8319 31.6019 63.3949 31.1462 63.049 30.5991C62.7031 30.0496 62.479 29.428 62.3734 28.7368H64.622C64.7566 29.203 64.9848 29.6125 65.3081 29.9662C65.629 30.3199 66.0394 30.5942 66.5328 30.7901C67.0278 30.986 67.5672 31.0831 68.1518 31.0831C68.8105 31.0831 69.4119 30.9439 69.9505 30.6646C70.4891 30.3862 70.9204 29.9613 71.2437 29.3891C71.5654 28.8169 71.7267 28.0869 71.7267 27.1982V25.6629C71.4864 26.0684 71.1792 26.4415 70.8043 26.7806C70.4294 27.1197 69.9755 27.3901 69.445 27.594C68.9121 27.798 68.2945 27.8999 67.5898 27.8999C66.5409 27.8999 65.6 27.6523 64.7671 27.1553C63.9359 26.6584 63.2748 25.9632 62.7878 25.0664C62.3008 24.1721 62.0565 23.1588 62.0565 22.0306C62.0565 20.9024 62.3008 19.8567 62.7878 18.9826C63.2748 18.111 63.9383 17.4222 64.7776 16.9164C65.6169 16.413 66.5618 16.1613 67.6108 16.1613C68.2404 16.1613 68.8169 16.2551 69.341 16.4445C69.865 16.6339 70.3294 16.8856 70.7358 17.1996C71.1397 17.5161 71.4695 17.8779 71.7243 18.2833L71.9484 16.4316H73.9737V27.1319C73.9737 28.095 73.8261 28.9416 73.5343 29.6724C73.2424 30.4024 72.8377 31.0167 72.3201 31.5112C71.8017 32.0082 71.1929 32.3869 70.4883 32.6516C69.7836 32.9138 69.0104 33.0465 68.1711 33.0465H68.1776L68.1759 33.0473ZM67.9978 25.9591C68.7315 25.9591 69.374 25.7908 69.9215 25.4517C70.4689 25.1126 70.8954 24.6504 71.2026 24.0637C71.5098 23.4769 71.663 22.7987 71.663 22.0306C71.663 21.2625 71.5098 20.5681 71.2026 19.9878C70.8954 19.4091 70.4689 18.9535 69.9215 18.6233C69.374 18.2923 68.7339 18.1263 67.9978 18.1263C67.2617 18.1263 66.6634 18.2931 66.1095 18.6233C65.554 18.9543 65.1227 19.41 64.8163 19.9878C64.5099 20.5681 64.3559 21.2488 64.3559 22.0306C64.3559 22.8124 64.5091 23.4769 64.8163 24.0637C65.1235 24.6504 65.554 25.1142 66.1095 25.4517C66.6626 25.7908 67.2931 25.9591 67.9978 25.9591Z"></path>
<path fill="black" d="M76.1094 27.8109V16.4324H78.1339L78.2685 18.3732C78.6289 17.6804 79.1352 17.1397 79.7859 16.748C80.4389 16.3571 81.1992 16.1613 82.0676 16.1613C82.9819 16.1613 83.7607 16.3425 84.4057 16.7019C85.0499 17.0621 85.5498 17.6092 85.9021 18.3392C86.2544 19.0692 86.4302 19.983 86.4302 21.0812V27.8093H84.1816V21.3079C84.1816 20.2549 83.9494 19.4545 83.485 18.9025C83.0214 18.353 82.3457 18.0786 81.4605 18.0786C80.8759 18.0786 80.3519 18.2218 79.885 18.5075C79.4206 18.7949 79.0498 19.2068 78.7724 19.7499C78.4951 20.2905 78.3556 20.9542 78.3556 21.7368V27.8101H76.107L76.1094 27.8109Z"></path>
<path fill="black" d="M89.5763 14.286C89.141 14.286 88.7846 14.1509 88.5089 13.8806C88.2307 13.6102 88.092 13.2622 88.092 12.8422C88.092 12.4221 88.2307 12.1016 88.5089 11.837C88.7862 11.5747 89.141 11.442 89.5763 11.442C90.0117 11.442 90.3471 11.5731 90.6333 11.837C90.9171 12.1008 91.0598 12.4359 91.0598 12.8422C91.0598 13.2485 90.9171 13.6102 90.6333 13.8806C90.3471 14.1509 89.9972 14.286 89.5763 14.286ZM88.4508 27.8093V16.4308H90.6995V27.8093H88.4508Z"></path>
<path fill="black" d="M97.4061 27.8085C96.6869 27.8085 96.0653 27.696 95.5388 27.4694C95.0148 27.2444 94.6084 26.8681 94.3246 26.3396C94.0384 25.8135 93.8973 25.0972 93.8973 24.1948V18.3255H91.9414V16.43H93.8973L94.19 13.5633H96.1459V16.43H99.3403V18.3255H96.1459V24.2175C96.1459 24.8649 96.2814 25.306 96.5507 25.5383C96.82 25.7714 97.2844 25.8879 97.9455 25.8879H99.2492V27.8061H97.4045L97.4061 27.8085Z"></path>
<path fill="black" d="M101.843 14.286C101.408 14.286 101.052 14.1509 100.776 13.8806C100.498 13.6102 100.359 13.2622 100.359 12.8422C100.359 12.4221 100.498 12.1016 100.776 11.837C101.053 11.5747 101.408 11.442 101.843 11.442C102.279 11.442 102.614 11.5731 102.9 11.837C103.184 12.1008 103.327 12.4359 103.327 12.8422C103.327 13.2485 103.184 13.6102 102.9 13.8806C102.614 14.1509 102.263 14.286 101.843 14.286ZM100.718 27.8093V16.4308H102.966V27.8093H100.718Z"></path>
<path fill="black" d="M110.303 28.0797C109.222 28.0797 108.256 27.832 107.401 27.3351C106.547 26.8381 105.88 26.1429 105.398 25.2462C104.918 24.3518 104.679 23.3159 104.679 22.1423C104.679 20.9688 104.924 19.8891 105.411 18.9924C105.898 18.0981 106.57 17.4012 107.424 16.9035C108.277 16.4065 109.237 16.1589 110.303 16.1589C111.369 16.1589 112.342 16.4065 113.181 16.9035C114.02 17.4004 114.688 18.0932 115.183 18.9794C115.679 19.8681 115.925 20.9146 115.925 22.1172C115.925 23.3199 115.679 24.3494 115.183 25.2445C114.688 26.1389 114.016 26.8357 113.171 27.3335C112.323 27.8304 111.368 28.078 110.304 28.078L110.303 28.0797ZM110.279 26.1389C110.878 26.1389 111.43 25.9891 111.934 25.6872C112.435 25.3854 112.843 24.9338 113.158 24.3324C113.474 23.7311 113.631 22.9921 113.631 22.1205C113.631 21.2488 113.478 20.4913 113.171 19.8964C112.864 19.3015 112.462 18.854 111.967 18.5521C111.471 18.2502 110.924 18.1005 110.325 18.1005C109.726 18.1005 109.171 18.2502 108.661 18.5521C108.151 18.854 107.743 19.3007 107.436 19.8964C107.129 20.4913 106.976 21.2318 106.976 22.1205C106.976 23.0091 107.129 23.7311 107.436 24.3324C107.743 24.9338 108.145 25.3854 108.638 25.6872C109.134 25.9891 109.68 26.1389 110.279 26.1389Z"></path>
<path fill="black" d="M117.601 27.8109V16.4324H119.627L119.761 18.3732C120.122 17.6804 120.628 17.1397 121.279 16.748C121.931 16.3571 122.692 16.1613 123.56 16.1613C124.474 16.1613 125.253 16.3425 125.898 16.7019C126.543 17.0621 127.042 17.6092 127.395 18.3392C127.747 19.0692 127.923 19.983 127.923 21.0812V27.8093H125.674V21.3079C125.674 20.2549 125.442 19.4545 124.978 18.9025C124.513 18.353 123.838 18.0786 122.953 18.0786C122.369 18.0786 121.845 18.2218 121.378 18.5075C120.913 18.7949 120.542 19.2068 120.265 19.7499C119.987 20.2905 119.848 20.9542 119.848 21.7368V27.8101H117.6L117.601 27.8109Z"></path>
<path fill="black" d="M17.6474 18.3797C18.2239 18.0471 18.9366 18.0471 19.5131 18.3797L21.0031 19.2433C21.0506 19.27 21.1022 19.291 21.1546 19.3056C21.1651 19.3096 21.1756 19.3121 21.1877 19.3137C21.2393 19.3258 21.2917 19.3323 21.3433 19.3347H21.3514C21.3578 19.3347 21.3618 19.3347 21.3683 19.3323C21.4159 19.3323 21.4634 19.3242 21.511 19.3137C21.5191 19.3137 21.5279 19.3113 21.536 19.3072C21.586 19.2926 21.6352 19.2716 21.6811 19.2473C21.6851 19.2449 21.6916 19.2433 21.6956 19.2408L24.6739 17.5137C24.8876 17.3907 25.0182 17.1625 25.0182 16.9148V13.4613C25.0182 13.2137 24.8876 12.9846 24.6739 12.8624L21.6956 11.1353C21.482 11.0123 21.2191 11.0123 21.0055 11.1353L18.0272 12.8624C18.0272 12.8624 18.0191 12.8689 18.0151 12.8705C17.9699 12.8972 17.9256 12.9312 17.8885 12.9685C17.8821 12.9749 17.878 12.9806 17.8716 12.9871C17.8385 13.0227 17.8095 13.0623 17.7829 13.1036C17.7789 13.1101 17.7748 13.1158 17.7708 13.1247C17.7458 13.1708 17.7248 13.2185 17.7103 13.2703C17.7063 13.2809 17.7039 13.2914 17.7023 13.3035C17.6902 13.3553 17.6813 13.4095 17.6813 13.4662V15.1933C17.6813 15.8594 17.3249 16.481 16.7485 16.8136C16.172 17.1463 15.4593 17.1463 14.8828 16.8136L13.3929 15.9501C13.3453 15.9234 13.2937 15.9023 13.2413 15.8877C13.2308 15.8837 13.2203 15.8813 13.2082 15.8797C13.1566 15.8675 13.1042 15.861 13.0526 15.8586H13.0301C12.9801 15.8586 12.9325 15.8667 12.8849 15.8772C12.8769 15.8772 12.868 15.8797 12.8624 15.8813C12.8108 15.8958 12.7632 15.9169 12.7148 15.942C12.7108 15.9444 12.7043 15.946 12.7003 15.9484L9.72201 17.6756C9.50835 17.7986 9.37774 18.0268 9.37774 18.2745V21.728C9.37774 21.9756 9.50835 22.2047 9.72201 22.3269L12.7003 24.054C12.7003 24.054 12.7108 24.058 12.7148 24.0605C12.7624 24.0856 12.8099 24.1066 12.8624 24.1212C12.8704 24.1236 12.8793 24.1252 12.8873 24.1276C12.9349 24.1382 12.9825 24.1446 13.0301 24.1463C13.0365 24.1463 13.0405 24.1487 13.047 24.1487H13.055C13.1066 24.1487 13.1591 24.1406 13.2107 24.1276C13.2211 24.1252 13.2316 24.1212 13.2437 24.1196C13.2953 24.105 13.3453 24.0839 13.3953 24.0572L14.8852 23.1937C15.4617 22.861 16.1744 22.861 16.7501 23.1937C17.3241 23.5263 17.6829 24.1487 17.6829 24.8148V26.5419C17.6829 26.5978 17.691 26.652 17.7039 26.7038C17.7063 26.7143 17.7079 26.7264 17.7119 26.737C17.7265 26.7871 17.7474 26.8365 17.7716 26.8826C17.7756 26.8891 17.7797 26.8948 17.7845 26.9037C17.8095 26.945 17.8385 26.9846 17.874 27.0202C17.8805 27.0267 17.8845 27.0324 17.8909 27.0389C17.928 27.0761 17.9716 27.1076 18.0175 27.1368C18.0215 27.1392 18.0256 27.1433 18.0296 27.1449L21.0079 28.872C21.1135 28.9343 21.2336 28.9659 21.3522 28.9659C21.4707 28.9659 21.5908 28.9343 21.6964 28.872L24.6747 27.1449C24.8884 27.0219 25.019 26.7936 25.019 26.546V23.0925C25.019 22.8448 24.8884 22.6158 24.6747 22.4936L21.6964 20.7665C21.6964 20.7665 21.686 20.7624 21.6819 20.76C21.6344 20.7349 21.5868 20.7138 21.5352 20.6993C21.5271 20.6977 21.5207 20.6977 21.5126 20.6952C21.465 20.6831 21.4151 20.6766 21.3675 20.6766H21.3449C21.2933 20.6766 21.2417 20.6847 21.1893 20.6977C21.1788 20.7001 21.1683 20.7041 21.1587 20.7058C21.1071 20.7203 21.0571 20.7414 21.0071 20.7681L19.5171 21.6316C18.9431 21.9643 18.2279 21.9643 17.6523 21.6316C17.0782 21.299 16.7195 20.6766 16.7195 20.0105C16.7195 19.3444 17.0758 18.7229 17.6523 18.3894L17.6499 18.3813L17.6474 18.3797Z"></path>
<path fill="black" d="M1.4209 17.5169L4.39919 19.244C4.5048 19.3063 4.62494 19.3379 4.74345 19.3379C4.86197 19.3379 4.9821 19.3063 5.08772 19.244L8.06601 17.5169C8.06601 17.5169 8.07407 17.5104 8.0781 17.5088C8.12406 17.4821 8.16679 17.4481 8.20469 17.4109C8.21114 17.4044 8.21517 17.3987 8.22162 17.3922C8.25467 17.3566 8.2837 17.317 8.31111 17.2757C8.31514 17.2692 8.31917 17.2636 8.3232 17.2547C8.3482 17.2085 8.36916 17.1608 8.38367 17.109C8.3877 17.0985 8.39012 17.0879 8.39174 17.0758C8.40383 17.024 8.4127 16.9698 8.4127 16.9139V15.1868C8.4127 14.5207 8.76906 13.8991 9.34553 13.5665C9.922 13.2339 10.6347 13.2339 11.2112 13.5665L12.7011 14.4301C12.7487 14.4568 12.8003 14.4778 12.8527 14.4924C12.8632 14.4964 12.8737 14.4989 12.8858 14.5005C12.9374 14.5126 12.9874 14.5191 13.0414 14.5215H13.0494C13.0559 14.5215 13.0599 14.5191 13.0664 14.5191C13.1139 14.5191 13.1615 14.511 13.2091 14.5005C13.2171 14.5005 13.226 14.498 13.2341 14.494C13.2857 14.4794 13.3332 14.4584 13.3816 14.4333C13.3856 14.4317 13.3921 14.4293 13.3961 14.4268L16.3744 12.6997C16.5881 12.5767 16.7187 12.3484 16.7187 12.1008V8.64732C16.7187 8.39966 16.5881 8.17061 16.3744 8.0484L13.3961 6.32127C13.1825 6.19825 12.9196 6.19825 12.706 6.32127L9.72769 8.0484C9.72769 8.0484 9.71963 8.05488 9.7156 8.0565C9.67045 8.0832 9.62691 8.1172 9.58902 8.15443C9.58257 8.1609 9.57854 8.16657 9.57209 8.17304C9.53903 8.20865 9.51 8.24831 9.48259 8.28959C9.47856 8.29606 9.47453 8.30173 9.4705 8.31063C9.4455 8.35676 9.42454 8.40451 9.41003 8.45631C9.406 8.46683 9.40358 8.47735 9.40197 8.48949C9.38907 8.54129 9.381 8.59552 9.381 8.65217V10.3793C9.381 11.0454 9.02464 11.667 8.44817 12.0004C7.87412 12.3331 7.15898 12.3331 6.58251 12.0004L5.09256 11.1368C5.04499 11.1101 4.99339 11.0891 4.94099 11.0745C4.9305 11.0705 4.92002 11.0681 4.90793 11.0664C4.85633 11.0543 4.80392 11.0478 4.75232 11.0454H4.72975C4.67976 11.0454 4.63219 11.0535 4.58462 11.064C4.57656 11.064 4.56769 11.0664 4.56205 11.0681C4.51045 11.0826 4.46288 11.1037 4.4145 11.1288C4.41047 11.1312 4.40402 11.1328 4.39999 11.1352L1.4217 12.8624C1.20805 12.9854 1.07744 13.2136 1.07744 13.4613V16.9147C1.07744 17.1624 1.20805 17.3914 1.4217 17.5137V17.5177L1.4209 17.5169Z"></path>
<path fill="black" d="M16.3706 27.2953L13.3923 25.5682C13.3923 25.5682 13.3818 25.5641 13.3778 25.5617C13.3302 25.5366 13.2827 25.5164 13.2303 25.5018C13.2222 25.4994 13.2133 25.4978 13.2053 25.4953C13.1577 25.4848 13.1101 25.4767 13.0601 25.4767H13.0376C12.986 25.4767 12.9336 25.4848 12.882 25.4978C12.8715 25.5002 12.861 25.5042 12.8505 25.5059C12.7989 25.5204 12.7489 25.5415 12.6989 25.5682L11.209 26.4318C10.6349 26.7644 9.91979 26.7644 9.34574 26.4318C8.76927 26.0991 8.41291 25.4767 8.41291 24.8106V23.0835C8.41291 23.0277 8.40485 22.9734 8.39195 22.9208C8.39033 22.9103 8.38791 22.8982 8.38388 22.8876C8.36937 22.8375 8.34841 22.7881 8.32341 22.742C8.31938 22.7355 8.31535 22.7298 8.31132 22.7209C8.28633 22.6796 8.2573 22.64 8.22183 22.6044C8.21538 22.5979 8.21135 22.5922 8.2057 22.5858C8.16861 22.5485 8.12508 22.517 8.07912 22.4878C8.07509 22.4854 8.07106 22.4814 8.06703 22.4797L5.08874 20.7526C4.87508 20.6296 4.61225 20.6296 4.39859 20.7526L1.4203 22.4797C1.20665 22.6028 1.07603 22.831 1.07603 23.0787V26.5321C1.07603 26.7798 1.20665 27.0088 1.4203 27.131L4.39859 28.8582C4.39859 28.8582 4.40907 28.8622 4.4131 28.8646C4.46067 28.8897 4.50824 28.91 4.55823 28.9245C4.56629 28.927 4.57516 28.9286 4.58322 28.931C4.63079 28.9415 4.67675 28.948 4.72593 28.9496C4.73238 28.9496 4.73802 28.9512 4.74286 28.9512H4.75092C4.80252 28.9512 4.85493 28.9431 4.90411 28.9302C4.91459 28.9278 4.92668 28.9237 4.93716 28.9221C4.98876 28.9075 5.03875 28.8865 5.08874 28.8598L6.57869 27.9962C7.15516 27.6636 7.86788 27.6636 8.44435 27.9962C9.0184 28.3288 9.37718 28.9512 9.37718 29.6173V31.3445C9.37718 31.4003 9.38525 31.4545 9.39815 31.5071C9.40056 31.5177 9.40218 31.5298 9.40621 31.5403C9.42072 31.5905 9.44168 31.6399 9.46668 31.686C9.47071 31.6925 9.47474 31.6981 9.47877 31.707C9.50376 31.7483 9.53279 31.788 9.56826 31.8236C9.57471 31.8301 9.57874 31.8357 9.58439 31.8422C9.62148 31.8794 9.66501 31.911 9.71097 31.9401C9.715 31.9426 9.71903 31.9466 9.72387 31.9482L12.7022 33.6754C12.8078 33.7377 12.9279 33.7692 13.0464 33.7692C13.1649 33.7692 13.2851 33.7377 13.3907 33.6754L16.369 31.9482C16.5826 31.8252 16.7133 31.597 16.7133 31.3493V27.8959C16.7133 27.6482 16.5826 27.4191 16.369 27.2969L16.3706 27.2953Z"></path>
</svg>
