<svg xmlns="http://www.w3.org/2000/svg" fill="none" viewBox="0 0 24 24" height="24" width="24">
<path fill="#9B52FB" d="M11.9998 17.9999C11.8757 17.9999 11.7535 17.9689 11.6443 17.9099L1.89426 12.6599L2.60541 11.3399L11.9998 16.3981L21.3943 11.3399L22.1054 12.6604L12.3554 17.9104C12.2461 17.9693 12.1239 18 11.9998 17.9999Z"></path>
<path fill="#9B52FB" d="M11.9998 22.4999C11.8757 22.4999 11.7535 22.4689 11.6443 22.4099L1.89426 17.1599L2.60541 15.8399L11.9998 20.8981L21.3943 15.8399L22.1054 17.1604L12.3554 22.4104C12.2461 22.4693 12.1239 22.5 11.9998 22.4999Z"></path>
<path fill="#9B52FB" d="M11.9998 13.4999C11.8757 13.4999 11.7535 13.4689 11.6443 13.4099L1.89426 8.15987C1.77506 8.09565 1.67548 8.00036 1.60606 7.88411C1.53665 7.76787 1.5 7.635 1.5 7.4996C1.5 7.36421 1.53665 7.23134 1.60606 7.1151C1.67548 6.99885 1.77506 6.90356 1.89426 6.83934L11.6443 1.58934C11.7535 1.53038 11.8757 1.49951 11.9998 1.49951C12.124 1.49951 12.2462 1.53038 12.3554 1.58934L22.1054 6.83934C22.2246 6.90356 22.3242 6.99885 22.3936 7.1151C22.463 7.23134 22.4997 7.36421 22.4997 7.4996C22.4997 7.635 22.463 7.76787 22.3936 7.88411C22.3242 8.00036 22.2246 8.09565 22.1054 8.15987L12.3554 13.4099C12.2462 13.4689 12.124 13.4999 11.9998 13.4999ZM3.83188 7.49987L11.9998 11.8981L20.1678 7.49987L11.9998 3.10172L3.83188 7.49987Z"></path>
</svg>
