<svg xmlns="http://www.w3.org/2000/svg" fill="none" viewBox="0 0 93 40" height="40" width="93">
<g clip-path="url(#clip0_70_30)">
<mask height="28" width="93" y="6" x="0" maskUnits="userSpaceOnUse" style="mask-type:luminance" id="mask0_70_30">
<path fill="white" d="M93 6.57394H0V33.4261H93V6.57394Z"></path>
</mask>
<g mask="url(#mask0_70_30)">
<path fill="black" d="M26.7827 20C26.7827 27.2342 20.7871 33.0986 13.3914 33.0986C5.99551 33.0986 8.89172e-06 27.2342 8.89172e-06 20C8.89172e-06 12.7659 5.99551 6.90143 13.3914 6.90143C20.7871 6.90143 26.7827 12.7659 26.7827 20ZM8.1508 12.5962H15.3563C17.1649 12.5962 18.631 14.0624 18.631 15.8709V16.1556C18.631 17.9642 17.1649 19.4303 15.3563 19.4303H8.1508V12.5962ZM8.1508 21.709H18.1124C19.685 21.709 20.9599 22.9839 20.9599 24.5565C20.9599 26.1291 19.685 27.404 18.1124 27.404H8.1508V21.709Z" clip-rule="evenodd" fill-rule="evenodd"></path>
<path fill="black" d="M35.7103 28.3497V13.068H43.0309C44.9056 13.068 46.3341 13.4318 47.3161 14.1595C48.2982 14.8727 48.7892 15.8332 48.7892 17.0412C48.7892 17.8562 48.5957 18.5548 48.2089 19.137C47.822 19.7046 47.3012 20.1485 46.6466 20.4687C46.0067 20.7743 45.3074 20.9271 44.5486 20.9271L44.9503 20.1412C45.8282 20.1412 46.6168 20.3013 47.3161 20.6215C48.0155 20.9271 48.566 21.3783 48.9677 21.975C49.3843 22.5717 49.5927 23.314 49.5927 24.2018C49.5927 25.5116 49.0793 26.5304 48.0526 27.2581C47.026 27.9858 45.5008 28.3497 43.4772 28.3497H35.7103ZM38.6118 26.1229H43.2987C44.3849 26.1229 45.2181 25.9483 45.7984 25.599C46.3787 25.2496 46.6688 24.6894 46.6688 23.918C46.6688 23.1611 46.3787 22.6081 45.7984 22.2588C45.2181 21.895 44.3849 21.713 43.2987 21.713H38.3886V19.5081H42.7184C43.7302 19.5081 44.5039 19.3335 45.0396 18.9842C45.5901 18.6349 45.8654 18.1109 45.8654 17.4124C45.8654 16.6992 45.5901 16.168 45.0396 15.8187C44.5039 15.4694 43.7302 15.2947 42.7184 15.2947H38.6118V26.1229Z"></path>
<path fill="black" d="M59.7643 28.3497V25.992L59.6081 25.4899V21.3638C59.6081 20.5633 59.3626 19.9448 58.8716 19.5082C58.3806 19.057 57.6366 18.8314 56.6396 18.8314C55.9701 18.8314 55.308 18.9333 54.6533 19.137C54.0135 19.3408 53.4704 19.6246 53.024 19.9884L51.9304 18.0018C52.5702 17.5215 53.329 17.165 54.2069 16.9321C55.0996 16.6847 56.0222 16.561 56.9744 16.561C58.7004 16.561 60.0321 16.9685 60.9695 17.7835C61.9218 18.584 62.3979 19.8283 62.3979 21.5166V28.3497H59.7643ZM56.0148 28.5025C55.122 28.5025 54.3408 28.357 53.6712 28.0659C53.0017 27.7603 52.4809 27.3455 52.109 26.8215C51.7518 26.283 51.5733 25.6791 51.5733 25.0096C51.5733 24.3547 51.7295 23.7652 52.042 23.2413C52.3693 22.7173 52.8976 22.3025 53.6266 21.9969C54.3557 21.6913 55.3228 21.5385 56.5281 21.5385H59.9875V23.3504H56.729C55.7767 23.3504 55.1368 23.5033 54.8095 23.8088C54.4822 24.1 54.3185 24.4638 54.3185 24.9004C54.3185 25.3952 54.5194 25.7882 54.9211 26.0793C55.3228 26.3703 55.8808 26.5159 56.595 26.5159C57.2795 26.5159 57.8895 26.3631 58.4252 26.0575C58.9757 25.7518 59.37 25.3006 59.6081 24.7039L60.0768 26.3413C59.809 27.0253 59.3254 27.5565 58.626 27.9349C57.9416 28.3133 57.0712 28.5025 56.0148 28.5025Z"></path>
<path fill="black" d="M69.6609 28.5025C68.6641 28.5025 67.7047 28.3788 66.7819 28.1314C65.8741 27.8694 65.1526 27.5565 64.6169 27.1927L65.6881 25.1187C66.2239 25.4534 66.8637 25.73 67.6077 25.9483C68.3517 26.1666 69.0957 26.2758 69.8397 26.2758C70.7174 26.2758 71.35 26.1593 71.7364 25.9265C72.1385 25.6936 72.339 25.3807 72.339 24.9877C72.339 24.6675 72.2053 24.4274 71.9375 24.2673C71.6696 24.0927 71.3199 23.9617 70.8883 23.8743C70.4573 23.787 69.9734 23.707 69.4376 23.6342C68.917 23.5614 68.3891 23.4668 67.8533 23.3504C67.3327 23.2194 66.8565 23.0375 66.4249 22.8046C65.9933 22.5572 65.6436 22.2297 65.3757 21.8223C65.1079 21.4148 64.974 20.8762 64.974 20.2067C64.974 19.4645 65.1898 18.8241 65.6213 18.2856C66.0529 17.7325 66.6555 17.3105 67.429 17.0195C68.2175 16.7138 69.1475 16.561 70.219 16.561C71.0226 16.561 71.8334 16.6483 72.652 16.823C73.47 16.9976 74.1472 17.245 74.6829 17.5652L73.6115 19.6392C73.0463 19.3044 72.4732 19.0788 71.893 18.9624C71.3277 18.8314 70.7619 18.7659 70.1967 18.7659C69.3485 18.7659 68.7159 18.8896 68.2994 19.137C67.8979 19.3845 67.6968 19.6973 67.6968 20.0758C67.6968 20.4251 67.8311 20.6871 68.0989 20.8617C68.3668 21.0363 68.7159 21.1746 69.1475 21.2765C69.5791 21.3783 70.0552 21.4656 70.5759 21.5385C71.1116 21.5966 71.6401 21.6913 72.1608 21.8223C72.6815 21.9532 73.1576 22.1352 73.5892 22.368C74.0352 22.5864 74.3928 22.8992 74.6607 23.3068C74.9285 23.7143 75.0622 24.2455 75.0622 24.9004C75.0622 25.6281 74.8388 26.2612 74.3928 26.7997C73.9612 27.3382 73.3436 27.7603 72.54 28.0659C71.7364 28.357 70.7769 28.5025 69.6609 28.5025Z"></path>
<path fill="black" d="M77.4644 28.3497V16.692H80.2544V28.3497H77.4644ZM78.8706 14.7708C78.3499 14.7708 77.9183 14.6107 77.5764 14.2905C77.249 13.9703 77.0852 13.5846 77.0852 13.1335C77.0852 12.6678 77.249 12.2821 77.5764 11.9764C77.9183 11.6563 78.3499 11.4962 78.8706 11.4962C79.3919 11.4962 79.8156 11.649 80.1431 11.9546C80.485 12.2457 80.6566 12.6168 80.6566 13.068C80.6566 13.5483 80.4928 13.9558 80.1654 14.2905C79.8379 14.6107 79.4063 14.7708 78.8706 14.7708Z"></path>
<path fill="black" d="M87.5988 28.5025C86.602 28.5025 85.6425 28.3788 84.7197 28.1314C83.812 27.8694 83.0903 27.5565 82.5545 27.1927L83.626 25.1187C84.1617 25.4534 84.8016 25.73 85.5456 25.9483C86.2896 26.1666 87.0336 26.2758 87.7776 26.2758C88.6552 26.2758 89.2879 26.1593 89.6743 25.9265C90.0764 25.6936 90.2775 25.3807 90.2775 24.9877C90.2775 24.6675 90.1432 24.4274 89.8753 24.2673C89.6075 24.0927 89.2577 23.9617 88.8261 23.8743C88.3952 23.787 87.9112 23.707 87.3755 23.6342C86.8548 23.5614 86.3269 23.4668 85.7912 23.3504C85.2705 23.2194 84.7944 23.0375 84.3628 22.8046C83.9312 22.5572 83.5815 22.2297 83.3136 21.8223C83.0457 21.4148 82.9121 20.8762 82.9121 20.2067C82.9121 19.4645 83.1276 18.8241 83.5592 18.2856C83.9908 17.7325 84.5933 17.3105 85.3668 17.0195C86.1553 16.7138 87.0853 16.561 88.1568 16.561C88.9604 16.561 89.7712 16.6483 90.5899 16.823C91.4079 16.9976 92.0851 17.245 92.6208 17.5652L91.5493 19.6392C90.9841 19.3044 90.4111 19.0788 89.8308 18.9624C89.2656 18.8314 88.6997 18.7659 88.1345 18.7659C87.2864 18.7659 86.6544 18.8896 86.2372 19.137C85.8357 19.3845 85.6347 19.6973 85.6347 20.0758C85.6347 20.4251 85.7689 20.6871 86.0368 20.8617C86.3047 21.0363 86.6544 21.1746 87.0853 21.2765C87.5169 21.3783 87.9931 21.4656 88.5137 21.5385C89.0495 21.5966 89.578 21.6913 90.0987 21.8223C90.6193 21.9532 91.0955 22.1352 91.5271 22.368C91.9737 22.5864 92.3307 22.8992 92.5985 23.3068C92.8664 23.7143 93 24.2455 93 24.9004C93 25.6281 92.7767 26.2612 92.3307 26.7997C91.8991 27.3382 91.2815 27.7603 90.4779 28.0659C89.6743 28.357 88.7148 28.5025 87.5988 28.5025Z"></path>
</g>
</g>
<defs>
<clipPath id="clip0_70_30">
<rect transform="translate(0 6.57394)" fill="white" height="26.8521" width="93"></rect>
</clipPath>
</defs>
</svg>
