<svg xmlns="http://www.w3.org/2000/svg" fill="none" viewBox="0 0 40 40" height="40" width="40">
<rect fill="#8A05FF" height="40" width="40"></rect>
<rect fill="#C7AEFF" transform="rotate(-45 17.1714 8.17139)" height="4" width="4" y="8.17139" x="17.1714"></rect>
<rect fill="#C7AEFF" transform="rotate(-90 32 11)" height="4" width="4" y="11" x="32"></rect>
<rect fill="#C7AEFF" transform="rotate(-45 17.1714 13.8286)" height="4" width="4" y="13.8286" x="17.1714"></rect>
<rect fill="#C7AEFF" transform="rotate(-90 28 15)" height="4" width="4" y="15" x="28"></rect>
<rect fill="#C7AEFF" transform="rotate(-90 8 15)" height="4" width="4" y="15" x="8"></rect>
<rect fill="#C7AEFF" transform="rotate(-90 4 11)" height="4" width="4" y="11" x="4"></rect>
<rect fill="#59FFA4" transform="rotate(-90 4 25)" height="4" width="4" y="25" x="4"></rect>
<rect fill="#59FFA4" transform="rotate(-90 8 25)" height="4" width="4" y="25" x="8"></rect>
<rect fill="#59FFA4" transform="rotate(-90 4 33)" height="4" width="4" y="33" x="4"></rect>
<rect fill="#59FFA4" transform="rotate(-90 8 33)" height="6" width="4" y="33" x="8"></rect>
<rect fill="#59FFA4" transform="rotate(-90 10 29)" height="4" width="4" y="29" x="10"></rect>
<rect fill="#59FFA4" transform="rotate(-90 12 25)" height="4" width="4" y="25" x="12"></rect>
<rect fill="#59FFA4" transform="rotate(-90 16 25)" height="4" width="4" y="25" x="16"></rect>
<rect fill="#59FFA4" transform="rotate(-90 20 25)" height="4" width="4" y="25" x="20"></rect>
<rect fill="#59FFA4" transform="rotate(-90 32 25)" height="4" width="4" y="25" x="32"></rect>
<rect fill="#59FFA4" transform="rotate(-90 24 25)" height="4" width="4" y="25" x="24"></rect>
<rect fill="#59FFA4" transform="rotate(-90 28 25)" height="4" width="4" y="25" x="28"></rect>
<rect fill="#59FFA4" transform="rotate(-90 32 29)" height="4" width="4" y="29" x="32"></rect>
<rect fill="#59FFA4" transform="rotate(-90 26 29)" height="4" width="4" y="29" x="26"></rect>
<rect fill="#59FFA4" transform="rotate(-90 26 31)" height="4" width="2" y="31" x="26"></rect>
<rect fill="#59FFA4" transform="rotate(-90 32 31)" height="4" width="2" y="31" x="32"></rect>
<rect fill="#59FFA4" transform="rotate(-90 4 29)" height="4" width="4" y="29" x="4"></rect>
</svg>
