<svg xmlns="http://www.w3.org/2000/svg" fill="none" viewBox="0 0 24 24" height="24" width="24">
<path fill="#5CFFB8" d="M12 5.25C11.555 5.25 11.12 5.11804 10.75 4.87081C10.38 4.62357 10.0916 4.27217 9.92127 3.86104C9.75097 3.44991 9.70642 2.99751 9.79323 2.56105C9.88005 2.12459 10.0943 1.72368 10.409 1.40901C10.7237 1.09434 11.1246 0.880051 11.561 0.793234C11.9975 0.706417 12.4499 0.750975 12.861 0.921272C13.2722 1.09157 13.6236 1.37996 13.8708 1.74997C14.118 2.11998 14.25 2.55499 14.25 3C14.2493 3.59654 14.0121 4.16845 13.5903 4.59027C13.1685 5.01208 12.5965 5.24935 12 5.25ZM12 2.25C11.8517 2.25 11.7067 2.29399 11.5833 2.3764C11.46 2.45881 11.3639 2.57594 11.3071 2.71299C11.2503 2.85003 11.2355 3.00083 11.2644 3.14632C11.2934 3.2918 11.3648 3.42544 11.4697 3.53033C11.5746 3.63522 11.7082 3.70665 11.8537 3.73559C11.9992 3.76453 12.15 3.74968 12.287 3.69291C12.4241 3.63615 12.5412 3.54002 12.6236 3.41668C12.706 3.29334 12.75 3.14834 12.75 3C12.7498 2.80115 12.6707 2.6105 12.5301 2.46989C12.3895 2.32928 12.1989 2.2502 12 2.25Z"></path>
<path fill="#5CFFB8" d="M8.25 22.5C7.80499 22.5 7.36998 22.368 6.99997 22.1208C6.62996 21.8736 6.34157 21.5222 6.17127 21.111C6.00097 20.6999 5.95642 20.2475 6.04323 19.811C6.13005 19.3746 6.34434 18.9737 6.65901 18.659C6.97368 18.3443 7.37459 18.1301 7.81105 18.0432C8.24751 17.9564 8.6999 18.001 9.11104 18.1713C9.52217 18.3416 9.87357 18.63 10.1208 19C10.368 19.37 10.5 19.805 10.5 20.25C10.4993 20.8465 10.2621 21.4185 9.84027 21.8403C9.41845 22.2621 8.84654 22.4993 8.25 22.5ZM8.25 19.5C8.10167 19.5 7.95666 19.544 7.83332 19.6264C7.70999 19.7088 7.61386 19.8259 7.55709 19.963C7.50033 20.1 7.48547 20.2508 7.51441 20.3963C7.54335 20.5418 7.61478 20.6754 7.71967 20.7803C7.82456 20.8852 7.9582 20.9567 8.10368 20.9856C8.24917 21.0145 8.39997 20.9997 8.53701 20.9429C8.67406 20.8861 8.79119 20.79 8.8736 20.6667C8.95601 20.5433 9 20.3983 9 20.25C8.9998 20.0511 8.92072 19.8605 8.78011 19.7199C8.6395 19.5793 8.44885 19.5002 8.25 19.5Z"></path>
<path fill="#5CFFB8" d="M5.25 8.25C4.80499 8.25 4.36998 8.11804 3.99997 7.87081C3.62996 7.62357 3.34157 7.27217 3.17127 6.86104C3.00098 6.4499 2.95642 5.99751 3.04323 5.56105C3.13005 5.12459 3.34434 4.72368 3.65901 4.40901C3.97368 4.09434 4.37459 3.88005 4.81105 3.79323C5.24751 3.70642 5.6999 3.75098 6.11104 3.92127C6.52217 4.09157 6.87357 4.37996 7.12081 4.74997C7.36804 5.11998 7.5 5.55499 7.5 6C7.49935 6.59654 7.26208 7.16845 6.84027 7.59027C6.41845 8.01208 5.84654 8.24935 5.25 8.25ZM5.25 5.25C5.10167 5.25 4.95666 5.29399 4.83332 5.3764C4.70999 5.45881 4.61386 5.57594 4.55709 5.71299C4.50033 5.85003 4.48547 6.00083 4.51441 6.14632C4.54335 6.2918 4.61478 6.42544 4.71967 6.53033C4.82456 6.63522 4.9582 6.70665 5.10368 6.73559C5.24917 6.76453 5.39997 6.74968 5.53701 6.69291C5.67406 6.63615 5.79119 6.54002 5.8736 6.41668C5.95601 6.29334 6 6.14834 6 6C5.9998 5.80115 5.92072 5.6105 5.78011 5.46989C5.6395 5.32928 5.44885 5.2502 5.25 5.25Z"></path>
<path fill="#5CFFB8" d="M15.75 22.5C15.305 22.5 14.87 22.368 14.5 22.1208C14.13 21.8736 13.8416 21.5222 13.6713 21.111C13.501 20.6999 13.4564 20.2475 13.5432 19.811C13.6301 19.3746 13.8443 18.9737 14.159 18.659C14.4737 18.3443 14.8746 18.1301 15.311 18.0432C15.7475 17.9564 16.1999 18.001 16.611 18.1713C17.0222 18.3416 17.3736 18.63 17.6208 19C17.868 19.37 18 19.805 18 20.25C17.9993 20.8465 17.7621 21.4185 17.3403 21.8403C16.9185 22.2621 16.3465 22.4993 15.75 22.5ZM15.75 19.5C15.6017 19.5 15.4567 19.544 15.3333 19.6264C15.21 19.7088 15.1139 19.8259 15.0571 19.963C15.0003 20.1 14.9855 20.2508 15.0144 20.3963C15.0434 20.5418 15.1148 20.6754 15.2197 20.7803C15.3246 20.8852 15.4582 20.9567 15.6037 20.9856C15.7492 21.0145 15.9 20.9997 16.037 20.9429C16.1741 20.8861 16.2912 20.79 16.3736 20.6667C16.456 20.5433 16.5 20.3983 16.5 20.25C16.4998 20.0511 16.4207 19.8605 16.2801 19.7199C16.1395 19.5793 15.9489 19.5002 15.75 19.5Z"></path>
<path fill="#5CFFB8" d="M18.75 8.25C18.305 8.25 17.87 8.11804 17.5 7.87081C17.13 7.62357 16.8416 7.27217 16.6713 6.86104C16.501 6.4499 16.4564 5.99751 16.5432 5.56105C16.6301 5.12459 16.8443 4.72368 17.159 4.40901C17.4737 4.09434 17.8746 3.88005 18.311 3.79323C18.7475 3.70642 19.1999 3.75098 19.611 3.92127C20.0222 4.09157 20.3736 4.37996 20.6208 4.74997C20.868 5.11998 21 5.55499 21 6C20.9993 6.59654 20.7621 7.16845 20.3403 7.59027C19.9185 8.01208 19.3465 8.24935 18.75 8.25ZM18.75 5.25C18.6017 5.25 18.4567 5.29399 18.3333 5.3764C18.21 5.45881 18.1139 5.57594 18.0571 5.71299C18.0003 5.85003 17.9855 6.00083 18.0144 6.14632C18.0434 6.2918 18.1148 6.42544 18.2197 6.53033C18.3246 6.63522 18.4582 6.70665 18.6037 6.73559C18.7492 6.76453 18.9 6.74968 19.037 6.69291C19.1741 6.63615 19.2912 6.54002 19.3736 6.41668C19.456 6.29334 19.5 6.14834 19.5 6C19.4998 5.80115 19.4207 5.6105 19.2801 5.46989C19.1395 5.32928 18.9489 5.2502 18.75 5.25Z"></path>
<path fill="#5CFFB8" d="M3 15.75C2.55499 15.75 2.11998 15.618 1.74997 15.3708C1.37996 15.1236 1.09157 14.7722 0.921272 14.361C0.750975 13.9499 0.706417 13.4975 0.793234 13.061C0.880051 12.6246 1.09434 12.2237 1.40901 11.909C1.72368 11.5943 2.12459 11.3801 2.56105 11.2932C2.99751 11.2064 3.44991 11.251 3.86104 11.4213C4.27217 11.5916 4.62357 11.88 4.87081 12.25C5.11804 12.62 5.25 13.055 5.25 13.5C5.24935 14.0965 5.01208 14.6685 4.59027 15.0903C4.16845 15.5121 3.59654 15.7493 3 15.75ZM3 12.75C2.85167 12.75 2.70666 12.794 2.58332 12.8764C2.45999 12.9588 2.36386 13.0759 2.30709 13.213C2.25033 13.35 2.23547 13.5008 2.26441 13.6463C2.29335 13.7918 2.36478 13.9254 2.46967 14.0303C2.57456 14.1352 2.7082 14.2067 2.85368 14.2356C2.99917 14.2645 3.14997 14.2497 3.28701 14.1929C3.42406 14.1361 3.54119 14.04 3.6236 13.9167C3.70601 13.7933 3.75 13.6483 3.75 13.5C3.7498 13.3012 3.67072 13.1105 3.53011 12.9699C3.3895 12.8293 3.19885 12.7502 3 12.75Z"></path>
<path fill="#5CFFB8" d="M21 15.75C20.555 15.75 20.12 15.618 19.75 15.3708C19.38 15.1236 19.0916 14.7722 18.9213 14.361C18.751 13.9499 18.7064 13.4975 18.7932 13.061C18.8801 12.6246 19.0943 12.2237 19.409 11.909C19.7237 11.5943 20.1246 11.3801 20.561 11.2932C20.9975 11.2064 21.4499 11.251 21.861 11.4213C22.2722 11.5916 22.6236 11.88 22.8708 12.25C23.118 12.62 23.25 13.055 23.25 13.5C23.2493 14.0965 23.0121 14.6685 22.5903 15.0903C22.1685 15.5121 21.5965 15.7493 21 15.75ZM21 12.75C20.8517 12.75 20.7067 12.794 20.5833 12.8764C20.46 12.9588 20.3639 13.0759 20.3071 13.213C20.2503 13.35 20.2355 13.5008 20.2644 13.6463C20.2934 13.7918 20.3648 13.9254 20.4697 14.0303C20.5746 14.1352 20.7082 14.2067 20.8537 14.2356C20.9992 14.2645 21.15 14.2497 21.287 14.1929C21.4241 14.1361 21.5412 14.04 21.6236 13.9167C21.706 13.7933 21.75 13.6483 21.75 13.5C21.7498 13.3012 21.6707 13.1105 21.5301 12.9699C21.3895 12.8293 21.1989 12.7502 21 12.75Z"></path>
<path fill="#5CFFB8" d="M12 16.5C11.11 16.5 10.24 16.2361 9.49994 15.7416C8.75991 15.2471 8.18314 14.5443 7.84254 13.7221C7.50195 12.8998 7.41283 11.995 7.58647 11.1221C7.7601 10.2492 8.18868 9.44736 8.81802 8.81802C9.44736 8.18868 10.2492 7.7601 11.1221 7.58647C11.995 7.41283 12.8998 7.50195 13.7221 7.84254C14.5443 8.18314 15.2471 8.75991 15.7416 9.49994C16.2361 10.24 16.5 11.11 16.5 12C16.4986 13.1931 16.0241 14.3369 15.1805 15.1805C14.3369 16.0241 13.1931 16.4986 12 16.5ZM12 9C11.4067 9 10.8266 9.17595 10.3333 9.50559C9.83994 9.83524 9.45543 10.3038 9.22836 10.852C9.0013 11.4001 8.94189 12.0033 9.05765 12.5853C9.1734 13.1672 9.45912 13.7018 9.87868 14.1213C10.2982 14.5409 10.8328 14.8266 11.4147 14.9424C11.9967 15.0581 12.5999 14.9987 13.1481 14.7716C13.6962 14.5446 14.1648 14.1601 14.4944 13.6667C14.8241 13.1734 15 12.5933 15 12C14.9991 11.2046 14.6828 10.4421 14.1203 9.87967C13.5579 9.31725 12.7954 9.00089 12 9Z"></path>
</svg>
