<svg xmlns="http://www.w3.org/2000/svg" fill="none" viewBox="0 0 109 22" height="22" width="109">
<g clip-path="url(#clip0_5177_1358)">
<path fill="#0D0D0D" d="M18.6705 0.849397C19.0549 0.849397 19.3676 1.16122 19.3676 1.54479V14.7017C19.367 14.8844 19.2949 15.0595 19.1668 15.1896L15.0114 19.427C14.9466 19.4932 14.8693 19.5459 14.7839 19.5818C14.6985 19.6178 14.6068 19.6364 14.5142 19.6364H1.61587C1.43126 19.6364 1.25421 19.5631 1.12367 19.4325C0.993135 19.3019 0.9198 19.1248 0.9198 18.9401V5.8874C0.9198 5.7047 0.99151 5.52966 1.11868 5.39957L5.37828 1.05696C5.44321 0.99105 5.52062 0.938746 5.60599 0.903107C5.69136 0.867468 5.78297 0.849209 5.87548 0.849397H18.6705ZM6.12025 5.76975C5.92902 5.76975 5.77317 5.92661 5.77317 6.11888V14.3679C5.77317 14.5592 5.92806 14.7161 6.12025 14.7161H14.1652C14.2575 14.7161 14.346 14.6794 14.4113 14.6141C14.4766 14.5488 14.5132 14.4603 14.5132 14.3679V6.11888C14.5132 5.92661 14.3564 5.76975 14.1652 5.76975H6.12025ZM31.7152 9.86461C32.6292 9.86461 33.3502 9.6494 33.8789 9.21801C34.4143 8.78088 34.6821 8.16583 34.6821 7.37575C34.6821 6.58566 34.4277 5.98783 33.9181 5.58322C33.4094 5.17766 32.6943 4.97488 31.7735 4.97488H29.3449V9.86461H31.7152ZM26.9249 17.2729V2.94705H31.9791C33.5204 2.94705 34.7614 3.36122 35.7013 4.19053C36.6412 5.02079 37.1116 6.07583 37.1116 7.35661C37.1116 8.20601 36.8831 8.97696 36.4261 9.66853C35.9757 10.361 35.3523 10.9072 34.5549 11.3051C33.7651 11.6973 32.8864 11.8934 31.9207 11.8934H29.3439V17.2729H26.9249ZM37.9932 10.0703C38.0659 9.63983 38.2064 9.2247 38.4148 8.82679C38.6242 8.42792 38.9015 8.0587 39.2467 7.71914C39.5938 7.37957 40.0345 7.10792 40.57 6.90609C41.1361 6.69149 41.7374 6.58507 42.3427 6.59235C43.0091 6.59235 43.5962 6.67079 44.1058 6.82766C44.6221 6.98453 45.0399 7.19592 45.3602 7.4647C45.6853 7.72583 45.954 8.04531 46.1634 8.42409C46.3718 8.79714 46.5153 9.18548 46.5937 9.59105C46.6797 9.98896 46.7208 10.4232 46.7208 10.8938V14.8825C46.7208 15.9471 46.7734 16.7439 46.8776 17.2738H44.5083C44.4701 16.8683 44.45 16.4598 44.45 16.0485V15.5684H44.4309C44.3316 15.8053 44.2031 16.029 44.0484 16.2341C43.8737 16.4687 43.6693 16.6796 43.4403 16.8616C43.186 17.071 42.8599 17.2346 42.4612 17.3513C42.0692 17.4757 41.6294 17.5378 41.1389 17.5378C40.0097 17.5378 39.1176 17.2413 38.4646 16.6464C37.8182 16.0447 37.495 15.3101 37.495 14.4416C37.495 14.1604 37.5314 13.8992 37.6031 13.6572C37.6748 13.4152 37.7628 13.2029 37.867 13.0202C37.9721 12.8308 38.1156 12.6577 38.2982 12.5008C38.4621 12.3525 38.6355 12.2151 38.8174 12.0895C38.9876 11.9785 39.196 11.8743 39.4446 11.7757C39.6932 11.6782 39.9045 11.6036 40.0814 11.55C40.2631 11.4917 40.4925 11.4362 40.7669 11.3836C41.0414 11.3252 41.2536 11.2831 41.4037 11.2564C41.5539 11.2305 41.7527 11.2009 42.0013 11.1684L42.51 11.0899C43.2089 10.9847 43.7023 10.8412 43.9891 10.6595C44.2827 10.4758 44.4299 10.1717 44.4299 9.74696C44.4299 9.33566 44.2473 9.00948 43.8821 8.76748C43.5159 8.52548 43.0167 8.40496 42.3828 8.40496C41.8216 8.40496 41.3483 8.55514 40.963 8.85548C40.5776 9.15009 40.3223 9.5547 40.198 10.0703H37.9951H37.9932ZM40.3147 13.3731C40.1508 13.48 40.017 13.6271 39.9261 13.8004C39.8352 13.9738 39.7902 14.1675 39.7955 14.3631C39.7955 14.7811 39.9657 15.1236 40.3051 15.3914C40.6513 15.6535 41.1245 15.7836 41.726 15.7836C42.0732 15.7868 42.4182 15.7272 42.7442 15.6076C43.0579 15.4832 43.3457 15.2967 43.6067 15.049C43.8744 14.8003 44.0828 14.454 44.233 14.0102C44.3898 13.5654 44.4682 13.046 44.4682 12.452V11.374C44.3439 11.7011 44.0953 11.9814 43.7243 12.2167C43.3514 12.4463 42.7576 12.6376 41.9411 12.7954C41.2096 12.9322 40.6666 13.1254 40.3147 13.3731ZM50.9823 6.89557V8.82583C51.4795 7.4934 52.517 6.81714 54.0975 6.79801V9.00279C53.6146 9.00279 53.2656 9.03531 53.0495 9.10035C52.8201 9.14627 52.6193 9.20557 52.4424 9.27731C52.2438 9.36337 52.0615 9.48274 51.9031 9.63027C51.7123 9.79758 51.556 10.0007 51.4432 10.2281C51.3256 10.4624 51.2271 10.78 51.1487 11.1779C51.0656 11.6271 51.0265 12.0833 51.0321 12.54V17.2729H48.7V6.89653H50.9823V6.89557ZM54.8423 10.0712C54.914 9.63983 55.0546 9.2247 55.263 8.82583C55.4733 8.42792 55.7506 8.0587 56.0958 7.71914C56.4419 7.37957 56.8827 7.10792 57.4181 6.90609C57.9845 6.69137 58.5861 6.58495 59.1918 6.59235C59.8572 6.59235 60.4443 6.67079 60.9549 6.82766C61.4712 6.98453 61.8881 7.19592 62.2084 7.4647C62.5344 7.72583 62.8022 8.04531 63.0116 8.42409C63.221 8.79714 63.3644 9.18548 63.4418 9.59105C63.5279 9.98896 63.5699 10.4232 63.5699 10.8938V14.8825C63.5699 15.9471 63.6225 16.7439 63.7267 17.2738H61.3555C61.3173 16.8683 61.2981 16.4598 61.2981 16.0485V15.5684H61.2781C61.1788 15.8053 61.0503 16.029 60.8956 16.2341C60.7212 16.4686 60.5171 16.6795 60.2885 16.8616C60.0341 17.071 59.7071 17.2346 59.3094 17.3513C58.9174 17.4757 58.4766 17.5378 57.987 17.5378C56.8569 17.5378 55.9658 17.2413 55.3127 16.6464C54.6664 16.0447 54.3432 15.3101 54.3432 14.4416C54.3432 14.1604 54.3786 13.8992 54.4503 13.6572C54.522 13.4152 54.6109 13.2029 54.7151 13.0202C54.8203 12.8308 54.9637 12.6577 55.1454 12.5008C55.3096 12.3525 55.4834 12.2151 55.6655 12.0895C55.8348 11.9785 56.0442 11.8743 56.2918 11.7757C56.5404 11.6782 56.7527 11.6036 56.9286 11.55C57.1112 11.4917 57.3397 11.4362 57.6141 11.3836C57.8886 11.3252 58.1018 11.2831 58.2509 11.2564C58.401 11.2305 58.5999 11.2009 58.8485 11.1684L59.3581 11.0899C60.0561 10.9847 60.5495 10.8412 60.8373 10.6595C61.1308 10.4758 61.2771 10.1717 61.2771 9.74696C61.2771 9.33566 61.0954 9.00948 60.7292 8.76748C60.364 8.52548 59.8639 8.40496 59.231 8.40496C58.6688 8.40496 58.1955 8.55514 57.8101 8.85548C57.4248 9.15009 57.1695 9.5547 57.0462 10.0703H54.8423V10.0712ZM57.1638 13.3731C56.9999 13.48 56.8661 13.6271 56.7752 13.8004C56.6843 13.9738 56.6394 14.1675 56.6446 14.3631C56.6446 14.7811 56.8148 15.1236 57.1542 15.3914C57.5004 15.6535 57.9736 15.7836 58.5741 15.7836C58.9403 15.7836 59.2797 15.7252 59.5933 15.6076C59.9138 15.4787 60.2064 15.289 60.4548 15.049C60.7226 14.8003 60.9319 14.454 61.0821 14.0102C61.2389 13.5654 61.3173 13.046 61.3173 12.452V11.374C61.193 11.7011 60.9444 11.9814 60.5724 12.2167C60.1995 12.4463 59.6067 12.6376 58.7902 12.7954C58.0587 12.9322 57.5166 13.1254 57.1638 13.3731ZM69.7217 6.64114C70.5507 6.64114 71.2592 6.85635 71.8472 7.28775C72.442 7.71818 72.8435 8.2127 73.052 8.76748H73.0711V2.94705H75.4423V17.2729H73.0329V15.4899H73.0137C72.7977 16.0189 72.3989 16.4924 71.8186 16.9104C71.243 17.3284 70.545 17.5378 69.7217 17.5378C68.2981 17.5378 67.1392 17.0347 66.2443 16.0284C65.3493 15.0222 64.9028 13.6993 64.9028 12.0598C64.9028 10.4337 65.3465 9.12331 66.2347 8.13044C67.1297 7.13757 68.2914 6.64114 69.7217 6.64114ZM67.2138 12.0598C67.2138 13.1254 67.472 13.9939 67.9883 14.6664C68.5103 15.333 69.2485 15.6659 70.2017 15.6659C70.698 15.6659 71.1426 15.5684 71.5336 15.3723C71.9257 15.1762 72.2393 14.9084 72.4745 14.5688C72.7154 14.2292 72.899 13.8466 73.0223 13.4219C73.1466 12.9972 73.2088 12.5438 73.2088 12.0598C73.2111 11.6115 73.145 11.1654 73.0128 10.737C72.897 10.3294 72.7117 9.94495 72.4649 9.60061C72.2175 9.2625 71.8912 8.98997 71.5145 8.8067C71.108 8.60055 70.6575 8.49617 70.2017 8.50253C69.2676 8.50253 68.5361 8.83635 68.0074 9.50209C67.4786 10.1688 67.2138 11.021 67.2138 12.0598ZM79.9582 5.23027H77.5296V2.94609H79.9582V5.23027ZM77.5095 17.2729V6.89653H79.8406V17.2748H77.5095V17.2729ZM89.49 6.89653H91.8994V16.2743C91.8994 17.0969 91.7617 17.8257 91.4883 18.4599C91.2129 19.1008 90.8343 19.6125 90.3505 19.998C89.87 20.3856 89.3222 20.6814 88.7346 20.8704C88.1078 21.0702 87.4534 21.1693 86.7955 21.164C85.4187 21.164 84.278 20.8378 83.3773 20.1845C82.4824 19.5312 81.9699 18.6694 81.8389 17.5971H84.1317C84.3134 18.7603 85.2026 19.3418 86.7955 19.3418C87.6379 19.3418 88.2976 19.1104 88.7748 18.6464C89.2509 18.1825 89.489 17.4766 89.489 16.5297V15.2651H89.4699C88.9344 16.6177 87.8502 17.293 86.218 17.293C84.7876 17.293 83.625 16.8042 82.731 15.8237C81.8418 14.8376 81.3981 13.5405 81.3981 11.9336C81.3981 10.3333 81.8389 9.05253 82.7205 8.09218C83.602 7.12609 84.7676 6.64209 86.218 6.64209C87.0594 6.64209 87.7584 6.82479 88.3139 7.19114C88.8685 7.55653 89.2547 8.00131 89.4699 8.52357H89.489V6.89748L89.49 6.89653ZM83.7101 11.9336C83.7101 12.5668 83.8153 13.1426 84.0237 13.6582C84.2331 14.168 84.5687 14.5889 85.0324 14.9227C85.4962 15.2489 86.0517 15.4124 86.698 15.4124C87.1159 15.4124 87.4945 15.3407 87.8339 15.1972C88.18 15.0537 88.465 14.8672 88.6858 14.6386C88.9086 14.4033 89.0941 14.1317 89.2442 13.8256C89.3943 13.5176 89.5024 13.2077 89.5674 12.8939C89.6331 12.578 89.6661 12.2562 89.6659 11.9336C89.6659 11.5414 89.5999 11.1492 89.4699 10.757C89.3455 10.3648 89.1603 9.99462 88.921 9.65992C88.6809 9.30948 88.358 9.02366 87.9812 8.82775C87.5889 8.61 87.1466 8.49824 86.698 8.50348C86.0641 8.50348 85.5162 8.66705 85.0525 8.99418C84.6037 9.31022 84.251 9.74419 84.0333 10.2482C83.813 10.7824 83.703 11.3557 83.7101 11.9336ZM93.9666 17.2738V6.89653H96.2489V8.62114C96.4048 8.09218 96.7289 7.62827 97.2184 7.23035C97.708 6.82479 98.296 6.62201 98.9816 6.62201C99.7321 6.62201 100.35 6.78557 100.833 7.1127C101.315 7.43218 101.682 7.92861 101.929 8.60201C102.236 7.93531 102.622 7.43888 103.085 7.1127C103.556 6.78557 104.147 6.62201 104.859 6.62201C106.099 6.62201 107.036 7.00461 107.67 7.76983C108.31 8.52644 108.63 9.5327 108.63 10.7867V17.2738H106.328V11.2764C106.328 10.4414 106.181 9.79096 105.887 9.32705C105.593 8.85644 105.143 8.62114 104.536 8.62114C103.902 8.62114 103.392 8.94157 103.007 9.58148C102.622 10.2224 102.429 11.1205 102.429 12.277V17.2738H100.166V11.2764C100.166 10.3955 100.039 9.73166 99.7847 9.28783C99.5361 8.84401 99.0762 8.62114 98.4031 8.62114C96.9995 8.62114 96.2977 9.89905 96.2977 12.453V17.2738H93.9666Z"></path>
</g>
<defs>
<clipPath id="clip0_5177_1358">
<rect fill="white" height="22" width="109"></rect>
</clipPath>
</defs>
</svg>
