<svg xmlns="http://www.w3.org/2000/svg" fill="none" viewBox="0 0 100 40" height="40" width="100">
<g clip-path="url(#clip0_70_36)">
<path fill="black" d="M34.5955 21.6019C33.7441 21.1313 33.296 20.7504 33.296 20.2126C33.296 19.5179 33.9009 19.0921 34.8644 19.0921C35.9847 19.0921 36.9706 19.5627 36.9706 19.5627L37.7548 17.165C37.7548 17.165 37.0378 16.6047 34.9092 16.6047C31.9516 16.6047 29.8902 18.3078 29.8902 20.6832C29.8902 22.0277 30.8537 23.0585 32.1308 23.798C33.1615 24.3806 33.52 24.8064 33.52 25.4115C33.52 26.0613 33.0047 26.5767 32.0412 26.5767C30.6072 26.5767 29.2628 25.8372 29.2628 25.8372L28.4338 28.235C28.4338 28.235 29.6885 29.0641 31.7723 29.0641C34.8196 29.0641 36.993 27.5627 36.993 24.8736C37.0378 23.3947 35.9175 22.3638 34.5955 21.6019Z"></path>
<path fill="black" d="M46.7398 16.5598C45.2386 16.5598 44.0735 17.2769 43.1548 18.3526L43.11 18.3301L44.4096 11.5178H41.0038L37.71 28.84H41.0934L42.2137 22.924C42.6619 20.6831 43.8046 19.3161 44.8801 19.3161C45.6419 19.3161 45.9332 19.8315 45.9332 20.571C45.9332 21.0416 45.8884 21.6019 45.7764 22.0724L44.4992 28.8624H47.8826L49.2046 21.8708C49.3614 21.1313 49.451 20.2573 49.451 19.6523C49.4958 17.7027 48.51 16.5598 46.7398 16.5598Z"></path>
<path fill="black" d="M57.1591 16.5599C53.0811 16.5599 50.3699 20.235 50.3699 24.3358C50.3699 26.9577 51.9832 29.0866 55.0304 29.0866C59.0412 29.0866 61.73 25.5011 61.73 21.3106C61.7524 18.8681 60.3408 16.5599 57.1591 16.5599ZM55.501 26.4647C54.3358 26.4647 53.8653 25.4787 53.8653 24.2462C53.8653 22.2966 54.8736 19.137 56.7109 19.137C57.9209 19.137 58.3018 20.1678 58.3018 21.1762C58.3018 23.2826 57.2935 26.4647 55.501 26.4647Z"></path>
<path fill="black" d="M70.4233 16.5599C68.1379 16.5599 66.8383 18.5767 66.8383 18.5767H66.7935L66.9952 16.7616H63.9927C63.8359 17.9941 63.567 19.8541 63.2981 21.2658L60.9454 33.6356H64.3288L65.2699 28.616H65.3371C65.3371 28.616 66.0317 29.0641 67.3313 29.0641C71.3196 29.0641 73.9188 24.9857 73.9188 20.8625C73.9188 18.5992 72.9105 16.5599 70.4233 16.5599ZM67.1968 26.5319C66.323 26.5319 65.8076 26.0389 65.8076 26.0389L66.3678 22.8793C66.7711 20.7728 67.869 19.3611 69.0341 19.3611C70.0648 19.3611 70.3785 20.3246 70.3785 21.221C70.3785 23.3947 69.079 26.5319 67.1968 26.5319Z"></path>
<path fill="black" d="M78.7588 11.6971C77.6833 11.6971 76.8094 12.5487 76.8094 13.6691C76.8094 14.6775 77.4368 15.3722 78.4003 15.3722H78.4451C79.4982 15.3722 80.4169 14.6551 80.4393 13.4002C80.4617 12.3918 79.7895 11.6971 78.7588 11.6971Z"></path>
<path fill="black" d="M74.0085 28.8401H77.4143L79.7221 16.8289H76.2939L74.0085 28.8401Z"></path>
<path fill="black" d="M88.3264 16.8063H85.9737L86.0858 16.2461C86.2874 15.0808 86.9596 14.05 88.1024 14.05C88.7073 14.05 89.1779 14.2293 89.1779 14.2293L89.8501 11.585C89.8501 11.585 89.2675 11.2937 88.0127 11.2937C86.8028 11.2937 85.6152 11.6298 84.6966 12.4141C83.5314 13.4001 82.9937 14.8119 82.7248 16.2461L82.6352 16.8063H81.0667L80.5738 19.3609H82.1422L80.3497 28.8399H83.7331L85.5256 19.3609H87.8559L88.3264 16.8063Z"></path>
<path fill="black" d="M96.4822 16.8289C96.4822 16.8289 94.3535 22.1622 93.4125 25.0754H93.3677C93.3004 24.1342 92.5386 16.8289 92.5386 16.8289H88.976L91.015 27.8541C91.0598 28.1006 91.0374 28.2574 90.9478 28.4143C90.5444 29.1762 89.8947 29.9157 89.1104 30.4535C88.4831 30.9241 87.766 31.2154 87.2059 31.4171L88.147 34.2854C88.8416 34.1286 90.2532 33.5684 91.4631 32.4479C93.0092 30.9913 94.4432 28.7728 95.8996 25.7252L100.045 16.8289H96.4822Z"></path>
<path fill="black" d="M16.7599 9.03037C16.7599 9.03037 16.4462 9.12 15.9309 9.27687C15.8413 8.98555 15.7068 8.64941 15.5276 8.29087C14.945 7.17042 14.0711 6.56538 13.0404 6.56538C12.9732 6.56538 12.906 6.56538 12.8164 6.58779C12.794 6.54297 12.7492 6.52056 12.7268 6.47574C12.2786 5.98275 11.6961 5.75866 11.0015 5.78107C9.65707 5.82588 8.31269 6.78947 7.23718 8.51496C6.47536 9.72504 5.89279 11.2489 5.73594 12.4365C4.1899 12.9071 3.11439 13.2433 3.09198 13.2657C2.30776 13.5122 2.28535 13.5346 2.19572 14.2741C2.1285 14.8343 0.0671101 30.6102 0.0671101 30.6102L17.0064 33.5458V9.00796C16.872 9.00796 16.8047 9.03037 16.7599 9.03037ZM12.8388 10.2405C11.9425 10.5094 10.9566 10.8231 9.99317 11.1144C10.262 10.0612 10.7998 9.00796 11.4272 8.31328C11.6737 8.06678 12.0098 7.77546 12.3907 7.59619C12.7716 8.40292 12.8612 9.50096 12.8388 10.2405ZM11.0015 6.69983C11.3152 6.69983 11.584 6.76706 11.8081 6.90152C11.4496 7.08079 11.0911 7.3721 10.755 7.70824C9.90355 8.62701 9.25376 10.0612 8.98488 11.4281C8.17825 11.6746 7.37162 11.9211 6.6322 12.1452C7.12514 9.99395 8.94007 6.74465 11.0015 6.69983ZM8.40231 19.0248C8.49194 20.4589 12.2786 20.7727 12.5027 24.1564C12.6595 26.8231 11.0911 28.6382 8.82804 28.7727C6.09445 28.9519 4.59321 27.3385 4.59321 27.3385L5.17578 24.8735C5.17578 24.8735 6.67702 26.0164 7.88696 25.9267C8.67119 25.8819 8.96247 25.232 8.94007 24.7839C8.82804 22.9015 5.73594 23.0136 5.53429 19.9211C5.35503 17.3217 7.05792 14.6998 10.8222 14.4533C12.2786 14.3637 13.018 14.7222 13.018 14.7222L12.1666 17.9491C12.1666 17.9491 11.2031 17.501 10.0604 17.5906C8.40231 17.7026 8.37991 18.7559 8.40231 19.0248ZM13.735 9.97154C13.735 9.29927 13.6454 8.33569 13.3317 7.52897C14.3624 7.73065 14.8554 8.8735 15.0794 9.56818C14.6761 9.68023 14.228 9.81468 13.735 9.97154Z"></path>
<path fill="black" d="M17.5219 33.5009L24.5576 31.753C24.5576 31.753 21.5327 11.2937 21.5103 11.1592C21.4879 11.0248 21.3758 10.9351 21.2638 10.9351C21.1518 10.9351 19.18 10.8903 19.18 10.8903C19.18 10.8903 17.9701 9.72503 17.5219 9.27686V33.5009Z"></path>
</g>
<defs>
<clipPath id="clip0_70_36">
<rect transform="translate(0 5.71387)" fill="white" height="28.5682" width="100"></rect>
</clipPath>
</defs>
</svg>
