<svg width="756" height="464" viewBox="0 0 756 464" fill="none" xmlns="http://www.w3.org/2000/svg">
<g clip-path="url(#clip0_376_11971)">
<mask id="mask0_376_11971" style="mask-type:alpha" maskUnits="userSpaceOnUse" x="21" y="1" width="735" height="463">
<rect x="21" y="1" width="735" height="463" fill="url(#paint0_linear_376_11971)"></rect>
</mask>
<g mask="url(#mask0_376_11971)">
<g opacity="0.16">
<path d="M20.865 0.162109V464" stroke="#C29EFF" stroke-width="0.667949" stroke-linecap="round" stroke-linejoin="round"></path>
<path d="M59.6563 0.162109V464" stroke="#C29EFF" stroke-width="0.667949" stroke-linecap="round" stroke-linejoin="round"></path>
<path d="M98.4478 0.162109V464" stroke="#C29EFF" stroke-width="0.667949" stroke-linecap="round" stroke-linejoin="round"></path>
<path d="M137.239 0.162109V464" stroke="#C29EFF" stroke-width="0.667949" stroke-linecap="round" stroke-linejoin="round"></path>
<path d="M176.031 0.162109V464" stroke="#C29EFF" stroke-width="0.667949" stroke-linecap="round" stroke-linejoin="round"></path>
<path d="M214.822 0.162109V464" stroke="#C29EFF" stroke-width="0.667949" stroke-linecap="round" stroke-linejoin="round"></path>
<path d="M253.613 0.162109V464" stroke="#C29EFF" stroke-width="0.667949" stroke-linecap="round" stroke-linejoin="round"></path>
<path d="M292.405 0.162109V464" stroke="#C29EFF" stroke-width="0.667949" stroke-linecap="round" stroke-linejoin="round"></path>
<path d="M331.196 0.162109V464" stroke="#C29EFF" stroke-width="0.667949" stroke-linecap="round" stroke-linejoin="round"></path>
<path d="M369.987 0.162109V464" stroke="#C29EFF" stroke-width="0.667949" stroke-linecap="round" stroke-linejoin="round"></path>
<path d="M408.779 0.162109V464" stroke="#C29EFF" stroke-width="0.667949" stroke-linecap="round" stroke-linejoin="round"></path>
<path d="M447.57 0.162109V464" stroke="#C29EFF" stroke-width="0.667949" stroke-linecap="round" stroke-linejoin="round"></path>
<path d="M486.362 0.162109V464" stroke="#C29EFF" stroke-width="0.667949" stroke-linecap="round" stroke-linejoin="round"></path>
<path d="M525.153 0.162109V464" stroke="#C29EFF" stroke-width="0.667949" stroke-linecap="round" stroke-linejoin="round"></path>
<path d="M563.944 0.162109V464" stroke="#C29EFF" stroke-width="0.667949" stroke-linecap="round" stroke-linejoin="round"></path>
<path d="M602.736 0.162109V464" stroke="#C29EFF" stroke-width="0.667949" stroke-linecap="round" stroke-linejoin="round"></path>
<path d="M641.527 0.162109V464" stroke="#C29EFF" stroke-width="0.667949" stroke-linecap="round" stroke-linejoin="round"></path>
<path d="M680.318 0.162109V464" stroke="#C29EFF" stroke-width="0.667949" stroke-linecap="round" stroke-linejoin="round"></path>
<path d="M719.11 0.162109V464" stroke="#C29EFF" stroke-width="0.667949" stroke-linecap="round" stroke-linejoin="round"></path>
<path d="M2.79443 39.1504H754.999" stroke="#C29EFF" stroke-width="0.667949" stroke-linecap="round" stroke-linejoin="round"></path>
<path d="M2.79443 77.9419H754.999" stroke="#C29EFF" stroke-width="0.667949" stroke-linecap="round" stroke-linejoin="round"></path>
<path d="M2.79443 116.733H754.999" stroke="#C29EFF" stroke-width="0.667949" stroke-linecap="round" stroke-linejoin="round"></path>
<path d="M2.79443 155.525H754.999" stroke="#C29EFF" stroke-width="0.667949" stroke-linecap="round" stroke-linejoin="round"></path>
<path d="M2.79443 194.316H754.999" stroke="#C29EFF" stroke-width="0.667949" stroke-linecap="round" stroke-linejoin="round"></path>
<path d="M2.79443 233.107H754.999" stroke="#C29EFF" stroke-width="0.667949" stroke-linecap="round" stroke-linejoin="round"></path>
<path d="M2.79443 271.899H754.999" stroke="#C29EFF" stroke-width="0.667949" stroke-linecap="round" stroke-linejoin="round"></path>
<path d="M2.79443 310.69H754.999" stroke="#C29EFF" stroke-width="0.667949" stroke-linecap="round" stroke-linejoin="round"></path>
<path d="M2.79443 349.482H754.999" stroke="#C29EFF" stroke-width="0.667949" stroke-linecap="round" stroke-linejoin="round"></path>
<path d="M2.79443 388.273H754.999" stroke="#C29EFF" stroke-width="0.667949" stroke-linecap="round" stroke-linejoin="round"></path>
<path d="M2.79443 427.064H754.999" stroke="#C29EFF" stroke-width="0.667949" stroke-linecap="round" stroke-linejoin="round"></path>
</g>
</g>
<path d="M180.5 310.5H98.5L60 233L40 272H2.5V465.5H756V116L719 233L682.5 233L643.184 116L603.5 195H564.5L525 258L486 153.5L449 233H409.5H370L346 194.5L292 310.5L253.5 233L214.5 310.5L195.5 288L180.5 310.5Z" fill="url(#paint1_linear_376_11971)" stroke="url(#paint2_radial_376_11971)"></path>
</g>
<defs>
<linearGradient id="paint0_linear_376_11971" x1="466.971" y1="-69.5" x2="139.698" y2="236.66" gradientUnits="userSpaceOnUse">
<stop stop-color="#D9D9D9"></stop>
<stop offset="1" stop-color="#D9D9D9" stop-opacity="0"></stop>
</linearGradient>
<linearGradient id="paint1_linear_376_11971" x1="136.5" y1="113.5" x2="126.5" y2="354.5" gradientUnits="userSpaceOnUse">
<stop stop-color="#48008C" stop-opacity="0.5"></stop>
<stop offset="1" stop-color="#0D0D0D" stop-opacity="0"></stop>
</linearGradient>
<radialGradient id="paint2_radial_376_11971" cx="0" cy="0" r="1" gradientUnits="userSpaceOnUse" gradientTransform="translate(386 177) rotate(91.9137) scale(209.617 434.995)">
<stop stop-color="#F680FF"></stop>
<stop offset="0.5" stop-color="#AA77FD"></stop>
<stop offset="1" stop-color="#AA77FD" stop-opacity="0"></stop>
</radialGradient>
<clipPath id="clip0_376_11971">
<rect width="756" height="464" fill="white"></rect>
</clipPath>
</defs>
</svg>
