<svg xmlns="http://www.w3.org/2000/svg" fill="none" viewBox="0 0 118 40" height="40" width="118">
<g clip-path="url(#clip0_69_16)">
<path fill="black" d="M12.4122 2.58905H15.9749V3.26006H15.3039C15.1866 3.26006 14.9819 3.39547 14.6871 3.66327C14.3922 3.93108 14.2447 4.14171 14.2447 4.28012V14.5108C14.2447 14.6522 14.3922 14.8569 14.6871 15.1277C14.9819 15.3985 15.1866 15.5339 15.3039 15.5339H15.9749V16.2019H10.7182V15.5279H11.3892C11.5065 15.5279 11.7081 15.3925 11.991 15.1216C12.2738 14.8508 12.4152 14.6462 12.4152 14.5048V4.59908L7.47442 16.4456L2.53962 4.39447V14.5078C2.53962 14.6492 2.68104 14.8538 2.96088 15.1247C3.24072 15.3955 3.44534 15.5309 3.56269 15.5309H4.23069V16.1989H0V15.5279H0.671013C0.812437 15.5279 1.02307 15.3925 1.30592 15.1216C1.58877 14.8508 1.72718 14.6462 1.72718 14.5048V4.28012C1.72718 4.14171 1.58576 3.93409 1.30592 3.66327C1.02608 3.39246 0.812437 3.26006 0.671013 3.26006H0V2.58905H3.94784L8.04012 12.7806H8.14544L12.4122 2.58905ZM20.8766 14.8238C21.4771 14.8595 22.0755 14.7261 22.6038 14.4386C23.0422 14.1384 23.4039 13.7396 23.66 13.2741H24.2257C23.9743 14.1482 23.4932 14.9389 22.8325 15.564C22.1077 16.1651 21.1817 16.4684 20.2417 16.4125C19.6828 16.4328 19.127 16.322 18.6186 16.0889C18.1102 15.8559 17.6634 15.5071 17.3139 15.0705C16.5808 14.1647 16.1937 13.0278 16.2217 11.8629C16.189 11.2394 16.281 10.6157 16.4923 10.0282C16.7036 9.44078 17.03 8.90138 17.4524 8.44161C17.8302 8.03531 18.2887 7.71247 18.7986 7.4938C19.3085 7.27513 19.8585 7.16545 20.4132 7.1718C21.0165 7.15797 21.6163 7.26647 22.1765 7.49075C22.685 7.70741 23.1507 8.01311 23.5517 8.39346L22.2668 10.4125L21.7372 10.4456C21.8574 9.84473 21.8212 9.22303 21.6319 8.6402C21.5195 8.36898 21.3193 8.1433 21.0635 7.99928C20.8076 7.85526 20.5109 7.80122 20.2207 7.84582C19.8424 7.82178 19.4644 7.89685 19.124 8.06361C18.7837 8.23036 18.4927 8.48304 18.2798 8.79667C17.8256 9.55128 17.6047 10.4234 17.6449 11.3032C17.6195 12.2148 17.9264 13.1046 18.5085 13.8067C18.8011 14.1437 19.166 14.4103 19.5761 14.5864C19.9862 14.7625 20.4308 14.8437 20.8766 14.8238ZM29.6209 16.1989H24.2949V15.5279H24.9749C25.1164 15.5279 25.327 15.3925 25.6098 15.1216C25.8927 14.8508 26.0311 14.6462 26.0311 14.5048V4.28012C26.0311 4.14171 25.8927 3.93409 25.6098 3.66327C25.327 3.39246 25.1073 3.26006 24.9749 3.26006H24.2949V2.58905H29.6209V3.26006H28.9499C28.8084 3.26006 28.5978 3.39547 28.3149 3.66327C28.0321 3.93108 27.8937 4.14171 27.8937 4.28012V9.85284L32.7593 4.42155C32.8526 4.3042 32.7593 4.08153 32.5125 3.75354C32.2658 3.42556 32.0642 3.26006 31.9468 3.26006H31.2939V2.58905H36.2287V3.26006H35.5577C35.2262 3.37402 34.9219 3.55536 34.664 3.79266C34.1916 4.15675 33.9117 4.39447 33.8154 4.48173L30.5055 8.04141L35.2658 14.3604C35.4968 14.6296 35.7629 14.8664 36.0572 15.0645C36.2935 15.2818 36.5782 15.4396 36.8877 15.5249H37.8746C38.1083 15.4764 38.3197 15.3527 38.4764 15.1728C38.7352 14.9351 38.8646 14.7365 38.8646 14.571V9.0073C38.8646 8.86588 38.7352 8.67631 38.4764 8.44161C38.3197 8.26166 38.1083 8.13801 37.8746 8.08955H37.342V7.41854H40.4804V14.577C40.4804 14.7425 40.6159 14.9411 40.8867 15.1788C41.0424 15.3495 41.244 15.4717 41.4674 15.5309H42.5627C42.68 15.5309 42.8636 15.4135 43.1254 15.1788C43.3872 14.9441 43.5135 14.7425 43.5135 14.577V9.0073C43.5135 8.86588 43.3842 8.67631 43.1254 8.44161C42.8666 8.2069 42.68 8.08955 42.5627 8.08955H41.997V7.41854H44.7834L45.1354 9.20891C45.6138 8.7037 46.1266 8.23216 46.67 7.79768C47.2219 7.38275 47.8998 7.17026 48.5898 7.19587C48.9138 7.19 49.2356 7.2496 49.536 7.37111C49.8364 7.49261 50.1092 7.67352 50.338 7.90299C50.5788 8.14171 50.7674 8.42789 50.8917 8.74335C51.016 9.05881 51.0734 9.39667 51.0602 9.73549V14.577C51.0602 14.7425 51.1896 14.9411 51.4483 15.1788C51.7071 15.4165 51.8937 15.5309 52.011 15.5309H52.5767V16.1989H47.9579V15.5279H48.4453C48.6788 15.4788 48.89 15.3552 49.0471 15.1758C49.3059 14.9381 49.4353 14.7395 49.4353 14.574V9.85284C49.4525 9.45785 49.3264 9.06995 49.0802 8.76056C48.9482 8.61401 48.7844 8.49959 48.6013 8.42606C48.4183 8.35252 48.2208 8.32182 48.0241 8.33629C47.3265 8.35754 46.6536 8.59872 46.1013 9.02536C45.4574 9.48273 45.1354 9.86488 45.1354 10.1718V14.577C45.1354 14.7425 45.2648 14.9411 45.5236 15.1788C45.6803 15.3588 45.8917 15.4824 46.1254 15.5309H46.6189V16.1989H34.002L29.2688 9.39547L27.8937 10.8759V14.5078C27.8937 14.6492 28.0321 14.8538 28.3149 15.1247C28.5978 15.3955 28.8084 15.5309 28.9499 15.5309H29.6209V16.1989ZM34.345 31.5449L34.3029 31.5028C34.7513 31.8789 35.2056 32.255 35.663 32.6312C36.1204 33.0073 36.6078 33.3714 37.1254 33.7265H37.9348V34.4306H36.4544C35.8517 34.4408 35.2527 34.3335 34.6911 34.1146C34.0912 33.8461 33.5424 33.4755 33.0692 33.0193C32.5355 33.5568 31.8919 33.9725 31.1825 34.238C30.3618 34.5234 29.4967 34.66 28.6279 34.6412C27.5236 34.647 26.4547 34.2525 25.6189 33.5309C25.1863 33.1819 24.8402 32.7377 24.6074 32.233C24.3746 31.7283 24.2615 31.1767 24.2768 30.6211C24.2679 29.7948 24.4754 28.9804 24.8786 28.2591C25.2698 27.5661 25.8181 26.9745 26.4794 26.5319C26.163 26.1301 25.8963 25.6917 25.6851 25.226C25.4767 24.7364 25.3742 24.2083 25.3842 23.6763C25.359 23.2617 25.4245 22.8466 25.5763 22.4599C25.7281 22.0733 25.9623 21.7244 26.2628 21.4376C26.9348 20.878 27.7939 20.5942 28.667 20.6432C29.17 20.6263 29.6721 20.6975 30.1505 20.8538C30.4642 20.9829 30.7984 21.0552 31.1374 21.0675C31.2678 21.0707 31.3981 21.0586 31.5256 21.0314C31.6323 20.9963 31.721 20.9207 31.7723 20.8207H32.3741V24.0284H31.7723C31.6789 23.366 31.3601 22.756 30.8696 22.3012C30.5962 21.9747 30.2533 21.7134 29.866 21.5364C29.4787 21.3593 29.0567 21.2711 28.6309 21.2781C28.0124 21.2441 27.4012 21.4248 26.9007 21.7897C26.6907 21.9612 26.5238 22.1795 26.4136 22.4273C26.3033 22.675 26.2527 22.9451 26.2658 23.2159C26.2623 23.7464 26.4503 24.2603 26.7954 24.6633C27.1751 25.1059 27.6606 25.4454 28.2066 25.6502C29.0752 26.5931 30.015 27.5389 31.0261 28.4877C32.0371 29.4366 33.001 30.3243 33.9178 31.1507C34.1687 30.7484 34.3536 30.3086 34.4654 29.8478C34.5756 29.354 34.6292 28.8493 34.6249 28.3433C34.6371 28.0716 34.5914 27.8004 34.4907 27.5478C34.3901 27.2951 34.2368 27.0668 34.0411 26.8779C33.6102 26.4978 33.0472 26.3022 32.4734 26.3333V25.6502H37.3119V26.2851H36.7854C36.668 26.2851 36.4363 26.4837 36.0963 26.8869C35.8428 27.1242 35.6649 27.4308 35.5848 27.7686V27.8047C35.5614 28.4819 35.4429 29.1525 35.2327 29.7967C35.0305 30.4206 34.7309 31.0086 34.345 31.5389V31.5449ZM29.7262 33.5911C30.2826 33.5986 30.8365 33.5152 31.3661 33.3443C31.8359 33.1867 32.2807 32.9628 32.6871 32.6793L32.5817 32.6101C31.5787 31.7154 30.5918 30.7987 29.6209 29.8599C28.65 28.921 27.7091 27.9331 26.7984 26.896C26.4621 27.2483 26.1884 27.6553 25.989 28.0996C25.7791 28.6377 25.6828 29.2135 25.7061 29.7907C25.7197 30.2953 25.8418 30.7911 26.064 31.2443C26.2862 31.6976 26.6034 32.0977 26.994 32.4175C27.7211 33.1426 28.6996 33.5596 29.7262 33.582V33.5911ZM39.4935 5.27009H39.4574C39.1618 5.27275 38.8772 5.15805 38.666 4.95114C38.5575 4.85339 38.4713 4.7335 38.4132 4.59957C38.355 4.46564 38.3263 4.32079 38.329 4.17481V4.14171C38.3204 3.98699 38.3462 3.83229 38.4044 3.6887C38.4627 3.54512 38.552 3.41621 38.666 3.31122C38.8987 3.11843 39.1913 3.01292 39.4935 3.01292C39.7956 3.01292 40.0883 3.11843 40.321 3.31122C40.4349 3.41621 40.5243 3.54512 40.5825 3.6887C40.6408 3.83229 40.6666 3.98699 40.658 4.14171H40.6219C40.6459 4.14171 40.658 4.14171 40.658 4.17481C40.6606 4.32079 40.6319 4.46564 40.5738 4.59957C40.5156 4.7335 40.4294 4.85339 40.321 4.95114C40.1204 5.15358 39.8477 5.26827 39.5627 5.27009H39.4935ZM48.4453 33.5128C49.4129 33.5686 50.3739 33.3226 51.1956 32.8087C51.9071 32.2731 52.4755 31.5703 52.8506 30.7626H53.5607C53.1712 31.908 52.4456 32.9094 51.4784 33.6362C50.4838 34.3482 49.2829 34.714 48.0602 34.6773C47.1691 34.7093 46.2826 34.5359 45.4692 34.1707C44.6558 33.8055 43.9373 33.2582 43.3691 32.571C42.191 31.1655 41.5642 29.3794 41.6058 27.5459C41.5583 25.7618 42.1316 24.0166 43.2277 22.6081C43.7596 21.9382 44.4427 21.4037 45.2209 21.0486C45.9992 20.6935 46.8505 20.5278 47.7051 20.565C48.3421 20.5504 48.9764 20.6524 49.5767 20.8659C50.0817 21.0651 50.6197 21.1672 51.1625 21.1668C51.3317 21.1751 51.5006 21.1442 51.656 21.0765C51.787 21.0093 51.9059 20.9208 52.008 20.8147H52.5015V25.6141H51.8997C51.798 24.6457 51.4187 23.7272 50.8074 22.9692C50.481 22.4662 50.0303 22.056 49.499 21.7782C48.9676 21.5004 48.3736 21.3645 47.7743 21.3834C47.2633 21.3563 46.7521 21.4347 46.2727 21.6138C45.7933 21.7929 45.356 22.0689 44.988 22.4246C44.2104 23.3605 43.7847 24.5388 43.7844 25.7555V25.6863C43.7603 25.9451 43.7422 26.2039 43.7302 26.4627C43.7302 26.7214 43.7121 26.9892 43.7121 27.2721C43.7121 27.6001 43.7121 27.9371 43.7482 28.2771C43.7844 28.6171 43.7964 28.9301 43.8175 29.2129C43.9113 30.357 44.397 31.4336 45.1926 32.2611C45.6165 32.6864 46.1252 33.0177 46.6856 33.2334C47.2461 33.4491 47.8457 33.5443 48.4453 33.5128ZM59.5787 13.7315C59.5996 14.0987 59.5393 14.466 59.402 14.8071C59.2647 15.1483 59.0538 15.455 58.7844 15.7054C58.2223 16.1895 57.4975 16.4422 56.7563 16.4125C56.2723 16.4271 55.7908 16.3368 55.345 16.1477C54.9934 15.9764 54.6078 15.8859 54.2167 15.8829C54.0822 15.8699 53.9472 15.9005 53.8315 15.9702L53.5486 16.1989H53.1394V13.0966H53.669C53.7673 13.7012 54.0574 14.2582 54.4965 14.6853C54.7755 15.0122 55.1255 15.271 55.5197 15.442C55.9139 15.6131 56.342 15.6918 56.7713 15.6723C57.2124 15.6953 57.6515 15.5975 58.0411 15.3895C58.1913 15.2938 58.313 15.1595 58.3934 15.0007C58.4739 14.8419 58.5102 14.6644 58.4985 14.4867C58.5146 14.275 58.4723 14.0629 58.3763 13.8735C58.2803 13.6841 58.1342 13.5247 57.9539 13.4125C57.5973 13.1932 57.2263 12.9982 56.8435 12.8288C56.5125 12.6904 56.2146 12.561 55.9408 12.4436C55.667 12.3263 55.3571 12.1969 55.005 12.0554C54.5068 11.8253 54.0534 11.5084 53.666 11.1196C53.4853 10.9231 53.3454 10.6926 53.2545 10.4416C53.1636 10.1905 53.1235 9.92393 53.1364 9.65725C53.1144 9.32285 53.1664 8.98771 53.2886 8.67567C53.4108 8.36362 53.6003 8.08234 53.8435 7.85184C54.2959 7.53111 54.8209 7.32774 55.3713 7.25999C55.9217 7.19224 56.4803 7.26223 56.997 7.46367C57.2991 7.61393 57.6315 7.69318 57.9689 7.69537C58.0719 7.69872 58.1744 7.68026 58.2698 7.64121C58.357 7.60248 58.4267 7.53278 58.4654 7.44562H58.9228V10.1537H58.3932C58.3076 9.61885 58.0548 9.12481 57.671 8.74251C57.4354 8.45433 57.1361 8.22473 56.7967 8.07175C56.4574 7.91877 56.0871 7.84659 55.7152 7.86087C55.3072 7.8275 54.9008 7.94058 54.5687 8.17982C54.4497 8.27786 54.3545 8.40167 54.2904 8.5419C54.2263 8.68213 54.1949 8.8351 54.1986 8.98925C54.1877 9.15137 54.2175 9.31364 54.2853 9.46131C54.3531 9.60898 54.4567 9.73736 54.5868 9.83479C54.9202 10.0664 55.2737 10.2678 55.6429 10.4366C55.9739 10.575 56.2839 10.7044 56.5787 10.8217L57.5476 11.2099C58.0534 11.4224 58.5186 11.7207 58.9228 12.0916C59.1458 12.2988 59.3213 12.5518 59.4372 12.8334C59.553 13.1149 59.6064 13.4183 59.5938 13.7224L59.5787 13.7315ZM61.8867 26.6372C62.3352 27.075 62.6852 27.6034 62.9135 28.1871C63.1418 28.7708 63.2431 29.3964 63.2106 30.0223C63.2426 30.6509 63.1412 31.2791 62.913 31.8657C62.6848 32.4522 62.335 32.9839 61.8867 33.4256C61.0766 34.2302 59.9803 34.6804 58.8385 34.6773C57.6842 34.6858 56.5737 34.2356 55.7513 33.4256C55.3035 32.9836 54.9542 32.4519 54.7266 31.8653C54.4989 31.2788 54.3979 30.6507 54.4303 30.0223C54.3965 29.4247 54.4858 28.8265 54.6926 28.2648C54.8994 27.7031 55.2193 27.1898 55.6326 26.7568C56.0459 26.3238 56.5437 25.9802 57.0951 25.7475C57.6466 25.5147 58.24 25.3976 58.8385 25.4035C59.9822 25.3952 61.083 25.8386 61.9017 26.6372H61.8867ZM61.4624 31.4757V31.5449C61.4865 31.2861 61.5015 31.0274 61.5135 30.7686C61.5256 30.5098 61.5316 30.251 61.5316 29.9923C61.5316 29.7335 61.5316 29.4837 61.5135 29.237C61.4955 28.9903 61.4865 28.7586 61.4624 28.5479C61.4075 27.9042 61.1409 27.2968 60.7041 26.8207C60.4552 26.5943 60.1627 26.4212 59.8445 26.312C59.5262 26.2029 59.189 26.1599 58.8536 26.1858C58.5252 26.1626 58.1956 26.207 57.885 26.3162C57.5745 26.4254 57.2897 26.5971 57.0481 26.8207C56.6161 27.2856 56.3496 27.88 56.2899 28.5118V28.4667C56.2431 28.711 56.2139 28.9584 56.2026 29.2069C56.2026 29.4657 56.1846 29.7245 56.1846 29.9802C56.1846 30.236 56.1846 30.4918 56.2026 30.7385C56.2131 30.9702 56.2423 31.2006 56.2899 31.4276C56.3596 32.0567 56.6248 32.6481 57.0481 33.1186C57.2844 33.352 57.5675 33.5325 57.8787 33.6481C58.19 33.7638 58.5223 33.8121 58.8536 33.7897C59.1935 33.8195 59.5359 33.7767 59.8581 33.6641C60.1802 33.5515 60.4748 33.3718 60.7222 33.1367C61.1343 32.6726 61.3929 32.0925 61.4624 31.4757ZM64.3541 16.4306C63.7977 16.4411 63.2463 16.3244 62.742 16.0892C62.2377 15.8539 61.7938 15.5065 61.4443 15.0735C60.6819 14.1727 60.2743 13.0247 60.2979 11.8448C60.2615 10.6352 60.6766 9.45526 61.4624 8.53489C61.8112 8.10913 62.2537 7.76974 62.7553 7.54321C63.2569 7.31668 63.804 7.20913 64.3541 7.22897C64.781 7.20517 65.208 7.27346 65.6062 7.42922C66.0045 7.58497 66.3645 7.82454 66.662 8.13168C67.2143 8.72253 67.5349 9.4929 67.5647 10.3012L67.6008 10.9361L61.7452 11.4055C61.7571 12.2507 62.054 13.0671 62.5878 13.7224C62.856 14.0827 63.208 14.3721 63.6133 14.5655C64.0186 14.759 64.465 14.8507 64.9137 14.8328C65.5198 14.8669 66.1236 14.7336 66.659 14.4476C67.095 14.1633 67.453 13.7744 67.7001 13.3162H68.2297C68.0056 14.1858 67.5404 14.9743 66.8877 15.5911C66.1773 16.1753 65.2721 16.4688 64.3541 16.4125V16.4306ZM64.318 7.89697C63.9334 7.86487 63.5471 7.9341 63.1976 8.09776C62.8481 8.26142 62.5476 8.51381 62.326 8.82977C61.9288 9.40853 61.7026 10.0874 61.673 10.7886L66.0812 10.4125C66.1567 9.82251 66.0896 9.22303 65.8857 8.66428C65.6931 8.14271 65.1705 7.88093 64.318 7.87892V7.89697ZM74.9669 33.7746C75.1083 33.7746 75.3009 33.6512 75.5476 33.4045C75.7944 33.1578 75.9178 32.9652 75.9178 32.8238V28.0093C75.9336 27.6336 75.8152 27.2645 75.5838 26.9682C75.4472 26.8234 75.2796 26.7117 75.0935 26.6413C74.9073 26.5709 74.7077 26.5438 74.5095 26.562C73.8851 26.5827 73.2843 26.8055 72.7974 27.1969C72.2217 27.6221 71.9338 27.9752 71.9338 28.256V32.8388C71.9338 32.9802 72.0572 33.1728 72.3039 33.4195C72.5507 33.6663 72.7342 33.7897 72.8516 33.7897H73.3811V34.4607H68.8676V33.7897H69.3611C69.5025 33.7897 69.6951 33.6663 69.9418 33.4195C70.1886 33.1728 70.3119 32.9802 70.3119 32.8388V28.0244C70.3313 27.6342 70.2059 27.2506 69.9599 26.9471C69.8245 26.8052 69.6592 26.6951 69.476 26.6248C69.2928 26.5546 69.0963 26.5259 68.9007 26.5409C68.26 26.5619 67.6452 26.7983 67.1555 27.2119C66.5797 27.6573 66.2919 28.0334 66.2919 28.3403V32.8538C66.2919 32.9953 66.4152 33.1878 66.662 33.4346C66.9087 33.6813 67.1043 33.8047 67.2457 33.8047H67.7392V34.4757H63.2257V33.8047H63.7553C63.8726 33.8047 64.0562 33.6813 64.2999 33.4346C64.5436 33.1878 64.67 32.9953 64.67 32.8538V27.236C64.67 27.0976 64.5466 26.908 64.2999 26.6733C64.0532 26.4386 63.8726 26.3212 63.7553 26.3212H63.2257V25.6502H65.9338L66.2859 27.3443C66.8034 26.8027 67.2738 26.3493 67.6971 25.9842C68.213 25.5898 68.8546 25.3962 69.5025 25.4396C70.0566 25.4285 70.5997 25.5951 71.0522 25.915C71.2774 26.0776 71.466 26.2856 71.6059 26.5256C71.7459 26.7655 71.834 27.0321 71.8646 27.3082C72.4032 26.7907 72.8997 26.3543 73.345 26.0023C73.8551 25.6295 74.4773 25.4426 75.1083 25.4727C75.7471 25.457 76.3668 25.6913 76.8355 26.1257C77.0783 26.3666 77.267 26.6566 77.3889 26.9762C77.5108 27.2958 77.5632 27.6378 77.5426 27.9792V32.7937C77.5426 32.9351 77.666 33.1277 77.9127 33.3744C78.1595 33.6211 78.34 33.7445 78.4574 33.7445H78.987V34.4155H74.4734V33.7445L74.9669 33.7746ZM69.0782 9.10058C68.9312 8.87036 68.746 8.66685 68.5306 8.49878C68.2297 8.24 68.0311 8.11061 67.9288 8.11061H67.5406V7.41854H72.3009V8.08955H71.7382C71.6209 8.08955 71.4674 8.2069 71.2808 8.44161C71.1231 8.60577 71.0237 8.81722 70.998 9.04341L73.1043 13.3794L75.0451 9.07651C75.0462 8.95829 75.0232 8.84109 74.9777 8.73197C74.9322 8.62285 74.8651 8.52408 74.7803 8.44161C74.5797 8.2069 74.4203 8.08955 74.3019 8.08955H73.7212V7.41854H77.2839V8.08955H76.8957C76.7783 8.08955 76.5948 8.21292 76.348 8.45966C76.1545 8.63567 75.9935 8.84449 75.8726 9.07651L72.8636 15.4587L70.2758 20.4326L69.5085 20.0414L72.1866 15.2089L69.0782 9.10058ZM85.0532 25.4276C85.5449 25.4082 86.0338 25.5106 86.4764 25.7259C86.919 25.9411 87.3014 26.2625 87.5898 26.6613C88.2343 27.6161 88.5511 28.7545 88.4925 29.905C88.5398 31.1161 88.1796 32.308 87.4694 33.2902C87.1764 33.7091 86.7857 34.0502 86.3311 34.2841C85.8765 34.5179 85.3718 34.6374 84.8606 34.6322C84.2141 34.6649 83.5718 34.5113 83.01 34.1898C82.5131 33.8536 82.1069 33.3998 81.8275 32.8689V37.0996C81.8275 37.2651 81.9569 37.4637 82.2157 37.7014C82.4744 37.9391 82.664 38.0534 82.7813 38.0534H83.3501V38.6974H78.7041V38.0264H79.2698C79.4977 37.9783 79.7026 37.8542 79.8506 37.6743C80.0469 37.5289 80.1795 37.3133 80.2207 37.0725V27.236C80.2207 27.0976 80.0973 26.908 79.8506 26.6733C79.7026 26.4934 79.4977 26.3693 79.2698 26.3212H78.7041V25.6141H81.5597L81.8425 27.4496C82.1638 26.8307 82.6293 26.2982 83.1996 25.897C83.7557 25.5543 84.4003 25.3827 85.0532 25.4035V25.4276ZM86.8165 31.3523V31.3854L86.8857 30.6813C86.9097 30.4474 86.9217 30.2124 86.9218 29.9772C86.9222 29.7711 86.9101 29.5651 86.8857 29.3604C86.8616 29.1588 86.8375 28.9662 86.8165 28.7766C86.7587 28.1594 86.5117 27.5751 86.1093 27.1036C85.9164 26.9013 85.6821 26.7428 85.4226 26.639C85.163 26.5352 84.8841 26.4884 84.6048 26.5018C84.2795 26.4881 83.9548 26.542 83.6513 26.66C83.3478 26.7781 83.0721 26.9578 82.8415 27.1878C82.3818 27.6714 82.0436 28.2571 81.8546 28.897V31.1899C81.8509 31.5187 81.9148 31.8449 82.0421 32.1482C82.1694 32.4514 82.3575 32.7254 82.5948 32.9531C82.829 33.1935 83.1102 33.3832 83.4207 33.5105C83.7313 33.6379 84.0646 33.7001 84.4002 33.6934H84.4363C84.749 33.7173 85.0631 33.6711 85.3557 33.5581C85.6483 33.4451 85.9119 33.2683 86.1274 33.0404C86.5219 32.5507 86.7617 31.9547 86.8165 31.3283V31.3523ZM106.739 32.8328C106.739 32.9742 106.869 33.1668 107.127 33.4135C107.386 33.6603 107.573 33.7836 107.69 33.7836H108.22V34.4546H103.601V33.7836H104.112C104.233 33.7836 104.413 33.6603 104.678 33.4135C104.943 33.1668 105.066 32.9742 105.066 32.8328V28.0484C105.079 27.663 104.961 27.2847 104.732 26.9742C104.607 26.8224 104.447 26.703 104.266 26.626C104.084 26.549 103.887 26.5167 103.691 26.5319C102.991 26.5547 102.317 26.8015 101.768 27.236C101.12 27.7094 100.797 28.0855 100.799 28.3644V32.8087C100.799 32.9742 100.929 33.1728 101.188 33.4105C101.344 33.5905 101.556 33.7141 101.789 33.7626H102.307V34.4336H94.8205L94.5737 32.6011C94.2028 33.0885 93.79 33.5426 93.34 33.9582C92.8822 34.3886 92.2742 34.6229 91.6459 34.6111C91.3498 34.6132 91.0564 34.5548 90.7837 34.4394C90.5111 34.324 90.2648 34.1541 90.0602 33.9401C89.8363 33.7133 89.6612 33.4431 89.5458 33.146C89.4304 32.849 89.3771 32.5314 89.3892 32.2129C89.3555 31.839 89.4287 31.4632 89.6002 31.1292C89.7717 30.7952 90.0345 30.5167 90.3581 30.3263C90.9477 29.985 91.583 29.7297 92.2447 29.568L94.5376 29.1076L94.5737 28.0514C94.6002 27.5191 94.4238 26.9965 94.0802 26.589C93.8514 26.385 93.5826 26.231 93.2909 26.1367C92.9992 26.0424 92.6911 26.01 92.3862 26.0414C92.0903 26.0059 91.7904 26.0528 91.5196 26.1771C91.2488 26.3013 91.0176 26.4981 90.8516 26.7455C90.7196 27.0366 90.6589 27.355 90.6746 27.6742C90.6903 27.9934 90.7819 28.3043 90.9418 28.581H90.3069L89.1033 26.8177C89.5853 26.3436 90.1597 25.9737 90.7907 25.731C91.4217 25.4882 92.0958 25.3777 92.7713 25.4065C93.6347 25.377 94.4858 25.6179 95.2056 26.0956C95.5264 26.3158 95.7855 26.6145 95.9582 26.9632C96.131 27.3118 96.2117 27.6989 96.1926 28.0875V32.8117C96.1926 32.9531 96.322 33.1397 96.5807 33.3744C96.8395 33.6091 97.0261 33.7295 97.1434 33.7295H98.2026C98.4369 33.6808 98.6485 33.556 98.8044 33.3744C99.0632 33.1397 99.1926 32.9531 99.1926 32.8117V27.236C99.1926 27.0976 99.0632 26.908 98.8044 26.6733C98.6477 26.4934 98.4363 26.3697 98.2026 26.3212H97.673V25.6141H100.459L100.811 27.4496C101.283 26.9481 101.785 26.4768 102.316 26.0384C102.872 25.6174 103.557 25.4045 104.254 25.4366C104.577 25.4307 104.898 25.4901 105.198 25.611C105.498 25.732 105.77 25.9121 105.999 26.1407C106.241 26.3794 106.43 26.6659 106.555 26.982C106.68 27.298 106.738 27.6367 106.724 27.9762L106.739 32.8328ZM94.5737 29.7064L92.4674 30.236C92.0151 30.3095 91.603 30.5396 91.3029 30.8859C91.0847 31.202 90.973 31.5793 90.984 31.9632V31.9963C90.9813 32.1759 91.0142 32.3542 91.0808 32.5211C91.1474 32.6879 91.2464 32.8398 91.3721 32.9682C91.4937 33.0988 91.6416 33.2022 91.806 33.2717C91.9703 33.3412 92.1476 33.3752 92.326 33.3714H92.3771C92.8495 33.3524 93.2997 33.1657 93.6469 32.8448C94.0047 32.5585 94.3102 32.2124 94.5497 31.8217L94.5737 29.7064ZM117 25.6502V26.3212H116.576C116.482 26.3212 116.311 26.4446 116.064 26.6914C115.877 26.8698 115.706 27.0641 115.553 27.2721L112.592 33.6904L109.947 38.6282L109.207 38.24L111.852 33.4075L108.749 27.3082C108.601 27.0787 108.416 26.8754 108.202 26.7064C107.901 26.4476 107.714 26.3182 107.621 26.3182H107.197V25.6502H111.957V26.3212H111.427C111.31 26.3212 111.15 26.4386 110.952 26.6733C110.787 26.8342 110.681 27.0463 110.651 27.2751L112.757 31.6141L114.707 27.2631C114.707 27.1498 114.684 27.0378 114.638 26.9342C114.593 26.8305 114.526 26.7376 114.442 26.6613C114.244 26.4266 114.084 26.3092 113.967 26.3092H113.404V25.6502H117Z"></path>
</g>
<defs>
<clipPath id="clip0_69_16">
<rect transform="translate(0 2.58905)" fill="white" height="36.1083" width="117"></rect>
</clipPath>
</defs>
</svg>
