<svg xmlns="http://www.w3.org/2000/svg" fill="none" viewBox="0 0 369 404" height="404" width="369">
<g filter="url(#filter0_d_423_3958)">
<rect fill="#141414" height="274" width="360" y="96" x="4"></rect>
<rect stroke-width="1.13921" stroke="#272727" height="272.861" width="358.861" y="96.5696" x="4.5696"></rect>
<line stroke-width="1.45747" stroke="#272727" y2="237.271" x2="364" y1="237.271" x1="4"></line>
<line stroke-width="1.45747" stroke="#272727" y2="171.271" x2="364" y1="171.271" x1="4"></line>
<line stroke-width="1.45747" stroke="#272727" y2="303.271" x2="364" y1="303.271" x1="4"></line>
<path fill="#D1B8FF" d="M24.312 143.664C25.614 143.664 26.706 144.378 26.706 146.016V151H25.586V146.296C25.586 145.372 25.152 144.644 24.032 144.644C22.772 144.644 21.932 145.442 21.932 146.548V151H20.812V140.99H21.932V144.714H21.96C22.338 144.21 23.094 143.664 24.312 143.664ZM31.3025 143.86V144.84H29.9025V149.138C29.9025 149.894 30.0845 150.09 30.7145 150.09C30.9525 150.09 31.0645 150.076 31.3025 150.048V151C30.9805 151.056 30.8125 151.07 30.5605 151.07C29.5105 151.07 28.7825 150.706 28.7825 149.082V144.84H27.7325V143.86H28.7825V141.48H29.9025V143.86H31.3025ZM35.5714 143.86V144.84H34.1714V149.138C34.1714 149.894 34.3534 150.09 34.9834 150.09C35.2214 150.09 35.3334 150.076 35.5714 150.048V151C35.2494 151.056 35.0814 151.07 34.8294 151.07C33.7794 151.07 33.0514 150.706 33.0514 149.082V144.84H32.0014V143.86H33.0514V141.48H34.1714V143.86H35.5714ZM40.2743 143.664C42.0663 143.664 43.4943 145.078 43.4943 147.43C43.4943 149.782 42.0663 151.196 40.2743 151.196C39.1263 151.196 38.4543 150.692 38.0343 150.076H38.0063V153.478H36.8863V143.86H38.0063V144.742H38.0343C38.4543 144.196 39.1263 143.664 40.2743 143.664ZM40.1623 150.216C41.6323 150.216 42.3183 148.83 42.3183 147.43C42.3183 146.03 41.6323 144.644 40.1623 144.644C38.8323 144.644 38.0063 145.75 38.0063 147.43C38.0063 149.11 38.8323 150.216 40.1623 150.216ZM47.576 151.196C45.518 151.196 44.412 150.09 44.37 148.62H45.546C45.602 149.488 46.106 150.216 47.576 150.216C48.948 150.216 49.27 149.586 49.27 149.04C49.27 148.06 48.248 147.962 47.366 147.766C46.12 147.486 44.65 147.15 44.65 145.666C44.65 144.462 45.616 143.664 47.254 143.664C49.102 143.664 50.054 144.672 50.166 145.904H48.99C48.878 145.358 48.598 144.644 47.268 144.644C46.26 144.644 45.826 145.05 45.826 145.624C45.826 146.45 46.736 146.534 47.73 146.758C49.004 147.052 50.446 147.416 50.446 148.998C50.446 150.342 49.396 151.196 47.576 151.196ZM52.9732 146.73H51.6292V145.386H52.9732V146.73ZM52.9732 151H51.6292V149.656H52.9732V151ZM55.1319 151H54.0119L57.8899 140.99H59.0099L55.1319 151ZM58.8129 151H57.6929L61.5709 140.99H62.6909L58.8129 151ZM64.1955 153.506C63.9435 153.506 63.7755 153.492 63.4535 153.436V152.484C63.6915 152.512 63.8035 152.526 64.0135 152.526C64.6015 152.526 65.2455 152.162 65.5535 150.93L62.6555 143.86H63.9155L66.1135 149.544H66.1415L68.2415 143.86H69.4455L66.5615 151.21C65.8475 153.016 65.1615 153.506 64.1955 153.506ZM73.3597 151.21C71.1757 151.21 69.8597 149.656 69.8597 147.43C69.8597 145.204 71.1757 143.65 73.3597 143.65C75.5297 143.65 76.8457 145.204 76.8457 147.43C76.8457 149.656 75.5297 151.21 73.3597 151.21ZM73.3597 150.23C74.9557 150.23 75.6697 148.956 75.6697 147.43C75.6697 145.904 74.9557 144.63 73.3597 144.63C71.7497 144.63 71.0357 145.904 71.0357 147.43C71.0357 148.956 71.7497 150.23 73.3597 150.23ZM82.93 148.312V143.86H84.05V151H82.93V150.146H82.902C82.524 150.65 81.768 151.196 80.55 151.196C79.248 151.196 78.156 150.482 78.156 148.844V143.86H79.276V148.564C79.276 149.488 79.71 150.216 80.83 150.216C82.09 150.216 82.93 149.418 82.93 148.312ZM88.9388 143.664C89.2048 143.664 89.4008 143.678 89.5968 143.706V144.826C89.4288 144.798 89.3028 144.784 89.1348 144.784C87.8188 144.784 86.9368 145.82 86.9368 147.192V151H85.8168V143.86H86.9368V145.274H86.9648C87.3428 144.336 87.9168 143.664 88.9388 143.664ZM93.5016 151H92.2836L90.0156 143.86H91.2756L92.9136 149.74H92.9416L94.5096 143.86H95.7276L97.2956 149.74H97.3236L98.9756 143.86H100.194L97.9116 151H96.6936L95.1116 145.204H95.0836L93.5016 151ZM107.507 147.164C107.507 147.374 107.507 147.612 107.493 147.724H101.907C101.935 148.984 102.635 150.244 104.217 150.244C105.617 150.244 106.149 149.306 106.275 148.802H107.409C107.045 150.132 106.037 151.21 104.203 151.21C101.949 151.21 100.731 149.586 100.731 147.416C100.731 145.134 102.089 143.65 104.203 143.65C106.289 143.65 107.507 145.078 107.507 147.164ZM101.907 146.744H106.317C106.317 145.568 105.477 144.616 104.147 144.616C102.915 144.616 101.977 145.498 101.907 146.744ZM112.265 143.664C114.057 143.664 115.485 145.078 115.485 147.43C115.485 149.782 114.057 151.196 112.265 151.196C111.117 151.196 110.445 150.692 110.025 150.076H109.997V151H108.877V140.99H109.997V144.742H110.025C110.445 144.196 111.117 143.664 112.265 143.664ZM112.153 150.216C113.623 150.216 114.309 148.83 114.309 147.43C114.309 146.03 113.623 144.644 112.153 144.644C110.823 144.644 109.997 145.75 109.997 147.43C109.997 149.11 110.823 150.216 112.153 150.216ZM119.567 151.196C117.509 151.196 116.403 150.09 116.361 148.62H117.537C117.593 149.488 118.097 150.216 119.567 150.216C120.939 150.216 121.261 149.586 121.261 149.04C121.261 148.06 120.239 147.962 119.357 147.766C118.111 147.486 116.641 147.15 116.641 145.666C116.641 144.462 117.607 143.664 119.245 143.664C121.093 143.664 122.045 144.672 122.157 145.904H120.981C120.869 145.358 120.589 144.644 119.259 144.644C118.251 144.644 117.817 145.05 117.817 145.624C117.817 146.45 118.727 146.534 119.721 146.758C120.995 147.052 122.437 147.416 122.437 148.998C122.437 150.342 121.387 151.196 119.567 151.196ZM124.936 142.474H123.592V141.13H124.936V142.474ZM124.824 151H123.704V143.86H124.824V151ZM129.546 143.86V144.84H128.146V149.138C128.146 149.894 128.328 150.09 128.958 150.09C129.196 150.09 129.308 150.076 129.546 150.048V151C129.224 151.056 129.056 151.07 128.804 151.07C127.754 151.07 127.026 150.706 127.026 149.082V144.84H125.976V143.86H127.026V141.48H128.146V143.86H129.546ZM137.109 147.164C137.109 147.374 137.109 147.612 137.095 147.724H131.509C131.537 148.984 132.237 150.244 133.819 150.244C135.219 150.244 135.751 149.306 135.877 148.802H137.011C136.647 150.132 135.639 151.21 133.805 151.21C131.551 151.21 130.333 149.586 130.333 147.416C130.333 145.134 131.691 143.65 133.805 143.65C135.891 143.65 137.109 145.078 137.109 147.164ZM131.509 146.744H135.919C135.919 145.568 135.079 144.616 133.749 144.616C132.517 144.616 131.579 145.498 131.509 146.744ZM139.451 151H138.107V149.656H139.451V151ZM143.887 151.196C141.801 151.196 140.429 149.67 140.429 147.43C140.429 145.19 141.801 143.664 143.887 143.664C145.651 143.664 146.855 144.84 147.023 146.436H145.847C145.791 145.652 145.315 144.644 143.887 144.644C142.193 144.644 141.605 146.086 141.605 147.43C141.605 148.774 142.193 150.216 143.887 150.216C145.329 150.216 145.791 149.222 145.847 148.368H147.023C146.925 149.992 145.651 151.196 143.887 151.196ZM151.438 151.21C149.254 151.21 147.938 149.656 147.938 147.43C147.938 145.204 149.254 143.65 151.438 143.65C153.608 143.65 154.924 145.204 154.924 147.43C154.924 149.656 153.608 151.21 151.438 151.21ZM151.438 150.23C153.034 150.23 153.748 148.956 153.748 147.43C153.748 145.904 153.034 144.63 151.438 144.63C149.828 144.63 149.114 145.904 149.114 147.43C149.114 148.956 149.828 150.23 151.438 150.23ZM163.752 143.664C165.194 143.664 165.894 144.518 165.894 146.016V151H164.774V146.296C164.774 145.372 164.592 144.644 163.472 144.644C162.352 144.644 161.652 145.442 161.652 146.548V151H160.532V146.296C160.532 145.372 160.35 144.644 159.23 144.644C158.11 144.644 157.41 145.442 157.41 146.548V151H156.29V143.86H157.41V144.714H157.438C157.816 144.21 158.432 143.664 159.51 143.664C160.532 143.664 161.12 144.098 161.414 144.896H161.442C161.932 144.224 162.674 143.664 163.752 143.664Z"></path>
<g clip-path="url(#clip0_423_3958)">
<path fill="white" d="M28.012 114.604C23.823 114.604 20.4365 118 20.4365 122.202C20.4365 125.561 22.6063 128.405 25.6164 129.411C25.9928 129.487 26.1306 129.247 26.1306 129.046C26.1306 128.87 26.1182 128.266 26.1182 127.637C24.0109 128.09 23.5721 126.731 23.5721 126.731C23.2334 125.851 22.7316 125.624 22.7316 125.624C22.0419 125.159 22.7819 125.159 22.7819 125.159C23.547 125.209 23.9484 125.939 23.9484 125.939C24.6256 127.096 25.7168 126.769 26.1557 126.568C26.2184 126.077 26.4192 125.737 26.6324 125.549C24.9517 125.373 23.1833 124.718 23.1833 121.8C23.1833 120.969 23.4842 120.29 23.9608 119.762C23.8856 119.573 23.6222 118.793 24.0362 117.749C24.0362 117.749 24.6758 117.547 26.1181 118.529C26.7356 118.362 27.3723 118.278 28.012 118.277C28.6516 118.277 29.3037 118.365 29.9058 118.529C31.3482 117.547 31.9878 117.749 31.9878 117.749C32.4018 118.793 32.1382 119.573 32.063 119.762C32.5523 120.29 32.8407 120.969 32.8407 121.8C32.8407 124.718 31.0724 125.36 29.379 125.549C29.655 125.788 29.8932 126.241 29.8932 126.958C29.8932 127.977 29.8808 128.795 29.8808 129.046C29.8808 129.247 30.0188 129.487 30.395 129.411C33.4051 128.404 35.5749 125.561 35.5749 122.202C35.5874 118 32.1885 114.604 28.012 114.604Z" clip-rule="evenodd" fill-rule="evenodd"></path>
</g>
<path fill="#B3B3B3" d="M49.53 124.312V119.86H50.65V127H49.53V126.146H49.502C49.124 126.65 48.368 127.196 47.15 127.196C45.848 127.196 44.756 126.482 44.756 124.844V119.86H45.876V124.564C45.876 125.488 46.31 126.216 47.43 126.216C48.69 126.216 49.53 125.418 49.53 124.312ZM55.1188 127.196C53.0608 127.196 51.9548 126.09 51.9128 124.62H53.0888C53.1448 125.488 53.6488 126.216 55.1188 126.216C56.4908 126.216 56.8128 125.586 56.8128 125.04C56.8128 124.06 55.7908 123.962 54.9088 123.766C53.6628 123.486 52.1928 123.15 52.1928 121.666C52.1928 120.462 53.1588 119.664 54.7968 119.664C56.6448 119.664 57.5968 120.672 57.7088 121.904H56.5328C56.4208 121.358 56.1408 120.644 54.8108 120.644C53.8028 120.644 53.3688 121.05 53.3688 121.624C53.3688 122.45 54.2788 122.534 55.2728 122.758C56.5468 123.052 57.9888 123.416 57.9888 124.998C57.9888 126.342 56.9388 127.196 55.1188 127.196ZM65.6541 123.164C65.6541 123.374 65.6541 123.612 65.6401 123.724H60.0541C60.0821 124.984 60.7821 126.244 62.3641 126.244C63.7641 126.244 64.2961 125.306 64.4221 124.802H65.5561C65.1921 126.132 64.1841 127.21 62.3501 127.21C60.0961 127.21 58.8781 125.586 58.8781 123.416C58.8781 121.134 60.2361 119.65 62.3501 119.65C64.4361 119.65 65.6541 121.078 65.6541 123.164ZM60.0541 122.744H64.4641C64.4641 121.568 63.6241 120.616 62.2941 120.616C61.0621 120.616 60.1241 121.498 60.0541 122.744ZM70.147 119.664C70.413 119.664 70.609 119.678 70.805 119.706V120.826C70.637 120.798 70.511 120.784 70.343 120.784C69.027 120.784 68.145 121.82 68.145 123.192V127H67.025V119.86H68.145V121.274H68.173C68.551 120.336 69.125 119.664 70.147 119.664ZM75.3818 119.664C76.6838 119.664 77.7758 120.378 77.7758 122.016V127H76.6558V122.296C76.6558 121.372 76.2218 120.644 75.1018 120.644C73.8418 120.644 73.0018 121.442 73.0018 122.548V127H71.8818V119.86H73.0018V120.714H73.0298C73.4078 120.21 74.1638 119.664 75.3818 119.664ZM81.4606 127.196C80.0186 127.196 79.1086 126.37 79.1086 125.166C79.1086 123.528 80.3126 123.08 82.1606 122.744C83.3786 122.52 83.9386 122.38 83.9386 121.68C83.9386 121.12 83.6306 120.63 82.4546 120.63C81.0966 120.63 80.7046 121.036 80.6346 122.072H79.4586C79.5286 120.7 80.3966 119.65 82.4966 119.65C83.8266 119.65 85.0306 120.21 85.0306 121.96V125.39C85.0306 125.95 85.1146 126.23 85.3946 126.23C85.4366 126.23 85.4786 126.23 85.5626 126.216V127C85.3806 127.042 85.2126 127.07 85.0166 127.07C84.4006 127.07 84.0226 126.832 83.9526 125.95H83.9246C83.4626 126.72 82.6506 127.196 81.4606 127.196ZM81.5726 126.216C82.9166 126.216 83.9386 125.614 83.9386 124.242V123.108C83.7286 123.332 83.0286 123.514 82.2586 123.668C80.8726 123.948 80.2846 124.284 80.2846 125.11C80.2846 125.81 80.6486 126.216 81.5726 126.216ZM94.3894 119.664C95.8314 119.664 96.5314 120.518 96.5314 122.016V127H95.4114V122.296C95.4114 121.372 95.2294 120.644 94.1094 120.644C92.9894 120.644 92.2894 121.442 92.2894 122.548V127H91.1694V122.296C91.1694 121.372 90.9874 120.644 89.8674 120.644C88.7474 120.644 88.0474 121.442 88.0474 122.548V127H86.9274V119.86H88.0474V120.714H88.0754C88.4534 120.21 89.0694 119.664 90.1474 119.664C91.1694 119.664 91.7574 120.098 92.0514 120.896H92.0794C92.5694 120.224 93.3114 119.664 94.3894 119.664ZM104.635 123.164C104.635 123.374 104.635 123.612 104.621 123.724H99.0353C99.0633 124.984 99.7633 126.244 101.345 126.244C102.745 126.244 103.277 125.306 103.403 124.802H104.537C104.173 126.132 103.165 127.21 101.331 127.21C99.0773 127.21 97.8593 125.586 97.8593 123.416C97.8593 121.134 99.2173 119.65 101.331 119.65C103.417 119.65 104.635 121.078 104.635 123.164ZM99.0353 122.744H103.445C103.445 121.568 102.605 120.616 101.275 120.616C100.043 120.616 99.1053 121.498 99.0353 122.744ZM109.275 127H108.155L112.033 116.99H113.153L109.275 127ZM117.477 129.506C117.225 129.506 117.057 129.492 116.735 129.436V128.484C116.973 128.512 117.085 128.526 117.295 128.526C117.883 128.526 118.527 128.162 118.835 126.93L115.937 119.86H117.197L119.395 125.544H119.423L121.523 119.86H122.727L119.843 127.21C119.129 129.016 118.443 129.506 117.477 129.506ZM126.641 127.21C124.457 127.21 123.141 125.656 123.141 123.43C123.141 121.204 124.457 119.65 126.641 119.65C128.811 119.65 130.127 121.204 130.127 123.43C130.127 125.656 128.811 127.21 126.641 127.21ZM126.641 126.23C128.237 126.23 128.951 124.956 128.951 123.43C128.951 121.904 128.237 120.63 126.641 120.63C125.031 120.63 124.317 121.904 124.317 123.43C124.317 124.956 125.031 126.23 126.641 126.23ZM136.211 124.312V119.86H137.331V127H136.211V126.146H136.183C135.805 126.65 135.049 127.196 133.831 127.196C132.529 127.196 131.437 126.482 131.437 124.844V119.86H132.557V124.564C132.557 125.488 132.991 126.216 134.111 126.216C135.371 126.216 136.211 125.418 136.211 124.312ZM142.22 119.664C142.486 119.664 142.682 119.678 142.878 119.706V120.826C142.71 120.798 142.584 120.784 142.416 120.784C141.1 120.784 140.218 121.82 140.218 123.192V127H139.098V119.86H140.218V121.274H140.246C140.624 120.336 141.198 119.664 142.22 119.664ZM146.622 123.99H142.87V122.87H146.622V123.99ZM151.278 119.664C151.544 119.664 151.74 119.678 151.936 119.706V120.826C151.768 120.798 151.642 120.784 151.474 120.784C150.158 120.784 149.276 121.82 149.276 123.192V127H148.156V119.86H149.276V121.274H149.304C149.682 120.336 150.256 119.664 151.278 119.664ZM159.082 123.164C159.082 123.374 159.082 123.612 159.068 123.724H153.482C153.51 124.984 154.21 126.244 155.792 126.244C157.192 126.244 157.724 125.306 157.85 124.802H158.984C158.62 126.132 157.612 127.21 155.778 127.21C153.524 127.21 152.306 125.586 152.306 123.416C152.306 121.134 153.664 119.65 155.778 119.65C157.864 119.65 159.082 121.078 159.082 123.164ZM153.482 122.744H157.892C157.892 121.568 157.052 120.616 155.722 120.616C154.49 120.616 153.552 121.498 153.482 122.744ZM163.841 119.664C165.633 119.664 167.061 121.078 167.061 123.43C167.061 125.782 165.633 127.196 163.841 127.196C162.693 127.196 162.021 126.692 161.601 126.076H161.573V129.478H160.453V119.86H161.573V120.742H161.601C162.021 120.196 162.693 119.664 163.841 119.664ZM163.729 126.216C165.199 126.216 165.885 124.83 165.885 123.43C165.885 122.03 165.199 120.644 163.729 120.644C162.399 120.644 161.573 121.75 161.573 123.43C161.573 125.11 162.399 126.216 163.729 126.216ZM171.549 127.21C169.365 127.21 168.049 125.656 168.049 123.43C168.049 121.204 169.365 119.65 171.549 119.65C173.719 119.65 175.035 121.204 175.035 123.43C175.035 125.656 173.719 127.21 171.549 127.21ZM171.549 126.23C173.145 126.23 173.859 124.956 173.859 123.43C173.859 121.904 173.145 120.63 171.549 120.63C169.939 120.63 169.225 121.904 169.225 123.43C169.225 124.956 169.939 126.23 171.549 126.23Z"></path>
<path fill="#8F8F8F" d="M201 124C200.557 124.001 200.128 124.149 199.779 124.421C199.43 124.692 199.181 125.072 199.071 125.5H197C196.602 125.5 196.221 125.341 195.94 125.06C195.658 124.779 195.5 124.398 195.5 124V122C195.498 121.457 195.318 120.93 194.987 120.5H199.071C199.192 120.971 199.482 121.382 199.885 121.655C200.288 121.929 200.776 122.045 201.259 121.984C201.742 121.923 202.186 121.687 202.508 121.322C202.83 120.957 203.007 120.487 203.007 120C203.007 119.513 202.83 119.043 202.508 118.678C202.186 118.313 201.742 118.077 201.259 118.016C200.776 117.955 200.288 118.071 199.885 118.345C199.482 118.618 199.192 119.029 199.071 119.5H192.929C192.807 119.029 192.518 118.618 192.115 118.345C191.712 118.071 191.223 117.955 190.74 118.016C190.257 118.077 189.813 118.313 189.492 118.678C189.17 119.043 188.992 119.513 188.992 120C188.992 120.487 189.17 120.957 189.492 121.322C189.813 121.687 190.257 121.923 190.74 121.984C191.223 122.045 191.712 121.929 192.115 121.655C192.518 121.382 192.807 120.971 192.929 120.5H193C193.397 120.5 193.779 120.659 194.06 120.94C194.341 121.221 194.499 121.602 194.5 122V124C194.5 124.663 194.764 125.298 195.233 125.767C195.701 126.236 196.337 126.499 197 126.5H199.071C199.165 126.861 199.358 127.189 199.629 127.446C199.9 127.703 200.238 127.879 200.604 127.953C200.97 128.028 201.349 127.998 201.699 127.868C202.049 127.738 202.356 127.512 202.584 127.217C202.812 126.921 202.953 126.567 202.99 126.196C203.027 125.824 202.959 125.45 202.794 125.115C202.629 124.78 202.374 124.498 202.056 124.301C201.739 124.103 201.373 123.999 201 124ZM201 119C201.197 119 201.391 119.059 201.555 119.169C201.72 119.278 201.848 119.435 201.924 119.617C201.999 119.8 202.019 120.001 201.98 120.195C201.942 120.389 201.847 120.567 201.707 120.707C201.567 120.847 201.389 120.942 201.195 120.981C201.001 121.019 200.8 121 200.617 120.924C200.434 120.848 200.278 120.72 200.168 120.556C200.058 120.391 200 120.198 200 120C200 119.735 200.105 119.481 200.293 119.293C200.48 119.106 200.735 119 201 119ZM191 121C190.802 121 190.609 120.941 190.444 120.831C190.28 120.722 190.151 120.565 190.076 120.383C190 120.2 189.98 119.999 190.019 119.805C190.057 119.611 190.153 119.433 190.293 119.293C190.432 119.153 190.611 119.058 190.805 119.019C190.999 118.981 191.2 119 191.382 119.076C191.565 119.152 191.721 119.28 191.831 119.444C191.941 119.609 192 119.802 192 120C191.999 120.265 191.894 120.519 191.706 120.707C191.519 120.894 191.265 121 191 121ZM201 127C200.802 127 200.609 126.941 200.444 126.831C200.28 126.722 200.151 126.565 200.076 126.383C200 126.2 199.98 125.999 200.019 125.805C200.057 125.611 200.153 125.433 200.293 125.293C200.432 125.153 200.611 125.058 200.805 125.019C200.999 124.981 201.2 125 201.382 125.076C201.565 125.152 201.721 125.28 201.831 125.444C201.941 125.609 202 125.802 202 126C201.999 126.265 201.894 126.519 201.706 126.707C201.519 126.894 201.265 127 201 127Z"></path>
<path fill="#8F8F8F" d="M217.274 119.664C218.716 119.664 219.416 120.518 219.416 122.016V127H218.296V122.296C218.296 121.372 218.114 120.644 216.994 120.644C215.874 120.644 215.174 121.442 215.174 122.548V127H214.054V122.296C214.054 121.372 213.872 120.644 212.752 120.644C211.632 120.644 210.932 121.442 210.932 122.548V127H209.812V119.86H210.932V120.714H210.96C211.338 120.21 211.954 119.664 213.032 119.664C214.054 119.664 214.642 120.098 214.936 120.896H214.964C215.454 120.224 216.196 119.664 217.274 119.664ZM223.096 127.196C221.654 127.196 220.744 126.37 220.744 125.166C220.744 123.528 221.948 123.08 223.796 122.744C225.014 122.52 225.574 122.38 225.574 121.68C225.574 121.12 225.266 120.63 224.09 120.63C222.732 120.63 222.34 121.036 222.27 122.072H221.094C221.164 120.7 222.032 119.65 224.132 119.65C225.462 119.65 226.666 120.21 226.666 121.96V125.39C226.666 125.95 226.75 126.23 227.03 126.23C227.072 126.23 227.114 126.23 227.198 126.216V127C227.016 127.042 226.848 127.07 226.652 127.07C226.036 127.07 225.658 126.832 225.588 125.95H225.56C225.098 126.72 224.286 127.196 223.096 127.196ZM223.208 126.216C224.552 126.216 225.574 125.614 225.574 124.242V123.108C225.364 123.332 224.664 123.514 223.894 123.668C222.508 123.948 221.92 124.284 221.92 125.11C221.92 125.81 222.284 126.216 223.208 126.216ZM229.795 118.474H228.451V117.13H229.795V118.474ZM229.683 127H228.563V119.86H229.683V127ZM234.951 119.664C236.253 119.664 237.345 120.378 237.345 122.016V127H236.225V122.296C236.225 121.372 235.791 120.644 234.671 120.644C233.411 120.644 232.571 121.442 232.571 122.548V127H231.451V119.86H232.571V120.714H232.599C232.977 120.21 233.733 119.664 234.951 119.664Z"></path>
<path fill="url(#paint0_linear_423_3958)" d="M30 194.25C28.2694 194.25 26.5777 194.763 25.1388 195.725C23.6998 196.686 22.5783 198.053 21.9161 199.652C21.2538 201.25 21.0805 203.01 21.4181 204.707C21.7558 206.404 22.5891 207.963 23.8128 209.187C25.0365 210.411 26.5956 211.244 28.293 211.582C29.9903 211.919 31.7496 211.746 33.3485 211.084C34.9473 210.422 36.3139 209.3 37.2754 207.861C38.2368 206.422 38.75 204.731 38.75 203C38.75 200.679 37.8281 198.454 36.1872 196.813C34.5462 195.172 32.3206 194.25 30 194.25ZM28.75 206.494L25.625 203.369L26.6191 202.375L28.75 204.506L33.3813 199.875L34.3786 200.866L28.75 206.494Z"></path>
<path fill="white" d="M57.5 200H56.105L60.065 189.275H61.58L65.57 200H64.115L63.17 197.315H58.445L57.5 200ZM60.8 190.52L58.895 196.115H62.735L60.83 190.52H60.8ZM71.6118 197.12V192.35H72.8118V200H71.6118V199.085H71.5818C71.1768 199.625 70.3668 200.21 69.0618 200.21C67.6668 200.21 66.4968 199.445 66.4968 197.69V192.35H67.6968V197.39C67.6968 198.38 68.1618 199.16 69.3618 199.16C70.7118 199.16 71.6118 198.305 71.6118 197.12ZM77.8999 192.35V193.4H76.3999V198.005C76.3999 198.815 76.5949 199.025 77.2699 199.025C77.5249 199.025 77.6449 199.01 77.8999 198.98V200C77.5549 200.06 77.3749 200.075 77.1049 200.075C75.9799 200.075 75.1999 199.685 75.1999 197.945V193.4H74.0749V192.35H75.1999V189.8H76.3999V192.35H77.8999ZM82.5076 200.225C80.1676 200.225 78.7576 198.56 78.7576 196.175C78.7576 193.79 80.1676 192.125 82.5076 192.125C84.8326 192.125 86.2426 193.79 86.2426 196.175C86.2426 198.56 84.8326 200.225 82.5076 200.225ZM82.5076 199.175C84.2176 199.175 84.9826 197.81 84.9826 196.175C84.9826 194.54 84.2176 193.175 82.5076 193.175C80.7826 193.175 80.0176 194.54 80.0176 196.175C80.0176 197.81 80.7826 199.175 82.5076 199.175ZM95.7315 192.14C97.2765 192.14 98.0265 193.055 98.0265 194.66V200H96.8265V194.96C96.8265 193.97 96.6315 193.19 95.4315 193.19C94.2315 193.19 93.4815 194.045 93.4815 195.23V200H92.2815V194.96C92.2815 193.97 92.0865 193.19 90.8865 193.19C89.6865 193.19 88.9365 194.045 88.9365 195.23V200H87.7365V192.35H88.9365V193.265H88.9665C89.3715 192.725 90.0315 192.14 91.1865 192.14C92.2815 192.14 92.9115 192.605 93.2265 193.46H93.2565C93.7815 192.74 94.5765 192.14 95.7315 192.14ZM101.999 200.21C100.454 200.21 99.4793 199.325 99.4793 198.035C99.4793 196.28 100.769 195.8 102.749 195.44C104.054 195.2 104.654 195.05 104.654 194.3C104.654 193.7 104.324 193.175 103.064 193.175C101.609 193.175 101.189 193.61 101.114 194.72H99.8543C99.9293 193.25 100.859 192.125 103.109 192.125C104.534 192.125 105.824 192.725 105.824 194.6V198.275C105.824 198.875 105.914 199.175 106.214 199.175C106.259 199.175 106.304 199.175 106.394 199.16V200C106.199 200.045 106.019 200.075 105.809 200.075C105.149 200.075 104.744 199.82 104.669 198.875H104.639C104.144 199.7 103.274 200.21 101.999 200.21ZM102.119 199.16C103.559 199.16 104.654 198.515 104.654 197.045V195.83C104.429 196.07 103.679 196.265 102.854 196.43C101.369 196.73 100.739 197.09 100.739 197.975C100.739 198.725 101.129 199.16 102.119 199.16ZM110.92 192.35V193.4H109.42V198.005C109.42 198.815 109.615 199.025 110.29 199.025C110.545 199.025 110.665 199.01 110.92 198.98V200C110.575 200.06 110.395 200.075 110.125 200.075C109 200.075 108.22 199.685 108.22 197.945V193.4H107.095V192.35H108.22V189.8H109.42V192.35H110.92ZM113.679 190.865H112.239V189.425H113.679V190.865ZM113.559 200H112.359V192.35H113.559V200ZM118.768 200.21C116.533 200.21 115.063 198.575 115.063 196.175C115.063 193.775 116.533 192.14 118.768 192.14C120.658 192.14 121.948 193.4 122.128 195.11H120.868C120.808 194.27 120.298 193.19 118.768 193.19C116.953 193.19 116.323 194.735 116.323 196.175C116.323 197.615 116.953 199.16 118.768 199.16C120.313 199.16 120.808 198.095 120.868 197.18H122.128C122.023 198.92 120.658 200.21 118.768 200.21ZM131.071 200H127.186V189.275H131.071C134.026 189.275 135.841 191.195 135.841 194.645C135.841 198.095 134.026 200 131.071 200ZM128.536 198.8H131.071C133.801 198.8 134.431 196.745 134.431 194.645C134.431 192.545 133.801 190.475 131.071 190.475H128.536V198.8ZM144.352 195.89C144.352 196.115 144.352 196.37 144.337 196.49H138.352C138.382 197.84 139.132 199.19 140.827 199.19C142.327 199.19 142.897 198.185 143.032 197.645H144.247C143.857 199.07 142.777 200.225 140.812 200.225C138.397 200.225 137.092 198.485 137.092 196.16C137.092 193.715 138.547 192.125 140.812 192.125C143.047 192.125 144.352 193.655 144.352 195.89ZM138.352 195.44H143.077C143.077 194.18 142.177 193.16 140.752 193.16C139.432 193.16 138.427 194.105 138.352 195.44ZM149.481 192.14C151.401 192.14 152.931 193.655 152.931 196.175C152.931 198.695 151.401 200.21 149.481 200.21C148.251 200.21 147.531 199.67 147.081 199.01H147.051V202.655H145.851V192.35H147.051V193.295H147.081C147.531 192.71 148.251 192.14 149.481 192.14ZM149.361 199.16C150.936 199.16 151.671 197.675 151.671 196.175C151.671 194.675 150.936 193.19 149.361 193.19C147.936 193.19 147.051 194.375 147.051 196.175C147.051 197.975 147.936 199.16 149.361 199.16ZM155.639 200H154.439V189.275H155.639V200ZM160.894 200.225C158.554 200.225 157.144 198.56 157.144 196.175C157.144 193.79 158.554 192.125 160.894 192.125C163.219 192.125 164.629 193.79 164.629 196.175C164.629 198.56 163.219 200.225 160.894 200.225ZM160.894 199.175C162.604 199.175 163.369 197.81 163.369 196.175C163.369 194.54 162.604 193.175 160.894 193.175C159.169 193.175 158.404 194.54 158.404 196.175C158.404 197.81 159.169 199.175 160.894 199.175ZM166.727 202.685C166.457 202.685 166.277 202.67 165.932 202.61V201.59C166.187 201.62 166.307 201.635 166.532 201.635C167.162 201.635 167.852 201.245 168.182 199.925L165.077 192.35H166.427L168.782 198.44H168.812L171.062 192.35H172.352L169.262 200.225C168.497 202.16 167.762 202.685 166.727 202.685ZM177.717 200H176.517V189.275H177.717V200ZM180.961 190.865H179.521V189.425H180.961V190.865ZM180.841 200H179.641V192.35H180.841V200ZM186.141 200H184.776L182.031 192.35H183.351L185.481 198.8H185.496L187.596 192.35H188.886L186.141 200ZM196.685 195.89C196.685 196.115 196.685 196.37 196.67 196.49H190.685C190.715 197.84 191.465 199.19 193.16 199.19C194.66 199.19 195.23 198.185 195.365 197.645H196.58C196.19 199.07 195.11 200.225 193.145 200.225C190.73 200.225 189.425 198.485 189.425 196.16C189.425 193.715 190.88 192.125 193.145 192.125C195.38 192.125 196.685 193.655 196.685 195.89ZM190.685 195.44H195.41C195.41 194.18 194.51 193.16 193.085 193.16C191.765 193.16 190.76 194.105 190.685 195.44ZM199.534 195.425H198.094V193.985H199.534V195.425ZM199.534 200H198.094V198.56H199.534V200ZM206.345 200H204.995V189.275H212.27V190.475H206.345V193.955H211.13V195.155H206.345V200ZM214.883 190.865H213.443V189.425H214.883V190.865ZM214.763 200H213.563V192.35H214.763V200ZM220.437 192.14C221.832 192.14 223.002 192.905 223.002 194.66V200H221.802V194.96C221.802 193.97 221.337 193.19 220.137 193.19C218.787 193.19 217.887 194.045 217.887 195.23V200H216.687V192.35H217.887V193.265H217.917C218.322 192.725 219.132 192.14 220.437 192.14ZM226.98 200.21C225.435 200.21 224.46 199.325 224.46 198.035C224.46 196.28 225.75 195.8 227.73 195.44C229.035 195.2 229.635 195.05 229.635 194.3C229.635 193.7 229.305 193.175 228.045 193.175C226.59 193.175 226.17 193.61 226.095 194.72H224.835C224.91 193.25 225.84 192.125 228.09 192.125C229.515 192.125 230.805 192.725 230.805 194.6V198.275C230.805 198.875 230.895 199.175 231.195 199.175C231.24 199.175 231.285 199.175 231.375 199.16V200C231.18 200.045 231 200.075 230.79 200.075C230.13 200.075 229.725 199.82 229.65 198.875H229.62C229.125 199.7 228.255 200.21 226.98 200.21ZM227.1 199.16C228.54 199.16 229.635 198.515 229.635 197.045V195.83C229.41 196.07 228.66 196.265 227.835 196.43C226.35 196.73 225.72 197.09 225.72 197.975C225.72 198.725 226.11 199.16 227.1 199.16ZM234.068 200H232.868V189.275H234.068V200ZM242.545 192.35V193.4H241.045V198.005C241.045 198.815 241.24 199.025 241.915 199.025C242.17 199.025 242.29 199.01 242.545 198.98V200C242.2 200.06 242.02 200.075 241.75 200.075C240.625 200.075 239.845 199.685 239.845 197.945V193.4H238.72V192.35H239.845V189.8H241.045V192.35H242.545ZM247.014 200H245.709L243.279 192.35H244.629L246.384 198.65H246.414L248.094 192.35H249.399L251.079 198.65H251.109L252.879 192.35H254.184L251.739 200H250.434L248.739 193.79H248.709L247.014 200ZM262.049 195.89C262.049 196.115 262.049 196.37 262.034 196.49H256.049C256.079 197.84 256.829 199.19 258.524 199.19C260.024 199.19 260.594 198.185 260.729 197.645H261.944C261.554 199.07 260.474 200.225 258.509 200.225C256.094 200.225 254.789 198.485 254.789 196.16C254.789 193.715 256.244 192.125 258.509 192.125C260.744 192.125 262.049 193.655 262.049 195.89ZM256.049 195.44H260.774C260.774 194.18 259.874 193.16 258.449 193.16C257.129 193.16 256.124 194.105 256.049 195.44ZM265.663 200.21C264.118 200.21 263.143 199.325 263.143 198.035C263.143 196.28 264.433 195.8 266.413 195.44C267.718 195.2 268.318 195.05 268.318 194.3C268.318 193.7 267.988 193.175 266.728 193.175C265.273 193.175 264.853 193.61 264.778 194.72H263.518C263.593 193.25 264.523 192.125 266.773 192.125C268.198 192.125 269.488 192.725 269.488 194.6V198.275C269.488 198.875 269.578 199.175 269.878 199.175C269.923 199.175 269.968 199.175 270.058 199.16V200C269.863 200.045 269.683 200.075 269.473 200.075C268.813 200.075 268.408 199.82 268.333 198.875H268.303C267.808 199.7 266.938 200.21 265.663 200.21ZM265.783 199.16C267.223 199.16 268.318 198.515 268.318 197.045V195.83C268.093 196.07 267.343 196.265 266.518 196.43C265.033 196.73 264.403 197.09 264.403 197.975C264.403 198.725 264.793 199.16 265.783 199.16ZM278.075 200H276.65L273.935 195.875L272.75 196.955V200H271.55V189.275H272.75V195.695L276.32 192.35H277.76L274.745 195.125L278.075 200ZM281.642 200.21C279.437 200.21 278.252 199.025 278.207 197.45H279.467C279.527 198.38 280.067 199.16 281.642 199.16C283.112 199.16 283.457 198.485 283.457 197.9C283.457 196.85 282.362 196.745 281.417 196.535C280.082 196.235 278.507 195.875 278.507 194.285C278.507 192.995 279.542 192.14 281.297 192.14C283.277 192.14 284.297 193.22 284.417 194.54H283.157C283.037 193.955 282.737 193.19 281.312 193.19C280.232 193.19 279.767 193.625 279.767 194.24C279.767 195.125 280.742 195.215 281.807 195.455C283.172 195.77 284.717 196.16 284.717 197.855C284.717 199.295 283.592 200.21 281.642 200.21Z"></path>
<path fill="#6B6B6B" d="M58.915 213.357C58.508 213.654 57.848 213.72 56.77 213.72V212.752C58.596 212.741 59.069 212.422 59.168 211.399H60.114V217.977H61.929V219H56.77V217.977H58.915V213.357ZM65.4997 214.743V213.39H66.8637V214.743H65.4997ZM65.4997 219V217.647H66.8637V219H65.4997ZM70.4344 219C70.4344 217.625 71.1824 216.646 72.6564 215.667C73.7894 214.93 74.4164 214.556 74.4164 213.566C74.4164 212.95 74.1524 212.268 73.2394 212.268C72.1944 212.268 71.8094 213.049 71.8094 214.083H70.5994C70.5994 212.466 71.4464 211.245 73.2724 211.245C74.6144 211.245 75.6484 212.07 75.6484 213.522C75.6484 214.974 74.5924 215.7 73.5144 216.437C72.6344 217.02 72.2054 217.35 72.0074 217.955V217.977H75.5934V219H70.4344ZM79.3071 215.81V214.501H80.4951V215.81H79.3071ZM77.1621 215.249C77.1621 213.126 77.8771 211.245 79.9231 211.245C81.9581 211.245 82.6621 213.137 82.6621 215.249C82.6621 217.361 81.9581 219.154 79.9231 219.154C77.8771 219.154 77.1621 217.372 77.1621 215.249ZM78.3941 215.249C78.3941 216.767 78.6361 218.131 79.9231 218.131C81.2101 218.131 81.4301 216.756 81.4301 215.26C81.4301 213.764 81.2101 212.268 79.9231 212.268C78.6251 212.268 78.3941 213.753 78.3941 215.249ZM86.1118 214.743V213.39H87.4758V214.743H86.1118ZM86.1118 219V217.647H87.4758V219H86.1118ZM93.7415 219.154C92.0145 219.154 91.1015 218.054 91.0465 216.778H92.2565C92.3225 217.471 92.7185 218.131 93.6755 218.131C94.5335 218.131 95.0945 217.526 95.0945 216.404C95.0945 215.337 94.5775 214.853 93.7195 214.853C93.1695 214.853 92.6635 215.073 92.3445 215.535H91.1455L91.9155 211.399H95.9855V212.422H92.8065L92.4325 214.523V214.545C92.7955 214.138 93.3235 213.885 94.0495 213.885C95.4025 213.885 96.3265 214.952 96.3265 216.404C96.3265 218.087 95.2045 219.154 93.7415 219.154ZM99.9192 215.81V214.501H101.107V215.81H99.9192ZM97.7742 215.249C97.7742 213.126 98.4892 211.245 100.535 211.245C102.57 211.245 103.274 213.137 103.274 215.249C103.274 217.361 102.57 219.154 100.535 219.154C98.4892 219.154 97.7742 217.372 97.7742 215.249ZM99.0062 215.249C99.0062 216.767 99.2482 218.131 100.535 218.131C101.822 218.131 102.042 216.756 102.042 215.26C102.042 213.764 101.822 212.268 100.535 212.268C99.2372 212.268 99.0062 213.753 99.0062 215.249ZM111.945 219V211.135H114.838C116.125 211.135 117.071 211.817 117.071 213.467C117.071 215.128 116.125 215.81 114.838 215.81H113.155V219H111.945ZM113.155 214.765H114.706C115.432 214.765 115.817 214.358 115.817 213.467C115.817 212.576 115.432 212.18 114.706 212.18H113.155V214.765ZM118.463 219V211.135H119.794L121.125 216.129H121.147L122.478 211.135H123.809V219H122.698V213.005H122.676L121.631 217.24H120.641L119.596 213.005H119.574V219H118.463Z"></path>
<path fill="url(#paint1_linear_423_3958)" d="M30 260.25C28.2694 260.25 26.5777 260.763 25.1388 261.725C23.6998 262.686 22.5783 264.053 21.9161 265.652C21.2538 267.25 21.0805 269.01 21.4181 270.707C21.7558 272.404 22.5891 273.963 23.8128 275.187C25.0365 276.411 26.5956 277.244 28.293 277.582C29.9903 277.919 31.7496 277.746 33.3485 277.084C34.9473 276.422 36.3139 275.3 37.2754 273.861C38.2368 272.422 38.75 270.731 38.75 269C38.75 266.679 37.8281 264.454 36.1872 262.813C34.5462 261.172 32.3206 260.25 30 260.25ZM28.75 272.494L25.625 269.369L26.6191 268.375L28.75 270.506L33.3813 265.875L34.3786 266.866L28.75 272.494Z"></path>
<path fill="white" d="M57.5 266H56.105L60.065 255.275H61.58L65.57 266H64.115L63.17 263.315H58.445L57.5 266ZM60.8 256.52L58.895 262.115H62.735L60.83 256.52H60.8ZM71.6118 263.12V258.35H72.8118V266H71.6118V265.085H71.5818C71.1768 265.625 70.3668 266.21 69.0618 266.21C67.6668 266.21 66.4968 265.445 66.4968 263.69V258.35H67.6968V263.39C67.6968 264.38 68.1618 265.16 69.3618 265.16C70.7118 265.16 71.6118 264.305 71.6118 263.12ZM77.8999 258.35V259.4H76.3999V264.005C76.3999 264.815 76.5949 265.025 77.2699 265.025C77.5249 265.025 77.6449 265.01 77.8999 264.98V266C77.5549 266.06 77.3749 266.075 77.1049 266.075C75.9799 266.075 75.1999 265.685 75.1999 263.945V259.4H74.0749V258.35H75.1999V255.8H76.3999V258.35H77.8999ZM82.5076 266.225C80.1676 266.225 78.7576 264.56 78.7576 262.175C78.7576 259.79 80.1676 258.125 82.5076 258.125C84.8326 258.125 86.2426 259.79 86.2426 262.175C86.2426 264.56 84.8326 266.225 82.5076 266.225ZM82.5076 265.175C84.2176 265.175 84.9826 263.81 84.9826 262.175C84.9826 260.54 84.2176 259.175 82.5076 259.175C80.7826 259.175 80.0176 260.54 80.0176 262.175C80.0176 263.81 80.7826 265.175 82.5076 265.175ZM95.7315 258.14C97.2765 258.14 98.0265 259.055 98.0265 260.66V266H96.8265V260.96C96.8265 259.97 96.6315 259.19 95.4315 259.19C94.2315 259.19 93.4815 260.045 93.4815 261.23V266H92.2815V260.96C92.2815 259.97 92.0865 259.19 90.8865 259.19C89.6865 259.19 88.9365 260.045 88.9365 261.23V266H87.7365V258.35H88.9365V259.265H88.9665C89.3715 258.725 90.0315 258.14 91.1865 258.14C92.2815 258.14 92.9115 258.605 93.2265 259.46H93.2565C93.7815 258.74 94.5765 258.14 95.7315 258.14ZM101.999 266.21C100.454 266.21 99.4793 265.325 99.4793 264.035C99.4793 262.28 100.769 261.8 102.749 261.44C104.054 261.2 104.654 261.05 104.654 260.3C104.654 259.7 104.324 259.175 103.064 259.175C101.609 259.175 101.189 259.61 101.114 260.72H99.8543C99.9293 259.25 100.859 258.125 103.109 258.125C104.534 258.125 105.824 258.725 105.824 260.6V264.275C105.824 264.875 105.914 265.175 106.214 265.175C106.259 265.175 106.304 265.175 106.394 265.16V266C106.199 266.045 106.019 266.075 105.809 266.075C105.149 266.075 104.744 265.82 104.669 264.875H104.639C104.144 265.7 103.274 266.21 101.999 266.21ZM102.119 265.16C103.559 265.16 104.654 264.515 104.654 263.045V261.83C104.429 262.07 103.679 262.265 102.854 262.43C101.369 262.73 100.739 263.09 100.739 263.975C100.739 264.725 101.129 265.16 102.119 265.16ZM110.92 258.35V259.4H109.42V264.005C109.42 264.815 109.615 265.025 110.29 265.025C110.545 265.025 110.665 265.01 110.92 264.98V266C110.575 266.06 110.395 266.075 110.125 266.075C109 266.075 108.22 265.685 108.22 263.945V259.4H107.095V258.35H108.22V255.8H109.42V258.35H110.92ZM113.679 256.865H112.239V255.425H113.679V256.865ZM113.559 266H112.359V258.35H113.559V266ZM118.768 266.21C116.533 266.21 115.063 264.575 115.063 262.175C115.063 259.775 116.533 258.14 118.768 258.14C120.658 258.14 121.948 259.4 122.128 261.11H120.868C120.808 260.27 120.298 259.19 118.768 259.19C116.953 259.19 116.323 260.735 116.323 262.175C116.323 263.615 116.953 265.16 118.768 265.16C120.313 265.16 120.808 264.095 120.868 263.18H122.128C122.023 264.92 120.658 266.21 118.768 266.21ZM131.071 266H127.186V255.275H131.071C134.026 255.275 135.841 257.195 135.841 260.645C135.841 264.095 134.026 266 131.071 266ZM128.536 264.8H131.071C133.801 264.8 134.431 262.745 134.431 260.645C134.431 258.545 133.801 256.475 131.071 256.475H128.536V264.8ZM144.352 261.89C144.352 262.115 144.352 262.37 144.337 262.49H138.352C138.382 263.84 139.132 265.19 140.827 265.19C142.327 265.19 142.897 264.185 143.032 263.645H144.247C143.857 265.07 142.777 266.225 140.812 266.225C138.397 266.225 137.092 264.485 137.092 262.16C137.092 259.715 138.547 258.125 140.812 258.125C143.047 258.125 144.352 259.655 144.352 261.89ZM138.352 261.44H143.077C143.077 260.18 142.177 259.16 140.752 259.16C139.432 259.16 138.427 260.105 138.352 261.44ZM149.481 258.14C151.401 258.14 152.931 259.655 152.931 262.175C152.931 264.695 151.401 266.21 149.481 266.21C148.251 266.21 147.531 265.67 147.081 265.01H147.051V268.655H145.851V258.35H147.051V259.295H147.081C147.531 258.71 148.251 258.14 149.481 258.14ZM149.361 265.16C150.936 265.16 151.671 263.675 151.671 262.175C151.671 260.675 150.936 259.19 149.361 259.19C147.936 259.19 147.051 260.375 147.051 262.175C147.051 263.975 147.936 265.16 149.361 265.16ZM155.639 266H154.439V255.275H155.639V266ZM160.894 266.225C158.554 266.225 157.144 264.56 157.144 262.175C157.144 259.79 158.554 258.125 160.894 258.125C163.219 258.125 164.629 259.79 164.629 262.175C164.629 264.56 163.219 266.225 160.894 266.225ZM160.894 265.175C162.604 265.175 163.369 263.81 163.369 262.175C163.369 260.54 162.604 259.175 160.894 259.175C159.169 259.175 158.404 260.54 158.404 262.175C158.404 263.81 159.169 265.175 160.894 265.175ZM166.727 268.685C166.457 268.685 166.277 268.67 165.932 268.61V267.59C166.187 267.62 166.307 267.635 166.532 267.635C167.162 267.635 167.852 267.245 168.182 265.925L165.077 258.35H166.427L168.782 264.44H168.812L171.062 258.35H172.352L169.262 266.225C168.497 268.16 167.762 268.685 166.727 268.685ZM177.717 266H176.517V255.275H177.717V266ZM180.961 256.865H179.521V255.425H180.961V256.865ZM180.841 266H179.641V258.35H180.841V266ZM186.141 266H184.776L182.031 258.35H183.351L185.481 264.8H185.496L187.596 258.35H188.886L186.141 266ZM196.685 261.89C196.685 262.115 196.685 262.37 196.67 262.49H190.685C190.715 263.84 191.465 265.19 193.16 265.19C194.66 265.19 195.23 264.185 195.365 263.645H196.58C196.19 265.07 195.11 266.225 193.145 266.225C190.73 266.225 189.425 264.485 189.425 262.16C189.425 259.715 190.88 258.125 193.145 258.125C195.38 258.125 196.685 259.655 196.685 261.89ZM190.685 261.44H195.41C195.41 260.18 194.51 259.16 193.085 259.16C191.765 259.16 190.76 260.105 190.685 261.44ZM199.534 261.425H198.094V259.985H199.534V261.425ZM199.534 266H198.094V264.56H199.534V266ZM206.345 266H204.995V255.275H212.27V256.475H206.345V259.955H211.13V261.155H206.345V266ZM214.883 256.865H213.443V255.425H214.883V256.865ZM214.763 266H213.563V258.35H214.763V266ZM217.137 266H215.712L218.667 262.085L215.952 258.35H217.392L219.387 261.245H219.417L221.382 258.35H222.807L220.107 262.085L223.092 266H221.652L219.387 262.91H219.357L217.137 266ZM231.834 266.21C228.894 266.21 226.869 263.87 226.869 260.63C226.869 257.405 228.894 255.065 231.834 255.065C234.459 255.065 236.139 256.775 236.394 258.815H234.984C234.789 257.795 234.069 256.265 231.834 256.265C229.284 256.265 228.279 258.47 228.279 260.63C228.279 262.805 229.284 265.01 231.834 265.01C234.084 265.01 234.894 263.48 234.984 262.13H236.394C236.154 264.5 234.474 266.21 231.834 266.21ZM239.096 266H237.896V255.275H239.096V266ZM243.136 266.21C241.591 266.21 240.616 265.325 240.616 264.035C240.616 262.28 241.906 261.8 243.886 261.44C245.191 261.2 245.791 261.05 245.791 260.3C245.791 259.7 245.461 259.175 244.201 259.175C242.746 259.175 242.326 259.61 242.251 260.72H240.991C241.066 259.25 241.996 258.125 244.246 258.125C245.671 258.125 246.961 258.725 246.961 260.6V264.275C246.961 264.875 247.051 265.175 247.351 265.175C247.396 265.175 247.441 265.175 247.531 265.16V266C247.336 266.045 247.156 266.075 246.946 266.075C246.286 266.075 245.881 265.82 245.806 264.875H245.776C245.281 265.7 244.411 266.21 243.136 266.21ZM243.256 265.16C244.696 265.16 245.791 264.515 245.791 263.045V261.83C245.566 262.07 244.816 262.265 243.991 262.43C242.506 262.73 241.876 263.09 241.876 263.975C241.876 264.725 242.266 265.16 243.256 265.16ZM254.078 263.12V258.35H255.278V266H254.078V265.085H254.048C253.643 265.625 252.833 266.21 251.528 266.21C250.133 266.21 248.963 265.445 248.963 263.69V258.35H250.163V263.39C250.163 264.38 250.628 265.16 251.828 265.16C253.178 265.16 254.078 264.305 254.078 263.12ZM262.676 259.34V255.275H263.876V266H262.676V265.055H262.646C262.196 265.64 261.476 266.21 260.246 266.21C258.326 266.21 256.796 264.695 256.796 262.175C256.796 259.655 258.326 258.14 260.246 258.14C261.476 258.14 262.196 258.68 262.646 259.34H262.676ZM260.366 265.16C261.791 265.16 262.676 263.975 262.676 262.175C262.676 260.375 261.791 259.19 260.366 259.19C258.791 259.19 258.056 260.675 258.056 262.175C258.056 263.675 258.791 265.16 260.366 265.16ZM272.644 261.89C272.644 262.115 272.644 262.37 272.629 262.49H266.644C266.674 263.84 267.424 265.19 269.119 265.19C270.619 265.19 271.189 264.185 271.324 263.645H272.539C272.149 265.07 271.069 266.225 269.104 266.225C266.689 266.225 265.384 264.485 265.384 262.16C265.384 259.715 266.839 258.125 269.104 258.125C271.339 258.125 272.644 259.655 272.644 261.89ZM266.644 261.44H271.369C271.369 260.18 270.469 259.16 269.044 259.16C267.724 259.16 266.719 260.105 266.644 261.44ZM273.304 258.62V257.87C273.829 257.69 274.009 257.435 273.994 256.715H273.304V255.275H274.744V256.715C274.744 257.585 274.429 258.29 273.304 258.62ZM278.536 266.21C276.331 266.21 275.146 265.025 275.101 263.45H276.361C276.421 264.38 276.961 265.16 278.536 265.16C280.006 265.16 280.351 264.485 280.351 263.9C280.351 262.85 279.256 262.745 278.311 262.535C276.976 262.235 275.401 261.875 275.401 260.285C275.401 258.995 276.436 258.14 278.191 258.14C280.171 258.14 281.191 259.22 281.311 260.54H280.051C279.931 259.955 279.631 259.19 278.206 259.19C277.126 259.19 276.661 259.625 276.661 260.24C276.661 261.125 277.636 261.215 278.701 261.455C280.066 261.77 281.611 262.16 281.611 263.855C281.611 265.295 280.486 266.21 278.536 266.21ZM289.672 266.21C287.437 266.21 285.967 264.575 285.967 262.175C285.967 259.775 287.437 258.14 289.672 258.14C291.562 258.14 292.852 259.4 293.032 261.11H291.772C291.712 260.27 291.202 259.19 289.672 259.19C287.857 259.19 287.227 260.735 287.227 262.175C287.227 263.615 287.857 265.16 289.672 265.16C291.217 265.16 291.712 264.095 291.772 263.18H293.032C292.927 264.92 291.562 266.21 289.672 266.21ZM297.793 266.225C295.453 266.225 294.043 264.56 294.043 262.175C294.043 259.79 295.453 258.125 297.793 258.125C300.118 258.125 301.528 259.79 301.528 262.175C301.528 264.56 300.118 266.225 297.793 266.225ZM297.793 265.175C299.503 265.175 300.268 263.81 300.268 262.175C300.268 260.54 299.503 259.175 297.793 259.175C296.068 259.175 295.303 260.54 295.303 262.175C295.303 263.81 296.068 265.175 297.793 265.175ZM308.497 259.34V255.275H309.697V266H308.497V265.055H308.467C308.017 265.64 307.297 266.21 306.067 266.21C304.147 266.21 302.617 264.695 302.617 262.175C302.617 259.655 304.147 258.14 306.067 258.14C307.297 258.14 308.017 258.68 308.467 259.34H308.497ZM306.187 265.16C307.612 265.16 308.497 263.975 308.497 262.175C308.497 260.375 307.612 259.19 306.187 259.19C304.612 259.19 303.877 260.675 303.877 262.175C303.877 263.675 304.612 265.16 306.187 265.16ZM318.465 261.89C318.465 262.115 318.465 262.37 318.45 262.49H312.465C312.495 263.84 313.245 265.19 314.94 265.19C316.44 265.19 317.01 264.185 317.145 263.645H318.36C317.97 265.07 316.89 266.225 314.925 266.225C312.51 266.225 311.205 264.485 311.205 262.16C311.205 259.715 312.66 258.125 314.925 258.125C317.16 258.125 318.465 259.655 318.465 261.89ZM312.465 261.44H317.19C317.19 260.18 316.29 259.16 314.865 259.16C313.545 259.16 312.54 260.105 312.465 261.44Z"></path>
<path fill="#6B6B6B" d="M58.915 279.357C58.508 279.654 57.848 279.72 56.77 279.72V278.752C58.596 278.741 59.069 278.422 59.168 277.399H60.114V283.977H61.929V285H56.77V283.977H58.915V279.357ZM65.4997 280.743V279.39H66.8637V280.743H65.4997ZM65.4997 285V283.647H66.8637V285H65.4997ZM70.4344 285C70.4344 283.625 71.1824 282.646 72.6564 281.667C73.7894 280.93 74.4164 280.556 74.4164 279.566C74.4164 278.95 74.1524 278.268 73.2394 278.268C72.1944 278.268 71.8094 279.049 71.8094 280.083H70.5994C70.5994 278.466 71.4464 277.245 73.2724 277.245C74.6144 277.245 75.6484 278.07 75.6484 279.522C75.6484 280.974 74.5924 281.7 73.5144 282.437C72.6344 283.02 72.2054 283.35 72.0074 283.955V283.977H75.5934V285H70.4344ZM79.3071 281.81V280.501H80.4951V281.81H79.3071ZM77.1621 281.249C77.1621 279.126 77.8771 277.245 79.9231 277.245C81.9581 277.245 82.6621 279.137 82.6621 281.249C82.6621 283.361 81.9581 285.154 79.9231 285.154C77.8771 285.154 77.1621 283.372 77.1621 281.249ZM78.3941 281.249C78.3941 282.767 78.6361 284.131 79.9231 284.131C81.2101 284.131 81.4301 282.756 81.4301 281.26C81.4301 279.764 81.2101 278.268 79.9231 278.268C78.6251 278.268 78.3941 279.753 78.3941 281.249ZM86.1118 280.743V279.39H87.4758V280.743H86.1118ZM86.1118 285V283.647H87.4758V285H86.1118ZM94.2805 285V283.262H90.6945V282.162L94.2805 277.399H95.4685V282.239H96.5465V283.262H95.4685V285H94.2805ZM91.7835 282.239H94.2805V278.928L91.7835 282.239ZM97.9172 285C97.9172 283.625 98.6652 282.646 100.139 281.667C101.272 280.93 101.899 280.556 101.899 279.566C101.899 278.95 101.635 278.268 100.722 278.268C99.6772 278.268 99.2922 279.049 99.2922 280.083H98.0822C98.0822 278.466 98.9292 277.245 100.755 277.245C102.097 277.245 103.131 278.07 103.131 279.522C103.131 280.974 102.075 281.7 100.997 282.437C100.117 283.02 99.6882 283.35 99.4902 283.955V283.977H103.076V285H97.9172ZM111.945 285V277.135H114.838C116.125 277.135 117.071 277.817 117.071 279.467C117.071 281.128 116.125 281.81 114.838 281.81H113.155V285H111.945ZM113.155 280.765H114.706C115.432 280.765 115.817 280.358 115.817 279.467C115.817 278.576 115.432 278.18 114.706 278.18H113.155V280.765ZM118.463 285V277.135H119.794L121.125 282.129H121.147L122.478 277.135H123.809V285H122.698V279.005H122.676L121.631 283.24H120.641L119.596 279.005H119.574V285H118.463Z"></path>
<path fill="url(#paint2_linear_423_3958)" d="M30 326.25C28.2694 326.25 26.5777 326.763 25.1388 327.725C23.6998 328.686 22.5783 330.053 21.9161 331.652C21.2538 333.25 21.0805 335.01 21.4181 336.707C21.7558 338.404 22.5891 339.963 23.8128 341.187C25.0365 342.411 26.5956 343.244 28.293 343.582C29.9903 343.919 31.7496 343.746 33.3485 343.084C34.9473 342.422 36.3139 341.3 37.2754 339.861C38.2368 338.422 38.75 336.731 38.75 335C38.75 332.679 37.8281 330.454 36.1872 328.813C34.5462 327.172 32.3206 326.25 30 326.25ZM28.75 338.494L25.625 335.369L26.6191 334.375L28.75 336.506L33.3813 331.875L34.3786 332.866L28.75 338.494Z"></path>
<path fill="white" d="M58.46 332H57.11V321.275H58.955L62.315 330.185H62.345L65.705 321.275H67.55V332H66.2V323.18H66.17L62.93 332H61.73L58.49 323.18H58.46V332ZM71.6894 332.21C70.1444 332.21 69.1694 331.325 69.1694 330.035C69.1694 328.28 70.4594 327.8 72.4394 327.44C73.7444 327.2 74.3444 327.05 74.3444 326.3C74.3444 325.7 74.0144 325.175 72.7544 325.175C71.2994 325.175 70.8794 325.61 70.8044 326.72H69.5444C69.6194 325.25 70.5494 324.125 72.7994 324.125C74.2244 324.125 75.5144 324.725 75.5144 326.6V330.275C75.5144 330.875 75.6044 331.175 75.9044 331.175C75.9494 331.175 75.9944 331.175 76.0844 331.16V332C75.8894 332.045 75.7094 332.075 75.4994 332.075C74.8394 332.075 74.4344 331.82 74.3594 330.875H74.3294C73.8344 331.7 72.9644 332.21 71.6894 332.21ZM71.8094 331.16C73.2494 331.16 74.3444 330.515 74.3444 329.045V327.83C74.1194 328.07 73.3694 328.265 72.5444 328.43C71.0594 328.73 70.4294 329.09 70.4294 329.975C70.4294 330.725 70.8194 331.16 71.8094 331.16ZM81.3267 324.14C82.7217 324.14 83.8917 324.905 83.8917 326.66V332H82.6917V326.96C82.6917 325.97 82.2267 325.19 81.0267 325.19C79.6767 325.19 78.7767 326.045 78.7767 327.23V332H77.5767V324.35H78.7767V325.265H78.8067C79.2117 324.725 80.0217 324.14 81.3267 324.14ZM90.8097 329.12V324.35H92.0097V332H90.8097V331.085H90.7797C90.3747 331.625 89.5647 332.21 88.2597 332.21C86.8647 332.21 85.6947 331.445 85.6947 329.69V324.35H86.8947V329.39C86.8947 330.38 87.3597 331.16 88.5597 331.16C89.9097 331.16 90.8097 330.305 90.8097 329.12ZM96.0478 332.21C94.5028 332.21 93.5278 331.325 93.5278 330.035C93.5278 328.28 94.8178 327.8 96.7978 327.44C98.1028 327.2 98.7028 327.05 98.7028 326.3C98.7028 325.7 98.3728 325.175 97.1128 325.175C95.6578 325.175 95.2378 325.61 95.1628 326.72H93.9028C93.9778 325.25 94.9078 324.125 97.1578 324.125C98.5828 324.125 99.8728 324.725 99.8728 326.6V330.275C99.8728 330.875 99.9628 331.175 100.263 331.175C100.308 331.175 100.353 331.175 100.443 331.16V332C100.248 332.045 100.068 332.075 99.8578 332.075C99.1978 332.075 98.7928 331.82 98.7178 330.875H98.6878C98.1928 331.7 97.3228 332.21 96.0478 332.21ZM96.1678 331.16C97.6078 331.16 98.7028 330.515 98.7028 329.045V327.83C98.4778 328.07 97.7278 328.265 96.9028 328.43C95.4178 328.73 94.7878 329.09 94.7878 329.975C94.7878 330.725 95.1778 331.16 96.1678 331.16ZM103.135 332H101.935V321.275H103.135V332ZM112.572 332H108.687V321.275H112.572C115.527 321.275 117.342 323.195 117.342 326.645C117.342 330.095 115.527 332 112.572 332ZM110.037 330.8H112.572C115.302 330.8 115.932 328.745 115.932 326.645C115.932 324.545 115.302 322.475 112.572 322.475H110.037V330.8ZM125.853 327.89C125.853 328.115 125.853 328.37 125.838 328.49H119.853C119.883 329.84 120.633 331.19 122.328 331.19C123.828 331.19 124.398 330.185 124.533 329.645H125.748C125.358 331.07 124.278 332.225 122.313 332.225C119.898 332.225 118.593 330.485 118.593 328.16C118.593 325.715 120.048 324.125 122.313 324.125C124.548 324.125 125.853 325.655 125.853 327.89ZM119.853 327.44H124.578C124.578 326.18 123.678 325.16 122.253 325.16C120.933 325.16 119.928 326.105 119.853 327.44ZM130.982 324.14C132.902 324.14 134.432 325.655 134.432 328.175C134.432 330.695 132.902 332.21 130.982 332.21C129.752 332.21 129.032 331.67 128.582 331.01H128.552V334.655H127.352V324.35H128.552V325.295H128.582C129.032 324.71 129.752 324.14 130.982 324.14ZM130.862 331.16C132.437 331.16 133.172 329.675 133.172 328.175C133.172 326.675 132.437 325.19 130.862 325.19C129.437 325.19 128.552 326.375 128.552 328.175C128.552 329.975 129.437 331.16 130.862 331.16ZM137.141 332H135.941V321.275H137.141V332ZM142.395 332.225C140.055 332.225 138.645 330.56 138.645 328.175C138.645 325.79 140.055 324.125 142.395 324.125C144.72 324.125 146.13 325.79 146.13 328.175C146.13 330.56 144.72 332.225 142.395 332.225ZM142.395 331.175C144.105 331.175 144.87 329.81 144.87 328.175C144.87 326.54 144.105 325.175 142.395 325.175C140.67 325.175 139.905 326.54 139.905 328.175C139.905 329.81 140.67 331.175 142.395 331.175ZM148.228 334.685C147.958 334.685 147.778 334.67 147.433 334.61V333.59C147.688 333.62 147.808 333.635 148.033 333.635C148.663 333.635 149.353 333.245 149.683 331.925L146.578 324.35H147.928L150.283 330.44H150.313L152.563 324.35H153.853L150.763 332.225C149.998 334.16 149.263 334.685 148.228 334.685ZM159.218 332H158.018V321.275H159.218V332ZM162.462 322.865H161.022V321.425H162.462V322.865ZM162.342 332H161.142V324.35H162.342V332ZM167.642 332H166.277L163.532 324.35H164.852L166.982 330.8H166.997L169.097 324.35H170.387L167.642 332ZM178.186 327.89C178.186 328.115 178.186 328.37 178.171 328.49H172.186C172.216 329.84 172.966 331.19 174.661 331.19C176.161 331.19 176.731 330.185 176.866 329.645H178.081C177.691 331.07 176.611 332.225 174.646 332.225C172.231 332.225 170.926 330.485 170.926 328.16C170.926 325.715 172.381 324.125 174.646 324.125C176.881 324.125 178.186 325.655 178.186 327.89ZM172.186 327.44H176.911C176.911 326.18 176.011 325.16 174.586 325.16C173.266 325.16 172.261 326.105 172.186 327.44Z"></path>
<path fill="#6B6B6B" d="M59.179 343.245C61.225 343.245 61.94 344.862 61.94 347.172C61.94 349.669 60.917 351.154 59.179 351.154C57.87 351.154 56.979 350.219 56.836 349.075H58.046C58.112 349.68 58.431 350.164 59.19 350.164C60.422 350.164 60.763 348.855 60.763 347.524V347.403L60.741 347.392C60.378 348.052 59.74 348.415 58.97 348.415C57.595 348.415 56.638 347.37 56.638 345.885C56.638 344.411 57.617 343.245 59.179 343.245ZM57.848 345.819C57.848 346.82 58.354 347.414 59.168 347.414C60.081 347.414 60.664 346.765 60.664 345.797C60.664 344.873 60.147 344.235 59.223 344.235C58.332 344.235 57.848 344.851 57.848 345.819ZM65.4997 346.743V345.39H66.8637V346.743H65.4997ZM65.4997 351V349.647H66.8637V351H65.4997ZM73.1294 351.154C71.4024 351.154 70.4894 350.054 70.4344 348.778H71.6444C71.7104 349.471 72.1064 350.131 73.0634 350.131C73.9214 350.131 74.4824 349.526 74.4824 348.404C74.4824 347.337 73.9654 346.853 73.1074 346.853C72.5574 346.853 72.0514 347.073 71.7324 347.535H70.5334L71.3034 343.399H75.3734V344.422H72.1944L71.8204 346.523V346.545C72.1834 346.138 72.7114 345.885 73.4374 345.885C74.7904 345.885 75.7144 346.952 75.7144 348.404C75.7144 350.087 74.5924 351.154 73.1294 351.154ZM79.3071 347.81V346.501H80.4951V347.81H79.3071ZM77.1621 347.249C77.1621 345.126 77.8771 343.245 79.9231 343.245C81.9581 343.245 82.6621 345.137 82.6621 347.249C82.6621 349.361 81.9581 351.154 79.9231 351.154C77.8771 351.154 77.1621 349.372 77.1621 347.249ZM78.3941 347.249C78.3941 348.767 78.6361 350.131 79.9231 350.131C81.2101 350.131 81.4301 348.756 81.4301 347.26C81.4301 345.764 81.2101 344.268 79.9231 344.268C78.6251 344.268 78.3941 345.753 78.3941 347.249ZM86.1118 346.743V345.39H87.4758V346.743H86.1118ZM86.1118 351V349.647H87.4758V351H86.1118ZM93.2685 345.357C92.8615 345.654 92.2015 345.72 91.1235 345.72V344.752C92.9495 344.741 93.4225 344.422 93.5215 343.399H94.4675V349.977H96.2825V351H91.1235V349.977H93.2685V345.357ZM97.9172 351C97.9172 349.625 98.6652 348.646 100.139 347.667C101.272 346.93 101.899 346.556 101.899 345.566C101.899 344.95 101.635 344.268 100.722 344.268C99.6772 344.268 99.2922 345.049 99.2922 346.083H98.0822C98.0822 344.466 98.9292 343.245 100.755 343.245C102.097 343.245 103.131 344.07 103.131 345.522C103.131 346.974 102.075 347.7 100.997 348.437C100.117 349.02 99.6882 349.35 99.4902 349.955V349.977H103.076V351H97.9172ZM111.23 351L113.617 343.135H114.893L117.302 351H116.004L115.509 349.108H112.979L112.495 351H111.23ZM113.298 348.085H115.19L114.277 344.257H114.233L113.298 348.085ZM118.463 351V343.135H119.794L121.125 348.129H121.147L122.478 343.135H123.809V351H122.698V345.005H122.676L121.631 349.24H120.641L119.596 345.005H119.574V351H118.463Z"></path>
</g>
<rect fill="url(#paint3_linear_423_3958)" transform="matrix(1 0 0 -1 4 180)" height="84" width="360"></rect>
<rect fill="url(#paint4_linear_423_3958)" height="84" width="360" y="286" x="4"></rect>
<g filter="url(#filter1_f_423_3958)">
<g filter="url(#filter2_f_423_3958)">
<path fill="#B3B3B3" d="M5.04 17.6C5.04 16.72 5.424 15.392 7.216 15.392C8.752 15.392 9.392 16.72 10.4 16.72C11.072 16.72 11.36 16.24 11.44 15.712H12.56C12.56 16.576 12.176 17.904 10.4 17.904C8.864 17.904 8.208 16.576 7.216 16.576C6.528 16.576 6.24 17.12 6.16 17.6H5.04ZM15.5458 22L19.9778 10.56H21.2578L16.8258 22H15.5458ZM28.2755 22.224C25.8915 22.224 24.6915 20.96 24.6275 19.28H25.9395C26.0035 20.288 26.6915 21.104 28.2595 21.104C29.6835 21.104 30.1635 20.4 30.1635 19.76C30.1635 18.768 29.4915 18.624 27.9075 18.288C26.2595 17.936 24.9155 17.568 24.9155 15.904C24.9155 14.528 26.0195 13.616 27.9075 13.616C30.0835 13.616 31.0915 14.768 31.2195 16.176H29.9075C29.7155 15.248 29.0915 14.736 27.9075 14.736C26.8515 14.736 26.2595 15.184 26.2595 15.856C26.2595 16.64 26.8355 16.816 28.4675 17.168C30.0035 17.504 31.5075 17.92 31.5075 19.712C31.5075 21.248 30.3075 22.224 28.2755 22.224ZM34.6693 22V20.88H37.2293V14.96H34.6693V13.84H38.5093V20.88H40.7493V22H34.6693ZM36.7493 12.256V10.4H38.6373V12.256H36.7493ZM48.759 22.08C46.903 22.08 45.895 21.664 45.895 19.808V14.96H43.175V13.84H45.895V11.12H47.175V13.84H50.695V14.96H47.175V19.872C47.175 20.736 47.639 20.96 48.919 20.96C49.847 20.96 50.183 20.944 50.695 20.912V22C50.151 22.064 49.735 22.08 48.759 22.08ZM56.8808 22.24C54.5768 22.24 53.2808 20.384 53.2808 17.904C53.2808 15.312 54.6888 13.6 56.8808 13.6C59.0888 13.6 60.3208 15.264 60.3208 17.616C60.3208 17.84 60.3208 18.128 60.3048 18.256H54.6248C54.6568 19.68 55.4088 21.136 56.9128 21.136C58.2408 21.136 58.7848 20.08 58.9288 19.488H60.2248C59.8568 20.976 58.8328 22.24 56.8808 22.24ZM54.6248 17.136H58.9608C58.9608 15.792 58.1608 14.704 56.8328 14.704C55.6008 14.704 54.7048 15.696 54.6248 17.136ZM75.6843 23.616V22.192C73.6523 21.968 72.0843 20.688 71.9563 18.336H73.3163C73.4443 19.872 74.2283 20.8 75.6843 21.008V16.784C74.0683 16.304 72.4043 15.712 72.4043 13.776C72.4043 12.08 73.6683 10.896 75.6843 10.816V9.68H76.5643V10.864C78.3403 11.104 79.6523 12.272 79.7803 14.368H78.4363C78.2923 12.992 77.6043 12.256 76.5643 12.064V15.776C78.5163 16.4 79.9883 16.96 79.9883 18.992C79.9883 20.848 78.7723 22.128 76.5643 22.224V23.616H75.6843ZM73.7643 13.712C73.7643 14.688 74.5003 15.088 75.6843 15.504V12C74.5003 12.08 73.7643 12.72 73.7643 13.712ZM76.5643 21.04C78.0203 20.96 78.6283 20.224 78.6283 19.088C78.6283 17.92 77.9723 17.504 76.5643 17.056V21.04ZM95.0158 24.928C92.8718 24.928 91.7358 23.872 91.6078 22.368H92.9518C93.0958 23.2 93.6718 23.808 95.0158 23.808C96.4558 23.808 97.2878 23.168 97.2878 21.584V20.288H97.2398C96.7758 21.072 95.9758 21.584 94.7918 21.584C92.9038 21.584 91.3678 20.288 91.3678 17.6C91.3678 14.912 92.9038 13.616 94.7918 13.616C96.0078 13.616 96.7918 14.192 97.2398 14.88H97.2878V13.84H98.5677V21.456C98.5677 23.776 97.1758 24.928 95.0158 24.928ZM92.7118 17.6C92.7118 19.216 93.4798 20.464 94.9998 20.464C96.3758 20.464 97.2878 19.536 97.2878 17.6C97.2878 15.664 96.3758 14.736 94.9998 14.736C93.4798 14.736 92.7118 15.984 92.7118 17.6ZM101.826 22V20.88H104.386V14.96H101.826V13.84H105.666V20.88H107.906V22H101.826ZM103.906 12.256V10.4H105.794V12.256H103.906ZM115.915 22.08C114.059 22.08 113.051 21.664 113.051 19.808V14.96H110.331V13.84H113.051V11.12H114.331V13.84H117.851V14.96H114.331V19.872C114.331 20.736 114.795 20.96 116.075 20.96C117.003 20.96 117.339 20.944 117.851 20.912V22C117.307 22.064 116.891 22.08 115.915 22.08ZM133.711 22.224C131.503 22.224 130.031 20.48 130.031 17.92C130.031 15.36 131.503 13.616 133.711 13.616C135.599 13.616 136.895 14.976 137.071 16.784H135.727C135.679 15.888 135.119 14.736 133.711 14.736C132.047 14.736 131.375 16.384 131.375 17.92C131.375 19.456 132.047 21.104 133.711 21.104C135.135 21.104 135.679 19.968 135.727 18.992H137.071C136.975 20.832 135.615 22.224 133.711 22.224ZM143.113 22.24C140.905 22.24 139.529 20.464 139.529 17.92C139.529 15.376 140.905 13.6 143.129 13.6C145.337 13.6 146.697 15.376 146.697 17.92C146.697 20.464 145.337 22.24 143.113 22.24ZM140.873 17.92C140.873 19.68 141.625 21.12 143.113 21.12C144.633 21.12 145.353 19.664 145.353 17.92C145.353 16.16 144.617 14.72 143.113 14.72C141.625 14.72 140.873 16.16 140.873 17.92ZM152.098 16.608C152.098 15.584 151.906 14.736 151.186 14.736C150.514 14.736 150.082 15.68 150.082 16.912V22H148.866V13.84H150.082V14.832H150.098C150.418 14.256 150.914 13.616 151.714 13.616C152.45 13.616 152.914 14.144 153.122 15.04H153.138C153.57 14.224 154.098 13.616 154.898 13.616C155.986 13.616 156.546 14.64 156.546 16.304V22H155.33V16.608C155.33 15.552 155.122 14.736 154.418 14.736C153.746 14.736 153.314 15.648 153.314 16.912V22H152.098V16.608ZM161.692 16.608C161.692 15.584 161.5 14.736 160.78 14.736C160.108 14.736 159.676 15.68 159.676 16.912V22H158.46V13.84H159.676V14.832H159.692C160.012 14.256 160.508 13.616 161.308 13.616C162.044 13.616 162.508 14.144 162.716 15.04H162.732C163.164 14.224 163.692 13.616 164.492 13.616C165.58 13.616 166.14 14.64 166.14 16.304V22H164.924V16.608C164.924 15.552 164.716 14.736 164.012 14.736C163.34 14.736 162.908 15.648 162.908 16.912V22H161.692V16.608ZM168.982 22V20.88H171.542V14.96H168.982V13.84H172.822V20.88H175.062V22H168.982ZM171.062 12.256V10.4H172.95V12.256H171.062ZM183.072 22.08C181.216 22.08 180.208 21.664 180.208 19.808V14.96H177.488V13.84H180.208V11.12H181.488V13.84H185.008V14.96H181.488V19.872C181.488 20.736 181.952 20.96 183.232 20.96C184.16 20.96 184.496 20.944 185.008 20.912V22C184.464 22.064 184.048 22.08 183.072 22.08ZM198.051 18.24V16.96H203.299V18.24H198.051ZM209.197 22.224C207.597 22.224 206.621 21.312 206.621 19.792C206.621 18.048 207.901 17.52 209.885 17.136C211.229 16.88 211.933 16.736 211.933 15.888C211.933 15.264 211.549 14.72 210.205 14.72C208.749 14.72 208.397 15.344 208.333 16.368H207.005C207.069 14.768 208.109 13.6 210.285 13.6C211.885 13.6 213.197 14.24 213.197 16.24V20.336C213.197 20.944 213.325 21.12 213.757 21.12C213.789 21.12 213.901 21.12 214.045 21.088V21.984C213.837 22.048 213.581 22.08 213.245 22.08C212.573 22.08 212.045 21.808 211.965 20.8H211.933C211.405 21.648 210.461 22.224 209.197 22.224ZM207.965 19.824C207.965 20.656 208.365 21.104 209.485 21.104C210.861 21.104 211.933 20.416 211.933 18.864V17.536C211.597 17.84 211.293 17.92 210.093 18.192C208.573 18.544 207.965 18.816 207.965 19.824ZM219.255 16.608C219.255 15.584 219.062 14.736 218.343 14.736C217.671 14.736 217.239 15.68 217.239 16.912V22H216.023V13.84H217.239V14.832H217.255C217.575 14.256 218.071 13.616 218.871 13.616C219.607 13.616 220.071 14.144 220.279 15.04H220.295C220.727 14.224 221.255 13.616 222.055 13.616C223.142 13.616 223.703 14.64 223.703 16.304V22H222.487V16.608C222.487 15.552 222.279 14.736 221.575 14.736C220.903 14.736 220.471 15.648 220.471 16.912V22H219.255V16.608ZM235.882 22V10.56H243.018V11.84H237.338V15.552H241.946V16.832H237.338V22H235.882ZM245.796 22V14.96H244.196V13.84H245.796V12.736C245.796 10.88 246.66 10.464 248.004 10.464C248.244 10.464 248.436 10.48 248.852 10.544V11.632C248.532 11.6 248.404 11.584 248.18 11.584C247.268 11.584 247.076 11.808 247.076 12.672V13.84H252.004V22H250.724V14.96H247.076V22H245.796ZM250.308 12.336V10.64H252.004V12.336H250.308ZM254.942 22V13.84H256.222V14.832H256.254C256.702 14.256 257.566 13.616 258.99 13.616C260.462 13.616 261.661 14.448 261.661 16.304V22H260.382V16.624C260.382 15.568 259.918 14.736 258.622 14.736C257.182 14.736 256.222 15.648 256.222 16.912V22H254.942ZM266.759 22.224C265.159 22.224 264.183 21.312 264.183 19.792C264.183 18.048 265.463 17.52 267.447 17.136C268.791 16.88 269.495 16.736 269.495 15.888C269.495 15.264 269.111 14.72 267.767 14.72C266.311 14.72 265.959 15.344 265.895 16.368H264.567C264.631 14.768 265.671 13.6 267.847 13.6C269.447 13.6 270.759 14.24 270.759 16.24V20.336C270.759 20.944 270.887 21.12 271.319 21.12C271.351 21.12 271.463 21.12 271.607 21.088V21.984C271.399 22.048 271.143 22.08 270.807 22.08C270.135 22.08 269.607 21.808 269.527 20.8H269.495C268.967 21.648 268.023 22.224 266.759 22.224ZM265.527 19.824C265.527 20.656 265.927 21.104 267.047 21.104C268.423 21.104 269.495 20.416 269.495 18.864V17.536C269.159 17.84 268.855 17.92 267.655 18.192C266.135 18.544 265.527 18.816 265.527 19.824ZM273.905 22V20.88H276.785V11.68H273.905V10.56H278.065V20.88H280.945V22H273.905ZM298.197 22.08C296.341 22.08 295.333 21.664 295.333 19.808V14.96H292.613V13.84H295.333V11.12H296.613V13.84H300.133V14.96H296.613V19.872C296.613 20.736 297.077 20.96 298.357 20.96C299.285 20.96 299.621 20.944 300.133 20.912V22C299.589 22.064 299.173 22.08 298.197 22.08ZM303.342 22L301.95 13.84H303.326L304.174 20.56H304.254L305.454 13.84H306.99L308.19 20.56H308.27L309.118 13.84H310.462L309.07 22H307.534L306.254 15.376H306.174L304.878 22H303.342ZM315.912 22.24C313.608 22.24 312.312 20.384 312.312 17.904C312.312 15.312 313.72 13.6 315.912 13.6C318.12 13.6 319.352 15.264 319.352 17.616C319.352 17.84 319.352 18.128 319.336 18.256H313.656C313.688 19.68 314.44 21.136 315.944 21.136C317.272 21.136 317.816 20.08 317.96 19.488H319.256C318.888 20.976 317.864 22.24 315.912 22.24ZM313.656 17.136H317.992C317.992 15.792 317.192 14.704 315.864 14.704C314.632 14.704 313.736 15.696 313.656 17.136ZM324.322 22.224C322.722 22.224 321.746 21.312 321.746 19.792C321.746 18.048 323.026 17.52 325.01 17.136C326.354 16.88 327.058 16.736 327.058 15.888C327.058 15.264 326.674 14.72 325.33 14.72C323.874 14.72 323.522 15.344 323.458 16.368H322.13C322.194 14.768 323.234 13.6 325.41 13.6C327.01 13.6 328.322 14.24 328.322 16.24V20.336C328.322 20.944 328.45 21.12 328.882 21.12C328.914 21.12 329.026 21.12 329.17 21.088V21.984C328.962 22.048 328.706 22.08 328.37 22.08C327.698 22.08 327.17 21.808 327.09 20.8H327.058C326.53 21.648 325.586 22.224 324.322 22.224ZM323.09 19.824C323.09 20.656 323.49 21.104 324.61 21.104C325.986 21.104 327.058 20.416 327.058 18.864V17.536C326.722 17.84 326.418 17.92 325.218 18.192C323.698 18.544 323.09 18.816 323.09 19.824ZM331.884 22V10.56H333.164V17.504L337.324 13.84H338.86L335.484 16.8L339.276 22H337.756L334.604 17.568L333.164 18.816V22H331.884ZM344.869 22.224C342.485 22.224 341.285 20.96 341.221 19.28H342.533C342.597 20.288 343.285 21.104 344.853 21.104C346.277 21.104 346.757 20.4 346.757 19.76C346.757 18.768 346.085 18.624 344.501 18.288C342.853 17.936 341.509 17.568 341.509 15.904C341.509 14.528 342.613 13.616 344.501 13.616C346.677 13.616 347.685 14.768 347.813 16.176H346.501C346.309 15.248 345.685 14.736 344.501 14.736C343.445 14.736 342.853 15.184 342.853 15.856C342.853 16.64 343.429 16.816 345.061 17.168C346.597 17.504 348.101 17.92 348.101 19.712C348.101 21.248 346.901 22.224 344.869 22.224ZM354.911 14L354.815 10.112H356.095L355.999 14H354.911ZM352.255 10.112H353.535L353.439 14H352.351L352.255 10.112ZM7.344 47.872V33.92H12.288V35.2H8.784V46.592H12.288V47.872H7.344ZM17.7858 40.608C17.7858 39.584 17.5938 38.736 16.8738 38.736C16.2018 38.736 15.7698 39.68 15.7698 40.912V46H14.5538V37.84H15.7698V38.832H15.7858C16.1058 38.256 16.6018 37.616 17.4018 37.616C18.1378 37.616 18.6018 38.144 18.8098 39.04H18.8258C19.2578 38.224 19.7858 37.616 20.5858 37.616C21.6737 37.616 22.2338 38.64 22.2338 40.304V46H21.0178V40.608C21.0178 39.552 20.8098 38.736 20.1058 38.736C19.4338 38.736 19.0018 39.648 19.0018 40.912V46H17.7858V40.608ZM26.9155 46.224C25.3155 46.224 24.3395 45.312 24.3395 43.792C24.3395 42.048 25.6195 41.52 27.6035 41.136C28.9475 40.88 29.6515 40.736 29.6515 39.888C29.6515 39.264 29.2675 38.72 27.9235 38.72C26.4675 38.72 26.1155 39.344 26.0515 40.368H24.7235C24.7875 38.768 25.8275 37.6 28.0035 37.6C29.6035 37.6 30.9155 38.24 30.9155 40.24V44.336C30.9155 44.944 31.0435 45.12 31.4755 45.12C31.5075 45.12 31.6195 45.12 31.7635 45.088V45.984C31.5555 46.048 31.2995 46.08 30.9635 46.08C30.2915 46.08 29.7635 45.808 29.6835 44.8H29.6515C29.1235 45.648 28.1795 46.224 26.9155 46.224ZM25.6835 43.824C25.6835 44.656 26.0835 45.104 27.2035 45.104C28.5795 45.104 29.6515 44.416 29.6515 42.864V41.536C29.3155 41.84 29.0115 41.92 27.8115 42.192C26.2915 42.544 25.6835 42.816 25.6835 43.824ZM34.6693 46V44.88H37.2293V38.96H34.6693V37.84H38.5093V44.88H40.7493V46H34.6693ZM36.7493 36.256V34.4H38.6373V36.256H36.7493ZM43.879 46V37.84H45.159V38.832H45.191C45.639 38.256 46.503 37.616 47.927 37.616C49.399 37.616 50.599 38.448 50.599 40.304V46H49.319V40.624C49.319 39.568 48.855 38.736 47.559 38.736C46.119 38.736 45.159 39.648 45.159 40.912V46H43.879ZM67.4985 46V43.408H62.1065V42.128L67.4985 34.944H68.9385V42.128H70.5225V43.408H68.9385V46H67.4985ZM63.5785 42.128H67.4985V36.944L63.5785 42.128ZM74.9963 36.736C74.9963 34.88 75.7963 34.464 77.8923 34.464C78.3723 34.464 79.0283 34.512 79.6363 34.576V35.664C79.1083 35.616 78.6443 35.584 77.8923 35.584C76.5323 35.584 76.2763 35.808 76.2763 36.672V37.84H79.6363V38.96H76.2763V44.88H79.3163V46H72.9323V44.88H74.9963V38.96H72.5963V37.84H74.9963V36.736ZM81.87 46C81.87 44.08 82.958 42.528 85.022 41.232C86.846 40.096 87.79 39.632 87.79 38.048C87.79 37.136 87.406 36 85.902 36C84.206 36 83.646 37.296 83.646 38.816H82.142C82.142 36.528 83.358 34.72 85.95 34.72C87.79 34.72 89.294 35.92 89.294 38.032C89.294 40.112 87.79 41.104 86.19 42.128C84.718 43.072 83.966 43.648 83.71 44.688V44.72H89.182V46H81.87ZM95.3358 46.224C93.1278 46.224 91.6558 44.48 91.6558 41.92C91.6558 39.36 93.1278 37.616 95.3358 37.616C97.2238 37.616 98.5198 38.976 98.6958 40.784H97.3518C97.3038 39.888 96.7438 38.736 95.3358 38.736C93.6718 38.736 92.9998 40.384 92.9998 41.92C92.9998 43.456 93.6718 45.104 95.3358 45.104C96.7598 45.104 97.3038 43.968 97.3518 42.992H98.6958C98.5998 44.832 97.2398 46.224 95.3358 46.224ZM104.594 34.72C107.442 34.72 108.498 36.96 108.498 40.464C108.498 44 107.074 46.224 104.546 46.224C102.642 46.224 101.41 44.816 101.25 43.2H102.722C102.834 44.224 103.378 44.944 104.546 44.944C106.562 44.944 107.058 42.8 107.058 40.704V40.544L107.026 40.528C106.498 41.6 105.49 42.16 104.338 42.16C102.354 42.16 100.978 40.688 100.978 38.512C100.978 36.464 102.354 34.72 104.594 34.72ZM102.482 38.416C102.482 40 103.282 40.88 104.498 40.88C105.938 40.88 106.882 39.888 106.882 38.384C106.882 36.96 106.066 36 104.61 36C103.218 36 102.482 36.928 102.482 38.416ZM113.259 46.224C111.659 46.224 110.683 45.312 110.683 43.792C110.683 42.048 111.963 41.52 113.947 41.136C115.291 40.88 115.995 40.736 115.995 39.888C115.995 39.264 115.611 38.72 114.267 38.72C112.811 38.72 112.459 39.344 112.395 40.368H111.067C111.131 38.768 112.171 37.6 114.347 37.6C115.947 37.6 117.259 38.24 117.259 40.24V44.336C117.259 44.944 117.387 45.12 117.819 45.12C117.851 45.12 117.963 45.12 118.107 45.088V45.984C117.899 46.048 117.643 46.08 117.307 46.08C116.635 46.08 116.107 45.808 116.027 44.8H115.995C115.467 45.648 114.523 46.224 113.259 46.224ZM112.027 43.824C112.027 44.656 112.427 45.104 113.547 45.104C114.923 45.104 115.995 44.416 115.995 42.864V41.536C115.659 41.84 115.355 41.92 114.155 42.192C112.635 42.544 112.027 42.816 112.027 43.824ZM124.325 46.224C123.077 46.224 122.325 45.664 121.893 44.944H121.845V46H120.565V34.56H121.845V38.848H121.893C122.325 38.208 123.093 37.616 124.325 37.616C126.261 37.616 127.765 39.232 127.765 41.92C127.765 44.608 126.261 46.224 124.325 46.224ZM121.861 41.92C121.861 43.84 122.757 45.104 124.149 45.104C125.669 45.104 126.421 43.536 126.421 41.92C126.421 40.288 125.669 38.736 124.149 38.736C122.757 38.736 121.861 40 121.861 41.92ZM130.031 47.872V46.592H133.535V35.2H130.031V33.92H134.975V47.872H130.031ZM149.538 46V34.56H156.674V35.84H150.994V39.552H155.602V40.832H150.994V46H149.538ZM159.388 46V44.88H161.948V38.96H159.388V37.84H163.228V44.88H165.468V46H159.388ZM161.468 36.256V34.4H163.356V36.256H161.468ZM168.598 46V37.84H169.878V38.832H169.91C170.358 38.256 171.222 37.616 172.646 37.616C174.118 37.616 175.318 38.448 175.318 40.304V46H174.038V40.624C174.038 39.568 173.574 38.736 172.278 38.736C170.838 38.736 169.878 39.648 169.878 40.912V46H168.598ZM180.416 46.224C178.816 46.224 177.84 45.312 177.84 43.792C177.84 42.048 179.12 41.52 181.104 41.136C182.448 40.88 183.152 40.736 183.152 39.888C183.152 39.264 182.768 38.72 181.424 38.72C179.968 38.72 179.616 39.344 179.552 40.368H178.224C178.288 38.768 179.328 37.6 181.504 37.6C183.104 37.6 184.416 38.24 184.416 40.24V44.336C184.416 44.944 184.544 45.12 184.976 45.12C185.008 45.12 185.12 45.12 185.264 45.088V45.984C185.056 46.048 184.8 46.08 184.464 46.08C183.792 46.08 183.264 45.808 183.184 44.8H183.152C182.624 45.648 181.68 46.224 180.416 46.224ZM179.184 43.824C179.184 44.656 179.584 45.104 180.704 45.104C182.08 45.104 183.152 44.416 183.152 42.864V41.536C182.816 41.84 182.512 41.92 181.312 42.192C179.792 42.544 179.184 42.816 179.184 43.824ZM187.561 46V44.88H190.441V35.68H187.561V34.56H191.721V44.88H194.601V46H187.561ZM211.853 46.08C209.997 46.08 208.989 45.664 208.989 43.808V38.96H206.269V37.84H208.989V35.12H210.269V37.84H213.789V38.96H210.269V43.872C210.269 44.736 210.733 44.96 212.013 44.96C212.941 44.96 213.277 44.944 213.789 44.912V46C213.245 46.064 212.829 46.08 211.853 46.08ZM216.999 46L215.607 37.84H216.983L217.831 44.56H217.911L219.111 37.84H220.647L221.847 44.56H221.927L222.775 37.84H224.119L222.727 46H221.191L219.911 39.376H219.831L218.535 46H216.999ZM229.568 46.24C227.264 46.24 225.968 44.384 225.968 41.904C225.968 39.312 227.376 37.6 229.568 37.6C231.776 37.6 233.008 39.264 233.008 41.616C233.008 41.84 233.008 42.128 232.992 42.256H227.312C227.344 43.68 228.096 45.136 229.6 45.136C230.928 45.136 231.472 44.08 231.616 43.488H232.912C232.544 44.976 231.52 46.24 229.568 46.24ZM227.312 41.136H231.648C231.648 39.792 230.848 38.704 229.52 38.704C228.288 38.704 227.392 39.696 227.312 41.136ZM237.978 46.224C236.378 46.224 235.402 45.312 235.402 43.792C235.402 42.048 236.682 41.52 238.666 41.136C240.01 40.88 240.714 40.736 240.714 39.888C240.714 39.264 240.33 38.72 238.986 38.72C237.53 38.72 237.178 39.344 237.114 40.368H235.786C235.85 38.768 236.89 37.6 239.066 37.6C240.666 37.6 241.978 38.24 241.978 40.24V44.336C241.978 44.944 242.106 45.12 242.538 45.12C242.57 45.12 242.682 45.12 242.826 45.088V45.984C242.618 46.048 242.362 46.08 242.026 46.08C241.354 46.08 240.826 45.808 240.746 44.8H240.714C240.186 45.648 239.242 46.224 237.978 46.224ZM236.746 43.824C236.746 44.656 237.146 45.104 238.266 45.104C239.642 45.104 240.714 44.416 240.714 42.864V41.536C240.378 41.84 240.074 41.92 238.874 42.192C237.354 42.544 236.746 42.816 236.746 43.824ZM245.54 46V34.56H246.82V41.504L250.98 37.84H252.516L249.14 40.8L252.932 46H251.412L248.26 41.568L246.82 42.816V46H245.54ZM258.526 46.224C256.142 46.224 254.942 44.96 254.878 43.28H256.19C256.254 44.288 256.942 45.104 258.51 45.104C259.934 45.104 260.414 44.4 260.414 43.76C260.414 42.768 259.742 42.624 258.158 42.288C256.51 41.936 255.166 41.568 255.166 39.904C255.166 38.528 256.27 37.616 258.158 37.616C260.334 37.616 261.342 38.768 261.47 40.176H260.158C259.966 39.248 259.342 38.736 258.158 38.736C257.102 38.736 256.51 39.184 256.51 39.856C256.51 40.64 257.086 40.816 258.718 41.168C260.254 41.504 261.758 41.92 261.758 43.712C261.758 45.248 260.558 46.224 258.526 46.224Z"></path>
<path fill="#B3B3B3" d="M5.04 73.6C5.04 72.72 5.424 71.392 7.216 71.392C8.752 71.392 9.392 72.72 10.4 72.72C11.072 72.72 11.36 72.24 11.44 71.712H12.56C12.56 72.576 12.176 73.904 10.4 73.904C8.864 73.904 8.208 72.576 7.216 72.576C6.528 72.576 6.24 73.12 6.16 73.6H5.04ZM15.5458 78L19.9778 66.56H21.2578L16.8258 78H15.5458ZM28.2755 78.224C25.8915 78.224 24.6915 76.96 24.6275 75.28H25.9395C26.0035 76.288 26.6915 77.104 28.2595 77.104C29.6835 77.104 30.1635 76.4 30.1635 75.76C30.1635 74.768 29.4915 74.624 27.9075 74.288C26.2595 73.936 24.9155 73.568 24.9155 71.904C24.9155 70.528 26.0195 69.616 27.9075 69.616C30.0835 69.616 31.0915 70.768 31.2195 72.176H29.9075C29.7155 71.248 29.0915 70.736 27.9075 70.736C26.8515 70.736 26.2595 71.184 26.2595 71.856C26.2595 72.64 26.8355 72.816 28.4675 73.168C30.0035 73.504 31.5075 73.92 31.5075 75.712C31.5075 77.248 30.3075 78.224 28.2755 78.224ZM34.6693 78V76.88H37.2293V70.96H34.6693V69.84H38.5093V76.88H40.7493V78H34.6693ZM36.7493 68.256V66.4H38.6373V68.256H36.7493ZM48.759 78.08C46.903 78.08 45.895 77.664 45.895 75.808V70.96H43.175V69.84H45.895V67.12H47.175V69.84H50.695V70.96H47.175V75.872C47.175 76.736 47.639 76.96 48.919 76.96C49.847 76.96 50.183 76.944 50.695 76.912V78C50.151 78.064 49.735 78.08 48.759 78.08ZM56.8808 78.24C54.5768 78.24 53.2808 76.384 53.2808 73.904C53.2808 71.312 54.6888 69.6 56.8808 69.6C59.0888 69.6 60.3208 71.264 60.3208 73.616C60.3208 73.84 60.3208 74.128 60.3048 74.256H54.6248C54.6568 75.68 55.4088 77.136 56.9128 77.136C58.2408 77.136 58.7848 76.08 58.9288 75.488H60.2248C59.8568 76.976 58.8328 78.24 56.8808 78.24ZM54.6248 73.136H58.9608C58.9608 71.792 58.1608 70.704 56.8328 70.704C55.6008 70.704 54.7048 71.696 54.6248 73.136Z"></path>
<g filter="url(#filter3_d_423_3958)">
<path fill="url(#paint5_linear_423_3958)" d="M74.48 79.616V78.192C72.384 77.968 70.832 76.672 70.736 74.352H72.368C72.464 75.76 73.184 76.608 74.48 76.8V72.944H74.464C72.768 72.432 71.152 71.792 71.152 69.856C71.152 68.112 72.432 66.912 74.48 66.816V65.68H75.392V66.848C77.28 67.072 78.592 68.288 78.704 70.368H77.088C76.96 69.104 76.336 68.448 75.392 68.256V71.68C77.376 72.304 78.896 72.88 78.896 74.96C78.896 76.848 77.632 78.128 75.392 78.224V79.616H74.48ZM72.784 69.76C72.784 70.624 73.392 70.992 74.48 71.376V68.208C73.44 68.288 72.784 68.848 72.784 69.76ZM75.392 76.848C76.704 76.768 77.264 76.096 77.264 75.104C77.264 74.048 76.592 73.632 75.392 73.232V76.848ZM93.8755 80.928C91.6995 80.928 90.5475 79.84 90.3875 78.352H92.0195C92.1635 79.088 92.6755 79.648 93.8755 79.648C95.2195 79.648 95.9235 79.008 95.9235 77.456V76.352H95.8755C95.4435 77.056 94.6915 77.584 93.5395 77.584C91.6355 77.584 90.1795 76.208 90.1795 73.6C90.1795 70.976 91.6355 69.6 93.5395 69.6C94.7075 69.6 95.4595 70.192 95.8755 70.816H95.9235V69.84H97.4915V77.36C97.4915 79.824 96.0835 80.928 93.8755 80.928ZM91.8115 73.6C91.8115 75.152 92.4995 76.288 93.8595 76.288C95.1235 76.288 95.9075 75.392 95.9075 73.6C95.9075 71.792 95.1235 70.912 93.8595 70.912C92.4995 70.912 91.8115 72.048 91.8115 73.6ZM100.589 78V76.704H103.085V71.136H100.589V69.84H104.653V76.704H106.829V78H100.589ZM102.653 68.384V66.368H104.781V68.384H102.653ZM114.663 78.096C112.663 78.096 111.735 77.632 111.735 75.664V71.136H109.127V69.84H111.735V67.216H113.319V69.84H116.727V71.136H113.319V75.68C113.319 76.608 113.751 76.8 114.919 76.8C115.783 76.8 116.135 76.768 116.727 76.72V77.968C116.167 78.064 115.655 78.096 114.663 78.096ZM128.923 80.832V69.84H130.491V70.8H130.539C130.939 70.192 131.707 69.6 132.875 69.6C134.811 69.6 136.251 71.232 136.251 73.92C136.251 76.608 134.811 78.224 132.875 78.224C131.691 78.224 130.923 77.648 130.539 76.992H130.491V80.832H128.923ZM130.523 73.92C130.523 75.76 131.307 76.928 132.571 76.928C133.931 76.928 134.603 75.536 134.603 73.92C134.603 72.272 133.931 70.912 132.571 70.912C131.307 70.912 130.523 72.064 130.523 73.92ZM143.764 78V76.96H143.732C143.3 77.584 142.468 78.224 141.076 78.224C139.604 78.224 138.452 77.344 138.452 75.488V69.84H140.036V75.056C140.036 76.16 140.484 76.896 141.636 76.896C142.932 76.896 143.764 76.08 143.764 74.848V69.84H145.332V78H143.764ZM151.838 78.224C149.342 78.224 148.158 76.944 148.094 75.28H149.662C149.726 76.24 150.382 76.96 151.806 76.96C153.086 76.96 153.534 76.368 153.534 75.76C153.534 74.832 152.83 74.704 151.326 74.384C149.726 74.032 148.35 73.616 148.35 71.952C148.35 70.544 149.502 69.6 151.486 69.6C153.758 69.6 154.766 70.8 154.894 72.208H153.326C153.166 71.344 152.606 70.864 151.486 70.864C150.51 70.864 149.998 71.264 149.998 71.888C149.998 72.608 150.542 72.752 152.078 73.088C153.646 73.44 155.166 73.872 155.166 75.68C155.166 77.264 153.95 78.224 151.838 78.224ZM157.768 78V66.56H159.336V70.864H159.368C159.8 70.256 160.632 69.6 162.024 69.6C163.496 69.6 164.648 70.48 164.648 72.352V78H163.064V72.768C163.064 71.664 162.6 70.944 161.464 70.944C160.168 70.944 159.336 71.76 159.336 72.992V78H157.768Z"></path>
</g>
</g>
<rect fill="url(#paint6_linear_423_3958)" transform="matrix(1 0 0 -1 4 88)" height="84" width="360"></rect>
</g>
<defs>
<filter color-interpolation-filters="sRGB" filterUnits="userSpaceOnUse" height="278.557" width="364.557" y="96" x="4" id="filter0_d_423_3958">
<feFlood result="BackgroundImageFix" flood-opacity="0"></feFlood>
<feColorMatrix result="hardAlpha" values="0 0 0 0 0 0 0 0 0 0 0 0 0 0 0 0 0 0 127 0" type="matrix" in="SourceAlpha"></feColorMatrix>
<feOffset dy="4.55684" dx="4.55684"></feOffset>
<feComposite operator="out" in2="hardAlpha"></feComposite>
<feColorMatrix values="0 0 0 0 0 0 0 0 0 0 0 0 0 0 0 0 0 0 0.07 0" type="matrix"></feColorMatrix>
<feBlend result="effect1_dropShadow_423_3958" in2="BackgroundImageFix" mode="normal"></feBlend>
<feBlend result="shape" in2="effect1_dropShadow_423_3958" in="SourceGraphic" mode="normal"></feBlend>
</filter>
<filter color-interpolation-filters="sRGB" filterUnits="userSpaceOnUse" height="92" width="368" y="0" x="0" id="filter1_f_423_3958">
<feFlood result="BackgroundImageFix" flood-opacity="0"></feFlood>
<feBlend result="shape" in2="BackgroundImageFix" in="SourceGraphic" mode="normal"></feBlend>
<feGaussianBlur result="effect1_foregroundBlur_423_3958" stdDeviation="0"></feGaussianBlur>
</filter>
<filter color-interpolation-filters="sRGB" filterUnits="userSpaceOnUse" height="88" width="368" y="0" x="0" id="filter2_f_423_3958">
<feFlood result="BackgroundImageFix" flood-opacity="0"></feFlood>
<feBlend result="shape" in2="BackgroundImageFix" in="SourceGraphic" mode="normal"></feBlend>
<feGaussianBlur result="effect1_foregroundBlur_423_3958" stdDeviation="0"></feGaussianBlur>
</filter>
<filter color-interpolation-filters="sRGB" filterUnits="userSpaceOnUse" height="35.2479" width="113.911" y="55.6801" x="60.7363" id="filter3_d_423_3958">
<feFlood result="BackgroundImageFix" flood-opacity="0"></feFlood>
<feColorMatrix result="hardAlpha" values="0 0 0 0 0 0 0 0 0 0 0 0 0 0 0 0 0 0 127 0" type="matrix" in="SourceAlpha"></feColorMatrix>
<feOffset></feOffset>
<feGaussianBlur stdDeviation="5"></feGaussianBlur>
<feComposite operator="out" in2="hardAlpha"></feComposite>
<feColorMatrix values="0 0 0 0 0.984314 0 0 0 0 0.807843 0 0 0 0 1 0 0 0 0.2 0" type="matrix"></feColorMatrix>
<feBlend result="effect1_dropShadow_423_3958" in2="BackgroundImageFix" mode="normal"></feBlend>
<feBlend result="shape" in2="effect1_dropShadow_423_3958" in="SourceGraphic" mode="normal"></feBlend>
</filter>
<linearGradient gradientUnits="userSpaceOnUse" y2="209.875" x2="25" y1="184.875" x1="41.875" id="paint0_linear_423_3958">
<stop stop-color="#C6FB9D"></stop>
<stop stop-color="#5CFFB8" offset="1"></stop>
</linearGradient>
<linearGradient gradientUnits="userSpaceOnUse" y2="275.875" x2="25" y1="250.875" x1="41.875" id="paint1_linear_423_3958">
<stop stop-color="#C6FB9D"></stop>
<stop stop-color="#5CFFB8" offset="1"></stop>
</linearGradient>
<linearGradient gradientUnits="userSpaceOnUse" y2="341.875" x2="25" y1="316.875" x1="41.875" id="paint2_linear_423_3958">
<stop stop-color="#C6FB9D"></stop>
<stop stop-color="#5CFFB8" offset="1"></stop>
</linearGradient>
<linearGradient gradientUnits="userSpaceOnUse" y2="79.4706" x2="190" y1="15.5" x1="192" id="paint3_linear_423_3958">
<stop stop-opacity="0" stop-color="#0D0D0D"></stop>
<stop stop-opacity="0.7" stop-color="#0D0D0D" offset="0.5"></stop>
<stop stop-color="#0D0D0D" offset="1"></stop>
</linearGradient>
<linearGradient gradientUnits="userSpaceOnUse" y2="408" x2="327" y1="304" x1="305" id="paint4_linear_423_3958">
<stop stop-opacity="0" stop-color="#0D0D0D"></stop>
<stop stop-color="#0D0D0D" offset="1"></stop>
</linearGradient>
<linearGradient gradientUnits="userSpaceOnUse" y2="19.5" x2="217" y1="129" x1="-9" id="paint5_linear_423_3958">
<stop stop-color="#E2A66E"></stop>
<stop stop-color="#F680FF" offset="1"></stop>
</linearGradient>
<linearGradient gradientUnits="userSpaceOnUse" y2="79.4706" x2="190" y1="15.5" x1="192" id="paint6_linear_423_3958">
<stop stop-opacity="0" stop-color="#0D0D0D"></stop>
<stop stop-opacity="0.7" stop-color="#0D0D0D" offset="0.5"></stop>
<stop stop-color="#0D0D0D" offset="1"></stop>
</linearGradient>
<clipPath id="clip0_423_3958">
<rect transform="translate(20 114)" fill="white" height="16" width="16"></rect>
</clipPath>
</defs>
</svg>
