<svg xmlns="http://www.w3.org/2000/svg" fill="none" viewBox="0 0 24 24" height="24" width="24">
<path fill="#9B52FB" d="M17.25 18.0001C16.6818 18.0014 16.1353 18.219 15.7218 18.6088L12.719 16.807C12.7603 16.6045 12.7603 16.3958 12.719 16.1932L15.7218 14.3915C16.1342 14.799 16.6786 15.046 17.2569 15.0879C17.8352 15.1299 18.4094 14.9641 18.8764 14.6204C19.3433 14.2767 19.6723 13.7776 19.8041 13.213C19.9358 12.6483 19.8618 12.0552 19.5952 11.5403C19.3287 11.0254 18.8871 10.6225 18.35 10.4041C17.8129 10.1858 17.2155 10.1663 16.6652 10.3491C16.115 10.5319 15.6481 10.9051 15.3485 11.4016C15.0489 11.898 14.9363 12.485 15.031 13.057L12.0282 14.8588C11.7081 14.5586 11.3071 14.3586 10.8748 14.2834C10.4424 14.2082 9.99754 14.2611 9.59486 14.4355C9.19218 14.61 8.8493 14.8984 8.60844 15.2652C8.36758 15.632 8.23924 16.0613 8.23924 16.5001C8.23924 16.939 8.36758 17.3682 8.60844 17.7351C8.8493 18.1019 9.19218 18.3903 9.59486 18.5647C9.99754 18.7392 10.4424 18.7921 10.8748 18.7169C11.3071 18.6417 11.7081 18.4417 12.0282 18.1415L15.031 19.9432C15.0136 20.0447 15.0032 20.1472 15 20.2501C15 20.6951 15.132 21.1302 15.3792 21.5002C15.6264 21.8702 15.9778 22.1586 16.389 22.3289C16.8001 22.4992 17.2525 22.5437 17.689 22.4569C18.1254 22.3701 18.5263 22.1558 18.841 21.8411C19.1557 21.5265 19.37 21.1255 19.4568 20.6891C19.5436 20.2526 19.499 19.8002 19.3287 19.3891C19.1584 18.978 18.87 18.6266 18.5 18.3793C18.13 18.1321 17.695 18.0001 17.25 18.0001ZM17.25 12.0001C17.3983 12.0001 17.5433 12.0441 17.6667 12.1265C17.79 12.2089 17.8861 12.3261 17.9429 12.4631C17.9997 12.6002 18.0145 12.751 17.9856 12.8965C17.9566 13.0419 17.8852 13.1756 17.7803 13.2805C17.6754 13.3854 17.5418 13.4568 17.3963 13.4857C17.2508 13.5147 17.1 13.4998 16.963 13.443C16.8259 13.3863 16.7088 13.2901 16.6264 13.1668C16.544 13.0435 16.5 12.8985 16.5 12.7501C16.5002 12.5513 16.5792 12.3606 16.7198 12.22C16.8605 12.0794 17.0511 12.0003 17.25 12.0001ZM10.5 17.2501C10.3517 17.2501 10.2067 17.2061 10.0833 17.1237C9.95999 17.0413 9.86386 16.9242 9.80709 16.7871C9.75033 16.6501 9.73547 16.4993 9.76441 16.3538C9.79335 16.2083 9.86478 16.0747 9.96967 15.9698C10.0746 15.8649 10.2082 15.7935 10.3537 15.7645C10.4992 15.7356 10.65 15.7505 10.787 15.8072C10.9241 15.864 11.0412 15.9601 11.1236 16.0835C11.206 16.2068 11.25 16.3518 11.25 16.5001C11.2498 16.699 11.1708 16.8897 11.0302 17.0303C10.8895 17.1709 10.6989 17.25 10.5 17.2501ZM17.25 21.0001C17.1017 21.0001 16.9567 20.9561 16.8333 20.8737C16.71 20.7913 16.6139 20.6742 16.5571 20.5371C16.5003 20.4001 16.4855 20.2493 16.5144 20.1038C16.5434 19.9583 16.6148 19.8247 16.7197 19.7198C16.8246 19.6149 16.9582 19.5435 17.1037 19.5145C17.2492 19.4856 17.4 19.5005 17.537 19.5572C17.6741 19.614 17.7912 19.7101 17.8736 19.8335C17.956 19.9568 18 20.1018 18 20.2501C17.9998 20.449 17.9208 20.6397 17.7802 20.7803C17.6395 20.9209 17.4489 21 17.25 21.0001Z"></path>
<path fill="#9B52FB" d="M6 21H3C2.60232 20.9995 2.22105 20.8414 1.93984 20.5602C1.65864 20.279 1.50046 19.8977 1.5 19.5V4.50001C1.50046 4.10232 1.65864 3.72106 1.93984 3.43985C2.22105 3.15864 2.60232 3.00046 3 3.00001H8.68927C8.88636 2.99945 9.08159 3.03801 9.26367 3.11344C9.44574 3.18887 9.61105 3.29967 9.75 3.43943L12.3107 6.00001H21C21.3977 6.00046 21.7789 6.15864 22.0602 6.43985C22.3414 6.72106 22.4995 7.10232 22.5 7.50001V13.5H21V7.50001H11.6893L8.68927 4.50001H3V19.5H6V21Z"></path>
</svg>
