<svg xmlns="http://www.w3.org/2000/svg" fill="none" viewBox="0 0 83 40" height="40" width="83">
<g clip-path="url(#clip0_70_54)">
<path fill="#111111" d="M73.655 9.37177V29.5726H82V26.1521H77.0776V20.9117H80.2511V17.4912H77.0776V12.7923H82V9.37177H73.655Z"></path>
<path fill="#111111" d="M66.8827 9.37177V20.3875L63.4214 9.37177H59.9987V29.5726H63.4214V19.6763L66.5153 29.5726H70.3054V9.37177H66.8827Z"></path>
<path fill="#111111" d="M53.3381 9.37177V25.1079C53.3381 25.8405 52.743 26.4357 52.0103 26.4357C51.2777 26.4357 50.6825 25.8405 50.6825 25.1079V9.37177H47.2598V25.1079C47.2598 27.7313 49.3869 29.8583 52.0103 29.8583C54.6337 29.8583 56.7608 27.7313 56.7608 25.1079V9.37177H53.3381Z"></path>
<path fill="#111111" d="M44.4388 9.37177H34.9572V12.7923H37.9866V29.5726H41.4093V12.7923H44.4388V9.37177Z"></path>
<path fill="#111111" d="M33.3887 29.5726H29.8522L27.3233 19.9792C27.3233 19.9792 29.4998 19.5882 29.4998 17.272V14.1158C29.4998 13.3831 28.9068 12.7901 28.1763 12.7901H26.8614V29.5726H23.4387V9.37177H28.1741C30.7266 9.37177 32.8021 11.3871 32.9117 13.9095H32.9225V17.2119H32.9117C32.9117 19.2057 32.2586 20.6431 31.0661 21.5584L33.3909 29.5726H33.3887Z"></path>
<path fill="#111111" d="M10.5559 13.8365V25.11C10.5559 27.7334 12.683 29.8605 15.3064 29.8605C17.9298 29.8605 20.0569 27.7334 20.0569 25.11V13.8343C20.0569 11.2109 17.9319 9.086 15.3085 9.086C12.6851 9.086 10.5581 11.2131 10.5581 13.8365M13.9807 25.11V13.8365C13.9807 13.1038 14.5759 12.5087 15.3085 12.5087H15.3128C16.0433 12.5087 16.6363 13.1017 16.6363 13.8322V25.1079C16.6363 25.8405 16.0412 26.4357 15.3085 26.4357C14.5759 26.4357 13.9807 25.8405 13.9807 25.1079"></path>
<path fill="#111111" d="M0 9.37177V29.5726H3.42266V20.9117H6.59395V17.4912H3.42266V12.7923H8.34288V9.37177H0Z"></path>
</g>
<defs>
<clipPath id="clip0_70_54">
<rect transform="translate(0 9.086)" fill="white" height="20.7723" width="82"></rect>
</clipPath>
</defs>
</svg>
