<svg xmlns="http://www.w3.org/2000/svg" fill="none" viewBox="0 0 24 24" height="24" width="24">
<path fill="#5CFFB8" d="M6 13.95V12.75H4.5V13.95C4.49835 14.6793 4.64078 15.4017 4.91911 16.0758C5.19743 16.7499 5.60618 17.3624 6.12187 17.8781C6.63757 18.3938 7.25005 18.8026 7.92415 19.0809C8.59826 19.3592 9.3207 19.5017 10.05 19.5H11.25V18H10.05C9.51752 18.0022 8.98987 17.899 8.49749 17.6963C8.00512 17.4935 7.55776 17.1953 7.18124 16.8188C6.80472 16.4422 6.50648 15.9949 6.30374 15.5025C6.101 15.0101 5.99777 14.4825 6 13.95Z"></path>
<path fill="#5CFFB8" d="M21 13.5H15C14.6025 13.5012 14.2217 13.6596 13.9406 13.9406C13.6596 14.2217 13.5012 14.6025 13.5 15V21C13.5012 21.3975 13.6596 21.7783 13.9406 22.0594C14.2217 22.3404 14.6025 22.4988 15 22.5H21C21.3975 22.4988 21.7783 22.3404 22.0594 22.0594C22.3404 21.7783 22.4988 21.3975 22.5 21V15C22.4988 14.6025 22.3404 14.2217 22.0594 13.9406C21.7783 13.6596 21.3975 13.5012 21 13.5ZM15 21V15H21V21H15Z"></path>
<path fill="#5CFFB8" d="M18 10.05V11.25H19.5V10.05C19.5017 9.3207 19.3592 8.59826 19.0809 7.92415C18.8026 7.25005 18.3938 6.63757 17.8781 6.12187C17.3624 5.60618 16.7499 5.19743 16.0758 4.91911C15.4017 4.64078 14.6793 4.49835 13.95 4.5H12.75V6H13.95C14.4825 5.99777 15.0101 6.101 15.5025 6.30374C15.9949 6.50648 16.4422 6.80472 16.8188 7.18124C17.1953 7.55776 17.4935 8.00512 17.6963 8.49749C17.899 8.98987 18.0022 9.51752 18 10.05Z"></path>
<path fill="#5CFFB8" d="M9 1.5H3C2.60253 1.50117 2.22168 1.65958 1.94063 1.94063C1.65958 2.22168 1.50117 2.60253 1.5 3V9C1.50117 9.39747 1.65958 9.77832 1.94063 10.0594C2.22168 10.3404 2.60253 10.4988 3 10.5H9C9.39747 10.4988 9.77832 10.3404 10.0594 10.0594C10.3404 9.77832 10.4988 9.39747 10.5 9V3C10.4988 2.60253 10.3404 2.22168 10.0594 1.94063C9.77832 1.65958 9.39747 1.50117 9 1.5ZM3 9V3H9V9H3Z"></path>
</svg>
