<svg xmlns="http://www.w3.org/2000/svg" fill="none" viewBox="0 0 40 40" height="40" width="40">
<rect fill="#8A05FF" height="40" width="40"></rect>
<rect fill="#59FFA4" transform="rotate(-90 12 17)" height="4" width="4" y="17" x="12"></rect>
<rect fill="#C7AEFF" transform="rotate(-90 4 17)" height="4" width="4" y="17" x="4"></rect>
<rect fill="#C7AEFF" transform="rotate(-90 8 9)" height="4" width="4" y="9" x="8"></rect>
<rect fill="#C7AEFF" transform="rotate(-90 28 9)" height="4" width="4" y="9" x="28"></rect>
<rect fill="#C7AEFF" transform="rotate(-90 32 17)" height="4" width="4" y="17" x="32"></rect>
<rect fill="#59FFA4" transform="rotate(-90 16 13)" height="4" width="4" y="13" x="16"></rect>
<rect fill="#59FFA4" transform="rotate(-90 20 13)" height="4" width="4" y="13" x="20"></rect>
<rect fill="#C7AEFF" transform="rotate(-90 12 33)" height="16" width="12" y="33" x="12"></rect>
<rect fill="#59FFA4" transform="rotate(-90 12 21)" height="4" width="4" y="21" x="12"></rect>
<rect fill="#59FFA4" transform="matrix(4.37114e-08 -1 -1 -4.37114e-08 28 17)" height="4" width="4"></rect>
<rect fill="#59FFA4" transform="matrix(4.37114e-08 -1 -1 -4.37114e-08 28 21)" height="4" width="4"></rect>
<rect fill="#8A05FF" transform="rotate(-90 18.3999 29.7998)" height="3.2" width="5.6" y="29.7998" x="18.3999"></rect>
</svg>
