<svg xmlns="http://www.w3.org/2000/svg" fill="none" viewBox="0 0 125 40" height="40" width="125">
<path fill="black" d="M30.798 21.5684C32.5457 29.9658 26.9798 36.1636 19.034 35.1911C19.0047 35.1855 18.9778 35.1707 18.9572 35.1487C18.9367 35.1266 18.9235 35.0985 18.9197 35.0684C18.9158 35.0383 18.9215 35.0078 18.9357 34.9812C18.95 34.9546 18.9724 34.9332 18.9994 34.9202C19.8266 34.5398 20.6287 34.1055 21.4007 33.62C21.4822 33.571 21.5732 33.5406 21.6675 33.5306C23.3648 33.4026 24.9885 32.7747 26.3395 31.7238C29.6241 29.2317 30.0883 24.047 28.6822 20.0759C27.0812 15.1268 23.1217 10.6437 18.5138 8.25734C18.488 8.2432 18.4672 8.22162 18.4539 8.19527C18.4406 8.16891 18.4355 8.13904 18.4394 8.10971C18.4431 8.08037 18.4555 8.05285 18.475 8.03085C18.4945 8.00885 18.52 7.99333 18.5484 7.98642C19.3276 7.83878 20.1204 7.77973 20.9125 7.81033C21.0272 7.81647 21.1385 7.85289 21.2352 7.91595C22.4152 8.68343 23.5212 9.56228 24.5385 10.5408C27.6442 13.553 29.9228 17.3211 30.798 21.5684ZM1.32533 18.4316C-0.422322 10.0343 5.14349 3.8365 13.0893 4.80896C13.1188 4.81411 13.146 4.82866 13.167 4.85052C13.1878 4.87238 13.2013 4.90041 13.2054 4.93055C13.2096 4.9607 13.2042 4.9914 13.19 5.01824C13.1759 5.04508 13.1537 5.06665 13.1267 5.07984C12.2949 5.45987 11.4883 5.89418 10.7119 6.38008C10.6304 6.429 10.5394 6.45948 10.4452 6.46946C8.74785 6.5974 7.12418 7.22532 5.77319 8.27625C2.48867 10.7684 2.02439 15.9531 3.43319 19.9241C5.03409 24.8732 8.991 29.3563 13.5989 31.7427C13.6246 31.7569 13.6455 31.7784 13.6587 31.8048C13.672 31.8311 13.6771 31.861 13.6733 31.8903C13.6696 31.9197 13.6571 31.9471 13.6377 31.9692C13.6181 31.9912 13.5926 32.0067 13.5643 32.0136C12.7861 32.1613 11.994 32.2204 11.203 32.1897C11.0872 32.1837 10.9751 32.1472 10.8774 32.0841C9.70136 31.3108 8.59986 30.4265 7.58754 29.443C4.47645 26.4471 2.19782 22.679 1.32533 18.4316ZM14.5168 34.9554C6.24545 36.7297 0.14333 31.0791 1.09854 23.0122C1.10401 22.9824 1.11863 22.9551 1.14034 22.9343C1.16204 22.9134 1.18969 22.9001 1.21934 22.8961C1.24897 22.8922 1.27907 22.8979 1.3053 22.9125C1.33154 22.927 1.35255 22.9496 1.36536 22.977C1.74129 23.8206 2.16905 24.6394 2.64608 25.4285C2.69541 25.5108 2.72553 25.6035 2.73413 25.6994C2.8602 27.4217 3.47872 29.0693 4.51381 30.4398C6.96853 33.7744 12.0781 34.2484 15.987 32.8182C20.8618 31.1929 25.2803 27.1757 27.6308 22.4948C27.6439 22.4674 27.6652 22.4449 27.6915 22.4305C27.718 22.4162 27.7483 22.4106 27.7779 22.4149C27.8076 22.4191 27.8352 22.4328 27.8568 22.454C27.8783 22.4751 27.8926 22.5028 27.8977 22.5328C28.0445 23.3226 28.1027 24.1269 28.0712 24.9301C28.0651 25.0467 28.0292 25.1596 27.9671 25.2579C27.206 26.4523 26.335 27.5707 25.3656 28.5978C22.4039 31.759 18.6978 34.0859 14.5141 34.9609L14.5168 34.9554ZM31.0248 16.9824C31.0183 17.0113 31.0033 17.0376 30.9818 17.0577C30.9603 17.0778 30.9333 17.0907 30.9042 17.0948C30.8753 17.0989 30.8458 17.094 30.8197 17.0807C30.7936 17.0674 30.772 17.0463 30.758 17.0203C30.3797 16.1818 29.9511 15.3676 29.4746 14.5823C29.4231 14.5007 29.3912 14.4079 29.3812 14.3115C29.2553 12.59 28.6367 10.9433 27.6015 9.57376C25.1494 6.23922 20.0399 5.76518 16.1283 7.19543C11.2537 8.82074 6.83779 12.8379 4.48713 17.5161C4.47327 17.542 4.45195 17.5633 4.426 17.5767C4.40006 17.5902 4.37069 17.5954 4.34179 17.5915C4.31288 17.5877 4.2858 17.5751 4.2641 17.5553C4.24241 17.5355 4.22715 17.5096 4.2203 17.4808C4.07436 16.6908 4.01707 15.8865 4.04954 15.0835C4.05306 14.9665 4.08914 14.8528 4.1536 14.7558C4.91368 13.5614 5.78387 12.443 6.7524 11.4158C9.71941 8.25734 13.4228 5.94395 17.6145 5.05546C25.8726 3.26222 31.9827 8.9182 31.0221 16.9879L31.0248 16.9824Z"></path>
<path fill="black" d="M58.9907 15.2976C58.1798 14.8987 57.2909 14.6915 56.3906 14.6915C55.4903 14.6915 54.6014 14.8987 53.7905 15.2976C53.0151 15.6978 52.3707 16.3195 51.9358 17.0867C51.4846 17.9931 51.2492 18.9954 51.2492 20.012C51.2492 21.0286 51.4846 22.0308 51.9358 22.9372C52.3707 23.7045 53.0151 24.3261 53.7905 24.7264C54.6014 25.1253 55.4903 25.3324 56.3906 25.3324C57.2909 25.3324 58.1798 25.1253 58.9907 24.7264C59.766 24.3261 60.4104 23.7045 60.8452 22.9372C61.2966 22.0308 61.5319 21.0286 61.5319 20.012C61.5319 18.9954 61.2966 17.9931 60.8452 17.0867C60.4104 16.3195 59.766 15.6978 58.9907 15.2976ZM58.883 22.8433C58.2063 23.4842 57.3168 23.8406 56.3931 23.8406C55.4694 23.8406 54.5799 23.4842 53.9032 22.8433C53.2509 22.1659 52.9247 21.2178 52.9247 19.9989C52.9247 18.78 53.2509 17.8346 53.9032 17.1624C54.5813 16.5242 55.4703 16.1698 56.3931 16.1698C57.316 16.1698 58.2049 16.5242 58.883 17.1624C59.532 17.8241 59.8565 18.7696 59.8565 19.9989C59.8565 21.2282 59.532 22.172 58.883 22.8302V22.8433ZM49.7764 21.2213C49.7199 21.9384 49.5007 22.6322 49.136 23.2481C48.7458 23.8965 48.1885 24.4233 47.5248 24.7707C46.7432 25.1654 45.8784 25.3582 45.0066 25.3323C44.0947 25.344 43.1938 25.127 42.3835 24.7002C41.6233 24.2935 40.9991 23.6652 40.5903 22.8954C40.1621 21.9904 39.9398 20.9985 39.9398 19.9937C39.9398 18.9889 40.1621 17.997 40.5903 17.092C40.9991 16.3221 41.6233 15.6939 42.3835 15.2872C43.1954 14.8668 44.0962 14.6561 45.0066 14.6734C45.8701 14.6475 46.727 14.8348 47.5043 15.2192C48.1525 15.5493 48.7018 16.0508 49.095 16.6714C49.4398 17.2217 49.6481 17.8491 49.7021 18.4997C49.7031 18.5178 49.7006 18.536 49.6944 18.5531C49.6884 18.5701 49.6789 18.5858 49.6667 18.599C49.6545 18.6122 49.6397 18.6228 49.6233 18.6299C49.607 18.6371 49.5893 18.6408 49.5715 18.6407H48.0883C48.0577 18.6404 48.0281 18.6289 48.0051 18.6083C47.9821 18.5877 47.967 18.5594 47.9628 18.5285C47.8828 17.8999 47.5955 17.3178 47.1482 16.8778C46.6794 16.4233 45.957 16.1909 45.0066 16.1909C44.5551 16.1735 44.1051 16.2522 43.6852 16.4223C43.2653 16.5922 42.8848 16.8497 42.5679 17.1782C41.948 17.8337 41.6355 18.7817 41.6355 19.9962C41.6355 21.2108 41.948 22.151 42.5679 22.8092C42.884 23.139 43.2643 23.3977 43.6842 23.5686C44.1043 23.7395 44.5547 23.8189 45.0066 23.8017C45.9724 23.8017 46.7127 23.5406 47.2096 23.0313C47.6899 22.5314 47.9842 21.8766 48.0422 21.1795C48.0453 21.1469 48.0601 21.1167 48.0837 21.0945C48.1073 21.0724 48.1381 21.0598 48.1702 21.0593H49.6458C49.6641 21.0596 49.6823 21.0638 49.6991 21.0715C49.7158 21.0794 49.7308 21.0905 49.7431 21.1046C49.7553 21.1186 49.7647 21.135 49.7704 21.1528C49.7762 21.1707 49.7782 21.1895 49.7764 21.2082V21.2213ZM123.862 21.8272H122.361C122.332 21.8272 122.306 21.8363 122.284 21.8533C122.261 21.8702 122.245 21.8941 122.238 21.9212C122.093 22.4459 121.795 22.9128 121.382 23.2585C120.936 23.6346 120.242 23.8253 119.317 23.8253C118.434 23.8536 117.575 23.5304 116.923 22.9241C116.374 22.4019 116.059 21.6182 115.987 20.6153C115.986 20.5971 115.988 20.5788 115.995 20.5616C116.001 20.5443 116.011 20.5285 116.022 20.5151C116.035 20.5017 116.049 20.4909 116.066 20.4834C116.082 20.476 116.1 20.472 116.118 20.4716H123.854C123.871 20.472 123.888 20.4689 123.904 20.4625C123.919 20.456 123.934 20.4465 123.946 20.4343C123.959 20.4222 123.968 20.4077 123.975 20.3916C123.981 20.3757 123.985 20.3585 123.985 20.341V19.5053C124 18.6418 123.816 17.7866 123.449 17.0083C123.1 16.2887 122.547 15.6914 121.864 15.2924C121.072 14.8533 120.18 14.6378 119.279 14.6682C118.362 14.6446 117.453 14.8661 116.645 15.3106C115.907 15.7346 115.307 16.3703 114.919 17.1389C114.489 18.027 114.278 19.0089 114.307 19.9989C114.307 21.6444 114.734 22.9424 115.588 23.8932C116.441 24.8439 117.687 25.3192 119.323 25.3192C120.01 25.3344 120.695 25.2247 121.344 24.9954C121.858 24.8067 122.334 24.5194 122.743 24.1492C123.092 23.8242 123.387 23.4409 123.611 23.0155C123.78 22.6937 123.909 22.3515 123.995 21.9969C124.001 21.9765 124.001 21.9549 123.998 21.934C123.994 21.9132 123.984 21.8936 123.971 21.8769C123.959 21.8603 123.942 21.8472 123.922 21.8385C123.903 21.8298 123.883 21.8259 123.862 21.8272ZM116.033 18.902C116.095 18.5142 116.217 18.1393 116.398 17.7919C116.666 17.2673 117.083 16.8363 117.593 16.5538C118.114 16.276 118.694 16.1351 119.281 16.1438C120.196 16.1438 120.921 16.3893 121.457 16.8856C121.991 17.42 122.298 18.1485 122.309 18.9124C122.31 18.9307 122.308 18.9489 122.302 18.9661C122.295 18.9834 122.287 18.9992 122.274 19.0126C122.262 19.026 122.247 19.0367 122.23 19.0443C122.214 19.0517 122.196 19.0557 122.178 19.0561H116.162C116.144 19.0557 116.126 19.0517 116.11 19.0443C116.094 19.0367 116.079 19.0259 116.067 19.0125C116.055 18.999 116.046 18.9832 116.04 18.9659C116.034 18.9487 116.032 18.9305 116.033 18.9124V18.902ZM63.2455 24.7812V15.2166C63.2455 15.182 63.259 15.1488 63.283 15.1243C63.3071 15.0998 63.3397 15.0861 63.3736 15.0861H64.7748C64.8088 15.0861 64.8414 15.0998 64.8654 15.1243C64.8894 15.1488 64.9029 15.182 64.9029 15.2166V16.3241C64.9002 16.342 64.9017 16.3605 64.9075 16.3777C64.9131 16.3951 64.9227 16.4107 64.9354 16.4234C64.9482 16.4362 64.9638 16.4458 64.9808 16.4512C64.9979 16.4566 65.016 16.4578 65.0335 16.4547C65.0951 16.4547 65.1539 16.4076 65.2077 16.3136C65.4584 15.8578 65.8236 15.4783 66.2657 15.214C66.8026 14.9179 67.408 14.7754 68.0178 14.8013C68.6968 14.773 69.3693 14.9454 69.9545 15.2976C70.4455 15.6182 70.8323 16.0798 71.0663 16.6244C71.0801 16.6666 71.106 16.7037 71.1407 16.7307C71.1754 16.7577 71.2173 16.7734 71.261 16.7759C71.2851 16.7788 71.3096 16.7753 71.3321 16.7657C71.3545 16.7561 71.3742 16.7407 71.389 16.721C71.4216 16.6696 71.4498 16.6154 71.4735 16.5592C71.7131 16.0216 72.107 15.5707 72.6032 15.2662C73.2135 14.9289 73.9027 14.7681 74.5962 14.8013C75.2839 14.7757 75.9638 14.9575 76.5507 15.3237C77.064 15.6633 77.4634 16.1544 77.6958 16.7315C77.9581 17.3779 78.0888 18.0719 78.08 18.7713V24.7786C78.08 24.796 78.0766 24.8131 78.07 24.8292C78.0634 24.8452 78.0537 24.8597 78.0416 24.8719C78.0294 24.884 78.015 24.8936 77.9992 24.9C77.9834 24.9064 77.9664 24.9095 77.9494 24.9092H76.543C76.526 24.9095 76.5091 24.9064 76.4933 24.9C76.4774 24.8936 76.463 24.884 76.4508 24.8719C76.4387 24.8597 76.429 24.8452 76.4224 24.8292C76.4158 24.8131 76.4124 24.796 76.4124 24.7786V18.8654C76.4124 17.1642 75.6251 16.3136 74.0506 16.3136C73.6161 16.3115 73.1875 16.4154 72.8005 16.6165C72.396 16.833 72.0668 17.1715 71.8577 17.5855C71.5992 18.1309 71.4768 18.733 71.5017 19.3381V24.7812C71.5017 24.8159 71.4882 24.849 71.4642 24.8736C71.4402 24.898 71.4076 24.9118 71.3736 24.9118H69.9622C69.9282 24.9118 69.8957 24.898 69.8716 24.8736C69.8476 24.849 69.8341 24.8159 69.8341 24.7812V18.8654C69.8341 17.1642 69.0468 16.3136 67.4723 16.3136C67.0387 16.3112 66.6108 16.415 66.2247 16.6165C65.822 16.8346 65.4942 17.1727 65.2846 17.5855C65.0217 18.1296 64.8975 18.7323 64.9234 19.3381V24.7812C64.9234 24.7985 64.92 24.8158 64.9134 24.8318C64.9068 24.8478 64.8972 24.8623 64.885 24.8744C64.8728 24.8867 64.8584 24.8962 64.8425 24.9026C64.8267 24.909 64.8098 24.9122 64.7928 24.9118H63.3839C63.3663 24.9132 63.3484 24.9109 63.3317 24.905C63.3149 24.8991 63.2996 24.8897 63.2865 24.8774C63.2736 24.8652 63.2633 24.8503 63.2561 24.8337C63.2491 24.8171 63.2455 24.7993 63.2455 24.7812ZM80.2447 24.7812V15.2166C80.2447 15.1993 80.2481 15.182 80.2546 15.166C80.2612 15.1501 80.2709 15.1355 80.283 15.1234C80.2951 15.1112 80.3096 15.1016 80.3254 15.0952C80.3413 15.0888 80.3583 15.0856 80.3753 15.0861H81.7765C81.8104 15.0861 81.843 15.0998 81.8671 15.1243C81.8911 15.1488 81.9046 15.182 81.9046 15.2166V16.3241C81.9018 16.342 81.9034 16.3605 81.909 16.3777C81.9147 16.3951 81.9244 16.4107 81.9371 16.4234C81.9499 16.4362 81.9654 16.4458 81.9825 16.4512C81.9995 16.4566 82.0176 16.4578 82.0352 16.4547C82.0966 16.4547 82.1556 16.4076 82.2094 16.3136C82.46 15.8578 82.8252 15.4783 83.2673 15.214C83.8034 14.9181 84.408 14.7756 85.017 14.8013C85.6968 14.7726 86.3702 14.9449 86.9561 15.2976C87.4471 15.6182 87.834 16.0798 88.0678 16.6244C88.0817 16.6666 88.1076 16.7037 88.1423 16.7307C88.1771 16.7577 88.219 16.7734 88.2625 16.7759C88.2868 16.7788 88.3112 16.7753 88.3336 16.7657C88.3562 16.7561 88.3757 16.7407 88.3906 16.721C88.4232 16.6696 88.4515 16.6154 88.4752 16.5592C88.7148 16.0216 89.1087 15.5707 89.6049 15.2662C90.2151 14.9287 90.9043 14.7679 91.5978 14.8013C92.2856 14.7757 92.9654 14.9575 93.5524 15.3237C94.065 15.664 94.4643 16.155 94.6975 16.7315C94.9575 17.3819 95.0849 18.0795 95.0714 18.7817V24.7891C95.0714 24.8236 95.0579 24.8569 95.0338 24.8813C95.0098 24.9059 94.9773 24.9196 94.9433 24.9196H93.5344C93.5174 24.9199 93.5005 24.9168 93.4847 24.9105C93.4688 24.9041 93.4544 24.8945 93.4421 24.8823C93.43 24.8702 93.4204 24.8556 93.4138 24.8397C93.4072 24.8236 93.4038 24.8064 93.4038 24.7891V18.8654C93.4038 17.1642 92.6165 16.3136 91.042 16.3136C90.6075 16.3112 90.1788 16.415 89.7919 16.6165C89.3873 16.833 89.0582 17.1715 88.8491 17.5855C88.5893 18.1304 88.4669 18.7329 88.4931 19.3381V24.7812C88.4931 24.8159 88.4796 24.849 88.4556 24.8736C88.4315 24.898 88.399 24.9118 88.365 24.9118H86.9536C86.9196 24.9118 86.887 24.898 86.863 24.8736C86.839 24.849 86.8255 24.8159 86.8255 24.7812V18.8654C86.8255 17.1642 86.0373 16.3136 84.4611 16.3136C84.0283 16.3115 83.6013 16.4154 83.2161 16.6165C82.8134 16.8346 82.4855 17.1727 82.276 17.5855C82.0131 18.1296 81.8889 18.7323 81.9148 19.3381V24.7812C81.9148 24.7985 81.9114 24.8158 81.9048 24.8318C81.8982 24.8478 81.8885 24.8623 81.8764 24.8744C81.8642 24.8867 81.8498 24.8962 81.834 24.9026C81.8182 24.909 81.8012 24.9122 81.7842 24.9118H80.3855C80.3676 24.9136 80.3496 24.9116 80.3326 24.9059C80.3155 24.9001 80.2998 24.8908 80.2865 24.8785C80.2732 24.8661 80.2626 24.8512 80.2554 24.8344C80.2482 24.8177 80.2445 24.7995 80.2447 24.7812ZM108.271 24.7812V15.2114C108.272 15.1769 108.286 15.1441 108.309 15.1198C108.334 15.0954 108.366 15.0815 108.4 15.0809H109.811C109.845 15.0809 109.878 15.0946 109.902 15.119C109.926 15.1436 109.939 15.1767 109.939 15.2114V16.5173C109.939 16.5511 109.952 16.5835 109.975 16.6078C109.998 16.6322 110.029 16.6465 110.062 16.6479C110.151 16.6479 110.216 16.5957 110.254 16.4782C110.411 16.0183 110.719 15.6279 111.125 15.3734C111.598 15.1194 112.128 14.9986 112.662 15.0234H113.617C113.651 15.0234 113.684 15.0371 113.709 15.0616C113.732 15.0861 113.746 15.1193 113.746 15.154V16.5538C113.746 16.5713 113.743 16.5885 113.736 16.6046C113.731 16.6208 113.721 16.6356 113.71 16.6479C113.697 16.6603 113.683 16.6702 113.667 16.6769C113.651 16.6836 113.634 16.6871 113.617 16.6871H112.406C111.602 16.6871 110.99 16.8882 110.569 17.2957C110.149 17.7031 109.939 18.3769 109.939 19.3224V24.7655C109.939 24.8001 109.926 24.8334 109.902 24.8578C109.878 24.8824 109.845 24.8961 109.811 24.8961H108.4C108.368 24.8962 108.336 24.8839 108.313 24.8617C108.289 24.8394 108.274 24.8087 108.271 24.776V24.7812ZM106.046 24.7864C106.046 24.8037 106.042 24.821 106.035 24.837C106.029 24.8531 106.019 24.8675 106.007 24.8797C105.995 24.8919 105.981 24.9014 105.965 24.9078C105.949 24.9143 105.932 24.9174 105.915 24.917H104.514C104.48 24.917 104.447 24.9032 104.423 24.8788C104.399 24.8542 104.386 24.8211 104.386 24.7864V23.5771C104.386 23.5461 104.375 23.516 104.355 23.4932C104.334 23.4703 104.306 23.4564 104.275 23.4544C104.204 23.4544 104.14 23.4936 104.081 23.585C103.788 24.0649 103.385 24.4653 102.908 24.7524C102.305 25.0781 101.629 25.2331 100.948 25.2017C99.7678 25.2017 98.8396 24.8578 98.1633 24.17C97.4871 23.4822 97.1455 22.5028 97.1387 21.2317V15.2245C97.1387 15.1898 97.1522 15.1566 97.1762 15.1321C97.2002 15.1076 97.2327 15.0938 97.2667 15.0938H98.6782C98.7122 15.0938 98.7447 15.1076 98.7687 15.1321C98.7928 15.1566 98.8063 15.1898 98.8063 15.2245V20.9523C98.8063 21.8455 99.0291 22.5193 99.4774 22.992C99.9257 23.4648 100.566 23.692 101.401 23.692C102.329 23.692 103.054 23.4039 103.579 22.8275C104.103 22.2511 104.365 21.3736 104.365 20.1948V15.2323C104.365 15.2149 104.368 15.1978 104.375 15.1817C104.382 15.1657 104.391 15.1512 104.403 15.139C104.416 15.1269 104.43 15.1173 104.446 15.1109C104.462 15.1045 104.479 15.1014 104.496 15.1017H105.905C105.938 15.0981 105.972 15.1081 105.998 15.1295C106.024 15.1511 106.041 15.1824 106.046 15.2166V24.7864Z"></path>
</svg>
