<svg width="540" height="217" viewBox="0 0 540 217" fill="none" xmlns="http://www.w3.org/2000/svg">
<g clip-path="url(#clip0_334_8735)">
<mask id="mask0_334_8735" style="mask-type:luminance" maskUnits="userSpaceOnUse" x="1" y="1" width="538" height="216">
<path d="M538.805 1.19482H1.19434V216.239H538.805V1.19482Z" fill="white"></path>
</mask>
<g mask="url(#mask0_334_8735)">
<mask id="mask1_334_8735" style="mask-type:luminance" maskUnits="userSpaceOnUse" x="1" y="1" width="538" height="269">
<path d="M538.805 1.19482H1.19434V270H538.805V1.19482Z" fill="white"></path>
</mask>
<g mask="url(#mask1_334_8735)">
<path d="M538.805 1.19482H1.19434V270H538.805V1.19482Z" fill="#DFFEED"></path>
<path opacity="0.5" d="M54.9554 54.9561H1.19434V108.717H54.9554V54.9561Z" stroke="#E2E2E2" stroke-width="1.19469"></path>
<path opacity="0.5" d="M108.716 54.9561H54.9551V108.717H108.716V54.9561Z" stroke="#E2E2E2" stroke-width="1.19469"></path>
<path opacity="0.5" d="M162.478 54.9561H108.717V108.717H162.478V54.9561Z" stroke="#E2E2E2" stroke-width="1.19469"></path>
<path opacity="0.5" d="M216.239 54.9561H162.478V108.717H216.239V54.9561Z" stroke="#E2E2E2" stroke-width="1.19469"></path>
<path opacity="0.5" d="M269.999 54.9561H216.238V108.717H269.999V54.9561Z" stroke="#E2E2E2" stroke-width="1.19469"></path>
<path opacity="0.5" d="M323.761 54.9561H270V108.717H323.761V54.9561Z" stroke="#E2E2E2" stroke-width="1.19469"></path>
<path opacity="0.5" d="M377.522 54.9561H323.761V108.717H377.522V54.9561Z" stroke="#E2E2E2" stroke-width="1.19469"></path>
<path opacity="0.5" d="M431.283 54.9561H377.521V108.717H431.283V54.9561Z" stroke="#E2E2E2" stroke-width="1.19469"></path>
<path opacity="0.5" d="M485.044 54.9561H431.283V108.717H485.044V54.9561Z" stroke="#E2E2E2" stroke-width="1.19469"></path>
<path opacity="0.5" d="M538.805 54.9561H485.044V108.717H538.805V54.9561Z" stroke="#E2E2E2" stroke-width="1.19469"></path>
<path opacity="0.5" d="M54.9554 1.19482H1.19434V54.9559H54.9554V1.19482Z" stroke="#E2E2E2" stroke-width="1.19469"></path>
<path opacity="0.5" d="M108.716 1.19482H54.9551V54.9559H108.716V1.19482Z" stroke="#E2E2E2" stroke-width="1.19469"></path>
<path opacity="0.5" d="M162.478 1.19482H108.717V54.9559H162.478V1.19482Z" stroke="#E2E2E2" stroke-width="1.19469"></path>
<path opacity="0.5" d="M216.239 1.19482H162.478V54.9559H216.239V1.19482Z" stroke="#E2E2E2" stroke-width="1.19469"></path>
<path opacity="0.5" d="M269.999 1.19482H216.238V54.9559H269.999V1.19482Z" stroke="#E2E2E2" stroke-width="1.19469"></path>
<path opacity="0.5" d="M323.761 1.19482H270V54.9559H323.761V1.19482Z" stroke="#E2E2E2" stroke-width="1.19469"></path>
<path opacity="0.5" d="M377.522 1.19482H323.761V54.9559H377.522V1.19482Z" stroke="#E2E2E2" stroke-width="1.19469"></path>
<path opacity="0.5" d="M431.283 1.19482H377.521V54.9559H431.283V1.19482Z" stroke="#E2E2E2" stroke-width="1.19469"></path>
<path opacity="0.5" d="M538.805 1.19482H485.044V54.9559H538.805V1.19482Z" stroke="#E2E2E2" stroke-width="1.19469"></path>
<path opacity="0.5" d="M592.566 1.19482H538.805V54.9559H592.566V1.19482Z" stroke="#E2E2E2" stroke-width="1.19469"></path>
<path opacity="0.5" d="M54.9554 108.717H1.19434V162.478H54.9554V108.717Z" stroke="#E2E2E2" stroke-width="1.19469"></path>
<path opacity="0.5" d="M54.9554 162.478H1.19434V216.239H54.9554V162.478Z" stroke="#E2E2E2" stroke-width="1.19469"></path>
<path opacity="0.5" d="M108.716 162.478H54.9551V216.239H108.716V162.478Z" stroke="#E2E2E2" stroke-width="1.19469"></path>
<path opacity="0.5" d="M108.716 108.717H54.9551V162.478H108.716V108.717Z" stroke="#E2E2E2" stroke-width="1.19469"></path>
<path opacity="0.5" d="M162.478 162.478H108.717V216.239H162.478V162.478Z" stroke="#E2E2E2" stroke-width="1.19469"></path>
<path opacity="0.5" d="M216.239 162.478H162.478V216.239H216.239V162.478Z" stroke="#E2E2E2" stroke-width="1.19469"></path>
<path opacity="0.5" d="M162.478 108.717H108.717V162.478H162.478V108.717Z" stroke="#E2E2E2" stroke-width="1.19469"></path>
<path opacity="0.5" d="M269.999 162.478H216.238V216.239H269.999V162.478Z" stroke="#E2E2E2" stroke-width="1.19469"></path>
<path opacity="0.5" d="M323.761 162.478H270V216.239H323.761V162.478Z" stroke="#E2E2E2" stroke-width="1.19469"></path>
<path opacity="0.5" d="M216.239 108.717H162.478V162.478H216.239V108.717Z" stroke="#E2E2E2" stroke-width="1.19469"></path>
<path opacity="0.5" d="M377.522 162.478H323.761V216.239H377.522V162.478Z" stroke="#E2E2E2" stroke-width="1.19469"></path>
<path opacity="0.5" d="M431.283 162.478H377.521V216.239H431.283V162.478Z" stroke="#E2E2E2" stroke-width="1.19469"></path>
<path opacity="0.5" d="M485.044 162.478H431.283V216.239H485.044V162.478Z" stroke="#E2E2E2" stroke-width="1.19469"></path>
<path opacity="0.5" d="M538.805 162.478H485.044V216.239H538.805V162.478Z" stroke="#E2E2E2" stroke-width="1.19469"></path>
<path opacity="0.5" d="M269.999 108.717H216.238V162.478H269.999V108.717Z" stroke="#E2E2E2" stroke-width="1.19469"></path>
<path opacity="0.5" d="M323.761 108.717H270V162.478H323.761V108.717Z" stroke="#E2E2E2" stroke-width="1.19469"></path>
<path opacity="0.5" d="M377.522 108.717H323.761V162.478H377.522V108.717Z" stroke="#E2E2E2" stroke-width="1.19469"></path>
<path opacity="0.5" d="M431.283 108.717H377.521V162.478H431.283V108.717Z" stroke="#E2E2E2" stroke-width="1.19469"></path>
<path opacity="0.5" d="M485.044 1.19482H431.283V54.9559H485.044V1.19482Z" stroke="#E2E2E2" stroke-width="1.19469"></path>
<path opacity="0.5" d="M485.044 108.717H431.283V162.478H485.044V108.717Z" stroke="#E2E2E2" stroke-width="1.19469"></path>
<path opacity="0.5" d="M54.9554 216.239H1.19434V270H54.9554V216.239Z" stroke="#E2E2E2" stroke-width="1.19469"></path>
<path opacity="0.5" d="M108.716 216.239H54.9551V270H108.716V216.239Z" stroke="#E2E2E2" stroke-width="1.19469"></path>
<path opacity="0.5" d="M162.478 216.239H108.717V270H162.478V216.239Z" stroke="#E2E2E2" stroke-width="1.19469"></path>
<path opacity="0.5" d="M216.239 216.239H162.478V270H216.239V216.239Z" stroke="#E2E2E2" stroke-width="1.19469"></path>
<path opacity="0.5" d="M269.999 216.239H216.238V270H269.999V216.239Z" stroke="#E2E2E2" stroke-width="1.19469"></path>
<path opacity="0.5" d="M323.761 216.239H270V270H323.761V216.239Z" stroke="#E2E2E2" stroke-width="1.19469"></path>
<path opacity="0.5" d="M377.522 216.239H323.761V270H377.522V216.239Z" stroke="#E2E2E2" stroke-width="1.19469"></path>
<path opacity="0.5" d="M431.283 216.239H377.521V270H431.283V216.239Z" stroke="#E2E2E2" stroke-width="1.19469"></path>
<path opacity="0.5" d="M485.044 216.239H431.283V270H485.044V216.239Z" stroke="#E2E2E2" stroke-width="1.19469"></path>
<path opacity="0.5" d="M538.805 216.239H485.044V270H538.805V216.239Z" stroke="#E2E2E2" stroke-width="1.19469"></path>
</g>
<path d="M538.805 1.19482H1.19434V270H538.805V1.19482Z" stroke="#E2E2E2" stroke-width="1.19469"></path>
<path d="M514.912 37.0356H35.8408V240.133H514.912V37.0356Z" fill="#F0F0F0"></path>
<path d="M514.912 37.0356H35.8408V240.133H514.912V37.0356Z" stroke="#E2E2E2" stroke-width="1.19469"></path>
<path d="M228.036 75.2658L224.004 71.2337L224.637 70.6002L228.036 73.9983L234.123 67.9121L234.756 68.5457L228.036 75.2658Z" fill="#006D4C"></path>
<path d="M241.448 76.4605H240.337L243.491 67.9185H244.698L247.875 76.4605H246.717L245.964 74.322H242.201L241.448 76.4605ZM244.076 68.9101L242.559 73.3662H245.617L244.1 68.9101H244.076ZM250.988 76.4605H249.9L247.714 70.3676H248.765L250.462 75.5047H250.474L252.146 70.3676H253.174L250.988 76.4605ZM255.563 76.6278C254.333 76.6278 253.556 75.9229 253.556 74.8954C253.556 73.4977 254.584 73.1154 256.161 72.8286C257.2 72.6375 257.678 72.518 257.678 71.9207C257.678 71.4428 257.415 71.0247 256.411 71.0247C255.253 71.0247 254.918 71.3711 254.858 72.2552H253.855C253.915 71.0844 254.655 70.1884 256.447 70.1884C257.582 70.1884 258.61 70.6662 258.61 72.1596V75.0866C258.61 75.5645 258.681 75.8034 258.92 75.8034C258.956 75.8034 258.992 75.8034 259.064 75.7915V76.4605C258.908 76.4963 258.765 76.5202 258.598 76.5202C258.072 76.5202 257.75 76.3171 257.69 75.5645H257.666C257.272 76.2216 256.579 76.6278 255.563 76.6278ZM255.659 75.7915C256.806 75.7915 257.678 75.2778 257.678 74.107V73.1393C257.499 73.3304 256.901 73.4857 256.244 73.6171C255.061 73.8561 254.56 74.1428 254.56 74.8477C254.56 75.445 254.87 75.7915 255.659 75.7915ZM261.28 69.1848H260.133V68.0379H261.28V69.1848ZM261.184 76.4605H260.228V70.3676H261.184V76.4605ZM263.649 76.4605H262.693V67.9185H263.649V76.4605ZM266.842 76.6278C265.612 76.6278 264.835 75.9229 264.835 74.8954C264.835 73.4977 265.863 73.1154 267.44 72.8286C268.479 72.6375 268.957 72.518 268.957 71.9207C268.957 71.4428 268.694 71.0247 267.691 71.0247C266.532 71.0247 266.197 71.3711 266.137 72.2552H265.134C265.194 71.0844 265.934 70.1884 267.726 70.1884C268.861 70.1884 269.889 70.6662 269.889 72.1596V75.0866C269.889 75.5645 269.96 75.8034 270.199 75.8034C270.235 75.8034 270.271 75.8034 270.343 75.7915V76.4605C270.187 76.4963 270.044 76.5202 269.877 76.5202C269.351 76.5202 269.029 76.3171 268.969 75.5645H268.945C268.551 76.2216 267.858 76.6278 266.842 76.6278ZM266.938 75.7915C268.085 75.7915 268.957 75.2778 268.957 74.107V73.1393C268.778 73.3304 268.18 73.4857 267.523 73.6171C266.341 73.8561 265.839 74.1428 265.839 74.8477C265.839 75.445 266.149 75.7915 266.938 75.7915ZM274.398 70.2003C275.927 70.2003 277.145 71.407 277.145 73.414C277.145 75.4211 275.927 76.6278 274.398 76.6278C273.418 76.6278 272.844 76.1977 272.486 75.672H272.462V76.4605H271.506V67.9185H272.462V71.1202H272.486C272.844 70.6543 273.418 70.2003 274.398 70.2003ZM274.302 75.7915C275.556 75.7915 276.142 74.6087 276.142 73.414C276.142 72.2193 275.556 71.0366 274.302 71.0366C273.167 71.0366 272.462 71.9804 272.462 73.414C272.462 74.8477 273.167 75.7915 274.302 75.7915ZM279.279 76.4605H278.323V67.9185H279.279V76.4605ZM286.248 73.187C286.248 73.3662 286.248 73.5693 286.236 73.6649H281.469C281.493 74.7401 282.09 75.8154 283.44 75.8154C284.635 75.8154 285.089 75.0149 285.196 74.5848H286.164C285.853 75.7198 284.993 76.6397 283.428 76.6397C281.505 76.6397 280.465 75.2539 280.465 73.4021C280.465 71.4547 281.624 70.1884 283.428 70.1884C285.208 70.1884 286.248 71.407 286.248 73.187ZM281.469 72.8286H285.232C285.232 71.8251 284.515 71.0127 283.38 71.0127C282.329 71.0127 281.529 71.7654 281.469 72.8286Z" fill="#006D4C"></path>
<path d="M89.3461 76.695C87.6233 76.695 86.5361 75.7081 86.5361 74.2697C86.5361 72.3128 87.9745 71.7776 90.1823 71.3762C91.6375 71.1086 92.3065 70.9413 92.3065 70.105C92.3065 69.436 91.9385 68.8506 90.5336 68.8506C88.9112 68.8506 88.4429 69.3357 88.3592 70.5734H86.9543C87.0379 68.9343 88.0749 67.6798 90.5837 67.6798C92.1727 67.6798 93.6111 68.3489 93.6111 70.4396V74.5373C93.6111 75.2064 93.7114 75.5409 94.046 75.5409C94.0961 75.5409 94.1463 75.5409 94.2467 75.5242V76.4608C94.0292 76.511 93.8285 76.5444 93.5944 76.5444C92.8584 76.5444 92.4068 76.2601 92.3232 75.2064H92.2898C91.7378 76.1263 90.7677 76.695 89.3461 76.695ZM89.4799 75.5242C91.0855 75.5242 92.3065 74.805 92.3065 73.1658V71.8111C92.0556 72.0787 91.2193 72.2961 90.2994 72.4801C88.6436 72.8146 87.9411 73.216 87.9411 74.2028C87.9411 75.0391 88.376 75.5242 89.4799 75.5242ZM99.9248 67.6966C102.066 67.6966 103.772 69.3858 103.772 72.1958C103.772 75.0057 102.066 76.695 99.9248 76.695C98.5533 76.695 97.7505 76.0928 97.2487 75.3569H97.2152V79.4212H95.8772V67.9307H97.2152V68.9844H97.2487C97.7505 68.3321 98.5533 67.6966 99.9248 67.6966ZM99.791 75.5242C101.547 75.5242 102.367 73.8683 102.367 72.1958C102.367 70.5232 101.547 68.8674 99.791 68.8674C98.202 68.8674 97.2152 70.1887 97.2152 72.1958C97.2152 74.2028 98.202 75.5242 99.791 75.5242ZM109.468 67.6966C111.608 67.6966 113.314 69.3858 113.314 72.1958C113.314 75.0057 111.608 76.695 109.468 76.695C108.096 76.695 107.293 76.0928 106.791 75.3569H106.758V79.4212H105.42V67.9307H106.758V68.9844H106.791C107.293 68.3321 108.096 67.6966 109.468 67.6966ZM109.334 75.5242C111.09 75.5242 111.909 73.8683 111.909 72.1958C111.909 70.5232 111.09 68.8674 109.334 68.8674C107.745 68.8674 106.758 70.1887 106.758 72.1958C106.758 74.2028 107.745 75.5242 109.334 75.5242ZM119.178 72.8648H114.695V71.5267H119.178V72.8648ZM127.115 69.0346V64.502H128.453V76.4608H127.115V75.4071H127.082C126.58 76.0594 125.777 76.695 124.405 76.695C122.265 76.695 120.559 75.0057 120.559 72.1958C120.559 69.3858 122.265 67.6966 124.405 67.6966C125.777 67.6966 126.58 68.2987 127.082 69.0346H127.115ZM124.539 75.5242C126.128 75.5242 127.115 74.2028 127.115 72.1958C127.115 70.1887 126.128 68.8674 124.539 68.8674C122.783 68.8674 121.963 70.5232 121.963 72.1958C121.963 73.8683 122.783 75.5242 124.539 75.5242ZM134.601 67.6966C136.742 67.6966 138.448 69.3858 138.448 72.1958C138.448 75.0057 136.742 76.695 134.601 76.695C133.229 76.695 132.427 76.0928 131.925 75.3569H131.891V76.4608H130.553V64.502H131.891V68.9844H131.925C132.427 68.3321 133.229 67.6966 134.601 67.6966ZM134.467 75.5242C136.223 75.5242 137.043 73.8683 137.043 72.1958C137.043 70.5232 136.223 68.8674 134.467 68.8674C132.878 68.8674 131.891 70.1887 131.891 72.1958C131.891 74.2028 132.878 75.5242 134.467 75.5242Z" fill="#0D0D0D"></path>
<path d="M60.4033 97.9645C60.4033 96.8176 61.0532 95.8905 62.2862 95.1164C63.3757 94.4378 63.9396 94.1606 63.9396 93.2144C63.9396 92.6696 63.7102 91.9911 62.8118 91.9911C61.7987 91.9911 61.4642 92.7652 61.4642 93.6732H60.5658C60.5658 92.3064 61.2922 91.2265 62.8405 91.2265C63.9396 91.2265 64.838 91.9433 64.838 93.2049C64.838 94.4473 63.9396 95.0399 62.9839 95.6516C62.1046 96.2155 61.6554 96.5596 61.5024 97.1808V97.1999H64.7711V97.9645H60.4033ZM68.4853 98.0983C67.0421 98.0983 66.2679 97.1234 66.2297 96.0626H67.1281C67.1855 96.7029 67.5391 97.3337 68.447 97.3337C69.2594 97.3337 69.7947 96.7603 69.7947 95.7089C69.7947 94.7149 69.2881 94.2944 68.514 94.2944C67.9787 94.2944 67.5104 94.4856 67.2141 94.9157H66.3157L66.9656 91.3603H70.3872V92.1249H67.6442L67.281 94.1224V94.1415C67.606 93.7592 68.0743 93.5298 68.7338 93.5298C69.8998 93.5298 70.6931 94.4856 70.6931 95.7089C70.6931 97.133 69.7373 98.0983 68.4853 98.0983ZM74.3402 98.0983C72.639 98.0983 72.0082 96.7603 72.0082 94.6672C72.0082 92.5549 72.8588 91.2265 74.3689 91.2265C75.5064 91.2265 76.2422 92.0675 76.3377 93.0328H75.4586C75.3917 92.4211 75.0667 91.9911 74.3689 91.9911C73.1646 91.9911 72.8684 93.2718 72.8684 94.5238V94.6194L72.8875 94.6289C73.2029 93.9886 73.8051 93.6541 74.4931 93.6541C75.6784 93.6541 76.5003 94.5334 76.5003 95.8332C76.5003 97.0565 75.6784 98.0983 74.3402 98.0983ZM72.9735 95.9096C72.9735 96.7603 73.4609 97.3337 74.3308 97.3337C75.1622 97.3337 75.6018 96.7794 75.6018 95.8905C75.6018 94.9443 75.1241 94.4187 74.3977 94.4187C73.5374 94.4187 72.9735 95.0112 72.9735 95.9096ZM85.8496 98.0983C84.3873 98.0983 83.594 96.5978 83.594 94.5907C83.594 92.5072 84.4447 90.9971 85.993 90.9971C87.1686 90.9971 87.914 91.8764 88.067 93.1953H87.1781C87.0634 92.2109 86.5856 91.7617 85.9739 91.7617C84.8652 91.7617 84.4829 93.2622 84.4829 94.5907C84.4829 95.8236 84.8079 97.3337 85.907 97.3337C86.748 97.3337 87.2641 96.5022 87.2737 95.1737H85.9261V94.4091H88.1434V97.9645H87.5604L87.3788 96.9992H87.3597C87.0252 97.7638 86.5378 98.0983 85.8496 98.0983ZM89.6689 97.9645V91.1309H92.0296C93.1765 91.1309 93.8647 91.7903 93.8647 92.8512C93.8647 93.6827 93.4537 94.0746 92.9854 94.2657V94.2849C93.5875 94.4187 94.0845 94.9826 94.0845 95.9765C94.0845 97.2381 93.3295 97.9645 92.173 97.9645H89.6689ZM90.5291 97.1999H92.1061C92.9376 97.1999 93.1861 96.6265 93.1861 95.9765C93.1861 95.2406 92.8134 94.7532 92.2303 94.7532H90.5291V97.1999ZM90.5291 93.9886H92.0105C92.7082 93.9886 92.9663 93.568 92.9663 92.9468C92.9663 92.316 92.6509 91.8955 92.0679 91.8955H90.5291V93.9886ZM101.379 97.9645V91.1309H103.73C104.982 91.1309 105.661 91.8381 105.661 93.0997C105.661 93.9503 105.221 94.6003 104.6 94.7723V94.7914C105.909 95.0877 105.431 97.7925 105.737 97.9072V97.9645H104.82C104.562 97.6778 105.106 95.2024 103.711 95.2024H102.239V97.9645H101.379ZM102.239 94.4378H103.558C104.351 94.4378 104.801 93.979 104.801 93.1188C104.801 92.3256 104.447 91.8955 103.577 91.8955H102.239V94.4378ZM106.632 97.9645L108.735 91.1309H109.681L111.793 97.9645H110.866L110.398 96.2537H107.999L107.53 97.9645H106.632ZM108.257 95.4891H110.139L109.222 91.9242H109.184L108.257 95.4891ZM112.764 97.9645V91.1309H113.815L115.029 95.5751H115.048L116.262 91.1309H117.313V97.9645H116.453V92.4689H116.444L115.421 96.4353H114.656L113.634 92.4689H113.624V97.9645H112.764Z" fill="#858585"></path>
<path d="M145.121 98.0983C143.42 98.0983 142.789 96.7603 142.789 94.6672C142.789 92.5549 143.64 91.2265 145.15 91.2265C146.287 91.2265 147.023 92.0675 147.119 93.0328H146.239C146.172 92.4211 145.847 91.9911 145.15 91.9911C143.946 91.9911 143.649 93.2718 143.649 94.5238V94.6194L143.668 94.6289C143.984 93.9886 144.586 93.6541 145.274 93.6541C146.459 93.6541 147.281 94.5334 147.281 95.8332C147.281 97.0565 146.459 98.0983 145.121 98.0983ZM143.754 95.9096C143.754 96.7603 144.242 97.3337 145.112 97.3337C145.943 97.3337 146.383 96.7794 146.383 95.8905C146.383 94.9443 145.905 94.4187 145.178 94.4187C144.318 94.4187 143.754 95.0112 143.754 95.9096ZM151.54 97.9645V96.4162H148.319V95.6516L151.54 91.3603H152.4V95.6516H153.347V96.4162H152.4V97.9645H151.54ZM149.199 95.6516H151.54V92.5549L149.199 95.6516ZM162.629 98.0983C161.157 98.0983 160.335 96.6073 160.335 94.5429C160.335 92.5072 161.157 90.9971 162.648 90.9971C163.929 90.9971 164.627 92.0484 164.751 93.3865H163.853C163.719 92.4976 163.442 91.7617 162.62 91.7617C161.53 91.7617 161.234 93.1762 161.234 94.5429C161.234 95.9192 161.53 97.3337 162.629 97.3337C163.566 97.3337 163.795 96.3397 163.853 95.4987H164.751C164.646 97.0087 163.939 98.0983 162.629 98.0983ZM166.371 97.9645V91.1309H168.789C169.888 91.1309 170.729 91.6852 170.729 93.1188C170.729 94.5525 169.888 95.1068 168.789 95.1068H167.231V97.9645H166.371ZM167.231 94.3422H168.78C169.477 94.3422 169.831 93.9503 169.831 93.1188C169.831 92.2778 169.477 91.8955 168.78 91.8955H167.231V94.3422ZM174.166 98.0983C172.666 98.0983 172.054 97.0852 172.054 95.6898V91.1309H172.914V95.6898C172.914 96.808 173.325 97.3337 174.166 97.3337C174.998 97.3337 175.418 96.808 175.418 95.6898V91.1309H176.279V95.6898C176.279 97.0757 175.667 98.0983 174.166 98.0983Z" fill="#858585"></path>
<path d="M69.2915 62.7212C66.1268 62.7212 62.7207 63.4691 62.7207 65.1106V75.8628C62.7207 77.5043 66.1268 78.2522 69.2915 78.2522C72.4562 78.2522 75.8623 77.5043 75.8623 75.8628V65.1106C75.8623 63.4691 72.4562 62.7212 69.2915 62.7212ZM69.2915 63.9159C72.7547 63.9159 74.545 64.7725 74.6657 65.1106C74.545 65.4485 72.7547 66.3053 69.2915 66.3053C65.8022 66.3053 64.0113 65.4358 63.9154 65.1211V65.1182C64.0113 64.7854 65.8022 63.9159 69.2915 63.9159ZM63.9154 66.5608C65.1865 67.1984 67.286 67.5 69.2915 67.5C71.297 67.5 73.3966 67.1984 74.6676 66.5608V68.687C74.5717 69.0198 72.7808 69.8893 69.2915 69.8893C65.7969 69.8893 64.0055 69.0172 63.9154 68.6946V66.5608ZM63.9154 70.1449C65.1865 70.7825 67.286 71.084 69.2915 71.084C71.297 71.084 73.3966 70.7825 74.6676 70.1449V72.2712C74.5717 72.6039 72.7808 73.4734 69.2915 73.4734C65.7969 73.4734 64.0055 72.6013 63.9154 72.2787V70.1449ZM69.2915 77.0575C65.7969 77.0575 64.0055 76.1854 63.9154 75.8628V73.7289C65.1865 74.3666 67.286 74.6681 69.2915 74.6681C71.297 74.6681 73.3966 74.3666 74.6676 73.7289V75.8553C74.5717 76.188 72.7808 77.0575 69.2915 77.0575Z" fill="#0D0D0D"></path>
<mask id="mask2_334_8735" style="mask-type:luminance" maskUnits="userSpaceOnUse" x="59" y="123" width="109" height="47">
<path d="M167.256 123.053H59.7344V169.646H167.256V123.053Z" fill="white"></path>
</mask>
<g mask="url(#mask2_334_8735)">
<path d="M167.256 123.053H59.7344V169.646H167.256V123.053Z" fill="#F6F6F6" fill-opacity="0.4"></path>
<path d="M72.2734 148.142V141.308H73.3248L74.5386 145.752H74.5577L75.7715 141.308H76.8228V148.142H75.9626V142.646H75.9531L74.9304 146.613H74.1658L73.1432 142.646H73.1336V148.142H72.2734ZM78.4057 148.142V141.308H82.5823V142.073H79.2658V144.223H82.1809V144.988H79.2658V147.377H82.6779V148.142H78.4057ZM83.9261 148.142V141.308H84.9774L86.1913 145.752H86.2105L87.4243 141.308H88.4756V148.142H87.6153V142.646H87.6059L86.5831 146.613H85.8186L84.7958 142.646H84.7863V148.142H83.9261ZM92.0367 148.276C90.5649 148.276 89.6569 146.957 89.6569 144.72C89.6569 142.484 90.5649 141.174 92.0367 141.174C93.499 141.174 94.3974 142.484 94.3974 144.72C94.3974 146.957 93.499 148.276 92.0367 148.276ZM90.5553 144.72C90.5553 146.374 90.9567 147.511 92.0367 147.511C93.0976 147.511 93.499 146.393 93.499 144.72C93.499 143.048 93.0976 141.939 92.0367 141.939C90.9567 141.939 90.5553 143.067 90.5553 144.72ZM95.8465 148.142V141.308H98.1976C99.4497 141.308 100.128 142.015 100.128 143.277C100.128 144.128 99.6886 144.778 99.0674 144.95V144.969C100.377 145.265 99.8989 147.97 100.205 148.084V148.142H99.2872C99.0291 147.855 99.5739 145.38 98.1785 145.38H96.7067V148.142H95.8465ZM96.7067 144.615H98.0256C98.8189 144.615 99.2681 144.156 99.2681 143.296C99.2681 142.503 98.9144 142.073 98.0447 142.073H96.7067V144.615ZM103.25 148.142V145.341L101.004 141.308H101.94L103.67 144.682H103.689L105.429 141.308H106.356L104.11 145.341V148.142H103.25Z" fill="#141414"></path>
<path d="M59.4141 156.175L75.0944 160.357L88.8547 153.885L107.255 151.098L126.616 153.885L154.136 151.098L168.216 152.292" stroke="#005E9E" stroke-width="1.19469"></path>
</g>
<path d="M166.659 123.65H60.332V169.049H166.659V123.65Z" stroke="#E2E2E2" stroke-width="1.19469"></path>
<mask id="mask3_334_8735" style="mask-type:luminance" maskUnits="userSpaceOnUse" x="179" y="123" width="108" height="47">
<path d="M286.725 123.053H179.203V169.646H286.725V123.053Z" fill="white"></path>
</mask>
<g mask="url(#mask3_334_8735)">
<path d="M286.724 123.053H179.202V169.646H286.724V123.053Z" fill="#F6F6F6" fill-opacity="0.4"></path>
<path d="M194.132 148.276C192.66 148.276 191.838 146.785 191.838 144.72C191.838 142.684 192.66 141.174 194.151 141.174C195.432 141.174 196.129 142.226 196.253 143.564H195.355C195.221 142.675 194.944 141.939 194.122 141.939C193.033 141.939 192.736 143.353 192.736 144.72C192.736 146.096 193.033 147.511 194.132 147.511C195.068 147.511 195.298 146.517 195.355 145.676H196.253C196.148 147.186 195.441 148.276 194.132 148.276ZM197.875 148.142V141.308H200.293C201.392 141.308 202.233 141.862 202.233 143.296C202.233 144.73 201.392 145.284 200.293 145.284H198.735V148.142H197.875ZM198.735 144.519H200.283C200.981 144.519 201.334 144.128 201.334 143.296C201.334 142.455 200.981 142.073 200.283 142.073H198.735V144.519ZM205.67 148.276C204.169 148.276 203.558 147.262 203.558 145.867V141.308H204.418V145.867C204.418 146.985 204.829 147.511 205.67 147.511C206.502 147.511 206.922 146.985 206.922 145.867V141.308H207.782V145.867C207.782 147.253 207.171 148.276 205.67 148.276Z" fill="#141414"></path>
<path d="M138.882 167.624L189.923 156.274L211.843 161.55L236.803 157.966L265.764 150.699L286.885 156.274" stroke="#006D4C" stroke-width="1.19469"></path>
</g>
<path d="M286.128 123.65H179.801V169.049H286.128V123.65Z" stroke="#E2E2E2" stroke-width="1.19469"></path>
<mask id="mask4_334_8735" style="mask-type:luminance" maskUnits="userSpaceOnUse" x="59" y="181" width="109" height="48">
<path d="M167.256 181.593H59.7344V228.186H167.256V181.593Z" fill="white"></path>
</mask>
<g mask="url(#mask4_334_8735)">
<path d="M167.256 181.593H59.7344V228.186H167.256V181.593Z" fill="#F6F6F6" fill-opacity="0.4"></path>
<path d="M74.7588 206.815C73.2774 206.815 72.2261 205.917 72.1592 204.387H73.0576C73.1245 205.305 73.5641 206.07 74.7301 206.07C75.6955 206.07 76.0013 205.525 76.0013 204.818C76.0013 203.852 75.4279 203.738 74.3096 203.413C73.4208 203.155 72.3981 202.83 72.3981 201.52C72.3981 200.431 73.1627 199.714 74.4339 199.714C75.8102 199.714 76.6417 200.545 76.7277 201.874H75.8293C75.7241 200.956 75.3227 200.459 74.4434 200.459C73.6884 200.459 73.2965 200.823 73.2965 201.482C73.2965 202.304 73.8986 202.495 74.7015 202.715C75.8293 203.03 76.8997 203.346 76.8997 204.789C76.8997 205.917 76.2211 206.815 74.7588 206.815ZM79.9449 206.681V200.612H77.9378V199.848H82.8121V200.612H80.805V206.681H79.9449ZM86.2109 206.815C84.7389 206.815 83.8309 205.496 83.8309 203.26C83.8309 201.023 84.7389 199.714 86.2109 199.714C87.6732 199.714 88.5716 201.023 88.5716 203.26C88.5716 205.496 87.6732 206.815 86.2109 206.815ZM84.7293 203.26C84.7293 204.913 85.1308 206.051 86.2109 206.051C87.2718 206.051 87.6732 204.932 87.6732 203.26C87.6732 201.587 87.2718 200.478 86.2109 200.478C85.1308 200.478 84.7293 201.606 84.7293 203.26ZM90.0205 206.681V199.848H92.3717C93.6237 199.848 94.3023 200.555 94.3023 201.817C94.3023 202.667 93.8626 203.317 93.2414 203.489V203.508C94.5508 203.804 94.0729 206.509 94.3787 206.624V206.681H93.4612C93.2032 206.395 93.7479 203.919 92.3525 203.919H90.8807V206.681H90.0205ZM90.8807 203.155H92.1996C92.9929 203.155 93.4421 202.696 93.4421 201.836C93.4421 201.042 93.0885 200.612 92.2187 200.612H90.8807V203.155ZM95.2734 206.681L97.3761 199.848H98.3223L100.435 206.681H99.5074L99.0391 204.97H96.6402L96.1719 206.681H95.2734ZM96.8982 204.206H98.7811L97.8635 200.641H97.8253L96.8982 204.206ZM103.623 206.815C102.161 206.815 101.367 205.315 101.367 203.307C101.367 201.224 102.218 199.714 103.766 199.714C104.942 199.714 105.687 200.593 105.84 201.912H104.952C104.837 200.928 104.359 200.478 103.747 200.478C102.639 200.478 102.256 201.979 102.256 203.307C102.256 204.54 102.581 206.051 103.68 206.051C104.521 206.051 105.038 205.219 105.047 203.891H103.699V203.126H105.917V206.681H105.334L105.152 205.716H105.133C104.799 206.481 104.311 206.815 103.623 206.815ZM107.538 206.681V199.848H111.714V200.612H108.398V202.763H111.313V203.527H108.398V205.917H111.81V206.681H107.538Z" fill="#141414"></path>
<path d="M59.4141 214.945H75.0944L107.255 209.868H154.136L168.216 205.089" stroke="#7B4400" stroke-width="1.19469"></path>
</g>
<path d="M166.659 182.19H60.332V227.589H166.659V182.19Z" stroke="#E2E2E2" stroke-width="1.19469"></path>
<mask id="mask5_334_8735" style="mask-type:luminance" maskUnits="userSpaceOnUse" x="179" y="181" width="108" height="48">
<path d="M286.725 181.593H179.203V228.186H286.725V181.593Z" fill="white"></path>
</mask>
<g mask="url(#mask5_334_8735)">
<path d="M286.725 181.593H179.203V228.186H286.725V181.593Z" fill="#F6F6F6" fill-opacity="0.4"></path>
<path d="M194.132 206.815C192.66 206.815 191.838 205.324 191.838 203.26C191.838 201.224 192.66 199.714 194.151 199.714C195.432 199.714 196.129 200.765 196.253 202.103H195.355C195.221 201.214 194.944 200.478 194.122 200.478C193.033 200.478 192.736 201.893 192.736 203.26C192.736 204.636 193.033 206.051 194.132 206.051C195.068 206.051 195.298 205.057 195.355 204.215H196.253C196.148 205.726 195.441 206.815 194.132 206.815ZM199.853 206.815C198.381 206.815 197.473 205.496 197.473 203.26C197.473 201.023 198.381 199.714 199.853 199.714C201.315 199.714 202.214 201.023 202.214 203.26C202.214 205.496 201.315 206.815 199.853 206.815ZM198.372 203.26C198.372 204.913 198.773 206.051 199.853 206.051C200.914 206.051 201.315 204.932 201.315 203.26C201.315 201.587 200.914 200.478 199.853 200.478C198.773 200.478 198.372 201.606 198.372 203.26ZM203.548 206.681V199.848H204.6L206.912 205.458H206.932V199.848H207.792V206.681H206.74L204.418 201.071H204.399L204.408 206.681H203.548ZM209.375 206.681V199.848H210.426L212.739 205.458H212.758V199.848H213.618V206.681H212.567L210.244 201.071H210.225L210.235 206.681H209.375ZM215.353 206.681V199.848H219.53V200.612H216.213V202.763H219.128V203.527H216.213V205.917H219.625V206.681H215.353ZM223.263 206.815C221.791 206.815 220.969 205.324 220.969 203.26C220.969 201.224 221.791 199.714 223.282 199.714C224.563 199.714 225.261 200.765 225.385 202.103H224.486C224.353 201.214 224.075 200.478 223.253 200.478C222.164 200.478 221.868 201.893 221.868 203.26C221.868 204.636 222.164 206.051 223.263 206.051C224.2 206.051 224.429 205.057 224.486 204.215H225.385C225.28 205.726 224.572 206.815 223.263 206.815ZM228.545 206.681V200.612H226.538V199.848H231.412V200.612H229.405V206.681H228.545ZM232.737 206.681V205.917H234.362V200.612H232.737V199.848H236.866V200.612H235.222V205.917H236.866V206.681H232.737ZM240.637 206.815C239.166 206.815 238.258 205.496 238.258 203.26C238.258 201.023 239.166 199.714 240.637 199.714C242.1 199.714 242.998 201.023 242.998 203.26C242.998 205.496 242.1 206.815 240.637 206.815ZM239.156 203.26C239.156 204.913 239.557 206.051 240.637 206.051C241.698 206.051 242.1 204.932 242.1 203.26C242.1 201.587 241.698 200.478 240.637 200.478C239.557 200.478 239.156 201.606 239.156 203.26ZM244.333 206.681V199.848H245.384L247.697 205.458H247.716V199.848H248.576V206.681H247.525L245.202 201.071H245.183L245.193 206.681H244.333ZM252.491 206.815C251.01 206.815 249.958 205.917 249.891 204.387H250.79C250.857 205.305 251.296 206.07 252.462 206.07C253.428 206.07 253.734 205.525 253.734 204.818C253.734 203.852 253.16 203.738 252.042 203.413C251.153 203.155 250.13 202.83 250.13 201.52C250.13 200.431 250.895 199.714 252.166 199.714C253.542 199.714 254.374 200.545 254.46 201.874H253.562C253.456 200.956 253.055 200.459 252.176 200.459C251.421 200.459 251.029 200.823 251.029 201.482C251.029 202.304 251.631 202.495 252.434 202.715C253.562 203.03 254.632 203.346 254.632 204.789C254.632 205.917 253.953 206.815 252.491 206.815Z" fill="#141414"></path>
<path d="M178.883 214.945H194.563L226.724 218.828H261.444L287.045 210.465" stroke="#48008C" stroke-width="1.19469"></path>
</g>
<path d="M286.128 182.19H179.801V227.589H286.128V182.19Z" stroke="#E2E2E2" stroke-width="1.19469"></path>
<path d="M502.964 25.0889H25.0879V228.186H502.964V25.0889Z" fill="white"></path>
<path d="M502.964 25.0889H25.0879V228.186H502.964V25.0889Z" stroke="#E2E2E2" stroke-width="1.19469"></path>
<path d="M149.186 63.319L145.154 59.2869L145.787 58.6534L149.186 62.0516L155.273 55.9653L155.907 56.5989L149.186 63.319Z" fill="#009E7A"></path>
<path d="M162.598 64.5137H161.487L164.641 55.9717H165.848L169.026 64.5137H167.867L167.114 62.3752H163.351L162.598 64.5137ZM165.227 56.9633L163.709 61.4195H166.768L165.251 56.9633H165.227ZM172.138 64.5137H171.051L168.865 58.4208H169.916L171.612 63.558H171.624L173.297 58.4208H174.324L172.138 64.5137ZM176.714 64.681C175.483 64.681 174.707 63.9761 174.707 62.9487C174.707 61.5509 175.734 61.1686 177.311 60.8819C178.35 60.6907 178.828 60.5712 178.828 59.9739C178.828 59.496 178.565 59.0779 177.562 59.0779C176.403 59.0779 176.068 59.4243 176.009 60.3084H175.005C175.065 59.1376 175.806 58.2416 177.598 58.2416C178.733 58.2416 179.76 58.7195 179.76 60.2128V63.1398C179.76 63.6177 179.832 63.8566 180.071 63.8566C180.107 63.8566 180.142 63.8566 180.214 63.8447V64.5137C180.059 64.5496 179.915 64.5735 179.748 64.5735C179.222 64.5735 178.9 64.3704 178.84 63.6177H178.816C178.422 64.2748 177.729 64.681 176.714 64.681ZM176.809 63.8447C177.956 63.8447 178.828 63.331 178.828 62.1602V61.1925C178.649 61.3836 178.052 61.5389 177.395 61.6704C176.212 61.9093 175.71 62.196 175.71 62.9009C175.71 63.4982 176.021 63.8447 176.809 63.8447ZM182.43 57.2381H181.283V56.0912H182.43V57.2381ZM182.335 64.5137H181.379V58.4208H182.335V64.5137ZM184.799 64.5137H183.844V55.9717H184.799V64.5137ZM187.993 64.681C186.762 64.681 185.986 63.9761 185.986 62.9487C185.986 61.5509 187.013 61.1686 188.59 60.8819C189.629 60.6907 190.107 60.5712 190.107 59.9739C190.107 59.496 189.844 59.0779 188.841 59.0779C187.682 59.0779 187.348 59.4243 187.288 60.3084H186.284C186.344 59.1376 187.085 58.2416 188.877 58.2416C190.012 58.2416 191.039 58.7195 191.039 60.2128V63.1398C191.039 63.6177 191.111 63.8566 191.35 63.8566C191.386 63.8566 191.421 63.8566 191.493 63.8447V64.5137C191.338 64.5496 191.194 64.5735 191.027 64.5735C190.502 64.5735 190.179 64.3704 190.119 63.6177H190.095C189.701 64.2748 189.008 64.681 187.993 64.681ZM188.088 63.8447C189.235 63.8447 190.107 63.331 190.107 62.1602V61.1925C189.928 61.3836 189.331 61.5389 188.674 61.6704C187.491 61.9093 186.989 62.196 186.989 62.9009C186.989 63.4982 187.3 63.8447 188.088 63.8447ZM195.548 58.2535C197.077 58.2535 198.296 59.4602 198.296 61.4673C198.296 63.4743 197.077 64.681 195.548 64.681C194.568 64.681 193.995 64.2509 193.636 63.7252H193.613V64.5137H192.657V55.9717H193.613V59.1735H193.636C193.995 58.7075 194.568 58.2535 195.548 58.2535ZM195.452 63.8447C196.707 63.8447 197.292 62.6619 197.292 61.4673C197.292 60.2726 196.707 59.0898 195.452 59.0898C194.317 59.0898 193.613 60.0336 193.613 61.4673C193.613 62.9009 194.317 63.8447 195.452 63.8447ZM200.429 64.5137H199.474V55.9717H200.429V64.5137ZM207.398 61.2403C207.398 61.4195 207.398 61.6226 207.386 61.7181H202.619C202.643 62.7934 203.241 63.8686 204.591 63.8686C205.785 63.8686 206.239 63.0681 206.347 62.6381H207.314C207.004 63.773 206.144 64.6929 204.579 64.6929C202.655 64.6929 201.616 63.3071 201.616 61.4553C201.616 59.508 202.775 58.2416 204.579 58.2416C206.359 58.2416 207.398 59.4602 207.398 61.2403ZM202.619 60.8819H206.383C206.383 59.8783 205.666 59.0659 204.531 59.0659C203.479 59.0659 202.679 59.8186 202.619 60.8819Z" fill="#009E7A"></path>
<path d="M78.5941 64.7477C76.8714 64.7477 75.7842 63.7609 75.7842 62.3225C75.7842 60.3656 77.2226 59.8303 79.4304 59.4289C80.8855 59.1613 81.5545 58.9941 81.5545 58.1578C81.5545 57.4888 81.1866 56.9034 79.7816 56.9034C78.1592 56.9034 77.6909 57.3884 77.6073 58.6261H76.2023C76.286 56.987 77.3229 55.7326 79.8318 55.7326C81.4207 55.7326 82.8591 56.4016 82.8591 58.4923V62.5901C82.8591 63.2591 82.9595 63.5936 83.294 63.5936C83.3442 63.5936 83.3944 63.5936 83.4947 63.5769V64.5135C83.2773 64.5637 83.0766 64.5972 82.8424 64.5972C82.1065 64.5972 81.6549 64.3128 81.5713 63.2591H81.5378C80.9859 64.179 80.0158 64.7477 78.5941 64.7477ZM78.7279 63.5769C80.3336 63.5769 81.5545 62.8577 81.5545 61.2186V59.8638C81.3037 60.1314 80.4674 60.3488 79.5475 60.5328C77.8916 60.8673 77.1891 61.2688 77.1891 62.2556C77.1891 63.0919 77.624 63.5769 78.7279 63.5769ZM89.1728 55.7493C91.3137 55.7493 93.0197 57.4386 93.0197 60.2485C93.0197 63.0584 91.3137 64.7477 89.1728 64.7477C87.8013 64.7477 86.9985 64.1456 86.4967 63.4096H86.4633V67.474H85.1252V55.9834H86.4633V57.0372H86.4967C86.9985 56.3849 87.8013 55.7493 89.1728 55.7493ZM89.039 63.5769C90.7952 63.5769 91.6148 61.9211 91.6148 60.2485C91.6148 58.5759 90.7952 56.9201 89.039 56.9201C87.4501 56.9201 86.4633 58.2414 86.4633 60.2485C86.4633 62.2556 87.4501 63.5769 89.039 63.5769ZM98.7155 55.7493C100.856 55.7493 102.562 57.4386 102.562 60.2485C102.562 63.0584 100.856 64.7477 98.7155 64.7477C97.344 64.7477 96.5412 64.1456 96.0394 63.4096H96.006V67.474H94.6679V55.9834H96.006V57.0372H96.0394C96.5412 56.3849 97.344 55.7493 98.7155 55.7493ZM98.5817 63.5769C100.338 63.5769 101.157 61.9211 101.157 60.2485C101.157 58.5759 100.338 56.9201 98.5817 56.9201C96.9928 56.9201 96.006 58.2414 96.006 60.2485C96.006 62.2556 96.9928 63.5769 98.5817 63.5769ZM108.426 60.9175H103.943V59.5795H108.426V60.9175ZM116.363 57.0873V52.5547H117.701V64.5135H116.363V63.4598H116.33C115.828 64.1121 115.025 64.7477 113.653 64.7477C111.513 64.7477 109.807 63.0584 109.807 60.2485C109.807 57.4386 111.513 55.7493 113.653 55.7493C115.025 55.7493 115.828 56.3514 116.33 57.0873H116.363ZM113.787 63.5769C115.376 63.5769 116.363 62.2556 116.363 60.2485C116.363 58.2414 115.376 56.9201 113.787 56.9201C112.031 56.9201 111.212 58.5759 111.212 60.2485C111.212 61.9211 112.031 63.5769 113.787 63.5769ZM123.849 55.7493C125.99 55.7493 127.696 57.4386 127.696 60.2485C127.696 63.0584 125.99 64.7477 123.849 64.7477C122.477 64.7477 121.675 64.1456 121.173 63.4096H121.139V64.5135H119.801V52.5547H121.139V57.0372H121.173C121.675 56.3849 122.477 55.7493 123.849 55.7493ZM123.715 63.5769C125.471 63.5769 126.291 61.9211 126.291 60.2485C126.291 58.5759 125.471 56.9201 123.715 56.9201C122.126 56.9201 121.139 58.2414 121.139 60.2485C121.139 62.2556 122.126 63.5769 123.715 63.5769Z" fill="#0D0D0D"></path>
<path d="M49.6514 86.0177C49.6514 84.8708 50.3013 83.9437 51.5342 83.1696C52.6238 82.491 53.1876 82.2138 53.1876 81.2676C53.1876 80.7229 52.9583 80.0443 52.0599 80.0443C51.0468 80.0443 50.7123 80.8184 50.7123 81.7264H49.8138C49.8138 80.3597 50.5402 79.2797 52.0885 79.2797C53.1876 79.2797 54.0861 79.9965 54.0861 81.2581C54.0861 82.5006 53.1877 83.0931 52.2319 83.7048C51.3526 84.2687 50.9034 84.6128 50.7505 85.234V85.2531H54.0192V86.0177H49.6514ZM57.7333 86.1515C56.2901 86.1515 55.516 85.1767 55.4778 84.1158H56.3762C56.4335 84.7561 56.7871 85.3869 57.6951 85.3869C58.5075 85.3869 59.0427 84.8135 59.0427 83.7622C59.0427 82.7682 58.5362 82.3476 57.762 82.3476C57.2268 82.3476 56.7585 82.5388 56.4622 82.9689H55.5638L56.2137 79.4135H59.6353V80.1781H56.8923L56.5291 82.1756V82.1947C56.854 81.8124 57.3224 81.583 57.9818 81.583C59.1478 81.583 59.9411 82.5388 59.9411 83.7622C59.9411 85.1862 58.9854 86.1515 57.7333 86.1515ZM63.5883 86.1515C61.887 86.1515 61.2562 84.8135 61.2562 82.7204C61.2562 80.6082 62.1068 79.2797 63.6169 79.2797C64.7544 79.2797 65.4902 80.1207 65.5858 81.086H64.7066C64.6397 80.4744 64.3148 80.0443 63.6169 80.0443C62.4127 80.0443 62.1164 81.325 62.1164 82.577V82.6726L62.1355 82.6822C62.4509 82.0418 63.0532 81.7073 63.7412 81.7073C64.9264 81.7073 65.7484 82.5866 65.7484 83.8864C65.7484 85.1098 64.9264 86.1515 63.5883 86.1515ZM62.2215 83.9629C62.2215 84.8135 62.709 85.3869 63.5788 85.3869C64.4102 85.3869 64.8499 84.8326 64.8499 83.9437C64.8499 82.9976 64.3721 82.4719 63.6457 82.4719C62.7854 82.4719 62.2215 83.0645 62.2215 83.9629ZM75.0977 86.1515C73.6354 86.1515 72.8421 84.651 72.8421 82.6439C72.8421 80.5604 73.6927 79.0503 75.241 79.0503C76.4166 79.0503 77.1621 79.9296 77.315 81.2485H76.4262C76.3115 80.2641 75.8336 79.8149 75.2219 79.8149C74.1132 79.8149 73.7309 81.3154 73.7309 82.6439C73.7309 83.8768 74.0559 85.3869 75.155 85.3869C75.9961 85.3869 76.5122 84.5554 76.5217 83.2269H75.1741V82.4623H77.3915V86.0177H76.8085L76.6269 85.0524H76.6078C76.2732 85.817 75.7858 86.1515 75.0977 86.1515ZM78.917 86.0177V79.1841H81.2777C82.4246 79.1841 83.1127 79.8436 83.1127 80.9045C83.1127 81.736 82.7018 82.1278 82.2334 82.319V82.3381C82.8356 82.4719 83.3326 83.0358 83.3326 84.0298C83.3326 85.2914 82.5775 86.0177 81.421 86.0177H78.917ZM79.7771 85.2531H81.3541C82.1856 85.2531 82.4341 84.6797 82.4341 84.0298C82.4341 83.2938 82.0614 82.8064 81.4784 82.8064H79.7771V85.2531ZM79.7771 82.0418H81.2586C81.9563 82.0418 82.2143 81.6213 82.2143 81C82.2143 80.3692 81.8989 79.9487 81.3159 79.9487H79.7771V82.0418ZM90.627 86.0177V79.1841H92.9781C94.2302 79.1841 94.9087 79.8914 94.9087 81.153C94.9087 82.0036 94.4691 82.6535 93.8479 82.8255V82.8446C95.1572 83.1409 94.6794 85.8457 94.9852 85.9604V86.0177H94.0677C93.8096 85.731 94.3544 83.2556 92.959 83.2556H91.4871V86.0177H90.627ZM91.4871 82.491H92.8061C93.5994 82.491 94.0486 82.0322 94.0486 81.1721C94.0486 80.3788 93.6949 79.9487 92.8252 79.9487H91.4871V82.491ZM95.8799 86.0177L97.9826 79.1841H98.9288L101.041 86.0177H100.114L99.6456 84.3069H97.2466L96.7783 86.0177H95.8799ZM97.5047 83.5423H99.3875L98.47 79.9774H98.4318L97.5047 83.5423ZM102.012 86.0177V79.1841H103.063L104.277 83.6283H104.296L105.51 79.1841H106.562V86.0177H105.701V80.5222H105.692L104.669 84.4885H103.905L102.882 80.5222H102.872V86.0177H102.012Z" fill="#858585"></path>
<path d="M134.369 86.1515C132.668 86.1515 132.037 84.8135 132.037 82.7204C132.037 80.6082 132.888 79.2797 134.398 79.2797C135.535 79.2797 136.271 80.1207 136.367 81.086H135.487C135.42 80.4744 135.096 80.0443 134.398 80.0443C133.194 80.0443 132.897 81.325 132.897 82.577V82.6726L132.916 82.6822C133.232 82.0418 133.834 81.7073 134.522 81.7073C135.707 81.7073 136.529 82.5866 136.529 83.8864C136.529 85.1098 135.707 86.1515 134.369 86.1515ZM133.002 83.9629C133.002 84.8135 133.49 85.3869 134.36 85.3869C135.191 85.3869 135.631 84.8326 135.631 83.9437C135.631 82.9976 135.153 82.4719 134.426 82.4719C133.566 82.4719 133.002 83.0645 133.002 83.9629ZM140.788 86.0177V84.4694H137.567V83.7048L140.788 79.4135H141.648V83.7048H142.595V84.4694H141.648V86.0177H140.788ZM138.447 83.7048H140.788V80.6082L138.447 83.7048ZM151.877 86.1515C150.405 86.1515 149.584 84.6606 149.584 82.5961C149.584 80.5604 150.405 79.0503 151.896 79.0503C153.177 79.0503 153.875 80.1016 153.999 81.4397H153.101C152.967 80.5508 152.69 79.8149 151.868 79.8149C150.778 79.8149 150.482 81.2294 150.482 82.5961C150.482 83.9724 150.778 85.3869 151.877 85.3869C152.814 85.3869 153.043 84.3929 153.101 83.5519H153.999C153.894 85.062 153.187 86.1515 151.877 86.1515ZM155.619 86.0177V79.1841H158.037C159.136 79.1841 159.977 79.7384 159.977 81.1721C159.977 82.6057 159.136 83.16 158.037 83.16H156.479V86.0177H155.619ZM156.479 82.3954H158.028C158.725 82.3954 159.079 82.0036 159.079 81.1721C159.079 80.331 158.725 79.9487 158.028 79.9487H156.479V82.3954ZM163.414 86.1515C161.914 86.1515 161.302 85.1384 161.302 83.743V79.1841H162.162V83.743C162.162 84.8613 162.573 85.3869 163.414 85.3869C164.246 85.3869 164.666 84.8613 164.666 83.743V79.1841H165.527V83.743C165.527 85.1289 164.915 86.1515 163.414 86.1515Z" fill="#858585"></path>
<path d="M58.5395 50.7744C55.3748 50.7744 51.9688 51.5223 51.9688 53.1638V63.916C51.9688 65.5575 55.3748 66.3054 58.5395 66.3054C61.7043 66.3054 65.1103 65.5575 65.1103 63.916V53.1638C65.1103 51.5223 61.7043 50.7744 58.5395 50.7744ZM58.5395 51.9691C62.0027 51.9691 63.7931 52.8257 63.9137 53.1638C63.7931 53.5018 62.0027 54.3585 58.5395 54.3585C55.0502 54.3585 53.2594 53.489 53.1634 53.1743V53.1714C53.2594 52.8386 55.0502 51.9691 58.5395 51.9691ZM53.1634 54.614C54.4346 55.2516 56.534 55.5532 58.5395 55.5532C60.5451 55.5532 62.6446 55.2516 63.9157 54.614V56.7402C63.8197 57.0731 62.0289 57.9426 58.5395 57.9426C55.045 57.9426 53.2535 57.0704 53.1634 56.7479V54.614ZM53.1634 58.1981C54.4346 58.8357 56.534 59.1372 58.5395 59.1372C60.5451 59.1372 62.6446 58.8357 63.9157 58.1981V60.3244C63.8197 60.6571 62.0289 61.5266 58.5395 61.5266C55.045 61.5266 53.2535 60.6545 53.1634 60.3319V58.1981ZM58.5395 65.1107C55.045 65.1107 53.2535 64.2386 53.1634 63.916V61.7822C54.4346 62.4198 56.534 62.7213 58.5395 62.7213C60.5451 62.7213 62.6446 62.4198 63.9157 61.7822V63.9085C63.8197 64.2412 62.0289 65.1107 58.5395 65.1107Z" fill="#0D0D0D"></path>
<mask id="mask6_334_8735" style="mask-type:luminance" maskUnits="userSpaceOnUse" x="48" y="111" width="211" height="64">
<path d="M258.053 111.106H48.9824V174.425H258.053V111.106Z" fill="white"></path>
</mask>
<g mask="url(#mask6_334_8735)">
<path d="M57.9385 127.832V120.999H58.9898L60.2036 125.443H60.2227L61.4365 120.999H62.4879V127.832H61.6277V122.337H61.6181L60.5955 126.303H59.8309L58.8082 122.337H58.7987V127.832H57.9385ZM64.0707 127.832V120.999H68.2473V121.763H64.9309V123.914H67.8459V124.678H64.9309V127.068H68.3429V127.832H64.0707ZM69.5911 127.832V120.999H70.6425L71.8564 125.443H71.8755L73.0893 120.999H74.1406V127.832H73.2803V122.337H73.2709L72.2481 126.303H71.4836L70.4609 122.337H70.4513V127.832H69.5911ZM77.7018 127.966C76.2299 127.966 75.3219 126.647 75.3219 124.411C75.3219 122.174 76.2299 120.865 77.7018 120.865C79.1641 120.865 80.0625 122.174 80.0625 124.411C80.0625 126.647 79.1641 127.966 77.7018 127.966ZM76.2203 124.411C76.2203 126.064 76.6218 127.201 77.7018 127.201C78.7626 127.201 79.1641 126.083 79.1641 124.411C79.1641 122.738 78.7626 121.629 77.7018 121.629C76.6218 121.629 76.2203 122.757 76.2203 124.411ZM81.5115 127.832V120.999H83.8627C85.1147 120.999 85.7933 121.706 85.7933 122.967C85.7933 123.818 85.3536 124.468 84.7324 124.64V124.659C86.0418 124.955 85.5639 127.66 85.8697 127.775V127.832H84.9522C84.6942 127.545 85.2389 125.07 83.8435 125.07H82.3717V127.832H81.5115ZM82.3717 124.305H83.6906C84.4839 124.305 84.9331 123.847 84.9331 122.987C84.9331 122.193 84.5795 121.763 83.7097 121.763H82.3717V124.305ZM88.9149 127.832V125.032L86.6689 120.999H87.6055L89.3354 124.372H89.3545L91.094 120.999H92.0211L89.7751 125.032V127.832H88.9149Z" fill="#858585"></path>
<path d="M48.3604 159.841L78.8498 165.524L105.606 156.73L141.385 152.942L179.03 156.73L232.542 152.942L259.92 154.565" stroke="#8A05FF" stroke-width="1.19469"></path>
</g>
<path d="M257.455 111.704H49.5791V173.828H257.455V111.704Z" stroke="#E2E2E2" stroke-width="1.19469"></path>
<mask id="mask7_334_8735" style="mask-type:luminance" maskUnits="userSpaceOnUse" x="270" y="111" width="210" height="64">
<path d="M479.071 111.106H270V174.425H479.071V111.106Z" fill="white"></path>
</mask>
<g mask="url(#mask7_334_8735)">
<path d="M281.346 127.966C279.874 127.966 279.052 126.475 279.052 124.411C279.052 122.375 279.874 120.865 281.365 120.865C282.645 120.865 283.343 121.916 283.467 123.254H282.569C282.435 122.365 282.158 121.629 281.336 121.629C280.246 121.629 279.95 123.044 279.95 124.411C279.95 125.787 280.246 127.201 281.346 127.201C282.282 127.201 282.512 126.207 282.569 125.366H283.467C283.362 126.876 282.655 127.966 281.346 127.966ZM285.089 127.832V120.999H287.507C288.606 120.999 289.447 121.553 289.447 122.987C289.447 124.42 288.606 124.974 287.507 124.974H285.949V127.832H285.089ZM285.949 124.21H287.497C288.195 124.21 288.548 123.818 288.548 122.987C288.548 122.145 288.195 121.763 287.497 121.763H285.949V124.21ZM292.884 127.966C291.383 127.966 290.772 126.953 290.772 125.557V120.999H291.632V125.557C291.632 126.676 292.043 127.201 292.884 127.201C293.715 127.201 294.136 126.676 294.136 125.557V120.999H294.996V125.557C294.996 126.943 294.384 127.966 292.884 127.966Z" fill="#858585"></path>
<path d="M191.599 175.401L290.845 159.978L333.468 167.148L382.002 162.277L438.314 152.401L479.382 159.978" stroke="#E615F2" stroke-width="1.19469"></path>
</g>
<path d="M478.473 111.704H270.597V173.828H478.473V111.704Z" stroke="#E2E2E2" stroke-width="1.19469"></path>
<mask id="mask8_334_8735" style="mask-type:luminance" maskUnits="userSpaceOnUse" x="48" y="186" width="211" height="64">
<path d="M258.053 186.372H48.9824V249.691H258.053V186.372Z" fill="white"></path>
</mask>
<g mask="url(#mask8_334_8735)">
<path d="M60.4229 203.231C58.9415 203.231 57.8901 202.333 57.8232 200.804H58.7216C58.7886 201.721 59.2282 202.486 60.3942 202.486C61.3595 202.486 61.6654 201.941 61.6654 201.234C61.6654 200.268 61.0919 200.154 59.9737 199.829C59.0848 199.571 58.0622 199.246 58.0622 197.936C58.0622 196.847 58.8268 196.13 60.0979 196.13C61.4742 196.13 62.3057 196.961 62.3917 198.29H61.4933C61.3882 197.372 60.9868 196.875 60.1075 196.875C59.3524 196.875 58.9606 197.239 58.9606 197.898C58.9606 198.72 59.5627 198.911 60.3655 199.131C61.4933 199.446 62.5638 199.762 62.5638 201.205C62.5638 202.333 61.8852 203.231 60.4229 203.231ZM65.6089 203.097V197.028H63.6018V196.264H68.4762V197.028H66.4691V203.097H65.6089ZM71.8749 203.231C70.403 203.231 69.495 201.912 69.495 199.676C69.495 197.439 70.403 196.13 71.8749 196.13C73.3372 196.13 74.2357 197.439 74.2357 199.676C74.2357 201.912 73.3372 203.231 71.8749 203.231ZM70.3934 199.676C70.3934 201.329 70.7948 202.467 71.8749 202.467C72.9358 202.467 73.3372 201.348 73.3372 199.676C73.3372 198.003 72.9358 196.894 71.8749 196.894C70.7948 196.894 70.3934 198.022 70.3934 199.676ZM75.6846 203.097V196.264H78.0357C79.2878 196.264 79.9663 196.971 79.9663 198.233C79.9663 199.083 79.5267 199.733 78.9055 199.905V199.924C80.2148 200.22 79.737 202.925 80.0428 203.04V203.097H79.1253C78.8672 202.811 79.412 200.335 78.0166 200.335H76.5448V203.097H75.6846ZM76.5448 199.571H77.8637C78.657 199.571 79.1062 199.112 79.1062 198.252C79.1062 197.458 78.7525 197.028 77.8828 197.028H76.5448V199.571ZM80.9375 203.097L83.0402 196.264H83.9864L86.0986 203.097H85.1715L84.7032 201.387H82.3042L81.8359 203.097H80.9375ZM82.5623 200.622H84.4451L83.5276 197.057H83.4894L82.5623 200.622ZM89.2871 203.231C87.8248 203.231 87.0315 201.731 87.0315 199.724C87.0315 197.64 87.8821 196.13 89.4304 196.13C90.606 196.13 91.3515 197.009 91.5044 198.328H90.6156C90.5009 197.344 90.023 196.894 89.4113 196.894C88.3027 196.894 87.9204 198.395 87.9204 199.724C87.9204 200.956 88.2453 202.467 89.3444 202.467C90.1855 202.467 90.7016 201.635 90.7111 200.307H89.3635V199.542H91.5809V203.097H90.9979L90.8163 202.132H90.7972C90.4627 202.897 89.9752 203.231 89.2871 203.231ZM93.2018 203.097V196.264H97.3785V197.028H94.062V199.179H96.9771V199.943H94.062V202.333H97.4741V203.097H93.2018Z" fill="#858585"></path>
</g>
<path d="M257.455 186.969H49.5791V249.093H257.455V186.969Z" stroke="#E2E2E2" stroke-width="1.19469"></path>
<mask id="mask9_334_8735" style="mask-type:luminance" maskUnits="userSpaceOnUse" x="270" y="186" width="210" height="64">
<path d="M479.071 186.372H270V249.691H479.071V186.372Z" fill="white"></path>
</mask>
<g mask="url(#mask9_334_8735)">
<path d="M281.345 203.231C279.873 203.231 279.051 201.74 279.051 199.676C279.051 197.64 279.873 196.13 281.364 196.13C282.644 196.13 283.342 197.181 283.466 198.519H282.568C282.434 197.63 282.157 196.894 281.335 196.894C280.245 196.894 279.949 198.309 279.949 199.676C279.949 201.052 280.245 202.467 281.345 202.467C282.281 202.467 282.511 201.473 282.568 200.631H283.466C283.361 202.142 282.654 203.231 281.345 203.231ZM287.066 203.231C285.594 203.231 284.686 201.912 284.686 199.676C284.686 197.439 285.594 196.13 287.066 196.13C288.528 196.13 289.427 197.439 289.427 199.676C289.427 201.912 288.528 203.231 287.066 203.231ZM285.585 199.676C285.585 201.329 285.986 202.467 287.066 202.467C288.127 202.467 288.528 201.348 288.528 199.676C288.528 198.003 288.127 196.894 287.066 196.894C285.986 196.894 285.585 198.022 285.585 199.676ZM290.761 203.097V196.264H291.812L294.125 201.874H294.145V196.264H295.005V203.097H293.953L291.631 197.487H291.612L291.621 203.097H290.761ZM296.588 203.097V196.264H297.639L299.952 201.874H299.971V196.264H300.831V203.097H299.78L297.457 197.487H297.438L297.448 203.097H296.588ZM302.566 203.097V196.264H306.743V197.028H303.426V199.179H306.341V199.943H303.426V202.333H306.838V203.097H302.566ZM310.476 203.231C309.004 203.231 308.182 201.74 308.182 199.676C308.182 197.64 309.004 196.13 310.495 196.13C311.776 196.13 312.473 197.181 312.598 198.519H311.699C311.565 197.63 311.288 196.894 310.466 196.894C309.377 196.894 309.081 198.309 309.081 199.676C309.081 201.052 309.377 202.467 310.476 202.467C311.413 202.467 311.642 201.473 311.699 200.631H312.598C312.493 202.142 311.785 203.231 310.476 203.231ZM315.758 203.097V197.028H313.751V196.264H318.625V197.028H316.618V203.097H315.758ZM319.95 203.097V202.333H321.575V197.028H319.95V196.264H324.079V197.028H322.435V202.333H324.079V203.097H319.95ZM327.85 203.231C326.378 203.231 325.47 201.912 325.47 199.676C325.47 197.439 326.378 196.13 327.85 196.13C329.313 196.13 330.211 197.439 330.211 199.676C330.211 201.912 329.313 203.231 327.85 203.231ZM326.369 199.676C326.369 201.329 326.77 202.467 327.85 202.467C328.911 202.467 329.313 201.348 329.313 199.676C329.313 198.003 328.911 196.894 327.85 196.894C326.77 196.894 326.369 198.022 326.369 199.676ZM331.545 203.097V196.264H332.597L334.91 201.874H334.929V196.264H335.789V203.097H334.738L332.415 197.487H332.396L332.406 203.097H331.545ZM339.704 203.231C338.223 203.231 337.171 202.333 337.104 200.804H338.003C338.07 201.721 338.509 202.486 339.675 202.486C340.641 202.486 340.946 201.941 340.946 201.234C340.946 200.268 340.373 200.154 339.255 199.829C338.366 199.571 337.343 199.246 337.343 197.936C337.343 196.847 338.108 196.13 339.379 196.13C340.755 196.13 341.587 196.961 341.673 198.29H340.774C340.669 197.372 340.268 196.875 339.389 196.875C338.634 196.875 338.242 197.239 338.242 197.898C338.242 198.72 338.844 198.911 339.647 199.131C340.774 199.446 341.845 199.762 341.845 201.205C341.845 202.333 341.166 203.231 339.704 203.231Z" fill="#858585"></path>
</g>
<path d="M478.473 186.969H270.597V249.093H478.473V186.969Z" stroke="#E2E2E2" stroke-width="1.19469"></path>
</g>
<path d="M538.805 1.19482H1.19434V216.239H538.805V1.19482Z" stroke="#E2E2E2" stroke-width="1.19469"></path>
</g>
<defs>
<clipPath id="clip0_334_8735">
<rect width="540" height="216.239" fill="white"></rect>
</clipPath>
</defs>
</svg>
